<?xml version="1.0" encoding="UTF-8" standalone="no"?>
<svg
   xmlns:dc="http://purl.org/dc/elements/1.1/"
   xmlns:cc="http://creativecommons.org/ns#"
   xmlns:rdf="http://www.w3.org/1999/02/22-rdf-syntax-ns#"
   xmlns:svg="http://www.w3.org/2000/svg"
   xmlns="http://www.w3.org/2000/svg"
   version="1.1"
   id="svg2"
   xml:space="preserve"
   width="275.97501"
   height="106.44687"
   viewBox="0 0 275.97501 106.44687"><metadata
     id="metadata8"><rdf:RDF><cc:Work
         rdf:about=""><dc:format>image/svg+xml</dc:format><dc:type
           rdf:resource="http://purl.org/dc/dcmitype/StillImage" /><dc:title></dc:title></cc:Work></rdf:RDF></metadata><defs
     id="defs6"><clipPath
       clipPathUnits="userSpaceOnUse"
       id="clipPath1322"><path
         d="M 0,0 H 288 V 120 H 0 Z"
         id="path1320" /></clipPath></defs><g
     id="g10"
     transform="matrix(1.3333333,0,0,-1.3333333,-356.36499,201.15753)"><g
       clip-path="url(#clipPath1322)"
       id="g1410"
       transform="matrix(0.75,0,0,0.75,263.955,65.333)"><g
         id="g1408"><g
           transform="matrix(1,0,0,-1,0,120)"
           id="g1326"><path
             d="m 232,16 h 48 v 16 h -48 z"
             style="fill:none;stroke:#000000;stroke-width:0.8;stroke-linecap:round;stroke-linejoin:round;stroke-miterlimit:4;stroke-dasharray:none;stroke-opacity:1"
             id="path1324" /></g><text
           transform="matrix(1,0,0,-1,40.878125,92.690623)"
           style="font-variant:normal;font-weight:normal;font-size:12.8px;font-family:'Liberation Sans';-inkscape-font-specification:LiberationSans;writing-mode:lr-tb;fill:#000000;fill-opacity:1;fill-rule:nonzero;stroke:none"
           id="text1330"><tspan
             x="0 7.1167998 45.580799 49.855999 86.822403 91.097603 125.4016 129.6768 164.5824 170.98241 203.10001 206.6456 213.76241 220.87921"
             y="0"
             id="tspan1328">oprsrtrdshfunc</tspan></text><g
           transform="matrix(1,0,0,-1,0,120)"
           id="g1334"><path
             d="M 24,16 H 72 V 32 H 24 Z"
             style="fill:none;stroke:#000000;stroke-width:0.8;stroke-linecap:round;stroke-linejoin:round;stroke-miterlimit:4;stroke-dasharray:none;stroke-opacity:1"
             id="path1332" /></g><g
           transform="matrix(1,0,0,-1,0,120)"
           id="g1338"><path
             d="m 192,16 h 40 v 16 h -40 z"
             style="fill:none;stroke:#000000;stroke-width:0.8;stroke-linecap:round;stroke-linejoin:round;stroke-miterlimit:4;stroke-dasharray:none;stroke-opacity:1"
             id="path1336" /></g><g
           transform="matrix(1,0,0,-1,0,120)"
           id="g1342"><path
             d="m 152,16 h 40 v 16 h -40 z"
             style="fill:none;stroke:#000000;stroke-width:0.8;stroke-linecap:round;stroke-linejoin:round;stroke-miterlimit:4;stroke-dasharray:none;stroke-opacity:1"
             id="path1340" /></g><g
           transform="matrix(1,0,0,-1,0,120)"
           id="g1346"><path
             d="m 112,16 h 40 v 16 h -40 z"
             style="fill:none;stroke:#000000;stroke-width:0.8;stroke-linecap:round;stroke-linejoin:round;stroke-miterlimit:4;stroke-dasharray:none;stroke-opacity:1"
             id="path1344" /></g><g
           transform="matrix(1,0,0,-1,0,120)"
           id="g1350"><path
             d="m 72,16 h 40 V 32 H 72 Z"
             style="fill:none;stroke:#000000;stroke-width:0.8;stroke-linecap:round;stroke-linejoin:round;stroke-miterlimit:4;stroke-dasharray:none;stroke-opacity:1"
             id="path1348" /></g><text
           transform="matrix(1,0,0,-1,3.375,91.596873)"
           style="font-variant:normal;font-weight:normal;font-size:12.8px;font-family:'Liberation Sans';-inkscape-font-specification:LiberationSans;writing-mode:lr-tb;fill:#000000;fill-opacity:1;fill-rule:nonzero;stroke:none"
           id="text1354"><tspan
             x="0"
             y="0"
             id="tspan1352">R</tspan></text><text
           transform="matrix(1,0,0,-1,36.528125,107.09062)"
           style="font-variant:normal;font-weight:normal;font-size:9.6px;font-family:'Liberation Sans';-inkscape-font-specification:LiberationSans;writing-mode:lr-tb;fill:#000000;fill-opacity:1;fill-rule:nonzero;stroke:none"
           id="text1358"><tspan
             x="0 5.3376002 7.9967999 13.3344 15.4752 18.1248 43.785599 49.123199 51.782398 57.119999 59.260799 61.9104 83.577599 88.915199 91.574402 96.912003 99.052803 101.7024 123.9264 129.26401 131.9232 137.2608 139.4016 142.05119 164.16 169.4976 172.1568 177.4944 179.63519 182.28481 207.9744 213.312 215.97121 221.30881 223.4496 226.0992"
             y="0"
             id="tspan1356">6 bits5 bits5 bits5 bits5 bits6 bits</tspan></text><text
           transform="matrix(1,0,0,-1,40.878125,12.690623)"
           style="font-variant:normal;font-weight:normal;font-size:12.8px;font-family:'Liberation Sans';-inkscape-font-specification:LiberationSans;writing-mode:lr-tb;fill:#000000;fill-opacity:1;fill-rule:nonzero;stroke:none"
           id="text1362"><tspan
             x="0 7.1167998 122.2528 129.3696 136.49921 143.616"
             y="0"
             id="tspan1360">opaddr</tspan></text><g
           transform="matrix(1,0,0,-1,0,120)"
           id="g1366"><path
             d="m 24,96 h 48 v 16 H 24 Z"
             style="fill:none;stroke:#000000;stroke-width:0.8;stroke-linecap:round;stroke-linejoin:round;stroke-miterlimit:4;stroke-dasharray:none;stroke-opacity:1"
             id="path1364" /></g><g
           transform="matrix(1,0,0,-1,0,120)"
           id="g1370"><path
             d="m 72,96 h 208 v 16 H 72 Z"
             style="fill:none;stroke:#000000;stroke-width:0.8;stroke-linecap:round;stroke-linejoin:round;stroke-miterlimit:4;stroke-dasharray:none;stroke-opacity:1"
             id="path1368" /></g><text
           transform="matrix(1,0,0,-1,4.8,11.659373)"
           style="font-variant:normal;font-weight:normal;font-size:12.8px;font-family:'Liberation Sans';-inkscape-font-specification:LiberationSans;writing-mode:lr-tb;fill:#000000;fill-opacity:1;fill-rule:nonzero;stroke:none"
           id="text1374"><tspan
             x="0"
             y="0"
             id="tspan1372">J</tspan></text><text
           transform="matrix(1,0,0,-1,36.528125,27.090623)"
           style="font-variant:normal;font-weight:normal;font-size:9.6px;font-family:'Liberation Sans';-inkscape-font-specification:LiberationSans;writing-mode:lr-tb;fill:#000000;fill-opacity:1;fill-rule:nonzero;stroke:none"
           id="text1378"><tspan
             x="0 5.3376002 7.9967999 13.3344 15.4656 18.1248 125.25703 130.59462 135.94183 138.59143 143.93863 146.06982 148.72903"
             y="0"
             id="tspan1376">6 bits26 bits</tspan></text><g
           transform="matrix(1,0,0,-1,0,120)"
           id="g1382"><path
             d="M 152,56 H 280 V 72 H 152 Z"
             style="fill:none;stroke:#000000;stroke-width:0.8;stroke-linecap:round;stroke-linejoin:round;stroke-miterlimit:4;stroke-dasharray:none;stroke-opacity:1"
             id="path1380" /></g><text
           transform="matrix(1,0,0,-1,40.878125,52.690623)"
           style="font-variant:normal;font-weight:normal;font-size:12.8px;font-family:'Liberation Sans';-inkscape-font-specification:LiberationSans;writing-mode:lr-tb;fill:#000000;fill-opacity:1;fill-rule:nonzero;stroke:none"
           id="text1386"><tspan
             x="0 7.1167998 45.580799 49.855999 86.822403 91.097603 163.02188 165.86348 176.53868"
             y="0"
             id="tspan1384">oprsrtimm</tspan></text><g
           transform="matrix(1,0,0,-1,0,120)"
           id="g1390"><path
             d="M 24,56 H 72 V 72 H 24 Z"
             style="fill:none;stroke:#000000;stroke-width:0.8;stroke-linecap:round;stroke-linejoin:round;stroke-miterlimit:4;stroke-dasharray:none;stroke-opacity:1"
             id="path1388" /></g><g
           transform="matrix(1,0,0,-1,0,120)"
           id="g1394"><path
             d="m 112,56 h 40 v 16 h -40 z"
             style="fill:none;stroke:#000000;stroke-width:0.8;stroke-linecap:round;stroke-linejoin:round;stroke-miterlimit:4;stroke-dasharray:none;stroke-opacity:1"
             id="path1392" /></g><g
           transform="matrix(1,0,0,-1,0,120)"
           id="g1398"><path
             d="m 72,56 h 40 V 72 H 72 Z"
             style="fill:none;stroke:#000000;stroke-width:0.8;stroke-linecap:round;stroke-linejoin:round;stroke-miterlimit:4;stroke-dasharray:none;stroke-opacity:1"
             id="path1396" /></g><text
           transform="matrix(1,0,0,-1,6.225,51.596873)"
           style="font-variant:normal;font-weight:normal;font-size:12.8px;font-family:'Liberation Sans';-inkscape-font-specification:LiberationSans;writing-mode:lr-tb;fill:#000000;fill-opacity:1;fill-rule:nonzero;stroke:none"
           id="text1402"><tspan
             x="0"
             y="0"
             id="tspan1400">I</tspan></text><text
           transform="matrix(1,0,0,-1,36.528125,67.090623)"
           style="font-variant:normal;font-weight:normal;font-size:9.6px;font-family:'Liberation Sans';-inkscape-font-specification:LiberationSans;writing-mode:lr-tb;fill:#000000;fill-opacity:1;fill-rule:nonzero;stroke:none"
           id="text1406"><tspan
             x="0 5.3376002 7.9967999 13.3344 15.4752 18.1248 43.785599 49.123199 51.782398 57.119999 59.260799 61.9104 83.577599 88.915199 91.574402 96.912003 99.052803 101.7024 165.13281 170.47041 175.81761 178.46721 183.81442 185.94562 188.60481"
             y="0"
             id="tspan1404">6 bits5 bits5 bits16 bits</tspan></text></g></g></g></svg>
