<?xml version="1.0" encoding="UTF-8" standalone="no"?>
<svg
   xmlns:dc="http://purl.org/dc/elements/1.1/"
   xmlns:cc="http://creativecommons.org/ns#"
   xmlns:rdf="http://www.w3.org/1999/02/22-rdf-syntax-ns#"
   xmlns:svg="http://www.w3.org/2000/svg"
   xmlns="http://www.w3.org/2000/svg"
   xmlns:sodipodi="http://sodipodi.sourceforge.net/DTD/sodipodi-0.dtd"
   xmlns:inkscape="http://www.inkscape.org/namespaces/inkscape"
   version="1.1"
   id="svg2"
   xml:space="preserve"
   width="646.06671"
   height="302.20547"
   viewBox="0 0 646.06671 302.20547"
   sodipodi:docname="raid3.svg"
   inkscape:version="1.0.2 (1.0.2+r75+1)"><metadata
     id="metadata8"><rdf:RDF><cc:Work
         rdf:about=""><dc:format>image/svg+xml</dc:format><dc:type
           rdf:resource="http://purl.org/dc/dcmitype/StillImage" /><dc:title></dc:title></cc:Work></rdf:RDF></metadata><defs
     id="defs6"><clipPath
       clipPathUnits="userSpaceOnUse"
       id="clipPath18"><path
         d="M 0,1.2207e-4 H 720 V 540.00012 H 0 Z"
         clip-rule="evenodd"
         id="path16" /></clipPath><linearGradient
       x1="100.8"
       y1="615.59998"
       x2="619.20001"
       y2="-75.599998"
       gradientUnits="userSpaceOnUse"
       spreadMethod="pad"
       id="linearGradient24"><stop
         style="stop-opacity:1;stop-color:#ffffff"
         offset="0"
         id="stop20" /><stop
         style="stop-opacity:1;stop-color:#ffffff"
         offset="1"
         id="stop22" /></linearGradient><clipPath
       clipPathUnits="userSpaceOnUse"
       id="clipPath34"><path
         d="M 0,1.2207e-4 H 720 V 540.00012 H 0 Z"
         clip-rule="evenodd"
         id="path32" /></clipPath><clipPath
       clipPathUnits="userSpaceOnUse"
       id="clipPath44"><path
         d="M 1.0729e-5,0 H 720.00001 V 540 H 1.0729e-5 Z"
         clip-rule="evenodd"
         id="path42" /></clipPath><clipPath
       clipPathUnits="userSpaceOnUse"
       id="clipPath56"><path
         d="M 1.0729e-5,0 H 720.00001 V 540 H 1.0729e-5 Z"
         clip-rule="evenodd"
         id="path54" /></clipPath><clipPath
       clipPathUnits="userSpaceOnUse"
       id="clipPath68"><path
         d="M 0,3.0518e-4 H 720 V 540.00031 H 0 Z"
         clip-rule="evenodd"
         id="path66" /></clipPath><clipPath
       clipPathUnits="userSpaceOnUse"
       id="clipPath80"><path
         d="M 1.0729e-5,0 H 720.00001 V 540 H 1.0729e-5 Z"
         clip-rule="evenodd"
         id="path78" /></clipPath><clipPath
       clipPathUnits="userSpaceOnUse"
       id="clipPath98"><path
         d="M 0,540 H 720 V 0 L -3.0518e-5,6.1035e-5"
         clip-rule="evenodd"
         id="path96" /></clipPath><clipPath
       clipPathUnits="userSpaceOnUse"
       id="clipPath108"><path
         d="M -1.5259e-5,540 H 720 V 0 L -4.5776e-5,6.1035e-5"
         clip-rule="evenodd"
         id="path106" /></clipPath><clipPath
       clipPathUnits="userSpaceOnUse"
       id="clipPath124"><path
         d="M -6.1035e-5,540 H 720 V 0 L -6.1035e-5,6.1035e-5"
         clip-rule="evenodd"
         id="path122" /></clipPath><clipPath
       clipPathUnits="userSpaceOnUse"
       id="clipPath134"><path
         d="M -6.1035e-5,540 H 720 V 6.1035e-5 L -1.2207e-4,1.2207e-4"
         clip-rule="evenodd"
         id="path132" /></clipPath><clipPath
       clipPathUnits="userSpaceOnUse"
       id="clipPath150"><path
         d="M 0,540 H 720 V 0 L 0,6.1035e-5"
         clip-rule="evenodd"
         id="path148" /></clipPath><clipPath
       clipPathUnits="userSpaceOnUse"
       id="clipPath160"><path
         d="M 0,540 H 720 V 0 L -3.0518e-5,6.1035e-5"
         clip-rule="evenodd"
         id="path158" /></clipPath><clipPath
       clipPathUnits="userSpaceOnUse"
       id="clipPath176"><path
         d="M -3.0518e-5,540 H 720 V 0 H -3.0518e-5"
         clip-rule="evenodd"
         id="path174" /></clipPath><clipPath
       clipPathUnits="userSpaceOnUse"
       id="clipPath186"><path
         d="M 0,540 H 720 V 0 L 0,6.1035e-5"
         clip-rule="evenodd"
         id="path184" /></clipPath><clipPath
       clipPathUnits="userSpaceOnUse"
       id="clipPath202"><path
         d="M -3.0518e-5,540 H 720 V 0 L -3.0518e-5,6.1035e-5"
         clip-rule="evenodd"
         id="path200" /></clipPath><clipPath
       clipPathUnits="userSpaceOnUse"
       id="clipPath212"><path
         d="M -3.0518e-5,540 H 720 V 0 L -6.1035e-5,6.1035e-5"
         clip-rule="evenodd"
         id="path210" /></clipPath><clipPath
       clipPathUnits="userSpaceOnUse"
       id="clipPath222"><path
         d="M 1.0729e-5,0 H 720.00001 V 540 H 1.0729e-5 Z"
         clip-rule="evenodd"
         id="path220" /></clipPath><clipPath
       clipPathUnits="userSpaceOnUse"
       id="clipPath234"><path
         d="M 1.0729e-5,0 H 720.00001 V 540 H 1.0729e-5 Z"
         clip-rule="evenodd"
         id="path232" /></clipPath><clipPath
       clipPathUnits="userSpaceOnUse"
       id="clipPath246"><path
         d="M 1.0729e-5,0 H 720.00001 V 540 H 1.0729e-5 Z"
         clip-rule="evenodd"
         id="path244" /></clipPath><clipPath
       clipPathUnits="userSpaceOnUse"
       id="clipPath258"><path
         d="M 1.0729e-5,0 H 720.00001 V 540 H 1.0729e-5 Z"
         clip-rule="evenodd"
         id="path256" /></clipPath><clipPath
       clipPathUnits="userSpaceOnUse"
       id="clipPath270"><path
         d="M 1.0729e-5,0 H 720.00001 V 540 H 1.0729e-5 Z"
         clip-rule="evenodd"
         id="path268" /></clipPath><clipPath
       clipPathUnits="userSpaceOnUse"
       id="clipPath282"><path
         d="M 1.0729e-5,0 H 720.00001 V 540 H 1.0729e-5 Z"
         clip-rule="evenodd"
         id="path280" /></clipPath><clipPath
       clipPathUnits="userSpaceOnUse"
       id="clipPath294"><path
         d="M 1.0729e-5,0 H 720.00001 V 540 H 1.0729e-5 Z"
         clip-rule="evenodd"
         id="path292" /></clipPath><clipPath
       clipPathUnits="userSpaceOnUse"
       id="clipPath306"><path
         d="M 1.0729e-5,0 H 720.00001 V 540 H 1.0729e-5 Z"
         clip-rule="evenodd"
         id="path304" /></clipPath><clipPath
       clipPathUnits="userSpaceOnUse"
       id="clipPath318"><path
         d="M 1.0729e-5,0 H 720.00001 V 540 H 1.0729e-5 Z"
         clip-rule="evenodd"
         id="path316" /></clipPath><clipPath
       clipPathUnits="userSpaceOnUse"
       id="clipPath330"><path
         d="M 1.0729e-5,0 H 720.00001 V 540 H 1.0729e-5 Z"
         clip-rule="evenodd"
         id="path328" /></clipPath></defs><sodipodi:namedview
     pagecolor="#ffffff"
     bordercolor="#666666"
     borderopacity="1"
     objecttolerance="10"
     gridtolerance="10"
     guidetolerance="10"
     inkscape:pageopacity="0"
     inkscape:pageshadow="2"
     inkscape:window-width="1920"
     inkscape:window-height="1008"
     id="namedview4"
     showgrid="false"
     inkscape:zoom="1.1638889"
     inkscape:cx="373.58675"
     inkscape:cy="300.3177"
     inkscape:window-x="0"
     inkscape:window-y="0"
     inkscape:window-maximized="1"
     inkscape:current-layer="g10" /><g
     id="g10"
     inkscape:groupmode="layer"
     inkscape:label="!!!!!计算机组成ppt"
     transform="matrix(1.3333333,0,0,-1.3333333,-106.41325,488.47999)"><path
       d="m 114,348.75 c 0,-9.53 16.12,-17.25 36,-17.25 19.88,0 36,7.72 36,17.25 V 245.25 C 186,235.72 169.88,228 150,228 c -19.88,0 -36,7.72 -36,17.25 z"
       style="fill:#ffffff;fill-opacity:0.50196;fill-rule:evenodd;stroke:none"
       id="path86" /><path
       d="m 114,348.75 c 0,9.53 16.12,17.25 36,17.25 19.88,0 36,-7.72 36,-17.25 0,-9.53 -16.12,-17.25 -36,-17.25 -19.88,0 -36,7.72 -36,17.25 z"
       style="fill:#ffffff;fill-opacity:0.50196;fill-rule:evenodd;stroke:none"
       id="path88" /><path
       d="m 186,348.75 c 0,-9.53 -16.12,-17.25 -36,-17.25 -19.88,0 -36,7.72 -36,17.25 0,9.53 16.12,17.25 36,17.25 19.88,0 36,-7.72 36,-17.25 z m 0,0 V 245.25 C 186,235.72 169.88,228 150,228 c -19.88,0 -36,7.72 -36,17.25 v 103.5"
       style="fill:none;stroke:#000000;stroke-width:0.72;stroke-linecap:butt;stroke-linejoin:round;stroke-miterlimit:10;stroke-dasharray:none;stroke-opacity:1"
       id="path90" /><g
       id="g92"><g
         id="g94"
         clip-path="url(#clipPath98)"><path
           d="m 184.31,272.92 c -29.82,-14.47 -61.1,-11.54 -69.86,6.54"
           style="fill:none;stroke:#000000;stroke-width:0.75;stroke-linecap:butt;stroke-linejoin:round;stroke-miterlimit:10;stroke-dasharray:none;stroke-opacity:1"
           id="path100" /></g></g><g
       id="g102"><g
         id="g104"
         clip-path="url(#clipPath108)"><path
           d="m 184.93,308.54 c -29.81,-14.46 -61.09,-11.53 -69.86,6.54"
           style="fill:none;stroke:#000000;stroke-width:0.75;stroke-linecap:butt;stroke-linejoin:round;stroke-miterlimit:10;stroke-dasharray:none;stroke-opacity:1"
           id="path110" /></g></g><path
       d="m 492,348.75 c 0,-9.53 16.12,-17.25 36,-17.25 19.88,0 36,7.72 36,17.25 V 245.25 C 564,235.72 547.88,228 528,228 c -19.88,0 -36,7.72 -36,17.25 z"
       style="fill:#ffffff;fill-opacity:0.50196;fill-rule:evenodd;stroke:none"
       id="path112" /><path
       d="m 492,348.75 c 0,9.53 16.12,17.25 36,17.25 19.88,0 36,-7.72 36,-17.25 0,-9.53 -16.12,-17.25 -36,-17.25 -19.88,0 -36,7.72 -36,17.25 z"
       style="fill:#ffffff;fill-opacity:0.50196;fill-rule:evenodd;stroke:none"
       id="path114" /><path
       d="m 564,348.75 c 0,-9.53 -16.12,-17.25 -36,-17.25 -19.88,0 -36,7.72 -36,17.25 0,9.53 16.12,17.25 36,17.25 19.88,0 36,-7.72 36,-17.25 z m 0,0 V 245.25 C 564,235.72 547.88,228 528,228 c -19.88,0 -36,7.72 -36,17.25 v 103.5"
       style="fill:none;stroke:#000000;stroke-width:0.72;stroke-linecap:butt;stroke-linejoin:round;stroke-miterlimit:10;stroke-dasharray:none;stroke-opacity:1"
       id="path116" /><g
       id="g118"><g
         id="g120"
         clip-path="url(#clipPath124)"><path
           d="m 562.31,272.92 c -29.82,-14.47 -61.1,-11.54 -69.86,6.54"
           style="fill:none;stroke:#000000;stroke-width:0.75;stroke-linecap:butt;stroke-linejoin:round;stroke-miterlimit:10;stroke-dasharray:none;stroke-opacity:1"
           id="path126" /></g></g><g
       id="g128"><g
         id="g130"
         clip-path="url(#clipPath134)"><path
           d="m 562.93,308.54 c -29.81,-14.46 -61.09,-11.53 -69.86,6.54"
           style="fill:none;stroke:#000000;stroke-width:0.75;stroke-linecap:butt;stroke-linejoin:round;stroke-miterlimit:10;stroke-dasharray:none;stroke-opacity:1"
           id="path136" /></g></g><path
       d="m 402,348.75 c 0,-9.53 16.12,-17.25 36,-17.25 19.88,0 36,7.72 36,17.25 V 245.25 C 474,235.72 457.88,228 438,228 c -19.88,0 -36,7.72 -36,17.25 z"
       style="fill:#ffffff;fill-opacity:0.50196;fill-rule:evenodd;stroke:none"
       id="path138" /><path
       d="m 402,348.75 c 0,9.53 16.12,17.25 36,17.25 19.88,0 36,-7.72 36,-17.25 0,-9.53 -16.12,-17.25 -36,-17.25 -19.88,0 -36,7.72 -36,17.25 z"
       style="fill:#ffffff;fill-opacity:0.50196;fill-rule:evenodd;stroke:none"
       id="path140" /><path
       d="m 474,348.75 c 0,-9.53 -16.12,-17.25 -36,-17.25 -19.88,0 -36,7.72 -36,17.25 0,9.53 16.12,17.25 36,17.25 19.88,0 36,-7.72 36,-17.25 z m 0,0 V 245.25 C 474,235.72 457.88,228 438,228 c -19.88,0 -36,7.72 -36,17.25 v 103.5"
       style="fill:none;stroke:#000000;stroke-width:0.72;stroke-linecap:butt;stroke-linejoin:round;stroke-miterlimit:10;stroke-dasharray:none;stroke-opacity:1"
       id="path142" /><g
       id="g144"><g
         id="g146"
         clip-path="url(#clipPath150)"><path
           d="m 472.31,272.92 c -29.82,-14.47 -61.1,-11.54 -69.86,6.54"
           style="fill:none;stroke:#000000;stroke-width:0.75;stroke-linecap:butt;stroke-linejoin:round;stroke-miterlimit:10;stroke-dasharray:none;stroke-opacity:1"
           id="path152" /></g></g><g
       id="g154"><g
         id="g156"
         clip-path="url(#clipPath160)"><path
           d="m 472.93,308.54 c -29.81,-14.46 -61.09,-11.53 -69.86,6.54"
           style="fill:none;stroke:#000000;stroke-width:0.75;stroke-linecap:butt;stroke-linejoin:round;stroke-miterlimit:10;stroke-dasharray:none;stroke-opacity:1"
           id="path162" /></g></g><path
       d="m 312,348.75 c 0,-9.53 16.12,-17.25 36,-17.25 19.88,0 36,7.72 36,17.25 V 245.25 C 384,235.72 367.88,228 348,228 c -19.88,0 -36,7.72 -36,17.25 z"
       style="fill:#ffffff;fill-opacity:0.50196;fill-rule:evenodd;stroke:none"
       id="path164" /><path
       d="m 312,348.75 c 0,9.53 16.12,17.25 36,17.25 19.88,0 36,-7.72 36,-17.25 0,-9.53 -16.12,-17.25 -36,-17.25 -19.88,0 -36,7.72 -36,17.25 z"
       style="fill:#ffffff;fill-opacity:0.50196;fill-rule:evenodd;stroke:none"
       id="path166" /><path
       d="m 384,348.75 c 0,-9.53 -16.12,-17.25 -36,-17.25 -19.88,0 -36,7.72 -36,17.25 0,9.53 16.12,17.25 36,17.25 19.88,0 36,-7.72 36,-17.25 z m 0,0 V 245.25 C 384,235.72 367.88,228 348,228 c -19.88,0 -36,7.72 -36,17.25 v 103.5"
       style="fill:none;stroke:#000000;stroke-width:0.72;stroke-linecap:butt;stroke-linejoin:round;stroke-miterlimit:10;stroke-dasharray:none;stroke-opacity:1"
       id="path168" /><g
       id="g170"><g
         id="g172"
         clip-path="url(#clipPath176)"><path
           d="m 382.31,272.92 c -29.82,-14.47 -61.1,-11.54 -69.86,6.54"
           style="fill:none;stroke:#000000;stroke-width:0.75;stroke-linecap:butt;stroke-linejoin:round;stroke-miterlimit:10;stroke-dasharray:none;stroke-opacity:1"
           id="path178" /></g></g><g
       id="g180"><g
         id="g182"
         clip-path="url(#clipPath186)"><path
           d="m 382.93,308.54 c -29.81,-14.46 -61.09,-11.53 -69.86,6.54"
           style="fill:none;stroke:#000000;stroke-width:0.75;stroke-linecap:butt;stroke-linejoin:round;stroke-miterlimit:10;stroke-dasharray:none;stroke-opacity:1"
           id="path188" /></g></g><path
       d="m 216,348.75 c 0,-9.53 16.12,-17.25 36,-17.25 19.88,0 36,7.72 36,17.25 V 245.25 C 288,235.72 271.88,228 252,228 c -19.88,0 -36,7.72 -36,17.25 z"
       style="fill:#ffffff;fill-opacity:0.50196;fill-rule:evenodd;stroke:none"
       id="path190" /><path
       d="m 216,348.75 c 0,9.53 16.12,17.25 36,17.25 19.88,0 36,-7.72 36,-17.25 0,-9.53 -16.12,-17.25 -36,-17.25 -19.88,0 -36,7.72 -36,17.25 z"
       style="fill:#ffffff;fill-opacity:0.50196;fill-rule:evenodd;stroke:none"
       id="path192" /><path
       d="m 288,348.75 c 0,-9.53 -16.12,-17.25 -36,-17.25 -19.88,0 -36,7.72 -36,17.25 0,9.53 16.12,17.25 36,17.25 19.88,0 36,-7.72 36,-17.25 z m 0,0 V 245.25 C 288,235.72 271.88,228 252,228 c -19.88,0 -36,7.72 -36,17.25 v 103.5"
       style="fill:none;stroke:#000000;stroke-width:0.72;stroke-linecap:butt;stroke-linejoin:round;stroke-miterlimit:10;stroke-dasharray:none;stroke-opacity:1"
       id="path194" /><g
       id="g196"><g
         id="g198"
         clip-path="url(#clipPath202)"><path
           d="m 286.31,272.92 c -29.82,-14.47 -61.1,-11.54 -69.86,6.54"
           style="fill:none;stroke:#000000;stroke-width:0.75;stroke-linecap:butt;stroke-linejoin:round;stroke-miterlimit:10;stroke-dasharray:none;stroke-opacity:1"
           id="path204" /></g></g><g
       id="g206"><g
         id="g208"
         clip-path="url(#clipPath212)"><path
           d="m 286.93,308.54 c -29.81,-14.46 -61.09,-11.53 -69.86,6.54"
           style="fill:none;stroke:#000000;stroke-width:0.75;stroke-linecap:butt;stroke-linejoin:round;stroke-miterlimit:10;stroke-dasharray:none;stroke-opacity:1"
           id="path214" /></g></g><g
       id="g216"><g
         id="g218"
         clip-path="url(#clipPath222)"><text
           transform="matrix(1,0,0,-1,127.22,309.19)"
           style="font-variant:normal;font-weight:normal;font-size:24px;font-family:'Times New Roman';-inkscape-font-specification:'Times New';writing-mode:lr-tb;fill:#000000;fill-opacity:1;fill-rule:nonzero;stroke:none"
           id="text226"><tspan
             x="0 16.007999 22.68 29.351999"
             y="0"
             sodipodi:role="line"
             id="tspan224">Bit1</tspan></text></g></g><g
       id="g228"><g
         id="g230"
         clip-path="url(#clipPath234)"><text
           transform="matrix(1,0,0,-1,229.25,309.19)"
           style="font-variant:normal;font-weight:normal;font-size:24px;font-family:'Times New Roman';-inkscape-font-specification:'Times New';writing-mode:lr-tb;fill:#000000;fill-opacity:1;fill-rule:nonzero;stroke:none"
           id="text238"><tspan
             x="0 16.007999 22.68 29.351999"
             y="0"
             sodipodi:role="line"
             id="tspan236">Bit2</tspan></text></g></g><g
       id="g240"><g
         id="g242"
         clip-path="url(#clipPath246)"><text
           transform="matrix(1,0,0,-1,331.25,309.19)"
           style="font-variant:normal;font-weight:normal;font-size:24px;font-family:'Times New Roman';-inkscape-font-specification:'Times New';writing-mode:lr-tb;fill:#000000;fill-opacity:1;fill-rule:nonzero;stroke:none"
           id="text250"><tspan
             x="0 16.007999 22.68 29.351999"
             y="0"
             sodipodi:role="line"
             id="tspan248">Bit3</tspan></text></g></g><g
       id="g252"><g
         id="g254"
         clip-path="url(#clipPath258)"><text
           transform="matrix(1,0,0,-1,415.27,309.19)"
           style="font-variant:normal;font-weight:normal;font-size:24px;font-family:'Times New Roman';-inkscape-font-specification:'Times New';writing-mode:lr-tb;fill:#000000;fill-opacity:1;fill-rule:nonzero;stroke:none"
           id="text262"><tspan
             x="0 16.007999 22.68 29.351999"
             y="0"
             sodipodi:role="line"
             id="tspan260">Bit4</tspan></text></g></g><g
       id="g264"><g
         id="g266"
         clip-path="url(#clipPath270)"><text
           transform="matrix(1,0,0,-1,505.27,309.19)"
           style="font-variant:normal;font-weight:normal;font-size:24px;font-family:'Times New Roman';-inkscape-font-specification:'Times New';writing-mode:lr-tb;fill:#000000;fill-opacity:1;fill-rule:nonzero;stroke:none"
           id="text274"><tspan
             x="0 13.344 24 32.088001 38.759998 45.551998"
             y="0"
             sodipodi:role="line"
             id="tspan272">Parity</tspan></text></g></g><g
       id="g276"
       transform="translate(0,33)"><g
         id="g278"
         clip-path="url(#clipPath282)"><text
           transform="matrix(1,0,0,-1,79.224,152.81)"
           style="font-variant:normal;font-weight:bold;font-size:24.024px;font-family:'Times New Roman';-inkscape-font-specification:'Times New Roman, Bold';writing-mode:lr-tb;fill:#000000;fill-opacity:1;fill-rule:nonzero;stroke:none"
           id="text286"><tspan
             x="0 12 17.993999"
             y="0"
             sodipodi:role="line"
             id="tspan284">1. </tspan></text></g></g><g
       id="g288"
       transform="translate(0,33)"><g
         id="g290"
         clip-path="url(#clipPath294)"><text
           transform="matrix(1,0,0,-1,103.22,152.81)"
           style="font-variant:normal;font-weight:normal;font-size:24.024px;font-family:'宋体';-inkscape-font-specification:'宋体';writing-mode:lr-tb;fill:#000000;fill-opacity:1;fill-rule:nonzero;stroke:#000000;stroke-width:0.6864;stroke-linecap:butt;stroke-linejoin:round;stroke-miterlimit:10;stroke-dasharray:none;stroke-opacity:1"
           id="text298"><tspan
             x="0 24.120001 48.240002 72.360001 96.480003 120.6 144.72 168.84 192.96001 217.08"
             y="0"
             sodipodi:role="line"
             id="tspan296">驱动器之间要严格同步</tspan></text></g></g><g
       id="g300"
       transform="translate(0,33)"><g
         id="g302"
         clip-path="url(#clipPath306)"><text
           transform="matrix(1,0,0,-1,79.224,109.58)"
           style="font-variant:normal;font-weight:bold;font-size:24px;font-family:'Times New Roman';-inkscape-font-specification:'Times New Roman, Bold';writing-mode:lr-tb;fill:#000000;fill-opacity:1;fill-rule:nonzero;stroke:none"
           id="text310"><tspan
             x="0 12 18"
             y="0"
             sodipodi:role="line"
             id="tspan308">2. </tspan></text></g></g><g
       id="g312"
       transform="translate(0,33)"><g
         id="g314"
         clip-path="url(#clipPath318)"><text
           transform="matrix(1,0,0,-1,103.22,109.58)"
           style="font-variant:normal;font-weight:normal;font-size:24px;font-family:'宋体';-inkscape-font-specification:'宋体';writing-mode:lr-tb;fill:#000000;fill-opacity:1;fill-rule:nonzero;stroke:#000000;stroke-width:0.68571;stroke-linecap:butt;stroke-linejoin:round;stroke-miterlimit:10;stroke-dasharray:none;stroke-opacity:1"
           id="text322"><tspan
             x="0 24.120001 48.240002 72.360001 96.480003 120.6 144.72 168.84 192.96001 217.08 241.2 265.32001 289.44 313.56 337.67999 361.79999 385.92001"
             y="0"
             sodipodi:role="line"
             id="tspan320">对整个磁盘崩溃的错误，能够进行恢复</tspan></text></g></g></g></svg>
