<?xml version="1.0" encoding="UTF-8" standalone="no"?>
<svg
   xmlns:dc="http://purl.org/dc/elements/1.1/"
   xmlns:cc="http://creativecommons.org/ns#"
   xmlns:rdf="http://www.w3.org/1999/02/22-rdf-syntax-ns#"
   xmlns:svg="http://www.w3.org/2000/svg"
   xmlns="http://www.w3.org/2000/svg"
   xmlns:sodipodi="http://sodipodi.sourceforge.net/DTD/sodipodi-0.dtd"
   xmlns:inkscape="http://www.inkscape.org/namespaces/inkscape"
   version="1.1"
   id="svg2"
   xml:space="preserve"
   width="848.95996"
   height="371.67514"
   viewBox="0 0 848.95996 371.67514"
   sodipodi:docname="raid2.svg"
   inkscape:version="1.0.2 (1.0.2+r75+1)"><metadata
     id="metadata8"><rdf:RDF><cc:Work
         rdf:about=""><dc:format>image/svg+xml</dc:format><dc:type
           rdf:resource="http://purl.org/dc/dcmitype/StillImage" /><dc:title></dc:title></cc:Work></rdf:RDF></metadata><defs
     id="defs6"><clipPath
       clipPathUnits="userSpaceOnUse"
       id="clipPath18"><path
         d="M 0,1.2207e-4 H 720 V 540.00012 H 0 Z"
         clip-rule="evenodd"
         id="path16" /></clipPath><linearGradient
       x1="100.8"
       y1="615.59998"
       x2="619.20001"
       y2="-75.599998"
       gradientUnits="userSpaceOnUse"
       spreadMethod="pad"
       id="linearGradient24"><stop
         style="stop-opacity:1;stop-color:#ffffff"
         offset="0"
         id="stop20" /><stop
         style="stop-opacity:1;stop-color:#ffffff"
         offset="1"
         id="stop22" /></linearGradient><clipPath
       clipPathUnits="userSpaceOnUse"
       id="clipPath34"><path
         d="M 0,1.2207e-4 H 720 V 540.00012 H 0 Z"
         clip-rule="evenodd"
         id="path32" /></clipPath><clipPath
       clipPathUnits="userSpaceOnUse"
       id="clipPath44"><path
         d="M 1.0729e-5,0 H 720.00001 V 540 H 1.0729e-5 Z"
         clip-rule="evenodd"
         id="path42" /></clipPath><clipPath
       clipPathUnits="userSpaceOnUse"
       id="clipPath56"><path
         d="M 1.0729e-5,0 H 720.00001 V 540 H 1.0729e-5 Z"
         clip-rule="evenodd"
         id="path54" /></clipPath><clipPath
       clipPathUnits="userSpaceOnUse"
       id="clipPath68"><path
         d="M 0,3.0518e-4 H 720 V 540.00031 H 0 Z"
         clip-rule="evenodd"
         id="path66" /></clipPath><clipPath
       clipPathUnits="userSpaceOnUse"
       id="clipPath80"><path
         d="M 1.0729e-5,0 H 720.00001 V 540 H 1.0729e-5 Z"
         clip-rule="evenodd"
         id="path78" /></clipPath><clipPath
       clipPathUnits="userSpaceOnUse"
       id="clipPath98"><path
         d="M -7.629e-6,540 H 720 V 0 L -1.5259e-5,6.1035e-5"
         clip-rule="evenodd"
         id="path96" /></clipPath><clipPath
       clipPathUnits="userSpaceOnUse"
       id="clipPath108"><path
         d="M 0,540 H 720 V 0 L -1.5259e-5,6.1035e-5"
         clip-rule="evenodd"
         id="path106" /></clipPath><clipPath
       clipPathUnits="userSpaceOnUse"
       id="clipPath124"><path
         d="M -6.1035e-5,540 H 720 V 0 L -6.1035e-5,6.1035e-5"
         clip-rule="evenodd"
         id="path122" /></clipPath><clipPath
       clipPathUnits="userSpaceOnUse"
       id="clipPath134"><path
         d="M -6.1035e-5,540 H 720 V 0 L -1.2207e-4,6.1035e-5"
         clip-rule="evenodd"
         id="path132" /></clipPath><clipPath
       clipPathUnits="userSpaceOnUse"
       id="clipPath150"><path
         d="M -6.1035e-5,540 H 720 V 0 L -6.1035e-5,6.1035e-5"
         clip-rule="evenodd"
         id="path148" /></clipPath><clipPath
       clipPathUnits="userSpaceOnUse"
       id="clipPath160"><path
         d="M -6.1035e-5,540 H 720 V 6.1035e-5 L -1.2207e-4,1.2207e-4"
         clip-rule="evenodd"
         id="path158" /></clipPath><clipPath
       clipPathUnits="userSpaceOnUse"
       id="clipPath176"><path
         d="M 0,540 H 720 V 0 L 0,6.1035e-5"
         clip-rule="evenodd"
         id="path174" /></clipPath><clipPath
       clipPathUnits="userSpaceOnUse"
       id="clipPath186"><path
         d="M 0,540 H 720 V 0 L -3.0518e-5,6.1035e-5"
         clip-rule="evenodd"
         id="path184" /></clipPath><clipPath
       clipPathUnits="userSpaceOnUse"
       id="clipPath202"><path
         d="M -3.0518e-5,540 H 720 V 0 H -3.0518e-5"
         clip-rule="evenodd"
         id="path200" /></clipPath><clipPath
       clipPathUnits="userSpaceOnUse"
       id="clipPath212"><path
         d="M 0,540 H 720 V 0 L 0,6.1035e-5"
         clip-rule="evenodd"
         id="path210" /></clipPath><clipPath
       clipPathUnits="userSpaceOnUse"
       id="clipPath228"><path
         d="M -3.0518e-5,540 H 720 V 0 L -3.0518e-5,6.1035e-5"
         clip-rule="evenodd"
         id="path226" /></clipPath><clipPath
       clipPathUnits="userSpaceOnUse"
       id="clipPath238"><path
         d="M 0,540 H 720 V 0 L 0,6.1035e-5"
         clip-rule="evenodd"
         id="path236" /></clipPath><clipPath
       clipPathUnits="userSpaceOnUse"
       id="clipPath254"><path
         d="M 0,540 H 720 V 0 L -3.0518e-5,6.1035e-5"
         clip-rule="evenodd"
         id="path252" /></clipPath><clipPath
       clipPathUnits="userSpaceOnUse"
       id="clipPath264"><path
         d="M -1.5259e-5,540 H 720 V 0 L -3.0518e-5,6.1035e-5"
         clip-rule="evenodd"
         id="path262" /></clipPath><clipPath
       clipPathUnits="userSpaceOnUse"
       id="clipPath274"><path
         d="M 1.0729e-5,0 H 720.00001 V 540 H 1.0729e-5 Z"
         clip-rule="evenodd"
         id="path272" /></clipPath><clipPath
       clipPathUnits="userSpaceOnUse"
       id="clipPath286"><path
         d="M 1.0729e-5,0 H 720.00001 V 540 H 1.0729e-5 Z"
         clip-rule="evenodd"
         id="path284" /></clipPath><clipPath
       clipPathUnits="userSpaceOnUse"
       id="clipPath298"><path
         d="M 1.0729e-5,0 H 720.00001 V 540 H 1.0729e-5 Z"
         clip-rule="evenodd"
         id="path296" /></clipPath><clipPath
       clipPathUnits="userSpaceOnUse"
       id="clipPath310"><path
         d="M 1.0729e-5,0 H 720.00001 V 540 H 1.0729e-5 Z"
         clip-rule="evenodd"
         id="path308" /></clipPath><clipPath
       clipPathUnits="userSpaceOnUse"
       id="clipPath322"><path
         d="M 1.0729e-5,0 H 720.00001 V 540 H 1.0729e-5 Z"
         clip-rule="evenodd"
         id="path320" /></clipPath><clipPath
       clipPathUnits="userSpaceOnUse"
       id="clipPath334"><path
         d="M 1.0729e-5,0 H 720.00001 V 540 H 1.0729e-5 Z"
         clip-rule="evenodd"
         id="path332" /></clipPath><clipPath
       clipPathUnits="userSpaceOnUse"
       id="clipPath346"><path
         d="M 1.0729e-5,0 H 720.00001 V 540 H 1.0729e-5 Z"
         clip-rule="evenodd"
         id="path344" /></clipPath><clipPath
       clipPathUnits="userSpaceOnUse"
       id="clipPath358"><path
         d="M 1.0729e-5,0 H 720.00001 V 540 H 1.0729e-5 Z"
         clip-rule="evenodd"
         id="path356" /></clipPath><clipPath
       clipPathUnits="userSpaceOnUse"
       id="clipPath370"><path
         d="M 1.0729e-5,0 H 720.00001 V 540 H 1.0729e-5 Z"
         clip-rule="evenodd"
         id="path368" /></clipPath><clipPath
       clipPathUnits="userSpaceOnUse"
       id="clipPath382"><path
         d="M 1.0729e-5,0 H 720.00001 V 540 H 1.0729e-5 Z"
         clip-rule="evenodd"
         id="path380" /></clipPath><clipPath
       clipPathUnits="userSpaceOnUse"
       id="clipPath394"><path
         d="M 1.0729e-5,0 H 720.00001 V 540 H 1.0729e-5 Z"
         clip-rule="evenodd"
         id="path392" /></clipPath><clipPath
       clipPathUnits="userSpaceOnUse"
       id="clipPath406"><path
         d="M 1.0729e-5,0 H 720.00001 V 540 H 1.0729e-5 Z"
         clip-rule="evenodd"
         id="path404" /></clipPath><clipPath
       clipPathUnits="userSpaceOnUse"
       id="clipPath418"><path
         d="M 1.0729e-5,0 H 720.00001 V 540 H 1.0729e-5 Z"
         clip-rule="evenodd"
         id="path416" /></clipPath><clipPath
       clipPathUnits="userSpaceOnUse"
       id="clipPath430"><path
         d="M 1.0729e-5,0 H 720.00001 V 540 H 1.0729e-5 Z"
         clip-rule="evenodd"
         id="path428" /></clipPath></defs><sodipodi:namedview
     pagecolor="#ffffff"
     bordercolor="#666666"
     borderopacity="1"
     objecttolerance="10"
     gridtolerance="10"
     guidetolerance="10"
     inkscape:pageopacity="0"
     inkscape:pageshadow="2"
     inkscape:window-width="1920"
     inkscape:window-height="1008"
     id="namedview4"
     showgrid="false"
     inkscape:zoom="1.1638889"
     inkscape:cx="461.39396"
     inkscape:cy="321.77866"
     inkscape:window-x="0"
     inkscape:window-y="0"
     inkscape:window-maximized="1"
     inkscape:current-layer="g10" /><g
     id="g10"
     inkscape:groupmode="layer"
     inkscape:label="!!!!!计算机组成ppt"
     transform="matrix(1.3333333,0,0,-1.3333333,-31.519999,488.47999)"><path
       d="m 24,348.75 c 0,-9.53 16.118,-17.25 36,-17.25 19.882,0 36,7.72 36,17.25 V 245.25 C 96,235.72 79.882,228 60,228 c -19.882,0 -36,7.72 -36,17.25 z"
       style="fill:#ffffff;fill-opacity:0.50196;fill-rule:evenodd;stroke:none"
       id="path86" /><path
       d="m 24,348.75 c 0,9.53 16.118,17.25 36,17.25 19.882,0 36,-7.72 36,-17.25 0,-9.53 -16.118,-17.25 -36,-17.25 -19.882,0 -36,7.72 -36,17.25 z"
       style="fill:#ffffff;fill-opacity:0.50196;fill-rule:evenodd;stroke:none"
       id="path88" /><path
       d="m 96,348.75 c 0,-9.53 -16.118,-17.25 -36,-17.25 -19.882,0 -36,7.72 -36,17.25 0,9.53 16.118,17.25 36,17.25 19.882,0 36,-7.72 36,-17.25 z m 0,0 V 245.25 C 96,235.72 79.882,228 60,228 c -19.882,0 -36,7.72 -36,17.25 v 103.5"
       style="fill:none;stroke:#000000;stroke-width:0.72;stroke-linecap:butt;stroke-linejoin:round;stroke-miterlimit:10;stroke-dasharray:none;stroke-opacity:1"
       id="path90" /><g
       id="g92"><g
         id="g94"
         clip-path="url(#clipPath98)"><path
           d="M 94.307,272.92 C 64.49,258.45 33.213,261.38 24.445,279.46"
           style="fill:none;stroke:#000000;stroke-width:0.75;stroke-linecap:butt;stroke-linejoin:round;stroke-miterlimit:10;stroke-dasharray:none;stroke-opacity:1"
           id="path100" /></g></g><g
       id="g102"><g
         id="g104"
         clip-path="url(#clipPath108)"><path
           d="M 94.932,308.54 C 65.115,294.08 33.838,297.01 25.07,315.08"
           style="fill:none;stroke:#000000;stroke-width:0.75;stroke-linecap:butt;stroke-linejoin:round;stroke-miterlimit:10;stroke-dasharray:none;stroke-opacity:1"
           id="path110" /></g></g><path
       d="m 588,348.75 c 0,-9.53 16.12,-17.25 36,-17.25 19.88,0 36,7.72 36,17.25 V 245.25 C 660,235.72 643.88,228 624,228 c -19.88,0 -36,7.72 -36,17.25 z"
       style="fill:#ffffff;fill-opacity:0.50196;fill-rule:evenodd;stroke:none"
       id="path112" /><path
       d="m 588,348.75 c 0,9.53 16.12,17.25 36,17.25 19.88,0 36,-7.72 36,-17.25 0,-9.53 -16.12,-17.25 -36,-17.25 -19.88,0 -36,7.72 -36,17.25 z"
       style="fill:#ffffff;fill-opacity:0.50196;fill-rule:evenodd;stroke:none"
       id="path114" /><path
       d="m 660,348.75 c 0,-9.53 -16.12,-17.25 -36,-17.25 -19.88,0 -36,7.72 -36,17.25 0,9.53 16.12,17.25 36,17.25 19.88,0 36,-7.72 36,-17.25 z m 0,0 V 245.25 C 660,235.72 643.88,228 624,228 c -19.88,0 -36,7.72 -36,17.25 v 103.5"
       style="fill:none;stroke:#000000;stroke-width:0.72;stroke-linecap:butt;stroke-linejoin:round;stroke-miterlimit:10;stroke-dasharray:none;stroke-opacity:1"
       id="path116" /><g
       id="g118"><g
         id="g120"
         clip-path="url(#clipPath124)"><path
           d="m 658.31,272.92 c -29.82,-14.47 -61.1,-11.54 -69.86,6.54"
           style="fill:none;stroke:#000000;stroke-width:0.75;stroke-linecap:butt;stroke-linejoin:round;stroke-miterlimit:10;stroke-dasharray:none;stroke-opacity:1"
           id="path126" /></g></g><g
       id="g128"><g
         id="g130"
         clip-path="url(#clipPath134)"><path
           d="m 658.93,308.54 c -29.81,-14.46 -61.09,-11.53 -69.86,6.54"
           style="fill:none;stroke:#000000;stroke-width:0.75;stroke-linecap:butt;stroke-linejoin:round;stroke-miterlimit:10;stroke-dasharray:none;stroke-opacity:1"
           id="path136" /></g></g><path
       d="m 492,348.75 c 0,-9.53 16.12,-17.25 36,-17.25 19.88,0 36,7.72 36,17.25 V 245.25 C 564,235.72 547.88,228 528,228 c -19.88,0 -36,7.72 -36,17.25 z"
       style="fill:#ffffff;fill-opacity:0.50196;fill-rule:evenodd;stroke:none"
       id="path138" /><path
       d="m 492,348.75 c 0,9.53 16.12,17.25 36,17.25 19.88,0 36,-7.72 36,-17.25 0,-9.53 -16.12,-17.25 -36,-17.25 -19.88,0 -36,7.72 -36,17.25 z"
       style="fill:#ffffff;fill-opacity:0.50196;fill-rule:evenodd;stroke:none"
       id="path140" /><path
       d="m 564,348.75 c 0,-9.53 -16.12,-17.25 -36,-17.25 -19.88,0 -36,7.72 -36,17.25 0,9.53 16.12,17.25 36,17.25 19.88,0 36,-7.72 36,-17.25 z m 0,0 V 245.25 C 564,235.72 547.88,228 528,228 c -19.88,0 -36,7.72 -36,17.25 v 103.5"
       style="fill:none;stroke:#000000;stroke-width:0.72;stroke-linecap:butt;stroke-linejoin:round;stroke-miterlimit:10;stroke-dasharray:none;stroke-opacity:1"
       id="path142" /><g
       id="g144"><g
         id="g146"
         clip-path="url(#clipPath150)"><path
           d="m 562.31,272.92 c -29.82,-14.47 -61.1,-11.54 -69.86,6.54"
           style="fill:none;stroke:#000000;stroke-width:0.75;stroke-linecap:butt;stroke-linejoin:round;stroke-miterlimit:10;stroke-dasharray:none;stroke-opacity:1"
           id="path152" /></g></g><g
       id="g154"><g
         id="g156"
         clip-path="url(#clipPath160)"><path
           d="m 562.93,308.54 c -29.81,-14.46 -61.09,-11.53 -69.86,6.54"
           style="fill:none;stroke:#000000;stroke-width:0.75;stroke-linecap:butt;stroke-linejoin:round;stroke-miterlimit:10;stroke-dasharray:none;stroke-opacity:1"
           id="path162" /></g></g><path
       d="m 402,348.75 c 0,-9.53 16.12,-17.25 36,-17.25 19.88,0 36,7.72 36,17.25 V 245.25 C 474,235.72 457.88,228 438,228 c -19.88,0 -36,7.72 -36,17.25 z"
       style="fill:#ffffff;fill-opacity:0.50196;fill-rule:evenodd;stroke:none"
       id="path164" /><path
       d="m 402,348.75 c 0,9.53 16.12,17.25 36,17.25 19.88,0 36,-7.72 36,-17.25 0,-9.53 -16.12,-17.25 -36,-17.25 -19.88,0 -36,7.72 -36,17.25 z"
       style="fill:#ffffff;fill-opacity:0.50196;fill-rule:evenodd;stroke:none"
       id="path166" /><path
       d="m 474,348.75 c 0,-9.53 -16.12,-17.25 -36,-17.25 -19.88,0 -36,7.72 -36,17.25 0,9.53 16.12,17.25 36,17.25 19.88,0 36,-7.72 36,-17.25 z m 0,0 V 245.25 C 474,235.72 457.88,228 438,228 c -19.88,0 -36,7.72 -36,17.25 v 103.5"
       style="fill:none;stroke:#000000;stroke-width:0.72;stroke-linecap:butt;stroke-linejoin:round;stroke-miterlimit:10;stroke-dasharray:none;stroke-opacity:1"
       id="path168" /><g
       id="g170"><g
         id="g172"
         clip-path="url(#clipPath176)"><path
           d="m 472.31,272.92 c -29.82,-14.47 -61.1,-11.54 -69.86,6.54"
           style="fill:none;stroke:#000000;stroke-width:0.75;stroke-linecap:butt;stroke-linejoin:round;stroke-miterlimit:10;stroke-dasharray:none;stroke-opacity:1"
           id="path178" /></g></g><g
       id="g180"><g
         id="g182"
         clip-path="url(#clipPath186)"><path
           d="m 472.93,308.54 c -29.81,-14.46 -61.09,-11.53 -69.86,6.54"
           style="fill:none;stroke:#000000;stroke-width:0.75;stroke-linecap:butt;stroke-linejoin:round;stroke-miterlimit:10;stroke-dasharray:none;stroke-opacity:1"
           id="path188" /></g></g><path
       d="m 312,348.75 c 0,-9.53 16.12,-17.25 36,-17.25 19.88,0 36,7.72 36,17.25 V 245.25 C 384,235.72 367.88,228 348,228 c -19.88,0 -36,7.72 -36,17.25 z"
       style="fill:#ffffff;fill-opacity:0.50196;fill-rule:evenodd;stroke:none"
       id="path190" /><path
       d="m 312,348.75 c 0,9.53 16.12,17.25 36,17.25 19.88,0 36,-7.72 36,-17.25 0,-9.53 -16.12,-17.25 -36,-17.25 -19.88,0 -36,7.72 -36,17.25 z"
       style="fill:#ffffff;fill-opacity:0.50196;fill-rule:evenodd;stroke:none"
       id="path192" /><path
       d="m 384,348.75 c 0,-9.53 -16.12,-17.25 -36,-17.25 -19.88,0 -36,7.72 -36,17.25 0,9.53 16.12,17.25 36,17.25 19.88,0 36,-7.72 36,-17.25 z m 0,0 V 245.25 C 384,235.72 367.88,228 348,228 c -19.88,0 -36,7.72 -36,17.25 v 103.5"
       style="fill:none;stroke:#000000;stroke-width:0.72;stroke-linecap:butt;stroke-linejoin:round;stroke-miterlimit:10;stroke-dasharray:none;stroke-opacity:1"
       id="path194" /><g
       id="g196"><g
         id="g198"
         clip-path="url(#clipPath202)"><path
           d="m 382.31,272.92 c -29.82,-14.47 -61.1,-11.54 -69.86,6.54"
           style="fill:none;stroke:#000000;stroke-width:0.75;stroke-linecap:butt;stroke-linejoin:round;stroke-miterlimit:10;stroke-dasharray:none;stroke-opacity:1"
           id="path204" /></g></g><g
       id="g206"><g
         id="g208"
         clip-path="url(#clipPath212)"><path
           d="m 382.93,308.54 c -29.81,-14.46 -61.09,-11.53 -69.86,6.54"
           style="fill:none;stroke:#000000;stroke-width:0.75;stroke-linecap:butt;stroke-linejoin:round;stroke-miterlimit:10;stroke-dasharray:none;stroke-opacity:1"
           id="path214" /></g></g><path
       d="m 222,348.75 c 0,-9.53 16.12,-17.25 36,-17.25 19.88,0 36,7.72 36,17.25 V 245.25 C 294,235.72 277.88,228 258,228 c -19.88,0 -36,7.72 -36,17.25 z"
       style="fill:#ffffff;fill-opacity:0.50196;fill-rule:evenodd;stroke:none"
       id="path216" /><path
       d="m 222,348.75 c 0,9.53 16.12,17.25 36,17.25 19.88,0 36,-7.72 36,-17.25 0,-9.53 -16.12,-17.25 -36,-17.25 -19.88,0 -36,7.72 -36,17.25 z"
       style="fill:#ffffff;fill-opacity:0.50196;fill-rule:evenodd;stroke:none"
       id="path218" /><path
       d="m 294,348.75 c 0,-9.53 -16.12,-17.25 -36,-17.25 -19.88,0 -36,7.72 -36,17.25 0,9.53 16.12,17.25 36,17.25 19.88,0 36,-7.72 36,-17.25 z m 0,0 V 245.25 C 294,235.72 277.88,228 258,228 c -19.88,0 -36,7.72 -36,17.25 v 103.5"
       style="fill:none;stroke:#000000;stroke-width:0.72;stroke-linecap:butt;stroke-linejoin:round;stroke-miterlimit:10;stroke-dasharray:none;stroke-opacity:1"
       id="path220" /><g
       id="g222"><g
         id="g224"
         clip-path="url(#clipPath228)"><path
           d="m 292.31,272.92 c -29.82,-14.47 -61.1,-11.54 -69.86,6.54"
           style="fill:none;stroke:#000000;stroke-width:0.75;stroke-linecap:butt;stroke-linejoin:round;stroke-miterlimit:10;stroke-dasharray:none;stroke-opacity:1"
           id="path230" /></g></g><g
       id="g232"><g
         id="g234"
         clip-path="url(#clipPath238)"><path
           d="m 292.93,308.54 c -29.81,-14.46 -61.09,-11.53 -69.86,6.54"
           style="fill:none;stroke:#000000;stroke-width:0.75;stroke-linecap:butt;stroke-linejoin:round;stroke-miterlimit:10;stroke-dasharray:none;stroke-opacity:1"
           id="path240" /></g></g><path
       d="m 126,348.75 c 0,-9.53 16.12,-17.25 36,-17.25 19.88,0 36,7.72 36,17.25 V 245.25 C 198,235.72 181.88,228 162,228 c -19.88,0 -36,7.72 -36,17.25 z"
       style="fill:#ffffff;fill-opacity:0.50196;fill-rule:evenodd;stroke:none"
       id="path242" /><path
       d="m 126,348.75 c 0,9.53 16.12,17.25 36,17.25 19.88,0 36,-7.72 36,-17.25 0,-9.53 -16.12,-17.25 -36,-17.25 -19.88,0 -36,7.72 -36,17.25 z"
       style="fill:#ffffff;fill-opacity:0.50196;fill-rule:evenodd;stroke:none"
       id="path244" /><path
       d="m 198,348.75 c 0,-9.53 -16.12,-17.25 -36,-17.25 -19.88,0 -36,7.72 -36,17.25 0,9.53 16.12,17.25 36,17.25 19.88,0 36,-7.72 36,-17.25 z m 0,0 V 245.25 C 198,235.72 181.88,228 162,228 c -19.88,0 -36,7.72 -36,17.25 v 103.5"
       style="fill:none;stroke:#000000;stroke-width:0.72;stroke-linecap:butt;stroke-linejoin:round;stroke-miterlimit:10;stroke-dasharray:none;stroke-opacity:1"
       id="path246" /><g
       id="g248"><g
         id="g250"
         clip-path="url(#clipPath254)"><path
           d="m 196.31,272.92 c -29.82,-14.47 -61.1,-11.54 -69.86,6.54"
           style="fill:none;stroke:#000000;stroke-width:0.75;stroke-linecap:butt;stroke-linejoin:round;stroke-miterlimit:10;stroke-dasharray:none;stroke-opacity:1"
           id="path256" /></g></g><g
       id="g258"><g
         id="g260"
         clip-path="url(#clipPath264)"><path
           d="m 196.93,308.54 c -29.81,-14.46 -61.09,-11.53 -69.86,6.54"
           style="fill:none;stroke:#000000;stroke-width:0.75;stroke-linecap:butt;stroke-linejoin:round;stroke-miterlimit:10;stroke-dasharray:none;stroke-opacity:1"
           id="path266" /></g></g><g
       id="g268"><g
         id="g270"
         clip-path="url(#clipPath274)"><text
           transform="matrix(1,0,0,-1,37.2,309.19)"
           style="font-variant:normal;font-weight:normal;font-size:24px;font-family:'Times New Roman';-inkscape-font-specification:'Times New';writing-mode:lr-tb;fill:#000000;fill-opacity:1;fill-rule:nonzero;stroke:none"
           id="text278"><tspan
             x="0 16.007999 22.68 29.351999"
             y="0"
             sodipodi:role="line"
             id="tspan276">Bit1</tspan></text></g></g><g
       id="g280"><g
         id="g282"
         clip-path="url(#clipPath286)"><text
           transform="matrix(1,0,0,-1,139.22,309.19)"
           style="font-variant:normal;font-weight:normal;font-size:24px;font-family:'Times New Roman';-inkscape-font-specification:'Times New';writing-mode:lr-tb;fill:#000000;fill-opacity:1;fill-rule:nonzero;stroke:none"
           id="text290"><tspan
             x="0 16.007999 22.68 29.351999"
             y="0"
             sodipodi:role="line"
             id="tspan288">Bit2</tspan></text></g></g><g
       id="g292"><g
         id="g294"
         clip-path="url(#clipPath298)"><text
           transform="matrix(1,0,0,-1,241.25,309.19)"
           style="font-variant:normal;font-weight:normal;font-size:24px;font-family:'Times New Roman';-inkscape-font-specification:'Times New';writing-mode:lr-tb;fill:#000000;fill-opacity:1;fill-rule:nonzero;stroke:none"
           id="text302"><tspan
             x="0 16.007999 22.68 29.351999"
             y="0"
             sodipodi:role="line"
             id="tspan300">Bit3</tspan></text></g></g><g
       id="g304"><g
         id="g306"
         clip-path="url(#clipPath310)"><text
           transform="matrix(1,0,0,-1,325.25,309.19)"
           style="font-variant:normal;font-weight:normal;font-size:24px;font-family:'Times New Roman';-inkscape-font-specification:'Times New';writing-mode:lr-tb;fill:#000000;fill-opacity:1;fill-rule:nonzero;stroke:none"
           id="text314"><tspan
             x="0 16.007999 22.68 29.351999"
             y="0"
             sodipodi:role="line"
             id="tspan312">Bit4</tspan></text></g></g><g
       id="g316"><g
         id="g318"
         clip-path="url(#clipPath322)"><text
           transform="matrix(1,0,0,-1,415.27,309.19)"
           style="font-variant:normal;font-weight:normal;font-size:24px;font-family:'Times New Roman';-inkscape-font-specification:'Times New';writing-mode:lr-tb;fill:#000000;fill-opacity:1;fill-rule:nonzero;stroke:none"
           id="text326"><tspan
             x="0 16.007999 22.68 29.351999"
             y="0"
             sodipodi:role="line"
             id="tspan324">Bit5</tspan></text></g></g><g
       id="g328"><g
         id="g330"
         clip-path="url(#clipPath334)"><text
           transform="matrix(1,0,0,-1,511.3,309.19)"
           style="font-variant:normal;font-weight:normal;font-size:24px;font-family:'Times New Roman';-inkscape-font-specification:'Times New';writing-mode:lr-tb;fill:#000000;fill-opacity:1;fill-rule:nonzero;stroke:none"
           id="text338"><tspan
             x="0 16.007999 22.68 29.351999"
             y="0"
             sodipodi:role="line"
             id="tspan336">Bit6</tspan></text></g></g><g
       id="g340"><g
         id="g342"
         clip-path="url(#clipPath346)"><text
           transform="matrix(1,0,0,-1,607.3,309.19)"
           style="font-variant:normal;font-weight:normal;font-size:24px;font-family:'Times New Roman';-inkscape-font-specification:'Times New';writing-mode:lr-tb;fill:#000000;fill-opacity:1;fill-rule:nonzero;stroke:none"
           id="text350"><tspan
             x="0 16.007999 22.68 29.351999"
             y="0"
             sodipodi:role="line"
             id="tspan348">Bit7</tspan></text></g></g><g
       id="g352"><g
         id="g354"
         clip-path="url(#clipPath358)"><text
           transform="matrix(1,0,0,-1,73.224,176.81)"
           style="font-variant:normal;font-weight:bold;font-size:24px;font-family:'Times New Roman';-inkscape-font-specification:'Times New Roman, Bold';writing-mode:lr-tb;fill:#000000;fill-opacity:1;fill-rule:nonzero;stroke:none"
           id="text362"><tspan
             x="0 12 18"
             y="0"
             sodipodi:role="line"
             id="tspan360">1. </tspan></text></g></g><g
       id="g364"><g
         id="g366"
         clip-path="url(#clipPath370)"><text
           transform="matrix(1,0,0,-1,97.224,176.81)"
           style="font-variant:normal;font-weight:normal;font-size:24px;font-family:'宋体';-inkscape-font-specification:'宋体';writing-mode:lr-tb;fill:#000000;fill-opacity:1;fill-rule:nonzero;stroke:#000000;stroke-width:0.68571;stroke-linecap:butt;stroke-linejoin:round;stroke-miterlimit:10;stroke-dasharray:none;stroke-opacity:1"
           id="text374"><tspan
             x="0 24.120001 48.240002 72.360001 96.480003 120.6 144.72 168.84 192.96001"
             y="0"
             sodipodi:role="line"
             id="tspan372">驱动器必须同步旋转</tspan></text></g></g><g
       id="g376"><g
         id="g378"
         clip-path="url(#clipPath382)"><text
           transform="matrix(1,0,0,-1,73.224,133.61)"
           style="font-variant:normal;font-weight:bold;font-size:24.024px;font-family:'Times New Roman';-inkscape-font-specification:'Times New Roman, Bold';writing-mode:lr-tb;fill:#000000;fill-opacity:1;fill-rule:nonzero;stroke:none"
           id="text386"><tspan
             x="0 12 17.993999"
             y="0"
             sodipodi:role="line"
             id="tspan384">2. </tspan></text></g></g><g
       id="g388"><g
         id="g390"
         clip-path="url(#clipPath394)"><text
           transform="matrix(1,0,0,-1,97.224,133.61)"
           style="font-variant:normal;font-weight:normal;font-size:24.024px;font-family:'宋体';-inkscape-font-specification:'宋体';writing-mode:lr-tb;fill:#000000;fill-opacity:1;fill-rule:nonzero;stroke:#000000;stroke-width:0.6864;stroke-linecap:butt;stroke-linejoin:round;stroke-miterlimit:10;stroke-dasharray:none;stroke-opacity:1"
           id="text398"><tspan
             x="0 24.120001 48.240002 72.360001 96.480003 120.6 144.72 168.84 192.96001"
             y="0"
             sodipodi:role="line"
             id="tspan396">驱动器个数要足够多</tspan></text></g></g><g
       id="g400"><g
         id="g402"
         clip-path="url(#clipPath406)"><text
           transform="matrix(1,0,0,-1,73.224,90.384)"
           style="font-variant:normal;font-weight:bold;font-size:24px;font-family:'Times New Roman';-inkscape-font-specification:'Times New Roman, Bold';writing-mode:lr-tb;fill:#000000;fill-opacity:1;fill-rule:nonzero;stroke:none"
           id="text410"><tspan
             x="0 12 18"
             y="0"
             sodipodi:role="line"
             id="tspan408">3. </tspan></text></g></g><g
       id="g412"><g
         id="g414"
         clip-path="url(#clipPath418)"><text
           transform="matrix(1,0,0,-1,97.224,90.384)"
           style="font-variant:normal;font-weight:normal;font-size:24px;font-family:'宋体';-inkscape-font-specification:'宋体';writing-mode:lr-tb;fill:#000000;fill-opacity:1;fill-rule:nonzero;stroke:#000000;stroke-width:0.68571;stroke-linecap:butt;stroke-linejoin:round;stroke-miterlimit:10;stroke-dasharray:none;stroke-opacity:1"
           id="text422"><tspan
             x="0 24.120001 48.240002 72.360001 96.480003 120.6 144.72"
             y="0"
             sodipodi:role="line"
             id="tspan420">需要多个控制器</tspan></text></g></g></g></svg>
