<?xml version="1.0" encoding="UTF-8" standalone="no"?>
<svg
   xmlns:dc="http://purl.org/dc/elements/1.1/"
   xmlns:cc="http://creativecommons.org/ns#"
   xmlns:rdf="http://www.w3.org/1999/02/22-rdf-syntax-ns#"
   xmlns:svg="http://www.w3.org/2000/svg"
   xmlns="http://www.w3.org/2000/svg"
   xmlns:sodipodi="http://sodipodi.sourceforge.net/DTD/sodipodi-0.dtd"
   xmlns:inkscape="http://www.inkscape.org/namespaces/inkscape"
   version="1.1"
   id="svg2"
   xml:space="preserve"
   width="896.95996"
   height="359.80014"
   viewBox="0 0 896.95996 359.80014"
   sodipodi:docname="raid1.svg"
   inkscape:version="1.0.2 (1.0.2+r75+1)"><metadata
     id="metadata8"><rdf:RDF><cc:Work
         rdf:about=""><dc:format>image/svg+xml</dc:format><dc:type
           rdf:resource="http://purl.org/dc/dcmitype/StillImage" /><dc:title></dc:title></cc:Work></rdf:RDF></metadata><defs
     id="defs6"><clipPath
       clipPathUnits="userSpaceOnUse"
       id="clipPath18"><path
         d="M 0,1.2207e-4 H 720 V 540.00012 H 0 Z"
         clip-rule="evenodd"
         id="path16" /></clipPath><linearGradient
       x1="100.8"
       y1="615.59998"
       x2="619.20001"
       y2="-75.599998"
       gradientUnits="userSpaceOnUse"
       spreadMethod="pad"
       id="linearGradient24"><stop
         style="stop-opacity:1;stop-color:#ffffff"
         offset="0"
         id="stop20" /><stop
         style="stop-opacity:1;stop-color:#ffffff"
         offset="1"
         id="stop22" /></linearGradient><clipPath
       clipPathUnits="userSpaceOnUse"
       id="clipPath34"><path
         d="M 0,1.2207e-4 H 720 V 540.00012 H 0 Z"
         clip-rule="evenodd"
         id="path32" /></clipPath><clipPath
       clipPathUnits="userSpaceOnUse"
       id="clipPath44"><path
         d="M 1.0729e-5,0 H 720.00001 V 540 H 1.0729e-5 Z"
         clip-rule="evenodd"
         id="path42" /></clipPath><clipPath
       clipPathUnits="userSpaceOnUse"
       id="clipPath56"><path
         d="M 1.0729e-5,0 H 720.00001 V 540 H 1.0729e-5 Z"
         clip-rule="evenodd"
         id="path54" /></clipPath><clipPath
       clipPathUnits="userSpaceOnUse"
       id="clipPath68"><path
         d="M 0,3.0518e-4 H 720 V 540.00031 H 0 Z"
         clip-rule="evenodd"
         id="path66" /></clipPath><clipPath
       clipPathUnits="userSpaceOnUse"
       id="clipPath80"><path
         d="M 1.0729e-5,0 H 720.00001 V 540 H 1.0729e-5 Z"
         clip-rule="evenodd"
         id="path78" /></clipPath><clipPath
       clipPathUnits="userSpaceOnUse"
       id="clipPath98"><path
         d="M -7.629e-6,540 H 720 V 0 L -2.2888e-5,6.1035e-5"
         clip-rule="evenodd"
         id="path96" /></clipPath><clipPath
       clipPathUnits="userSpaceOnUse"
       id="clipPath108"><path
         d="M 0,540 H 720 V 0 L 0,6.1035e-5"
         clip-rule="evenodd"
         id="path106" /></clipPath><clipPath
       clipPathUnits="userSpaceOnUse"
       id="clipPath124"><path
         d="M -1.5259e-5,540 H 720 V 0 L -1.5259e-5,6.1035e-5"
         clip-rule="evenodd"
         id="path122" /></clipPath><clipPath
       clipPathUnits="userSpaceOnUse"
       id="clipPath134"><path
         d="M -1.5259e-5,540 H 720 V 0 L -1.5259e-5,6.1035e-5"
         clip-rule="evenodd"
         id="path132" /></clipPath><clipPath
       clipPathUnits="userSpaceOnUse"
       id="clipPath150"><path
         d="M -1.5259e-5,540 H 720 V 0 L -1.5259e-5,6.1035e-5"
         clip-rule="evenodd"
         id="path148" /></clipPath><clipPath
       clipPathUnits="userSpaceOnUse"
       id="clipPath160"><path
         d="M 0,540 H 720 V 0 L -1.5259e-5,6.1035e-5"
         clip-rule="evenodd"
         id="path158" /></clipPath><clipPath
       clipPathUnits="userSpaceOnUse"
       id="clipPath176"><path
         d="M 0,540 H 720 V 0 L -3.0518e-5,6.1035e-5"
         clip-rule="evenodd"
         id="path174" /></clipPath><clipPath
       clipPathUnits="userSpaceOnUse"
       id="clipPath186"><path
         d="M 0,540 H 720 V 0 L -3.0518e-5,6.1035e-5"
         clip-rule="evenodd"
         id="path184" /></clipPath><clipPath
       clipPathUnits="userSpaceOnUse"
       id="clipPath202"><path
         d="M 0,540 H 720 V 0 L 0,6.1035e-5"
         clip-rule="evenodd"
         id="path200" /></clipPath><clipPath
       clipPathUnits="userSpaceOnUse"
       id="clipPath212"><path
         d="M 0,540 H 720 V 0 L 0,6.1035e-5"
         clip-rule="evenodd"
         id="path210" /></clipPath><clipPath
       clipPathUnits="userSpaceOnUse"
       id="clipPath228"><path
         d="M -3.0518e-5,540 H 720 V 0 H -3.0518e-5"
         clip-rule="evenodd"
         id="path226" /></clipPath><clipPath
       clipPathUnits="userSpaceOnUse"
       id="clipPath238"><path
         d="M 0,540 H 720 V 0 L -3.0518e-5,6.1035e-5"
         clip-rule="evenodd"
         id="path236" /></clipPath><clipPath
       clipPathUnits="userSpaceOnUse"
       id="clipPath254"><path
         d="M 0,540 H 720 V 0 L 0,6.1035e-5"
         clip-rule="evenodd"
         id="path252" /></clipPath><clipPath
       clipPathUnits="userSpaceOnUse"
       id="clipPath264"><path
         d="M -6.1035e-5,540 H 720 V 6.1035e-5 L 0,1.2207e-4"
         clip-rule="evenodd"
         id="path262" /></clipPath><clipPath
       clipPathUnits="userSpaceOnUse"
       id="clipPath280"><path
         d="M 0,540 H 720 V 0 L -6.1035e-5,6.1035e-5"
         clip-rule="evenodd"
         id="path278" /></clipPath><clipPath
       clipPathUnits="userSpaceOnUse"
       id="clipPath290"><path
         d="M 0,540 H 720 V 6.1035e-5 L 0,1.2207e-4"
         clip-rule="evenodd"
         id="path288" /></clipPath><clipPath
       clipPathUnits="userSpaceOnUse"
       id="clipPath300"><path
         d="M 1.0729e-5,0 H 720.00001 V 540 H 1.0729e-5 Z"
         clip-rule="evenodd"
         id="path298" /></clipPath><clipPath
       clipPathUnits="userSpaceOnUse"
       id="clipPath312"><path
         d="M 1.0729e-5,0 H 720.00001 V 540 H 1.0729e-5 Z"
         clip-rule="evenodd"
         id="path310" /></clipPath><clipPath
       clipPathUnits="userSpaceOnUse"
       id="clipPath324"><path
         d="M 1.0729e-5,0 H 720.00001 V 540 H 1.0729e-5 Z"
         clip-rule="evenodd"
         id="path322" /></clipPath><clipPath
       clipPathUnits="userSpaceOnUse"
       id="clipPath336"><path
         d="M 1.0729e-5,0 H 720.00001 V 540 H 1.0729e-5 Z"
         clip-rule="evenodd"
         id="path334" /></clipPath><clipPath
       clipPathUnits="userSpaceOnUse"
       id="clipPath348"><path
         d="M 1.0729e-5,0 H 720.00001 V 540 H 1.0729e-5 Z"
         clip-rule="evenodd"
         id="path346" /></clipPath><clipPath
       clipPathUnits="userSpaceOnUse"
       id="clipPath360"><path
         d="M 1.0729e-5,0 H 720.00001 V 540 H 1.0729e-5 Z"
         clip-rule="evenodd"
         id="path358" /></clipPath><clipPath
       clipPathUnits="userSpaceOnUse"
       id="clipPath372"><path
         d="M 1.0729e-5,0 H 720.00001 V 540 H 1.0729e-5 Z"
         clip-rule="evenodd"
         id="path370" /></clipPath><clipPath
       clipPathUnits="userSpaceOnUse"
       id="clipPath384"><path
         d="M 1.0729e-5,0 H 720.00001 V 540 H 1.0729e-5 Z"
         clip-rule="evenodd"
         id="path382" /></clipPath><clipPath
       clipPathUnits="userSpaceOnUse"
       id="clipPath396"><path
         d="M 1.0729e-5,0 H 720.00001 V 540 H 1.0729e-5 Z"
         clip-rule="evenodd"
         id="path394" /></clipPath><clipPath
       clipPathUnits="userSpaceOnUse"
       id="clipPath408"><path
         d="M 1.0729e-5,0 H 720.00001 V 540 H 1.0729e-5 Z"
         clip-rule="evenodd"
         id="path406" /></clipPath><clipPath
       clipPathUnits="userSpaceOnUse"
       id="clipPath420"><path
         d="M 1.0729e-5,0 H 720.00001 V 540 H 1.0729e-5 Z"
         clip-rule="evenodd"
         id="path418" /></clipPath><clipPath
       clipPathUnits="userSpaceOnUse"
       id="clipPath432"><path
         d="M 1.0729e-5,0 H 720.00001 V 540 H 1.0729e-5 Z"
         clip-rule="evenodd"
         id="path430" /></clipPath><clipPath
       clipPathUnits="userSpaceOnUse"
       id="clipPath444"><path
         d="M 1.0729e-5,0 H 720.00001 V 540 H 1.0729e-5 Z"
         clip-rule="evenodd"
         id="path442" /></clipPath><clipPath
       clipPathUnits="userSpaceOnUse"
       id="clipPath456"><path
         d="M 1.0729e-5,0 H 720.00001 V 540 H 1.0729e-5 Z"
         clip-rule="evenodd"
         id="path454" /></clipPath><clipPath
       clipPathUnits="userSpaceOnUse"
       id="clipPath468"><path
         d="M 1.0729e-5,0 H 720.00001 V 540 H 1.0729e-5 Z"
         clip-rule="evenodd"
         id="path466" /></clipPath><clipPath
       clipPathUnits="userSpaceOnUse"
       id="clipPath480"><path
         d="M 1.0729e-5,0 H 720.00001 V 540 H 1.0729e-5 Z"
         clip-rule="evenodd"
         id="path478" /></clipPath><clipPath
       clipPathUnits="userSpaceOnUse"
       id="clipPath492"><path
         d="M 1.0729e-5,0 H 720.00001 V 540 H 1.0729e-5 Z"
         clip-rule="evenodd"
         id="path490" /></clipPath><clipPath
       clipPathUnits="userSpaceOnUse"
       id="clipPath504"><path
         d="M 1.0729e-5,0 H 720.00001 V 540 H 1.0729e-5 Z"
         clip-rule="evenodd"
         id="path502" /></clipPath><clipPath
       clipPathUnits="userSpaceOnUse"
       id="clipPath516"><path
         d="M 1.0729e-5,0 H 720.00001 V 540 H 1.0729e-5 Z"
         clip-rule="evenodd"
         id="path514" /></clipPath><clipPath
       clipPathUnits="userSpaceOnUse"
       id="clipPath528"><path
         d="M 1.0729e-5,0 H 720.00001 V 540 H 1.0729e-5 Z"
         clip-rule="evenodd"
         id="path526" /></clipPath><clipPath
       clipPathUnits="userSpaceOnUse"
       id="clipPath540"><path
         d="M 1.0729e-5,0 H 720.00001 V 540 H 1.0729e-5 Z"
         clip-rule="evenodd"
         id="path538" /></clipPath><clipPath
       clipPathUnits="userSpaceOnUse"
       id="clipPath552"><path
         d="M 1.0729e-5,0 H 720.00001 V 540 H 1.0729e-5 Z"
         clip-rule="evenodd"
         id="path550" /></clipPath><clipPath
       clipPathUnits="userSpaceOnUse"
       id="clipPath564"><path
         d="M 1.0729e-5,0 H 720.00001 V 540 H 1.0729e-5 Z"
         clip-rule="evenodd"
         id="path562" /></clipPath><clipPath
       clipPathUnits="userSpaceOnUse"
       id="clipPath576"><path
         d="M 1.0729e-5,0 H 720.00001 V 540 H 1.0729e-5 Z"
         clip-rule="evenodd"
         id="path574" /></clipPath><clipPath
       clipPathUnits="userSpaceOnUse"
       id="clipPath588"><path
         d="M 1.0729e-5,0 H 720.00001 V 540 H 1.0729e-5 Z"
         clip-rule="evenodd"
         id="path586" /></clipPath><clipPath
       clipPathUnits="userSpaceOnUse"
       id="clipPath600"><path
         d="M 1.0729e-5,0 H 720.00001 V 540 H 1.0729e-5 Z"
         clip-rule="evenodd"
         id="path598" /></clipPath><clipPath
       clipPathUnits="userSpaceOnUse"
       id="clipPath612"><path
         d="M 1.0729e-5,0 H 720.00001 V 540 H 1.0729e-5 Z"
         clip-rule="evenodd"
         id="path610" /></clipPath><clipPath
       clipPathUnits="userSpaceOnUse"
       id="clipPath624"><path
         d="M 1.0729e-5,0 H 720.00001 V 540 H 1.0729e-5 Z"
         clip-rule="evenodd"
         id="path622" /></clipPath><clipPath
       clipPathUnits="userSpaceOnUse"
       id="clipPath636"><path
         d="M 1.0729e-5,0 H 720.00001 V 540 H 1.0729e-5 Z"
         clip-rule="evenodd"
         id="path634" /></clipPath><clipPath
       clipPathUnits="userSpaceOnUse"
       id="clipPath648"><path
         d="M 1.0729e-5,0 H 720.00001 V 540 H 1.0729e-5 Z"
         clip-rule="evenodd"
         id="path646" /></clipPath><clipPath
       clipPathUnits="userSpaceOnUse"
       id="clipPath660"><path
         d="M 1.0729e-5,0 H 720.00001 V 540 H 1.0729e-5 Z"
         clip-rule="evenodd"
         id="path658" /></clipPath></defs><sodipodi:namedview
     pagecolor="#ffffff"
     bordercolor="#666666"
     borderopacity="1"
     objecttolerance="10"
     gridtolerance="10"
     guidetolerance="10"
     inkscape:pageopacity="0"
     inkscape:pageshadow="2"
     inkscape:window-width="1920"
     inkscape:window-height="1008"
     id="namedview4"
     showgrid="false"
     inkscape:zoom="1.1638889"
     inkscape:cx="464.48"
     inkscape:cy="110.11245"
     inkscape:window-x="0"
     inkscape:window-y="0"
     inkscape:window-maximized="1"
     inkscape:current-layer="g10" /><g
     id="g10"
     inkscape:groupmode="layer"
     inkscape:label="!!!!!计算机组成ppt"
     transform="matrix(1.3333333,0,0,-1.3333333,-15.52,504.47999)"><path
       d="m 12,360.75 c 0,-9.53 16.118,-17.25 36,-17.25 19.882,0 36,7.72 36,17.25 V 257.25 C 84,247.72 67.882,240 48,240 c -19.882,0 -36,7.72 -36,17.25 z"
       style="fill:#ffffff;fill-opacity:0.50196;fill-rule:evenodd;stroke:none"
       id="path86" /><path
       d="m 12,360.75 c 0,9.53 16.118,17.25 36,17.25 19.882,0 36,-7.72 36,-17.25 0,-9.53 -16.118,-17.25 -36,-17.25 -19.882,0 -36,7.72 -36,17.25 z"
       style="fill:#ffffff;fill-opacity:0.50196;fill-rule:evenodd;stroke:none"
       id="path88" /><path
       d="m 84,360.75 c 0,-9.53 -16.118,-17.25 -36,-17.25 -19.882,0 -36,7.72 -36,17.25 0,9.53 16.118,17.25 36,17.25 19.882,0 36,-7.72 36,-17.25 z m 0,0 V 257.25 C 84,247.72 67.882,240 48,240 c -19.882,0 -36,7.72 -36,17.25 v 103.5"
       style="fill:none;stroke:#000000;stroke-width:0.72;stroke-linecap:butt;stroke-linejoin:round;stroke-miterlimit:10;stroke-dasharray:none;stroke-opacity:1"
       id="path90" /><g
       id="g92"><g
         id="g94"
         clip-path="url(#clipPath98)"><path
           d="M 82.307,284.92 C 52.49,270.45 21.213,273.38 12.445,291.46"
           style="fill:none;stroke:#000000;stroke-width:0.75;stroke-linecap:butt;stroke-linejoin:round;stroke-miterlimit:10;stroke-dasharray:none;stroke-opacity:1"
           id="path100" /></g></g><g
       id="g102"><g
         id="g104"
         clip-path="url(#clipPath108)"><path
           d="M 82.932,320.54 C 53.115,306.08 21.838,309.01 13.07,327.08"
           style="fill:none;stroke:#000000;stroke-width:0.75;stroke-linecap:butt;stroke-linejoin:round;stroke-miterlimit:10;stroke-dasharray:none;stroke-opacity:1"
           id="path110" /></g></g><path
       d="m 96,360.75 c 0,-9.53 16.12,-17.25 36,-17.25 19.88,0 36,7.72 36,17.25 V 257.25 C 168,247.72 151.88,240 132,240 c -19.88,0 -36,7.72 -36,17.25 z"
       style="fill:#ffffff;fill-opacity:0.50196;fill-rule:evenodd;stroke:none"
       id="path112" /><path
       d="m 96,360.75 c 0,9.53 16.12,17.25 36,17.25 19.88,0 36,-7.72 36,-17.25 0,-9.53 -16.12,-17.25 -36,-17.25 -19.88,0 -36,7.72 -36,17.25 z"
       style="fill:#ffffff;fill-opacity:0.50196;fill-rule:evenodd;stroke:none"
       id="path114" /><path
       d="m 168,360.75 c 0,-9.53 -16.12,-17.25 -36,-17.25 -19.88,0 -36,7.72 -36,17.25 0,9.53 16.12,17.25 36,17.25 19.88,0 36,-7.72 36,-17.25 z m 0,0 V 257.25 C 168,247.72 151.88,240 132,240 c -19.88,0 -36,7.72 -36,17.25 v 103.5"
       style="fill:none;stroke:#000000;stroke-width:0.72;stroke-linecap:butt;stroke-linejoin:round;stroke-miterlimit:10;stroke-dasharray:none;stroke-opacity:1"
       id="path116" /><g
       id="g118"><g
         id="g120"
         clip-path="url(#clipPath124)"><path
           d="m 166.31,284.92 c -29.82,-14.47 -61.1,-11.54 -69.865,6.54"
           style="fill:none;stroke:#000000;stroke-width:0.75;stroke-linecap:butt;stroke-linejoin:round;stroke-miterlimit:10;stroke-dasharray:none;stroke-opacity:1"
           id="path126" /></g></g><g
       id="g128"><g
         id="g130"
         clip-path="url(#clipPath134)"><path
           d="m 166.93,320.54 c -29.81,-14.46 -61.09,-11.53 -69.86,6.54"
           style="fill:none;stroke:#000000;stroke-width:0.75;stroke-linecap:butt;stroke-linejoin:round;stroke-miterlimit:10;stroke-dasharray:none;stroke-opacity:1"
           id="path136" /></g></g><path
       d="m 180,360.75 c 0,-9.53 16.12,-17.25 36,-17.25 19.88,0 36,7.72 36,17.25 V 257.25 C 252,247.72 235.88,240 216,240 c -19.88,0 -36,7.72 -36,17.25 z"
       style="fill:#ffffff;fill-opacity:0.50196;fill-rule:evenodd;stroke:none"
       id="path138" /><path
       d="m 180,360.75 c 0,9.53 16.12,17.25 36,17.25 19.88,0 36,-7.72 36,-17.25 0,-9.53 -16.12,-17.25 -36,-17.25 -19.88,0 -36,7.72 -36,17.25 z"
       style="fill:#ffffff;fill-opacity:0.50196;fill-rule:evenodd;stroke:none"
       id="path140" /><path
       d="m 252,360.75 c 0,-9.53 -16.12,-17.25 -36,-17.25 -19.88,0 -36,7.72 -36,17.25 0,9.53 16.12,17.25 36,17.25 19.88,0 36,-7.72 36,-17.25 z m 0,0 V 257.25 C 252,247.72 235.88,240 216,240 c -19.88,0 -36,7.72 -36,17.25 v 103.5"
       style="fill:none;stroke:#000000;stroke-width:0.72;stroke-linecap:butt;stroke-linejoin:round;stroke-miterlimit:10;stroke-dasharray:none;stroke-opacity:1"
       id="path142" /><g
       id="g144"><g
         id="g146"
         clip-path="url(#clipPath150)"><path
           d="m 250.31,284.92 c -29.82,-14.47 -61.1,-11.54 -69.86,6.54"
           style="fill:none;stroke:#000000;stroke-width:0.75;stroke-linecap:butt;stroke-linejoin:round;stroke-miterlimit:10;stroke-dasharray:none;stroke-opacity:1"
           id="path152" /></g></g><g
       id="g154"><g
         id="g156"
         clip-path="url(#clipPath160)"><path
           d="m 250.93,320.54 c -29.81,-14.46 -61.09,-11.53 -69.86,6.54"
           style="fill:none;stroke:#000000;stroke-width:0.75;stroke-linecap:butt;stroke-linejoin:round;stroke-miterlimit:10;stroke-dasharray:none;stroke-opacity:1"
           id="path162" /></g></g><path
       d="m 264,360.75 c 0,-9.53 16.12,-17.25 36,-17.25 19.88,0 36,7.72 36,17.25 V 257.25 C 336,247.72 319.88,240 300,240 c -19.88,0 -36,7.72 -36,17.25 z"
       style="fill:#ffffff;fill-opacity:0.50196;fill-rule:evenodd;stroke:none"
       id="path164" /><path
       d="m 264,360.75 c 0,9.53 16.12,17.25 36,17.25 19.88,0 36,-7.72 36,-17.25 0,-9.53 -16.12,-17.25 -36,-17.25 -19.88,0 -36,7.72 -36,17.25 z"
       style="fill:#ffffff;fill-opacity:0.50196;fill-rule:evenodd;stroke:none"
       id="path166" /><path
       d="m 336,360.75 c 0,-9.53 -16.12,-17.25 -36,-17.25 -19.88,0 -36,7.72 -36,17.25 0,9.53 16.12,17.25 36,17.25 19.88,0 36,-7.72 36,-17.25 z m 0,0 V 257.25 C 336,247.72 319.88,240 300,240 c -19.88,0 -36,7.72 -36,17.25 v 103.5"
       style="fill:none;stroke:#000000;stroke-width:0.72;stroke-linecap:butt;stroke-linejoin:round;stroke-miterlimit:10;stroke-dasharray:none;stroke-opacity:1"
       id="path168" /><g
       id="g170"><g
         id="g172"
         clip-path="url(#clipPath176)"><path
           d="m 334.31,284.92 c -29.82,-14.47 -61.1,-11.54 -69.86,6.54"
           style="fill:none;stroke:#000000;stroke-width:0.75;stroke-linecap:butt;stroke-linejoin:round;stroke-miterlimit:10;stroke-dasharray:none;stroke-opacity:1"
           id="path178" /></g></g><g
       id="g180"><g
         id="g182"
         clip-path="url(#clipPath186)"><path
           d="m 334.93,320.54 c -29.81,-14.46 -61.09,-11.53 -69.86,6.54"
           style="fill:none;stroke:#000000;stroke-width:0.75;stroke-linecap:butt;stroke-linejoin:round;stroke-miterlimit:10;stroke-dasharray:none;stroke-opacity:1"
           id="path188" /></g></g><path
       d="m 348,360.75 c 0,-9.53 16.12,-17.25 36,-17.25 19.88,0 36,7.72 36,17.25 V 257.25 C 420,247.72 403.88,240 384,240 c -19.88,0 -36,7.72 -36,17.25 z"
       style="fill:#c0c0c0;fill-opacity:0.50196;fill-rule:evenodd;stroke:none"
       id="path190" /><path
       d="m 348,360.75 c 0,9.53 16.12,17.25 36,17.25 19.88,0 36,-7.72 36,-17.25 0,-9.53 -16.12,-17.25 -36,-17.25 -19.88,0 -36,7.72 -36,17.25 z"
       style="fill:#d9d9d9;fill-opacity:0.50196;fill-rule:evenodd;stroke:none"
       id="path192" /><path
       d="m 420,360.75 c 0,-9.53 -16.12,-17.25 -36,-17.25 -19.88,0 -36,7.72 -36,17.25 0,9.53 16.12,17.25 36,17.25 19.88,0 36,-7.72 36,-17.25 z m 0,0 V 257.25 C 420,247.72 403.88,240 384,240 c -19.88,0 -36,7.72 -36,17.25 v 103.5"
       style="fill:none;stroke:#000000;stroke-width:0.72;stroke-linecap:butt;stroke-linejoin:round;stroke-miterlimit:10;stroke-dasharray:none;stroke-opacity:1"
       id="path194" /><g
       id="g196"><g
         id="g198"
         clip-path="url(#clipPath202)"><path
           d="m 418.31,284.92 c -29.82,-14.47 -61.1,-11.54 -69.86,6.54"
           style="fill:none;stroke:#000000;stroke-width:0.75;stroke-linecap:butt;stroke-linejoin:round;stroke-miterlimit:10;stroke-dasharray:none;stroke-opacity:1"
           id="path204" /></g></g><g
       id="g206"><g
         id="g208"
         clip-path="url(#clipPath212)"><path
           d="m 418.93,320.54 c -29.81,-14.46 -61.09,-11.53 -69.86,6.54"
           style="fill:none;stroke:#000000;stroke-width:0.75;stroke-linecap:butt;stroke-linejoin:round;stroke-miterlimit:10;stroke-dasharray:none;stroke-opacity:1"
           id="path214" /></g></g><path
       d="m 432,360.75 c 0,-9.53 16.12,-17.25 36,-17.25 19.88,0 36,7.72 36,17.25 V 257.25 C 504,247.72 487.88,240 468,240 c -19.88,0 -36,7.72 -36,17.25 z"
       style="fill:#c0c0c0;fill-opacity:0.50196;fill-rule:evenodd;stroke:none"
       id="path216" /><path
       d="m 432,360.75 c 0,9.53 16.12,17.25 36,17.25 19.88,0 36,-7.72 36,-17.25 0,-9.53 -16.12,-17.25 -36,-17.25 -19.88,0 -36,7.72 -36,17.25 z"
       style="fill:#d9d9d9;fill-opacity:0.50196;fill-rule:evenodd;stroke:none"
       id="path218" /><path
       d="m 504,360.75 c 0,-9.53 -16.12,-17.25 -36,-17.25 -19.88,0 -36,7.72 -36,17.25 0,9.53 16.12,17.25 36,17.25 19.88,0 36,-7.72 36,-17.25 z m 0,0 V 257.25 C 504,247.72 487.88,240 468,240 c -19.88,0 -36,7.72 -36,17.25 v 103.5"
       style="fill:none;stroke:#000000;stroke-width:0.72;stroke-linecap:butt;stroke-linejoin:round;stroke-miterlimit:10;stroke-dasharray:none;stroke-opacity:1"
       id="path220" /><g
       id="g222"><g
         id="g224"
         clip-path="url(#clipPath228)"><path
           d="m 502.31,284.92 c -29.82,-14.47 -61.1,-11.54 -69.86,6.54"
           style="fill:none;stroke:#000000;stroke-width:0.75;stroke-linecap:butt;stroke-linejoin:round;stroke-miterlimit:10;stroke-dasharray:none;stroke-opacity:1"
           id="path230" /></g></g><g
       id="g232"><g
         id="g234"
         clip-path="url(#clipPath238)"><path
           d="m 502.93,320.54 c -29.81,-14.46 -61.09,-11.53 -69.86,6.54"
           style="fill:none;stroke:#000000;stroke-width:0.75;stroke-linecap:butt;stroke-linejoin:round;stroke-miterlimit:10;stroke-dasharray:none;stroke-opacity:1"
           id="path240" /></g></g><path
       d="m 522,360.75 c 0,-9.53 16.12,-17.25 36,-17.25 19.88,0 36,7.72 36,17.25 V 257.25 C 594,247.72 577.88,240 558,240 c -19.88,0 -36,7.72 -36,17.25 z"
       style="fill:#c0c0c0;fill-opacity:0.50196;fill-rule:evenodd;stroke:none"
       id="path242" /><path
       d="m 522,360.75 c 0,9.53 16.12,17.25 36,17.25 19.88,0 36,-7.72 36,-17.25 0,-9.53 -16.12,-17.25 -36,-17.25 -19.88,0 -36,7.72 -36,17.25 z"
       style="fill:#d9d9d9;fill-opacity:0.50196;fill-rule:evenodd;stroke:none"
       id="path244" /><path
       d="m 594,360.75 c 0,-9.53 -16.12,-17.25 -36,-17.25 -19.88,0 -36,7.72 -36,17.25 0,9.53 16.12,17.25 36,17.25 19.88,0 36,-7.72 36,-17.25 z m 0,0 V 257.25 C 594,247.72 577.88,240 558,240 c -19.88,0 -36,7.72 -36,17.25 v 103.5"
       style="fill:none;stroke:#000000;stroke-width:0.72;stroke-linecap:butt;stroke-linejoin:round;stroke-miterlimit:10;stroke-dasharray:none;stroke-opacity:1"
       id="path246" /><g
       id="g248"><g
         id="g250"
         clip-path="url(#clipPath254)"><path
           d="m 592.31,284.92 c -29.82,-14.47 -61.1,-11.54 -69.86,6.54"
           style="fill:none;stroke:#000000;stroke-width:0.75;stroke-linecap:butt;stroke-linejoin:round;stroke-miterlimit:10;stroke-dasharray:none;stroke-opacity:1"
           id="path256" /></g></g><g
       id="g258"><g
         id="g260"
         clip-path="url(#clipPath264)"><path
           d="m 592.93,320.54 c -29.81,-14.46 -61.09,-11.53 -69.86,6.54"
           style="fill:none;stroke:#000000;stroke-width:0.75;stroke-linecap:butt;stroke-linejoin:round;stroke-miterlimit:10;stroke-dasharray:none;stroke-opacity:1"
           id="path266" /></g></g><path
       d="m 612,360.75 c 0,-9.53 16.12,-17.25 36,-17.25 19.88,0 36,7.72 36,17.25 V 257.25 C 684,247.72 667.88,240 648,240 c -19.88,0 -36,7.72 -36,17.25 z"
       style="fill:#c0c0c0;fill-opacity:0.50196;fill-rule:evenodd;stroke:none"
       id="path268" /><path
       d="m 612,360.75 c 0,9.53 16.12,17.25 36,17.25 19.88,0 36,-7.72 36,-17.25 0,-9.53 -16.12,-17.25 -36,-17.25 -19.88,0 -36,7.72 -36,17.25 z"
       style="fill:#d9d9d9;fill-opacity:0.50196;fill-rule:evenodd;stroke:none"
       id="path270" /><path
       d="m 684,360.75 c 0,-9.53 -16.12,-17.25 -36,-17.25 -19.88,0 -36,7.72 -36,17.25 0,9.53 16.12,17.25 36,17.25 19.88,0 36,-7.72 36,-17.25 z m 0,0 V 257.25 C 684,247.72 667.88,240 648,240 c -19.88,0 -36,7.72 -36,17.25 v 103.5"
       style="fill:none;stroke:#000000;stroke-width:0.72;stroke-linecap:butt;stroke-linejoin:round;stroke-miterlimit:10;stroke-dasharray:none;stroke-opacity:1"
       id="path272" /><g
       id="g274"><g
         id="g276"
         clip-path="url(#clipPath280)"><path
           d="m 682.31,284.92 c -29.82,-14.47 -61.1,-11.54 -69.86,6.54"
           style="fill:none;stroke:#000000;stroke-width:0.75;stroke-linecap:butt;stroke-linejoin:round;stroke-miterlimit:10;stroke-dasharray:none;stroke-opacity:1"
           id="path282" /></g></g><g
       id="g284"><g
         id="g286"
         clip-path="url(#clipPath290)"><path
           d="m 682.93,320.54 c -29.81,-14.46 -61.09,-11.53 -69.86,6.54"
           style="fill:none;stroke:#000000;stroke-width:0.75;stroke-linecap:butt;stroke-linejoin:round;stroke-miterlimit:10;stroke-dasharray:none;stroke-opacity:1"
           id="path292" /></g></g><g
       id="g294"><g
         id="g296"
         clip-path="url(#clipPath300)"><text
           transform="matrix(1,0,0,-1,25.2,320.28)"
           style="font-variant:normal;font-weight:normal;font-size:20.04px;font-family:'Times New Roman';-inkscape-font-specification:'Times New';writing-mode:lr-tb;fill:#000000;fill-opacity:1;fill-rule:nonzero;stroke:none"
           id="text304"><tspan
             x="0 11.14224 16.71336 23.386681 28.9578 38.977798"
             y="0"
             sodipodi:role="line"
             id="tspan302">Strip0</tspan></text></g></g><g
       id="g306"><g
         id="g308"
         clip-path="url(#clipPath312)"><text
           transform="matrix(1,0,0,-1,25.2,290.28)"
           style="font-variant:normal;font-weight:normal;font-size:20.04px;font-family:'Times New Roman';-inkscape-font-specification:'Times New';writing-mode:lr-tb;fill:#000000;fill-opacity:1;fill-rule:nonzero;stroke:none"
           id="text316"><tspan
             x="0 11.14224 16.71336 23.386681 28.9578 38.977798"
             y="0"
             sodipodi:role="line"
             id="tspan314">Strip4</tspan></text></g></g><g
       id="g318"><g
         id="g320"
         clip-path="url(#clipPath324)"><text
           transform="matrix(1,0,0,-1,25.2,259.03)"
           style="font-variant:normal;font-weight:normal;font-size:20.064px;font-family:'Times New Roman';-inkscape-font-specification:'Times New';writing-mode:lr-tb;fill:#000000;fill-opacity:1;fill-rule:nonzero;stroke:none"
           id="text328"><tspan
             x="0 11.155584 16.733376 23.414688 28.912224 38.944225"
             y="0"
             sodipodi:role="line"
             id="tspan326">Strip8</tspan></text></g></g><g
       id="g330"><g
         id="g332"
         clip-path="url(#clipPath336)"><text
           transform="matrix(1,0,0,-1,109.22,320.28)"
           style="font-variant:normal;font-weight:normal;font-size:20.04px;font-family:'Times New Roman';-inkscape-font-specification:'Times New';writing-mode:lr-tb;fill:#000000;fill-opacity:1;fill-rule:nonzero;stroke:none"
           id="text340"><tspan
             x="0 11.14224 16.71336 23.386681 28.9578 38.977798"
             y="0"
             sodipodi:role="line"
             id="tspan338">Strip1</tspan></text></g></g><g
       id="g342"><g
         id="g344"
         clip-path="url(#clipPath348)"><text
           transform="matrix(1,0,0,-1,109.22,290.28)"
           style="font-variant:normal;font-weight:normal;font-size:20.04px;font-family:'Times New Roman';-inkscape-font-specification:'Times New';writing-mode:lr-tb;fill:#000000;fill-opacity:1;fill-rule:nonzero;stroke:none"
           id="text352"><tspan
             x="0 11.14224 16.71336 23.386681 28.9578 38.977798"
             y="0"
             sodipodi:role="line"
             id="tspan350">Strip5</tspan></text></g></g><g
       id="g354"><g
         id="g356"
         clip-path="url(#clipPath360)"><text
           transform="matrix(1,0,0,-1,109.22,254.28)"
           style="font-variant:normal;font-weight:normal;font-size:20.064px;font-family:'Times New Roman';-inkscape-font-specification:'Times New';writing-mode:lr-tb;fill:#000000;fill-opacity:1;fill-rule:nonzero;stroke:none"
           id="text364"><tspan
             x="0 11.155584 16.733376 23.414688 28.912224 38.944225"
             y="0"
             sodipodi:role="line"
             id="tspan362">Strip9</tspan></text></g></g><g
       id="g366"><g
         id="g368"
         clip-path="url(#clipPath372)"><text
           transform="matrix(1,0,0,-1,193.22,325.03)"
           style="font-variant:normal;font-weight:normal;font-size:20.04px;font-family:'Times New Roman';-inkscape-font-specification:'Times New';writing-mode:lr-tb;fill:#000000;fill-opacity:1;fill-rule:nonzero;stroke:none"
           id="text376"><tspan
             x="0 11.14224 16.71336 23.386681 28.9578 38.977798"
             y="0"
             sodipodi:role="line"
             id="tspan374">Strip2</tspan></text></g></g><g
       id="g378"><g
         id="g380"
         clip-path="url(#clipPath384)"><text
           transform="matrix(1,0,0,-1,193.22,290.28)"
           style="font-variant:normal;font-weight:normal;font-size:20.04px;font-family:'Times New Roman';-inkscape-font-specification:'Times New';writing-mode:lr-tb;fill:#000000;fill-opacity:1;fill-rule:nonzero;stroke:none"
           id="text388"><tspan
             x="0 11.14224 16.71336 23.386681 28.9578 38.977798"
             y="0"
             sodipodi:role="line"
             id="tspan386">Strip6</tspan></text></g></g><g
       id="g390"><g
         id="g392"
         clip-path="url(#clipPath396)"><text
           transform="matrix(1,0,0,-1,187.22,253.03)"
           style="font-variant:normal;font-weight:normal;font-size:20.064px;font-family:'Times New Roman';-inkscape-font-specification:'Times New';writing-mode:lr-tb;fill:#000000;fill-opacity:1;fill-rule:nonzero;stroke:none"
           id="text400"><tspan
             x="0 11.155584 16.733376 23.414688 28.912224 38.944225 49.05648"
             y="0"
             sodipodi:role="line"
             id="tspan398">Strip10</tspan></text></g></g><g
       id="g402"><g
         id="g404"
         clip-path="url(#clipPath408)"><text
           transform="matrix(1,0,0,-1,277.25,325.03)"
           style="font-variant:normal;font-weight:normal;font-size:20.04px;font-family:'Times New Roman';-inkscape-font-specification:'Times New';writing-mode:lr-tb;fill:#000000;fill-opacity:1;fill-rule:nonzero;stroke:none"
           id="text412"><tspan
             x="0 11.14224 16.71336 23.386681 28.9578 38.977798"
             y="0"
             sodipodi:role="line"
             id="tspan410">Strip3</tspan></text></g></g><g
       id="g414"><g
         id="g416"
         clip-path="url(#clipPath420)"><text
           transform="matrix(1,0,0,-1,277.25,290.28)"
           style="font-variant:normal;font-weight:normal;font-size:20.04px;font-family:'Times New Roman';-inkscape-font-specification:'Times New';writing-mode:lr-tb;fill:#000000;fill-opacity:1;fill-rule:nonzero;stroke:none"
           id="text424"><tspan
             x="0 11.14224 16.71336 23.386681 28.9578 38.977798"
             y="0"
             sodipodi:role="line"
             id="tspan422">Strip7</tspan></text></g></g><g
       id="g426"><g
         id="g428"
         clip-path="url(#clipPath432)"><text
           transform="matrix(1,0,0,-1,277.25,254.28)"
           style="font-variant:normal;font-weight:normal;font-size:20.064px;font-family:'Times New Roman';-inkscape-font-specification:'Times New';writing-mode:lr-tb;fill:#000000;fill-opacity:1;fill-rule:nonzero;stroke:none"
           id="text436"><tspan
             x="0 11.155584 16.733376 23.414688 28.912224 38.944225 48.35424"
             y="0"
             sodipodi:role="line"
             id="tspan434">Strip11</tspan></text></g></g><g
       id="g438"><g
         id="g440"
         clip-path="url(#clipPath444)"><text
           transform="matrix(1,0,0,-1,619.3,259.03)"
           style="font-variant:normal;font-weight:normal;font-size:20.064px;font-family:'Times New Roman';-inkscape-font-specification:'Times New';writing-mode:lr-tb;fill:#000000;fill-opacity:1;fill-rule:nonzero;stroke:none"
           id="text448"><tspan
             x="0 11.155584 16.733376 23.414688 28.912224 38.944225 48.35424"
             y="0"
             sodipodi:role="line"
             id="tspan446">Strip11</tspan></text></g></g><g
       id="g450"><g
         id="g452"
         clip-path="url(#clipPath456)"><text
           transform="matrix(1,0,0,-1,625.3,289.03)"
           style="font-variant:normal;font-weight:normal;font-size:20.04px;font-family:'Times New Roman';-inkscape-font-specification:'Times New';writing-mode:lr-tb;fill:#000000;fill-opacity:1;fill-rule:nonzero;stroke:none"
           id="text460"><tspan
             x="0 11.14224 16.71336 23.386681 28.9578 38.977798"
             y="0"
             sodipodi:role="line"
             id="tspan458">Strip7</tspan></text></g></g><g
       id="g462"><g
         id="g464"
         clip-path="url(#clipPath468)"><text
           transform="matrix(1,0,0,-1,625.3,325.03)"
           style="font-variant:normal;font-weight:normal;font-size:20.04px;font-family:'Times New Roman';-inkscape-font-specification:'Times New';writing-mode:lr-tb;fill:#000000;fill-opacity:1;fill-rule:nonzero;stroke:none"
           id="text472"><tspan
             x="0 11.14224 16.71336 23.386681 28.9578 38.977798"
             y="0"
             sodipodi:role="line"
             id="tspan470">Strip3</tspan></text></g></g><g
       id="g474"><g
         id="g476"
         clip-path="url(#clipPath480)"><text
           transform="matrix(1,0,0,-1,535.3,325.03)"
           style="font-variant:normal;font-weight:normal;font-size:20.04px;font-family:'Times New Roman';-inkscape-font-specification:'Times New';writing-mode:lr-tb;fill:#000000;fill-opacity:1;fill-rule:nonzero;stroke:none"
           id="text484"><tspan
             x="0 11.14224 16.71336 23.386681 28.9578 38.977798"
             y="0"
             sodipodi:role="line"
             id="tspan482">Strip2</tspan></text></g></g><g
       id="g486"><g
         id="g488"
         clip-path="url(#clipPath492)"><text
           transform="matrix(1,0,0,-1,535.3,289.03)"
           style="font-variant:normal;font-weight:normal;font-size:20.04px;font-family:'Times New Roman';-inkscape-font-specification:'Times New';writing-mode:lr-tb;fill:#000000;fill-opacity:1;fill-rule:nonzero;stroke:none"
           id="text496"><tspan
             x="0 11.14224 16.71336 23.386681 28.9578 38.977798"
             y="0"
             sodipodi:role="line"
             id="tspan494">Strip6</tspan></text></g></g><g
       id="g498"><g
         id="g500"
         clip-path="url(#clipPath504)"><text
           transform="matrix(1,0,0,-1,529.3,253.03)"
           style="font-variant:normal;font-weight:normal;font-size:20.064px;font-family:'Times New Roman';-inkscape-font-specification:'Times New';writing-mode:lr-tb;fill:#000000;fill-opacity:1;fill-rule:nonzero;stroke:none"
           id="text508"><tspan
             x="0 11.155584 16.733376 23.414688 28.912224 38.944225 49.05648"
             y="0"
             sodipodi:role="line"
             id="tspan506">Strip10</tspan></text></g></g><g
       id="g510"><g
         id="g512"
         clip-path="url(#clipPath516)"><text
           transform="matrix(1,0,0,-1,451.27,325.03)"
           style="font-variant:normal;font-weight:normal;font-size:20.04px;font-family:'Times New Roman';-inkscape-font-specification:'Times New';writing-mode:lr-tb;fill:#000000;fill-opacity:1;fill-rule:nonzero;stroke:none"
           id="text520"><tspan
             x="0 11.14224 16.71336 23.386681 28.9578 38.977798"
             y="0"
             sodipodi:role="line"
             id="tspan518">Strip1</tspan></text></g></g><g
       id="g522"><g
         id="g524"
         clip-path="url(#clipPath528)"><text
           transform="matrix(1,0,0,-1,451.27,289.03)"
           style="font-variant:normal;font-weight:normal;font-size:20.04px;font-family:'Times New Roman';-inkscape-font-specification:'Times New';writing-mode:lr-tb;fill:#000000;fill-opacity:1;fill-rule:nonzero;stroke:none"
           id="text532"><tspan
             x="0 11.14224 16.71336 23.386681 28.9578 38.977798"
             y="0"
             sodipodi:role="line"
             id="tspan530">Strip5</tspan></text></g></g><g
       id="g534"><g
         id="g536"
         clip-path="url(#clipPath540)"><text
           transform="matrix(1,0,0,-1,451.27,253.03)"
           style="font-variant:normal;font-weight:normal;font-size:20.064px;font-family:'Times New Roman';-inkscape-font-specification:'Times New';writing-mode:lr-tb;fill:#000000;fill-opacity:1;fill-rule:nonzero;stroke:none"
           id="text544"><tspan
             x="0 11.155584 16.733376 23.414688 28.912224 38.944225"
             y="0"
             sodipodi:role="line"
             id="tspan542">Strip9</tspan></text></g></g><g
       id="g546"><g
         id="g548"
         clip-path="url(#clipPath552)"><text
           transform="matrix(1,0,0,-1,361.27,325.03)"
           style="font-variant:normal;font-weight:normal;font-size:20.04px;font-family:'Times New Roman';-inkscape-font-specification:'Times New';writing-mode:lr-tb;fill:#000000;fill-opacity:1;fill-rule:nonzero;stroke:none"
           id="text556"><tspan
             x="0 11.14224 16.71336 23.386681 28.9578 38.977798"
             y="0"
             sodipodi:role="line"
             id="tspan554">Strip0</tspan></text></g></g><g
       id="g558"><g
         id="g560"
         clip-path="url(#clipPath564)"><text
           transform="matrix(1,0,0,-1,361.27,289.03)"
           style="font-variant:normal;font-weight:normal;font-size:20.04px;font-family:'Times New Roman';-inkscape-font-specification:'Times New';writing-mode:lr-tb;fill:#000000;fill-opacity:1;fill-rule:nonzero;stroke:none"
           id="text568"><tspan
             x="0 11.14224 16.71336 23.386681 28.9578 38.977798"
             y="0"
             sodipodi:role="line"
             id="tspan566">Strip4</tspan></text></g></g><g
       id="g570"><g
         id="g572"
         clip-path="url(#clipPath576)"><text
           transform="matrix(1,0,0,-1,361.27,253.03)"
           style="font-variant:normal;font-weight:normal;font-size:20.064px;font-family:'Times New Roman';-inkscape-font-specification:'Times New';writing-mode:lr-tb;fill:#000000;fill-opacity:1;fill-rule:nonzero;stroke:none"
           id="text580"><tspan
             x="0 11.155584 16.733376 23.414688 28.912224 38.944225"
             y="0"
             sodipodi:role="line"
             id="tspan578">Strip8</tspan></text></g></g><g
       id="g582"
       transform="translate(0,45)"><g
         id="g584"
         clip-path="url(#clipPath588)"><text
           transform="matrix(1,0,0,-1,49.2,152.81)"
           style="font-variant:normal;font-weight:bold;font-size:24.024px;font-family:'Times New Roman';-inkscape-font-specification:'Times New Roman, Bold';writing-mode:lr-tb;fill:#000000;fill-opacity:1;fill-rule:nonzero;stroke:none"
           id="text592"><tspan
             x="0 12 17.993999"
             y="0"
             sodipodi:role="line"
             id="tspan590">1. </tspan></text></g></g><g
       id="g594"
       transform="translate(0,45)"><g
         id="g596"
         clip-path="url(#clipPath600)"><text
           transform="matrix(1,0,0,-1,73.224,152.81)"
           style="font-variant:normal;font-weight:normal;font-size:24.024px;font-family:'宋体';-inkscape-font-specification:'宋体';writing-mode:lr-tb;fill:#000000;fill-opacity:1;fill-rule:nonzero;stroke:#000000;stroke-width:0.6864;stroke-linecap:butt;stroke-linejoin:round;stroke-miterlimit:10;stroke-dasharray:none;stroke-opacity:1"
           id="text604"><tspan
             x="0 24.120001 48.240002 72.360001 96.480003 120.6 144.72 168.84 192.96001"
             y="0"
             sodipodi:role="line"
             id="tspan602">冗余备份，可靠性高</tspan></text></g></g><g
       id="g606"
       transform="translate(0,45)"><g
         id="g608"
         clip-path="url(#clipPath612)"><text
           transform="matrix(1,0,0,-1,49.2,109.58)"
           style="font-variant:normal;font-weight:bold;font-size:24px;font-family:'Times New Roman';-inkscape-font-specification:'Times New Roman, Bold';writing-mode:lr-tb;fill:#000000;fill-opacity:1;fill-rule:nonzero;stroke:none"
           id="text616"><tspan
             x="0 12 18"
             y="0"
             sodipodi:role="line"
             id="tspan614">2. </tspan></text></g></g><g
       id="g618"
       transform="translate(0,45)"><g
         id="g620"
         clip-path="url(#clipPath624)"><text
           transform="matrix(1,0,0,-1,73.224,109.58)"
           style="font-variant:normal;font-weight:normal;font-size:24px;font-family:'宋体';-inkscape-font-specification:'宋体';writing-mode:lr-tb;fill:#000000;fill-opacity:1;fill-rule:nonzero;stroke:#000000;stroke-width:0.68571;stroke-linecap:butt;stroke-linejoin:round;stroke-miterlimit:10;stroke-dasharray:none;stroke-opacity:1"
           id="text628"><tspan
             x="0 24.120001 48.240002 72.360001 96.480003 120.6 144.72 168.84 192.96001 217.08 241.2 265.32001 289.44 313.56 337.67999 361.79999"
             y="0"
             sodipodi:role="line"
             id="tspan626">写性能不高，但读性能却提高了两倍</tspan></text></g></g><g
       id="g630"
       transform="translate(0,45)"><g
         id="g632"
         clip-path="url(#clipPath636)"><text
           transform="matrix(1,0,0,-1,49.2,66.384)"
           style="font-variant:normal;font-weight:bold;font-size:24px;font-family:'Times New Roman';-inkscape-font-specification:'Times New Roman, Bold';writing-mode:lr-tb;fill:#000000;fill-opacity:1;fill-rule:nonzero;stroke:none"
           id="text640"><tspan
             x="0 12 18"
             y="0"
             sodipodi:role="line"
             id="tspan638">3. </tspan></text></g></g><g
       id="g642"
       transform="translate(0,45)"><g
         id="g644"
         clip-path="url(#clipPath648)"><text
           transform="matrix(1,0,0,-1,73.224,66.384)"
           style="font-variant:normal;font-weight:normal;font-size:24px;font-family:'宋体';-inkscape-font-specification:'宋体';writing-mode:lr-tb;fill:#000000;fill-opacity:1;fill-rule:nonzero;stroke:#000000;stroke-width:0.68571;stroke-linecap:butt;stroke-linejoin:round;stroke-miterlimit:10;stroke-dasharray:none;stroke-opacity:1"
           id="text652"><tspan
             x="0 24.120001 48.240002 72.360001"
             y="0"
             sodipodi:role="line"
             id="tspan650">成本较高</tspan></text></g></g></g></svg>
