<?xml version="1.0" encoding="UTF-8" standalone="no"?>
<svg
   xmlns:dc="http://purl.org/dc/elements/1.1/"
   xmlns:cc="http://creativecommons.org/ns#"
   xmlns:rdf="http://www.w3.org/1999/02/22-rdf-syntax-ns#"
   xmlns:svg="http://www.w3.org/2000/svg"
   xmlns="http://www.w3.org/2000/svg"
   xmlns:sodipodi="http://sodipodi.sourceforge.net/DTD/sodipodi-0.dtd"
   xmlns:inkscape="http://www.inkscape.org/namespaces/inkscape"
   version="1.1"
   id="svg2"
   xml:space="preserve"
   width="818.88"
   height="447.56519"
   viewBox="0 0 818.88 447.56519"
   sodipodi:docname="seg.svg"
   inkscape:version="1.0.2 (1.0.2+r75+1)"><metadata
     id="metadata8"><rdf:RDF><cc:Work
         rdf:about=""><dc:format>image/svg+xml</dc:format><dc:type
           rdf:resource="http://purl.org/dc/dcmitype/StillImage" /><dc:title></dc:title></cc:Work></rdf:RDF></metadata><defs
     id="defs6"><clipPath
       clipPathUnits="userSpaceOnUse"
       id="clipPath18"><path
         d="M 0,1.2207e-4 H 720 V 540.00012 H 0 Z"
         clip-rule="evenodd"
         id="path16" /></clipPath><linearGradient
       x1="100.8"
       y1="615.59998"
       x2="619.20001"
       y2="-75.599998"
       gradientUnits="userSpaceOnUse"
       spreadMethod="pad"
       id="linearGradient24"><stop
         style="stop-opacity:1;stop-color:#ffffff"
         offset="0"
         id="stop20" /><stop
         style="stop-opacity:1;stop-color:#ffffff"
         offset="1"
         id="stop22" /></linearGradient><clipPath
       clipPathUnits="userSpaceOnUse"
       id="clipPath34"><path
         d="M 0,1.2207e-4 H 720 V 540.00012 H 0 Z"
         clip-rule="evenodd"
         id="path32" /></clipPath><clipPath
       clipPathUnits="userSpaceOnUse"
       id="clipPath44"><path
         d="M 1.0729e-5,0 H 720.00001 V 540 H 1.0729e-5 Z"
         clip-rule="evenodd"
         id="path42" /></clipPath><clipPath
       clipPathUnits="userSpaceOnUse"
       id="clipPath56"><path
         d="M 1.0729e-5,0 H 720.00001 V 540 H 1.0729e-5 Z"
         clip-rule="evenodd"
         id="path54" /></clipPath><clipPath
       clipPathUnits="userSpaceOnUse"
       id="clipPath68"><path
         d="M 0,3.0518e-4 H 720 V 540.00031 H 0 Z"
         clip-rule="evenodd"
         id="path66" /></clipPath><clipPath
       clipPathUnits="userSpaceOnUse"
       id="clipPath80"><path
         d="M 1.0729e-5,0 H 720.00001 V 540 H 1.0729e-5 Z"
         clip-rule="evenodd"
         id="path78" /></clipPath><clipPath
       clipPathUnits="userSpaceOnUse"
       id="clipPath92"><path
         d="M 1.0729e-5,0 H 720.00001 V 540 H 1.0729e-5 Z"
         clip-rule="evenodd"
         id="path90" /></clipPath><clipPath
       clipPathUnits="userSpaceOnUse"
       id="clipPath106"><path
         d="M 1.0729e-5,0 H 720.00001 V 540 H 1.0729e-5 Z"
         clip-rule="evenodd"
         id="path104" /></clipPath><clipPath
       clipPathUnits="userSpaceOnUse"
       id="clipPath118"><path
         d="M 1.0729e-5,0 H 720.00001 V 540 H 1.0729e-5 Z"
         clip-rule="evenodd"
         id="path116" /></clipPath><clipPath
       clipPathUnits="userSpaceOnUse"
       id="clipPath150"><path
         d="M 1.0729e-5,0 H 720.00001 V 540 H 1.0729e-5 Z"
         clip-rule="evenodd"
         id="path148" /></clipPath><clipPath
       clipPathUnits="userSpaceOnUse"
       id="clipPath168"><path
         d="M 1.0729e-5,0 H 720.00001 V 540 H 1.0729e-5 Z"
         clip-rule="evenodd"
         id="path166" /></clipPath><clipPath
       clipPathUnits="userSpaceOnUse"
       id="clipPath184"><path
         d="M 1.0729e-5,0 H 720.00001 V 540 H 1.0729e-5 Z"
         clip-rule="evenodd"
         id="path182" /></clipPath><clipPath
       clipPathUnits="userSpaceOnUse"
       id="clipPath196"><path
         d="M 1.0729e-5,0 H 720.00001 V 540 H 1.0729e-5 Z"
         clip-rule="evenodd"
         id="path194" /></clipPath><clipPath
       clipPathUnits="userSpaceOnUse"
       id="clipPath212"><path
         d="M 1.0729e-5,0 H 720.00001 V 540 H 1.0729e-5 Z"
         clip-rule="evenodd"
         id="path210" /></clipPath><clipPath
       clipPathUnits="userSpaceOnUse"
       id="clipPath228"><path
         d="M 1.0729e-5,0 H 720.00001 V 540 H 1.0729e-5 Z"
         clip-rule="evenodd"
         id="path226" /></clipPath><clipPath
       clipPathUnits="userSpaceOnUse"
       id="clipPath252"><path
         d="M 1.0729e-5,0 H 720.00001 V 540 H 1.0729e-5 Z"
         clip-rule="evenodd"
         id="path250" /></clipPath><clipPath
       clipPathUnits="userSpaceOnUse"
       id="clipPath264"><path
         d="M 1.0729e-5,0 H 720.00001 V 540 H 1.0729e-5 Z"
         clip-rule="evenodd"
         id="path262" /></clipPath><clipPath
       clipPathUnits="userSpaceOnUse"
       id="clipPath276"><path
         d="M 1.0729e-5,0 H 720.00001 V 540 H 1.0729e-5 Z"
         clip-rule="evenodd"
         id="path274" /></clipPath></defs><sodipodi:namedview
     pagecolor="#ffffff"
     bordercolor="#666666"
     borderopacity="1"
     objecttolerance="10"
     gridtolerance="10"
     guidetolerance="10"
     inkscape:pageopacity="0"
     inkscape:pageshadow="2"
     inkscape:window-width="1920"
     inkscape:window-height="1008"
     id="namedview4"
     showgrid="false"
     inkscape:zoom="1.1638889"
     inkscape:cx="500.61664"
     inkscape:cy="103.55245"
     inkscape:window-x="0"
     inkscape:window-y="0"
     inkscape:window-maximized="1"
     inkscape:current-layer="g10" /><g
     id="g10"
     inkscape:groupmode="layer"
     inkscape:label="!!!!!计算机组成ppt"
     transform="matrix(1.3333333,0,0,-1.3333333,-62.079998,497.91999)"><path
       d="m 137.98,338.09 -67.077,4.51 1.217,1.14 v -121.8 l -1.14,1.14 h 30.89 V 220.8 H 70.98 c -0.63,0 -1.14,0.51 -1.14,1.14 v 121.8 c 0,0.32 0.131,0.62 0.361,0.83 0.231,0.22 0.541,0.33 0.855,0.31 l 67.084,-4.51 z m -37.25,-112.73 6.84,-3.42 -6.84,-3.42 z"
       style="fill:#ff0000;fill-opacity:1;fill-rule:nonzero;stroke:none"
       id="path244" /><path
       d="M 378.06,323.34 H 629.1 v 48.6 H 378.06 Z"
       style="fill:none;stroke:#000000;stroke-width:3;stroke-linecap:butt;stroke-linejoin:miter;stroke-miterlimit:10;stroke-dasharray:none;stroke-opacity:1"
       id="path98" /><g
       id="g100"><g
         id="g102"
         clip-path="url(#clipPath106)"><text
           transform="matrix(1,0,0,-1,387,335.52)"
           style="font-variant:normal;font-weight:normal;font-size:32.04px;font-family:'新宋体';-inkscape-font-specification:'新宋体';writing-mode:lr-tb;fill:#cc6600;fill-opacity:1;fill-rule:nonzero;stroke:#cc6600;stroke-width:0.91543;stroke-linecap:butt;stroke-linejoin:miter;stroke-miterlimit:10;stroke-dasharray:none;stroke-opacity:1"
           id="text110"><tspan
             x="0 32.279999"
             y="0"
             sodipodi:role="line"
             id="tspan108">段号</tspan></text></g></g><g
       id="g112"><g
         id="g114"
         clip-path="url(#clipPath118)"><text
           transform="matrix(1,0,0,-1,491.28,335.52)"
           style="font-variant:normal;font-weight:normal;font-size:32.04px;font-family:'新宋体';-inkscape-font-specification:'新宋体';writing-mode:lr-tb;fill:#cc6600;fill-opacity:1;fill-rule:nonzero;stroke:#cc6600;stroke-width:0.91543;stroke-linecap:butt;stroke-linejoin:miter;stroke-miterlimit:10;stroke-dasharray:none;stroke-opacity:1"
           id="text122"><tspan
             x="0 32.264278 64.528557 96.66468"
             y="0"
             sodipodi:role="line"
             id="tspan120">段内地址</tspan></text></g></g><path
       d="m 108.06,77.94 h 288 v 150 h -288 z"
       style="fill:#ffffcc;fill-opacity:0.50196;fill-rule:evenodd;stroke:none"
       id="path124" /><path
       d="m 108.06,77.94 h 288 v 150 h -288 z"
       style="fill:none;stroke:#000000;stroke-width:3;stroke-linecap:butt;stroke-linejoin:miter;stroke-miterlimit:10;stroke-dasharray:none;stroke-opacity:1"
       id="path126" /><path
       d="m 108.06,191.94 h 288"
       style="fill:none;stroke:#000000;stroke-width:3;stroke-linecap:butt;stroke-linejoin:round;stroke-miterlimit:10;stroke-dasharray:none;stroke-opacity:1"
       id="path128" /><path
       d="m 108.06,155.94 h 288"
       style="fill:none;stroke:#000000;stroke-width:3;stroke-linecap:butt;stroke-linejoin:round;stroke-miterlimit:10;stroke-dasharray:none;stroke-opacity:1"
       id="path130" /><path
       d="m 108.06,119.94 h 288"
       style="fill:none;stroke:#000000;stroke-width:3;stroke-linecap:butt;stroke-linejoin:round;stroke-miterlimit:10;stroke-dasharray:none;stroke-opacity:1"
       id="path132" /><path
       d="m 240.06,227.94 v -150"
       style="fill:none;stroke:#000000;stroke-width:3;stroke-linecap:butt;stroke-linejoin:round;stroke-miterlimit:10;stroke-dasharray:none;stroke-opacity:1"
       id="path134" /><path
       d="m 348.06,227.94 v -150"
       style="fill:none;stroke:#000000;stroke-width:3;stroke-linecap:butt;stroke-linejoin:round;stroke-miterlimit:10;stroke-dasharray:none;stroke-opacity:1"
       id="path136" /><path
       d="m 474.06,371.94 v -48"
       style="fill:none;stroke:#000000;stroke-width:3;stroke-linecap:butt;stroke-linejoin:round;stroke-miterlimit:10;stroke-dasharray:none;stroke-opacity:1"
       id="path138" /><path
       d="m 162.06,287.94 c 0,9.94 9.4,18 21,18 11.6,0 21,-8.06 21,-18 0,-9.94 -9.4,-18 -21,-18 -11.6,0 -21,8.06 -21,18 z"
       style="fill:#ffffcc;fill-opacity:0.50196;fill-rule:evenodd;stroke:none"
       id="path140" /><path
       d="m 162.06,287.94 c 0,9.94 9.4,18 21,18 11.6,0 21,-8.06 21,-18 0,-9.94 -9.4,-18 -21,-18 -11.6,0 -21,8.06 -21,18 z"
       style="fill:none;stroke:#ff0000;stroke-width:2.28;stroke-linecap:butt;stroke-linejoin:round;stroke-miterlimit:10;stroke-dasharray:none;stroke-opacity:1"
       id="path142" /><g
       id="g144"><g
         id="g146"
         clip-path="url(#clipPath150)"><text
           transform="matrix(1,0,0,-1,175.06,277.75)"
           style="font-variant:normal;font-weight:bold;font-size:27.984px;font-family:'Times New Roman';-inkscape-font-specification:'Times New Roman, Bold';writing-mode:lr-tb;fill:#cc6600;fill-opacity:1;fill-rule:nonzero;stroke:none"
           id="text154"><tspan
             x="0"
             y="0"
             id="tspan152">+</tspan></text></g></g><path
       d="m 187.56,329.94 v -16.5 h -3 v 16.5 z m 3,-15 -4.5,-9 -4.5,9 z"
       style="fill:#ff0000;fill-opacity:1;fill-rule:nonzero;stroke:none"
       id="path156" /><path
       d="m 528.06,248.94 c 0,11.6 10.75,21 24,21 13.25,0 24,-9.4 24,-21 0,-11.6 -10.75,-21 -24,-21 -13.25,0 -24,9.4 -24,21 z"
       style="fill:#ffffcc;fill-opacity:0.50196;fill-rule:evenodd;stroke:none"
       id="path158" /><path
       d="m 528.06,248.94 c 0,11.6 10.75,21 24,21 13.25,0 24,-9.4 24,-21 0,-11.6 -10.75,-21 -24,-21 -13.25,0 -24,9.4 -24,21 z"
       style="fill:none;stroke:#ff0000;stroke-width:2.28;stroke-linecap:butt;stroke-linejoin:round;stroke-miterlimit:10;stroke-dasharray:none;stroke-opacity:1"
       id="path160" /><g
       id="g162"><g
         id="g164"
         clip-path="url(#clipPath168)"><text
           transform="matrix(1,0,0,-1,544.15,238.73)"
           style="font-variant:normal;font-weight:bold;font-size:27.96px;font-family:'Times New Roman';-inkscape-font-specification:'Times New Roman, Bold';writing-mode:lr-tb;fill:#cc6600;fill-opacity:1;fill-rule:nonzero;stroke:none"
           id="text172"><tspan
             x="0"
             y="0"
             id="tspan170">+</tspan></text></g></g><path
       d="m 553.56,323.94 v -46.5 h -3 v 46.5 z m 3,-45 -4.5,-9 -4.5,9 z"
       style="fill:#ff0000;fill-opacity:1;fill-rule:nonzero;stroke:none"
       id="path174" /><path
       d="m 553.56,227.94 v -34.5 h -3 v 34.5 z m 3,-33 -4.5,-9 -4.5,9 z"
       style="fill:#ff0000;fill-opacity:1;fill-rule:nonzero;stroke:none"
       id="path176" /><g
       id="g178"><g
         id="g180"
         clip-path="url(#clipPath184)"><text
           transform="matrix(1,0,0,-1,64.512,134.21)"
           style="font-variant:normal;font-weight:normal;font-size:24.024px;font-family:'宋体';-inkscape-font-specification:'宋体';writing-mode:lr-tb;fill:#000000;fill-opacity:1;fill-rule:nonzero;stroke:#000000;stroke-width:0.6864;stroke-linecap:butt;stroke-linejoin:round;stroke-miterlimit:10;stroke-dasharray:none;stroke-opacity:1"
           id="text188"><tspan
             x="0"
             y="0"
             id="tspan186">段</tspan></text></g></g><g
       id="g190"><g
         id="g192"
         clip-path="url(#clipPath196)"><text
           transform="matrix(1,0,0,-1,64.512,105.38)"
           style="font-variant:normal;font-weight:normal;font-size:24px;font-family:'宋体';-inkscape-font-specification:'宋体';writing-mode:lr-tb;fill:#000000;fill-opacity:1;fill-rule:nonzero;stroke:#000000;stroke-width:0.68571;stroke-linecap:butt;stroke-linejoin:round;stroke-miterlimit:10;stroke-dasharray:none;stroke-opacity:1"
           id="text200"><tspan
             x="0"
             y="0"
             id="tspan198">表</tspan></text></g></g><path
       d="m 450.78,138.06 h 208.8 v 47.88 h -208.8 z"
       style="fill:#ffffff;fill-opacity:1;fill-rule:evenodd;stroke:none"
       id="path202" /><path
       d="m 450.78,138.06 h 208.8 v 47.88 h -208.8 z"
       style="fill:none;stroke:#000000;stroke-width:2.28;stroke-linecap:butt;stroke-linejoin:miter;stroke-miterlimit:8;stroke-dasharray:none;stroke-opacity:1"
       id="path204" /><g
       id="g206"><g
         id="g208"
         clip-path="url(#clipPath212)"><text
           transform="matrix(1,0,0,-1,458.69,149.86)"
           style="font-variant:normal;font-weight:normal;font-size:32.04px;font-family:'宋体';-inkscape-font-specification:'宋体';writing-mode:lr-tb;fill:#000000;fill-opacity:1;fill-rule:nonzero;stroke:#000000;stroke-width:0.91543;stroke-linecap:butt;stroke-linejoin:miter;stroke-miterlimit:8;stroke-dasharray:none;stroke-opacity:1"
           id="text216"><tspan
             x="0 32.16 64.32 96.480003 128.64 160.8"
             y="0"
             sodipodi:role="line"
             id="tspan214">主存实际地址</tspan></text></g></g><path
       d="m 96.06,323.94 h 177.96 v 47.88 H 96.06 Z"
       style="fill:#ffcc66;fill-opacity:1;fill-rule:evenodd;stroke:none"
       id="path218" /><g
       id="g222"><g
         id="g224"
         clip-path="url(#clipPath228)"><text
           transform="matrix(1,0,0,-1,104.59,335.78)"
           style="font-variant:normal;font-weight:normal;font-size:32.064px;font-family:'宋体';-inkscape-font-specification:'宋体';writing-mode:lr-tb;fill:#000000;fill-opacity:1;fill-rule:nonzero;stroke:#000000;stroke-width:0.91611;stroke-linecap:butt;stroke-linejoin:miter;stroke-miterlimit:8;stroke-dasharray:none;stroke-opacity:1"
           id="text232"><tspan
             x="0 32.16 64.32 96.480003 128.64"
             y="0"
             sodipodi:role="line"
             id="tspan230">段表基地址</tspan></text></g></g><path
       d="m 427.56,323.94 v -36 c 0,-0.83 -0.67,-1.5 -1.5,-1.5 h -214.5 v 3 h 214.5 l -1.5,-1.5 v 36 z m -214.5,-40.5 -9,4.5 9,4.5 z"
       style="fill:#ff0000;fill-opacity:1;fill-rule:nonzero;stroke:none"
       id="path234" /><path
       d="m 162.06,286.44 h -114 l 1.5,1.5 v -114 l -1.5,1.5 h 52.5 v -3 h -52.5 c -0.828,0 -1.5,0.67 -1.5,1.5 v 114 c 0,0.83 0.672,1.5 1.5,1.5 h 114 z m -63,-108 9,-4.5 -9,-4.5 z"
       style="fill:#ff0000;fill-opacity:1;fill-rule:nonzero;stroke:none"
       id="path236" /><path
       d="m 160.56,179.94 v 72 c 0,0.83 0.67,1.5 1.5,1.5 h 358.5 v -3 h -358.5 l 1.5,1.5 v -72 z m 358.5,76.5 9,-4.5 -9,-4.5 z"
       style="fill:#ff0000;fill-opacity:1;fill-rule:nonzero;stroke:none"
       id="path238" /><path
       d="m 534.06,233.94 h 9 v 72 h 18 v -72 h 9 l -18,-24 z"
       style="fill:#ffffff;fill-opacity:1;fill-rule:evenodd;stroke:none"
       id="path240" /><path
       d="m 534.06,233.94 h 9 v 72 h 18 v -72 h 9 l -18,-24 z"
       style="fill:none;stroke:#000000;stroke-width:2.28;stroke-linecap:butt;stroke-linejoin:miter;stroke-miterlimit:8;stroke-dasharray:none;stroke-opacity:1"
       id="path242" /><g
       id="g246"><g
         id="g248"
         clip-path="url(#clipPath252)"><text
           transform="matrix(1,0,0,-1,124.66,40.896)"
           style="font-variant:normal;font-weight:normal;font-size:27.96px;font-family:'新宋体';-inkscape-font-specification:'新宋体';writing-mode:lr-tb;fill:#ff0000;fill-opacity:1;fill-rule:nonzero;stroke:#ff0000;stroke-width:0.79886;stroke-linecap:butt;stroke-linejoin:miter;stroke-miterlimit:8;stroke-dasharray:none;stroke-opacity:1"
           id="text256"><tspan
             x="0 28.200001 56.400002 84.599998"
             y="0"
             sodipodi:role="line"
             id="tspan254">段始地址</tspan></text></g></g><g
       id="g258"><g
         id="g260"
         clip-path="url(#clipPath264)"><text
           transform="matrix(1,0,0,-1,265.2,40.896)"
           style="font-variant:normal;font-weight:normal;font-size:27.96px;font-family:'新宋体';-inkscape-font-specification:'新宋体';writing-mode:lr-tb;fill:#cc6600;fill-opacity:1;fill-rule:nonzero;stroke:#cc6600;stroke-width:0.79886;stroke-linecap:butt;stroke-linejoin:miter;stroke-miterlimit:8;stroke-dasharray:none;stroke-opacity:1"
           id="text268"><tspan
             x="0 28.200001"
             y="0"
             sodipodi:role="line"
             id="tspan266">段长</tspan></text></g></g><g
       id="g270"><g
         id="g272"
         clip-path="url(#clipPath276)"><text
           transform="matrix(1,0,0,-1,349.44,40.896)"
           style="font-variant:normal;font-weight:normal;font-size:27.96px;font-family:'新宋体';-inkscape-font-specification:'新宋体';writing-mode:lr-tb;fill:#cc6600;fill-opacity:1;fill-rule:nonzero;stroke:#cc6600;stroke-width:0.79886;stroke-linecap:butt;stroke-linejoin:miter;stroke-miterlimit:8;stroke-dasharray:none;stroke-opacity:1"
           id="text280"><tspan
             x="0 28.200001 56.400002"
             y="0"
             sodipodi:role="line"
             id="tspan278">装入位</tspan></text></g></g><path
       d="m 96.06,323.94 h 177.96 v 47.88 H 96.06 Z"
       style="fill:none;stroke:#000000;stroke-width:2.28;stroke-linecap:butt;stroke-linejoin:miter;stroke-miterlimit:8;stroke-dasharray:none;stroke-opacity:1"
       id="path220" /></g></svg>
