<?xml version="1.0" encoding="UTF-8" standalone="no"?>
<svg
   xmlns:dc="http://purl.org/dc/elements/1.1/"
   xmlns:cc="http://creativecommons.org/ns#"
   xmlns:rdf="http://www.w3.org/1999/02/22-rdf-syntax-ns#"
   xmlns:svg="http://www.w3.org/2000/svg"
   xmlns="http://www.w3.org/2000/svg"
   xmlns:sodipodi="http://sodipodi.sourceforge.net/DTD/sodipodi-0.dtd"
   xmlns:inkscape="http://www.inkscape.org/namespaces/inkscape"
   version="1.1"
   id="svg2"
   xml:space="preserve"
   width="742.07495"
   height="213.09241"
   viewBox="0 0 742.07495 213.09241"
   sodipodi:docname="seg_num.svg"
   inkscape:version="1.0.2 (1.0.2+r75+1)"><metadata
     id="metadata8"><rdf:RDF><cc:Work
         rdf:about=""><dc:format>image/svg+xml</dc:format><dc:type
           rdf:resource="http://purl.org/dc/dcmitype/StillImage" /><dc:title></dc:title></cc:Work></rdf:RDF></metadata><defs
     id="defs6"><clipPath
       clipPathUnits="userSpaceOnUse"
       id="clipPath18"><path
         d="M 0,1.2207e-4 H 720 V 540.00012 H 0 Z"
         clip-rule="evenodd"
         id="path16" /></clipPath><linearGradient
       x1="100.8"
       y1="615.59998"
       x2="619.20001"
       y2="-75.599998"
       gradientUnits="userSpaceOnUse"
       spreadMethod="pad"
       id="linearGradient24"><stop
         style="stop-opacity:1;stop-color:#ffffff"
         offset="0"
         id="stop20" /><stop
         style="stop-opacity:1;stop-color:#ffffff"
         offset="1"
         id="stop22" /></linearGradient><clipPath
       clipPathUnits="userSpaceOnUse"
       id="clipPath34"><path
         d="M 0,1.2207e-4 H 720 V 540.00012 H 0 Z"
         clip-rule="evenodd"
         id="path32" /></clipPath><clipPath
       clipPathUnits="userSpaceOnUse"
       id="clipPath44"><path
         d="M 1.0729e-5,0 H 720.00001 V 540 H 1.0729e-5 Z"
         clip-rule="evenodd"
         id="path42" /></clipPath><clipPath
       clipPathUnits="userSpaceOnUse"
       id="clipPath56"><path
         d="M 1.0729e-5,0 H 720.00001 V 540 H 1.0729e-5 Z"
         clip-rule="evenodd"
         id="path54" /></clipPath><clipPath
       clipPathUnits="userSpaceOnUse"
       id="clipPath68"><path
         d="M 0,3.0518e-4 H 720 V 540.00031 H 0 Z"
         clip-rule="evenodd"
         id="path66" /></clipPath><clipPath
       clipPathUnits="userSpaceOnUse"
       id="clipPath80"><path
         d="M 1.0729e-5,0 H 720.00001 V 540 H 1.0729e-5 Z"
         clip-rule="evenodd"
         id="path78" /></clipPath><clipPath
       clipPathUnits="userSpaceOnUse"
       id="clipPath92"><path
         d="M 1.0729e-5,0 H 720.00001 V 540 H 1.0729e-5 Z"
         clip-rule="evenodd"
         id="path90" /></clipPath><clipPath
       clipPathUnits="userSpaceOnUse"
       id="clipPath108"><path
         d="M 1.0729e-5,0 H 720.00001 V 540 H 1.0729e-5 Z"
         clip-rule="evenodd"
         id="path106" /></clipPath><clipPath
       clipPathUnits="userSpaceOnUse"
       id="clipPath128"><path
         d="M 1.0729e-5,0 H 720.00001 V 540 H 1.0729e-5 Z"
         clip-rule="evenodd"
         id="path126" /></clipPath><clipPath
       clipPathUnits="userSpaceOnUse"
       id="clipPath140"><path
         d="M 1.0729e-5,0 H 720.00001 V 540 H 1.0729e-5 Z"
         clip-rule="evenodd"
         id="path138" /></clipPath><clipPath
       clipPathUnits="userSpaceOnUse"
       id="clipPath152"><path
         d="M 1.0729e-5,0 H 720.00001 V 540 H 1.0729e-5 Z"
         clip-rule="evenodd"
         id="path150" /></clipPath><clipPath
       clipPathUnits="userSpaceOnUse"
       id="clipPath172"><path
         d="M 1.0729e-5,0 H 720.00001 V 540 H 1.0729e-5 Z"
         clip-rule="evenodd"
         id="path170" /></clipPath><clipPath
       clipPathUnits="userSpaceOnUse"
       id="clipPath188"><path
         d="M 1.0729e-5,0 H 720.00001 V 540 H 1.0729e-5 Z"
         clip-rule="evenodd"
         id="path186" /></clipPath><clipPath
       clipPathUnits="userSpaceOnUse"
       id="clipPath200"><path
         d="M 1.0729e-5,0 H 720.00001 V 540 H 1.0729e-5 Z"
         clip-rule="evenodd"
         id="path198" /></clipPath><clipPath
       clipPathUnits="userSpaceOnUse"
       id="clipPath214"><path
         d="M 1.0729e-5,0 H 720.00001 V 540 H 1.0729e-5 Z"
         clip-rule="evenodd"
         id="path212" /></clipPath><clipPath
       clipPathUnits="userSpaceOnUse"
       id="clipPath228"><path
         d="M 1.0729e-5,0 H 720.00001 V 540 H 1.0729e-5 Z"
         clip-rule="evenodd"
         id="path226" /></clipPath><clipPath
       clipPathUnits="userSpaceOnUse"
       id="clipPath240"><path
         d="M 1.0729e-5,0 H 720.00001 V 540 H 1.0729e-5 Z"
         clip-rule="evenodd"
         id="path238" /></clipPath><clipPath
       clipPathUnits="userSpaceOnUse"
       id="clipPath252"><path
         d="M 1.0729e-5,0 H 720.00001 V 540 H 1.0729e-5 Z"
         clip-rule="evenodd"
         id="path250" /></clipPath><clipPath
       clipPathUnits="userSpaceOnUse"
       id="clipPath266"><path
         d="M 1.0729e-5,0 H 720.00001 V 540 H 1.0729e-5 Z"
         clip-rule="evenodd"
         id="path264" /></clipPath><clipPath
       clipPathUnits="userSpaceOnUse"
       id="clipPath278"><path
         d="M 1.0729e-5,0 H 720.00001 V 540 H 1.0729e-5 Z"
         clip-rule="evenodd"
         id="path276" /></clipPath><clipPath
       clipPathUnits="userSpaceOnUse"
       id="clipPath292"><path
         d="M 1.0729e-5,0 H 720.00001 V 540 H 1.0729e-5 Z"
         clip-rule="evenodd"
         id="path290" /></clipPath><clipPath
       clipPathUnits="userSpaceOnUse"
       id="clipPath304"><path
         d="M 1.0729e-5,0 H 720.00001 V 540 H 1.0729e-5 Z"
         clip-rule="evenodd"
         id="path302" /></clipPath><clipPath
       clipPathUnits="userSpaceOnUse"
       id="clipPath316"><path
         d="M 1.0729e-5,0 H 720.00001 V 540 H 1.0729e-5 Z"
         clip-rule="evenodd"
         id="path314" /></clipPath><clipPath
       clipPathUnits="userSpaceOnUse"
       id="clipPath328"><path
         d="M 1.0729e-5,0 H 720.00001 V 540 H 1.0729e-5 Z"
         clip-rule="evenodd"
         id="path326" /></clipPath><clipPath
       clipPathUnits="userSpaceOnUse"
       id="clipPath340"><path
         d="M 1.0729e-5,0 H 720.00001 V 540 H 1.0729e-5 Z"
         clip-rule="evenodd"
         id="path338" /></clipPath><clipPath
       clipPathUnits="userSpaceOnUse"
       id="clipPath352"><path
         d="M 1.0729e-5,0 H 720.00001 V 540 H 1.0729e-5 Z"
         clip-rule="evenodd"
         id="path350" /></clipPath><clipPath
       clipPathUnits="userSpaceOnUse"
       id="clipPath364"><path
         d="M 1.0729e-5,0 H 720.00001 V 540 H 1.0729e-5 Z"
         clip-rule="evenodd"
         id="path362" /></clipPath><clipPath
       clipPathUnits="userSpaceOnUse"
       id="clipPath376"><path
         d="M 1.0729e-5,0 H 720.00001 V 540 H 1.0729e-5 Z"
         clip-rule="evenodd"
         id="path374" /></clipPath><clipPath
       clipPathUnits="userSpaceOnUse"
       id="clipPath388"><path
         d="M 1.0729e-5,0 H 720.00001 V 540 H 1.0729e-5 Z"
         clip-rule="evenodd"
         id="path386" /></clipPath></defs><sodipodi:namedview
     pagecolor="#ffffff"
     bordercolor="#666666"
     borderopacity="1"
     objecttolerance="10"
     gridtolerance="10"
     guidetolerance="10"
     inkscape:pageopacity="0"
     inkscape:pageshadow="2"
     inkscape:window-width="1920"
     inkscape:window-height="1008"
     id="namedview4"
     showgrid="false"
     inkscape:zoom="1.1638889"
     inkscape:cx="641.38465"
     inkscape:cy="250.32415"
     inkscape:window-x="0"
     inkscape:window-y="0"
     inkscape:window-maximized="1"
     inkscape:current-layer="g10" /><g
     id="g10"
     inkscape:groupmode="layer"
     inkscape:label="!!!!!计算机组成ppt"
     transform="matrix(1.3333333,0,0,-1.3333333,-74.976373,541.58907)"><path
       d="m 72,294 h 138 v 36 H 72 Z"
       style="fill:#ffffcc;fill-opacity:0.50196;fill-rule:evenodd;stroke:none"
       id="path98" /><path
       d="m 72,294 h 138 v 36 H 72 Z"
       style="fill:none;stroke:#000000;stroke-width:0.72;stroke-linecap:butt;stroke-linejoin:miter;stroke-miterlimit:10;stroke-dasharray:none;stroke-opacity:1"
       id="path100" /><g
       id="g102"><g
         id="g104"
         clip-path="url(#clipPath108)"><text
           transform="matrix(1,0,0,-1,104.95,302.83)"
           style="font-variant:normal;font-weight:normal;font-size:24px;font-family:'宋体';-inkscape-font-specification:'宋体';writing-mode:lr-tb;fill:#000000;fill-opacity:1;fill-rule:nonzero;stroke:none"
           id="text112"><tspan
             x="0 24 48"
             y="0"
             sodipodi:role="line"
             id="tspan110">段索引</tspan></text></g></g><path
       d="m 210,294 h 18 v 36 h -18 z"
       style="fill:#ff99cc;fill-opacity:0.50196;fill-rule:evenodd;stroke:none"
       id="path114" /><path
       d="m 210,294 h 18 v 36 h -18 z"
       style="fill:none;stroke:#000000;stroke-width:0.72;stroke-linecap:butt;stroke-linejoin:miter;stroke-miterlimit:10;stroke-dasharray:none;stroke-opacity:1"
       id="path116" /><path
       d="m 228,294 h 36 v 36 h -36 z"
       style="fill:#00ccff;fill-opacity:0.50196;fill-rule:evenodd;stroke:none"
       id="path118" /><path
       d="m 228,294 h 36 v 36 h -36 z"
       style="fill:none;stroke:#000000;stroke-width:0.72;stroke-linecap:butt;stroke-linejoin:miter;stroke-miterlimit:10;stroke-dasharray:none;stroke-opacity:1"
       id="path120" /><g
       id="g122"><g
         id="g124"
         clip-path="url(#clipPath128)"><text
           transform="matrix(1,0,0,-1,79.224,338.95)"
           style="font-variant:normal;font-weight:normal;font-size:18px;font-family:'Times New Roman';-inkscape-font-specification:'Times New';writing-mode:lr-tb;fill:#000000;fill-opacity:1;fill-rule:nonzero;stroke:none"
           id="text132"><tspan
             x="0 9 18 121.248 130.248 134.784 143.784 152.76601 161.76601 166.302"
             y="0"
             sodipodi:role="line"
             id="tspan130">15 3 2 1 0</tspan></text></g></g><g
       id="g134"><g
         id="g136"
         clip-path="url(#clipPath140)"><text
           transform="matrix(1,0,0,-1,169.22,248.81)"
           style="font-variant:normal;font-weight:normal;font-size:24px;font-family:'宋体';-inkscape-font-specification:'宋体';writing-mode:lr-tb;fill:#000000;fill-opacity:1;fill-rule:nonzero;stroke:none"
           id="text144"><tspan
             x="0 24 48"
             y="0"
             sodipodi:role="line"
             id="tspan142">段类别</tspan></text></g></g><g
       id="g146"><g
         id="g148"
         clip-path="url(#clipPath152)"><text
           transform="matrix(1,0,0,-1,295.25,308.83)"
           style="font-variant:normal;font-weight:normal;font-size:24px;font-family:'宋体';-inkscape-font-specification:'宋体';writing-mode:lr-tb;fill:#000000;fill-opacity:1;fill-rule:nonzero;stroke:none"
           id="text156"><tspan
             x="0 24 48"
             y="0"
             sodipodi:role="line"
             id="tspan154">优先级</tspan></text></g></g><g
       id="g298"><g
         id="g300"
         clip-path="url(#clipPath304)"><text
           transform="matrix(1,0,0,-1,55.2,386.86)"
           style="font-variant:normal;font-weight:normal;font-size:24.024px;font-family:'宋体';-inkscape-font-specification:'宋体';writing-mode:lr-tb;fill:#000000;fill-opacity:1;fill-rule:nonzero;stroke:none"
           id="text308"><tspan
             x="0 24.024 48.048"
             y="0"
             sodipodi:role="line"
             id="tspan306">段号：</tspan></text></g></g><g
       id="g322"><g
         id="g324"
         clip-path="url(#clipPath328)"><text
           transform="matrix(1,0,0,-1,445.27,344.83)"
           style="font-variant:normal;font-weight:normal;font-size:24px;font-family:'Times New Roman';-inkscape-font-specification:'Times New';writing-mode:lr-tb;fill:#000000;fill-opacity:1;fill-rule:nonzero;stroke:none"
           id="text332"><tspan
             x="0"
             y="0"
             id="tspan330">0</tspan></text></g></g><g
       id="g334"><g
         id="g336"
         clip-path="url(#clipPath340)"><text
           transform="matrix(1,0,0,-1,457.27,344.83)"
           style="font-variant:normal;font-weight:normal;font-size:24px;font-family:'宋体';-inkscape-font-specification:'宋体';writing-mode:lr-tb;fill:#000000;fill-opacity:1;fill-rule:nonzero;stroke:none"
           id="text344"><tspan
             x="0"
             y="0"
             id="tspan342">：</tspan></text></g></g><g
       id="g346"><g
         id="g348"
         clip-path="url(#clipPath352)"><text
           transform="matrix(1,0,0,-1,481.27,344.83)"
           style="font-variant:normal;font-weight:normal;font-size:24px;font-family:'Times New Roman';-inkscape-font-specification:'Times New';writing-mode:lr-tb;fill:#000000;fill-opacity:1;fill-rule:nonzero;stroke:none"
           id="text356"><tspan
             x="0 17.327999 34.560001 48.720001 60.936001 72.935997 79.608002 85.536003 100.2 117.456"
             y="0"
             sodipodi:role="line"
             id="tspan354">GDT 1: LDT</tspan></text></g></g><g
       id="g358"><g
         id="g360"
         clip-path="url(#clipPath364)"><text
           transform="matrix(1,0,0,-1,445.27,301.63)"
           style="font-variant:normal;font-weight:normal;font-size:24px;font-family:'宋体';-inkscape-font-specification:'宋体';writing-mode:lr-tb;fill:#000000;fill-opacity:1;fill-rule:nonzero;stroke:none"
           id="text368"><tspan
             x="0 24 48 72 96"
             y="0"
             sodipodi:role="line"
             id="tspan366">段表基地址</tspan></text></g></g></g></svg>
