<?xml version="1.0" encoding="UTF-8" standalone="no"?>
<svg
   xmlns:dc="http://purl.org/dc/elements/1.1/"
   xmlns:cc="http://creativecommons.org/ns#"
   xmlns:rdf="http://www.w3.org/1999/02/22-rdf-syntax-ns#"
   xmlns:svg="http://www.w3.org/2000/svg"
   xmlns="http://www.w3.org/2000/svg"
   xmlns:sodipodi="http://sodipodi.sourceforge.net/DTD/sodipodi-0.dtd"
   xmlns:inkscape="http://www.inkscape.org/namespaces/inkscape"
   version="1.1"
   id="svg2"
   xml:space="preserve"
   width="863.03333"
   height="594.37524"
   viewBox="0 0 863.03333 594.37524"
   sodipodi:docname="tlb.svg"
   inkscape:version="1.0.2 (1.0.2+r75+1)"><metadata
     id="metadata8"><rdf:RDF><cc:Work
         rdf:about=""><dc:format>image/svg+xml</dc:format><dc:type
           rdf:resource="http://purl.org/dc/dcmitype/StillImage" /><dc:title></dc:title></cc:Work></rdf:RDF></metadata><defs
     id="defs6"><clipPath
       clipPathUnits="userSpaceOnUse"
       id="clipPath18"><path
         d="M 0,1.2207e-4 H 720 V 540.00012 H 0 Z"
         clip-rule="evenodd"
         id="path16" /></clipPath><linearGradient
       x1="100.8"
       y1="615.59998"
       x2="619.20001"
       y2="-75.599998"
       gradientUnits="userSpaceOnUse"
       spreadMethod="pad"
       id="linearGradient24"><stop
         style="stop-opacity:1;stop-color:#ffffff"
         offset="0"
         id="stop20" /><stop
         style="stop-opacity:1;stop-color:#ffffff"
         offset="1"
         id="stop22" /></linearGradient><clipPath
       clipPathUnits="userSpaceOnUse"
       id="clipPath34"><path
         d="M 0,1.2207e-4 H 720 V 540.00012 H 0 Z"
         clip-rule="evenodd"
         id="path32" /></clipPath><clipPath
       clipPathUnits="userSpaceOnUse"
       id="clipPath44"><path
         d="M 1.0729e-5,0 H 720.00001 V 540 H 1.0729e-5 Z"
         clip-rule="evenodd"
         id="path42" /></clipPath><clipPath
       clipPathUnits="userSpaceOnUse"
       id="clipPath56"><path
         d="M 1.0729e-5,0 H 720.00001 V 540 H 1.0729e-5 Z"
         clip-rule="evenodd"
         id="path54" /></clipPath><clipPath
       clipPathUnits="userSpaceOnUse"
       id="clipPath68"><path
         d="M 0,3.0518e-4 H 720 V 540.00031 H 0 Z"
         clip-rule="evenodd"
         id="path66" /></clipPath><clipPath
       clipPathUnits="userSpaceOnUse"
       id="clipPath80"><path
         d="M 1.0729e-5,0 H 720.00001 V 540 H 1.0729e-5 Z"
         clip-rule="evenodd"
         id="path78" /></clipPath><clipPath
       clipPathUnits="userSpaceOnUse"
       id="clipPath100"><path
         d="M 1.0729e-5,0 H 720.00001 V 540 H 1.0729e-5 Z"
         clip-rule="evenodd"
         id="path98" /></clipPath><clipPath
       clipPathUnits="userSpaceOnUse"
       id="clipPath120"><path
         d="M 1.0729e-5,0 H 720.00001 V 540 H 1.0729e-5 Z"
         clip-rule="evenodd"
         id="path118" /></clipPath><clipPath
       clipPathUnits="userSpaceOnUse"
       id="clipPath132"><path
         d="M 1.0729e-5,0 H 720.00001 V 540 H 1.0729e-5 Z"
         clip-rule="evenodd"
         id="path130" /></clipPath><clipPath
       clipPathUnits="userSpaceOnUse"
       id="clipPath158"><path
         d="M 1.0729e-5,0 H 720.00001 V 540 H 1.0729e-5 Z"
         clip-rule="evenodd"
         id="path156" /></clipPath><clipPath
       clipPathUnits="userSpaceOnUse"
       id="clipPath170"><path
         d="M 1.0729e-5,0 H 720.00001 V 540 H 1.0729e-5 Z"
         clip-rule="evenodd"
         id="path168" /></clipPath><clipPath
       clipPathUnits="userSpaceOnUse"
       id="clipPath182"><path
         d="M 1.0729e-5,0 H 720.00001 V 540 H 1.0729e-5 Z"
         clip-rule="evenodd"
         id="path180" /></clipPath><clipPath
       clipPathUnits="userSpaceOnUse"
       id="clipPath194"><path
         d="M 1.0729e-5,0 H 720.00001 V 540 H 1.0729e-5 Z"
         clip-rule="evenodd"
         id="path192" /></clipPath><clipPath
       clipPathUnits="userSpaceOnUse"
       id="clipPath206"><path
         d="M 1.0729e-5,0 H 720.00001 V 540 H 1.0729e-5 Z"
         clip-rule="evenodd"
         id="path204" /></clipPath><clipPath
       clipPathUnits="userSpaceOnUse"
       id="clipPath232"><path
         d="M 1.0729e-5,0 H 720.00001 V 540 H 1.0729e-5 Z"
         clip-rule="evenodd"
         id="path230" /></clipPath><clipPath
       clipPathUnits="userSpaceOnUse"
       id="clipPath244"><path
         d="M 1.0729e-5,0 H 720.00001 V 540 H 1.0729e-5 Z"
         clip-rule="evenodd"
         id="path242" /></clipPath><clipPath
       clipPathUnits="userSpaceOnUse"
       id="clipPath256"><path
         d="M 1.0729e-5,0 H 720.00001 V 540 H 1.0729e-5 Z"
         clip-rule="evenodd"
         id="path254" /></clipPath><clipPath
       clipPathUnits="userSpaceOnUse"
       id="clipPath268"><path
         d="M 1.0729e-5,0 H 720.00001 V 540 H 1.0729e-5 Z"
         clip-rule="evenodd"
         id="path266" /></clipPath><clipPath
       clipPathUnits="userSpaceOnUse"
       id="clipPath280"><path
         d="M 1.0729e-5,0 H 720.00001 V 540 H 1.0729e-5 Z"
         clip-rule="evenodd"
         id="path278" /></clipPath><clipPath
       clipPathUnits="userSpaceOnUse"
       id="clipPath292"><path
         d="M 1.0729e-5,0 H 720.00001 V 540 H 1.0729e-5 Z"
         clip-rule="evenodd"
         id="path290" /></clipPath><clipPath
       clipPathUnits="userSpaceOnUse"
       id="clipPath304"><path
         d="M 1.0729e-5,0 H 720.00001 V 540 H 1.0729e-5 Z"
         clip-rule="evenodd"
         id="path302" /></clipPath><clipPath
       clipPathUnits="userSpaceOnUse"
       id="clipPath316"><path
         d="M 1.0729e-5,0 H 720.00001 V 540 H 1.0729e-5 Z"
         clip-rule="evenodd"
         id="path314" /></clipPath><clipPath
       clipPathUnits="userSpaceOnUse"
       id="clipPath328"><path
         d="M 1.0729e-5,0 H 720.00001 V 540 H 1.0729e-5 Z"
         clip-rule="evenodd"
         id="path326" /></clipPath><clipPath
       clipPathUnits="userSpaceOnUse"
       id="clipPath340"><path
         d="M 1.0729e-5,0 H 720.00001 V 540 H 1.0729e-5 Z"
         clip-rule="evenodd"
         id="path338" /></clipPath><clipPath
       clipPathUnits="userSpaceOnUse"
       id="clipPath352"><path
         d="M 1.0729e-5,0 H 720.00001 V 540 H 1.0729e-5 Z"
         clip-rule="evenodd"
         id="path350" /></clipPath><clipPath
       clipPathUnits="userSpaceOnUse"
       id="clipPath364"><path
         d="M 1.0729e-5,0 H 720.00001 V 540 H 1.0729e-5 Z"
         clip-rule="evenodd"
         id="path362" /></clipPath><clipPath
       clipPathUnits="userSpaceOnUse"
       id="clipPath376"><path
         d="M 1.0729e-5,0 H 720.00001 V 540 H 1.0729e-5 Z"
         clip-rule="evenodd"
         id="path374" /></clipPath><clipPath
       clipPathUnits="userSpaceOnUse"
       id="clipPath388"><path
         d="M 1.0729e-5,0 H 720.00001 V 540 H 1.0729e-5 Z"
         clip-rule="evenodd"
         id="path386" /></clipPath><clipPath
       clipPathUnits="userSpaceOnUse"
       id="clipPath400"><path
         d="M 1.0729e-5,0 H 720.00001 V 540 H 1.0729e-5 Z"
         clip-rule="evenodd"
         id="path398" /></clipPath><clipPath
       clipPathUnits="userSpaceOnUse"
       id="clipPath412"><path
         d="M 1.0729e-5,0 H 720.00001 V 540 H 1.0729e-5 Z"
         clip-rule="evenodd"
         id="path410" /></clipPath><clipPath
       clipPathUnits="userSpaceOnUse"
       id="clipPath424"><path
         d="M 1.0729e-5,0 H 720.00001 V 540 H 1.0729e-5 Z"
         clip-rule="evenodd"
         id="path422" /></clipPath><clipPath
       clipPathUnits="userSpaceOnUse"
       id="clipPath454"><path
         d="M 1.0729e-5,0 H 720.00001 V 540 H 1.0729e-5 Z"
         clip-rule="evenodd"
         id="path452" /></clipPath><clipPath
       clipPathUnits="userSpaceOnUse"
       id="clipPath468"><path
         d="M 1.0729e-5,0 H 720.00001 V 540 H 1.0729e-5 Z"
         clip-rule="evenodd"
         id="path466" /></clipPath><clipPath
       clipPathUnits="userSpaceOnUse"
       id="clipPath480"><path
         d="M 1.0729e-5,0 H 720.00001 V 540 H 1.0729e-5 Z"
         clip-rule="evenodd"
         id="path478" /></clipPath><clipPath
       clipPathUnits="userSpaceOnUse"
       id="clipPath494"><path
         d="M 1.0729e-5,0 H 720.00001 V 540 H 1.0729e-5 Z"
         clip-rule="evenodd"
         id="path492" /></clipPath><clipPath
       clipPathUnits="userSpaceOnUse"
       id="clipPath506"><path
         d="M 1.0729e-5,0 H 720.00001 V 540 H 1.0729e-5 Z"
         clip-rule="evenodd"
         id="path504" /></clipPath><clipPath
       clipPathUnits="userSpaceOnUse"
       id="clipPath532"><path
         d="M 1.0729e-5,0 H 720.00001 V 540 H 1.0729e-5 Z"
         clip-rule="evenodd"
         id="path530" /></clipPath><clipPath
       clipPathUnits="userSpaceOnUse"
       id="clipPath544"><path
         d="M 1.0729e-5,0 H 720.00001 V 540 H 1.0729e-5 Z"
         clip-rule="evenodd"
         id="path542" /></clipPath></defs><sodipodi:namedview
     pagecolor="#ffffff"
     bordercolor="#666666"
     borderopacity="1"
     objecttolerance="10"
     gridtolerance="10"
     guidetolerance="10"
     inkscape:pageopacity="0"
     inkscape:pageshadow="2"
     inkscape:window-width="1920"
     inkscape:window-height="1008"
     id="namedview4"
     showgrid="false"
     inkscape:zoom="1.1638889"
     inkscape:cx="520.64134"
     inkscape:cy="6.4996498"
     inkscape:window-x="0"
     inkscape:window-y="0"
     inkscape:window-maximized="1"
     inkscape:current-layer="g10" /><g
     id="g10"
     inkscape:groupmode="layer"
     inkscape:label="!!!!!计算机组成ppt"
     transform="matrix(1.3333333,0,0,-1.3333333,-29.373389,641.43998)"><path
       d="m 96.06,95.94 h 180 v 168 h -180 z"
       style="fill:#ffffcc;fill-opacity:0.50196;fill-rule:evenodd;stroke:none"
       id="path86" /><path
       d="m 96.06,95.94 h 180 v 168 h -180 z"
       style="fill:none;stroke:#000000;stroke-width:2.28;stroke-linecap:butt;stroke-linejoin:miter;stroke-miterlimit:10;stroke-dasharray:none;stroke-opacity:1"
       id="path88" /><path
       d="m 246.06,299.94 c 0,13.25 12.09,24 27,24 14.91,0 27,-10.75 27,-24 0,-13.25 -12.09,-24 -27,-24 -14.91,0 -27,10.75 -27,24 z"
       style="fill:#ffffcc;fill-opacity:0.50196;fill-rule:evenodd;stroke:none"
       id="path90" /><path
       d="m 246.06,299.94 c 0,13.25 12.09,24 27,24 14.91,0 27,-10.75 27,-24 0,-13.25 -12.09,-24 -27,-24 -14.91,0 -27,10.75 -27,24 z"
       style="fill:none;stroke:#000000;stroke-width:2.28;stroke-linecap:butt;stroke-linejoin:round;stroke-miterlimit:10;stroke-dasharray:none;stroke-opacity:1"
       id="path92" /><g
       id="g94"><g
         id="g96"
         clip-path="url(#clipPath100)"><text
           transform="matrix(1,0,0,-1,263.93,288.19)"
           style="font-variant:normal;font-weight:bold;font-size:32.04px;font-family:'Times New Roman';-inkscape-font-specification:'Times New Roman, Bold';writing-mode:lr-tb;fill:#cc6600;fill-opacity:1;fill-rule:nonzero;stroke:none"
           id="text104"><tspan
             x="0"
             y="0"
             id="tspan102">+</tspan></text></g></g><path
       d="m 348.06,443.94 v -42"
       style="fill:none;stroke:#000000;stroke-width:2.28;stroke-linecap:butt;stroke-linejoin:round;stroke-miterlimit:10;stroke-dasharray:none;stroke-opacity:1"
       id="path106" /><path
       d="m 492.06,317.94 v -42"
       style="fill:none;stroke:#000000;stroke-width:2.28;stroke-linecap:butt;stroke-linejoin:round;stroke-miterlimit:10;stroke-dasharray:none;stroke-opacity:1"
       id="path108" /><path
       d="m 258.06,263.94 v -168"
       style="fill:none;stroke:#000000;stroke-width:2.28;stroke-linecap:butt;stroke-linejoin:round;stroke-miterlimit:10;stroke-dasharray:none;stroke-opacity:1"
       id="path110" /><path
       d="m 234.06,263.94 v -168"
       style="fill:none;stroke:#000000;stroke-width:2.28;stroke-linecap:butt;stroke-linejoin:round;stroke-miterlimit:10;stroke-dasharray:none;stroke-opacity:1"
       id="path112" /><g
       id="g114"><g
         id="g116"
         clip-path="url(#clipPath120)"><text
           transform="matrix(1,0,0,-1,11.328,40.896)"
           style="font-variant:normal;font-weight:normal;font-size:27.96px;font-family:'新宋体';-inkscape-font-specification:'新宋体';writing-mode:lr-tb;fill:#cc6600;fill-opacity:1;fill-rule:nonzero;stroke:#cc6600;stroke-width:0.79886;stroke-linecap:butt;stroke-linejoin:round;stroke-miterlimit:10;stroke-dasharray:none;stroke-opacity:1"
           id="text124"><tspan
             x="0 28.18368 56.367359 84.551041 112.73472 140.9184 168.96228 197.14597 225.18983"
             y="0"
             sodipodi:role="line"
             id="tspan122">（在内存中）控制位</tspan></text></g></g><g
       id="g126"><g
         id="g128"
         clip-path="url(#clipPath132)"><text
           transform="matrix(1,0,0,-1,271.78,40.896)"
           style="font-variant:normal;font-weight:normal;font-size:27.96px;font-family:'新宋体';-inkscape-font-specification:'新宋体';writing-mode:lr-tb;fill:#cc6600;fill-opacity:1;fill-rule:nonzero;stroke:#cc6600;stroke-width:0.79886;stroke-linecap:butt;stroke-linejoin:round;stroke-miterlimit:10;stroke-dasharray:none;stroke-opacity:1"
           id="text136"><tspan
             x="0 28.18368 56.227558"
             y="0"
             sodipodi:role="line"
             id="tspan134">有效位</tspan></text></g></g><path
       d="m 378.06,101.94 h 264 v 120 h -264 z"
       style="fill:#ff0000;fill-opacity:0.50196;fill-rule:evenodd;stroke:none"
       id="path138" /><path
       d="m 378.06,101.94 h 264 v 120 h -264 z"
       style="fill:none;stroke:#000000;stroke-width:2.28;stroke-linecap:butt;stroke-linejoin:miter;stroke-miterlimit:8;stroke-dasharray:none;stroke-opacity:1"
       id="path140" /><path
       d="m 534.06,221.94 v -120"
       style="fill:none;stroke:#000000;stroke-width:2.28;stroke-linecap:butt;stroke-linejoin:round;stroke-miterlimit:8;stroke-dasharray:none;stroke-opacity:1"
       id="path142" /><path
       d="m 378.06,197.94 h 264"
       style="fill:none;stroke:#000000;stroke-width:2.28;stroke-linecap:butt;stroke-linejoin:round;stroke-miterlimit:8;stroke-dasharray:none;stroke-opacity:1"
       id="path144" /><path
       d="m 378.06,173.94 h 264"
       style="fill:none;stroke:#000000;stroke-width:2.28;stroke-linecap:butt;stroke-linejoin:round;stroke-miterlimit:8;stroke-dasharray:none;stroke-opacity:1"
       id="path146" /><path
       d="m 378.06,149.94 h 264"
       style="fill:none;stroke:#000000;stroke-width:2.28;stroke-linecap:butt;stroke-linejoin:round;stroke-miterlimit:8;stroke-dasharray:none;stroke-opacity:1"
       id="path148" /><path
       d="m 378.06,125.94 h 264"
       style="fill:none;stroke:#000000;stroke-width:2.28;stroke-linecap:butt;stroke-linejoin:round;stroke-miterlimit:8;stroke-dasharray:none;stroke-opacity:1"
       id="path150" /><g
       id="g152"><g
         id="g154"
         clip-path="url(#clipPath158)"><text
           transform="matrix(1,0,0,-1,406.56,130.92)"
           style="font-variant:normal;font-weight:normal;font-size:27.96px;font-family:'新宋体';-inkscape-font-specification:'新宋体';writing-mode:lr-tb;fill:#cc6600;fill-opacity:1;fill-rule:nonzero;stroke:#cc6600;stroke-width:0.79886;stroke-linecap:butt;stroke-linejoin:round;stroke-miterlimit:8;stroke-dasharray:none;stroke-opacity:1"
           id="text162"><tspan
             x="0"
             y="0"
             id="tspan160">虚</tspan></text></g></g><g
       id="g164"><g
         id="g166"
         clip-path="url(#clipPath170)"><text
           transform="matrix(1,0,0,-1,441.72,130.92)"
           style="font-variant:normal;font-weight:normal;font-size:27.96px;font-family:'新宋体';-inkscape-font-specification:'新宋体';writing-mode:lr-tb;fill:#cc6600;fill-opacity:1;fill-rule:nonzero;stroke:#cc6600;stroke-width:0.79886;stroke-linecap:butt;stroke-linejoin:round;stroke-miterlimit:8;stroke-dasharray:none;stroke-opacity:1"
           id="text174"><tspan
             x="0 28.200001"
             y="0"
             sodipodi:role="line"
             id="tspan172">页号</tspan></text></g></g><g
       id="g176"><g
         id="g178"
         clip-path="url(#clipPath182)"><text
           transform="matrix(1,0,0,-1,539.9,130.92)"
           style="font-variant:normal;font-weight:normal;font-size:27.96px;font-family:'新宋体';-inkscape-font-specification:'新宋体';writing-mode:lr-tb;fill:#cc6600;fill-opacity:1;fill-rule:nonzero;stroke:#cc6600;stroke-width:0.79886;stroke-linecap:butt;stroke-linejoin:round;stroke-miterlimit:8;stroke-dasharray:none;stroke-opacity:1"
           id="text186"><tspan
             x="0"
             y="0"
             id="tspan184">实</tspan></text></g></g><g
       id="g188"><g
         id="g190"
         clip-path="url(#clipPath194)"><text
           transform="matrix(1,0,0,-1,575.06,130.92)"
           style="font-variant:normal;font-weight:normal;font-size:27.96px;font-family:'新宋体';-inkscape-font-specification:'新宋体';writing-mode:lr-tb;fill:#cc6600;fill-opacity:1;fill-rule:nonzero;stroke:#cc6600;stroke-width:0.79886;stroke-linecap:butt;stroke-linejoin:round;stroke-miterlimit:8;stroke-dasharray:none;stroke-opacity:1"
           id="text198"><tspan
             x="0 28.200001"
             y="0"
             sodipodi:role="line"
             id="tspan196">页号</tspan></text></g></g><g
       id="g200"><g
         id="g202"
         clip-path="url(#clipPath206)"><text
           transform="matrix(1,0,0,-1,57.81,136.06)"
           style="font-variant:normal;font-weight:normal;font-size:32.04px;font-family:'新宋体';-inkscape-font-specification:'新宋体';writing-mode:lr-tb;fill:#cc6600;fill-opacity:1;fill-rule:nonzero;stroke:#cc6600;stroke-width:0.91543;stroke-linecap:butt;stroke-linejoin:round;stroke-miterlimit:8;stroke-dasharray:none;stroke-opacity:1"
           id="text212"><tspan
             x="0"
             y="0"
             id="tspan208">慢</tspan><tspan
             x="0"
             y="31.584"
             id="tspan210">表</tspan></text></g></g><path
       d="m 96.06,239.94 h 180"
       style="fill:none;stroke:#000000;stroke-width:2.28;stroke-linecap:butt;stroke-linejoin:round;stroke-miterlimit:8;stroke-dasharray:none;stroke-opacity:1"
       id="path214" /><path
       d="m 96.06,215.94 h 180"
       style="fill:none;stroke:#000000;stroke-width:2.28;stroke-linecap:butt;stroke-linejoin:round;stroke-miterlimit:8;stroke-dasharray:none;stroke-opacity:1"
       id="path216" /><path
       d="m 96.06,191.94 h 180"
       style="fill:none;stroke:#000000;stroke-width:2.28;stroke-linecap:butt;stroke-linejoin:round;stroke-miterlimit:8;stroke-dasharray:none;stroke-opacity:1"
       id="path218" /><path
       d="m 96.06,167.94 h 180"
       style="fill:none;stroke:#000000;stroke-width:2.28;stroke-linecap:butt;stroke-linejoin:round;stroke-miterlimit:8;stroke-dasharray:none;stroke-opacity:1"
       id="path220" /><path
       d="m 96.06,143.94 h 180"
       style="fill:none;stroke:#000000;stroke-width:2.28;stroke-linecap:butt;stroke-linejoin:round;stroke-miterlimit:8;stroke-dasharray:none;stroke-opacity:1"
       id="path222" /><path
       d="m 96.06,119.94 h 180"
       style="fill:none;stroke:#000000;stroke-width:2.28;stroke-linecap:butt;stroke-linejoin:round;stroke-miterlimit:8;stroke-dasharray:none;stroke-opacity:1"
       id="path224" /><g
       id="g226"><g
         id="g228"
         clip-path="url(#clipPath232)"><text
           transform="matrix(1,0,0,-1,388.3,454.99)"
           style="font-variant:normal;font-weight:normal;font-size:27.984px;font-family:'新宋体';-inkscape-font-specification:'新宋体';writing-mode:lr-tb;fill:#cc6600;fill-opacity:1;fill-rule:nonzero;stroke:#cc6600;stroke-width:0.79954;stroke-linecap:butt;stroke-linejoin:round;stroke-miterlimit:8;stroke-dasharray:none;stroke-opacity:1"
           id="text236"><tspan
             x="0 28.224001 56.448002"
             y="0"
             sodipodi:role="line"
             id="tspan234">虚地址</tspan></text></g></g><g
       id="g238"><g
         id="g240"
         clip-path="url(#clipPath244)"><text
           transform="matrix(1,0,0,-1,486.72,454.99)"
           style="font-variant:normal;font-weight:bold;font-size:27.984px;font-family:'Times New Roman';-inkscape-font-specification:'Times New Roman, Bold';writing-mode:lr-tb;fill:#cc6600;fill-opacity:1;fill-rule:nonzero;stroke:none"
           id="text248"><tspan
             x="0"
             y="0"
             id="tspan246">(</tspan></text></g></g><g
       id="g250"><g
         id="g252"
         clip-path="url(#clipPath256)"><text
           transform="matrix(1,0,0,-1,496.08,454.99)"
           style="font-variant:normal;font-weight:normal;font-size:27.984px;font-family:'新宋体';-inkscape-font-specification:'新宋体';writing-mode:lr-tb;fill:#cc6600;fill-opacity:1;fill-rule:nonzero;stroke:#cc6600;stroke-width:0.79954;stroke-linecap:butt;stroke-linejoin:round;stroke-miterlimit:8;stroke-dasharray:none;stroke-opacity:1"
           id="text260"><tspan
             x="0 28.200001 56.400002 84.599998 112.8"
             y="0"
             sodipodi:role="line"
             id="tspan258">程序中给出</tspan></text></g></g><g
       id="g262"><g
         id="g264"
         clip-path="url(#clipPath268)"><text
           transform="matrix(1,0,0,-1,637.1,454.99)"
           style="font-variant:normal;font-weight:bold;font-size:27.984px;font-family:'Times New Roman';-inkscape-font-specification:'Times New Roman, Bold';writing-mode:lr-tb;fill:#cc6600;fill-opacity:1;fill-rule:nonzero;stroke:none"
           id="text272"><tspan
             x="0"
             y="0"
             id="tspan270">)</tspan></text></g></g><g
       id="g274"><g
         id="g276"
         clip-path="url(#clipPath280)"><text
           transform="matrix(1,0,0,-1,391.3,333.84)"
           style="font-variant:normal;font-weight:normal;font-size:27.96px;font-family:'新宋体';-inkscape-font-specification:'新宋体';writing-mode:lr-tb;fill:#cc6600;fill-opacity:1;fill-rule:nonzero;stroke:#cc6600;stroke-width:0.79886;stroke-linecap:butt;stroke-linejoin:round;stroke-miterlimit:8;stroke-dasharray:none;stroke-opacity:1"
           id="text284"><tspan
             x="0 28.224001 56.448002"
             y="0"
             sodipodi:role="line"
             id="tspan282">实地址</tspan></text></g></g><g
       id="g286"><g
         id="g288"
         clip-path="url(#clipPath292)"><text
           transform="matrix(1,0,0,-1,510.72,333.84)"
           style="font-variant:normal;font-weight:bold;font-size:27.96px;font-family:'Times New Roman';-inkscape-font-specification:'Times New Roman, Bold';writing-mode:lr-tb;fill:#cc6600;fill-opacity:1;fill-rule:nonzero;stroke:none"
           id="text296"><tspan
             x="0"
             y="0"
             id="tspan294">(</tspan></text></g></g><g
       id="g298"><g
         id="g300"
         clip-path="url(#clipPath304)"><text
           transform="matrix(1,0,0,-1,520.08,333.84)"
           style="font-variant:normal;font-weight:normal;font-size:27.96px;font-family:'新宋体';-inkscape-font-specification:'新宋体';writing-mode:lr-tb;fill:#cc6600;fill-opacity:1;fill-rule:nonzero;stroke:#cc6600;stroke-width:0.79886;stroke-linecap:butt;stroke-linejoin:round;stroke-miterlimit:8;stroke-dasharray:none;stroke-opacity:1"
           id="text308"><tspan
             x="0 28.200001 56.400002 84.599998 112.8"
             y="0"
             sodipodi:role="line"
             id="tspan306">读写内存用</tspan></text></g></g><g
       id="g310"><g
         id="g312"
         clip-path="url(#clipPath316)"><text
           transform="matrix(1,0,0,-1,661.1,333.84)"
           style="font-variant:normal;font-weight:bold;font-size:27.96px;font-family:'Times New Roman';-inkscape-font-specification:'Times New Roman, Bold';writing-mode:lr-tb;fill:#cc6600;fill-opacity:1;fill-rule:nonzero;stroke:none"
           id="text320"><tspan
             x="0"
             y="0"
             id="tspan318">)</tspan></text></g></g><g
       id="g322"><g
         id="g324"
         clip-path="url(#clipPath328)"><text
           transform="matrix(1,0,0,-1,445.44,40.896)"
           style="font-variant:normal;font-weight:normal;font-size:27.96px;font-family:'新宋体';-inkscape-font-specification:'新宋体';writing-mode:lr-tb;fill:#cc6600;fill-opacity:1;fill-rule:nonzero;stroke:#cc6600;stroke-width:0.79886;stroke-linecap:butt;stroke-linejoin:round;stroke-miterlimit:8;stroke-dasharray:none;stroke-opacity:1"
           id="text332"><tspan
             x="0 28.200001"
             y="0"
             sodipodi:role="line"
             id="tspan330">快表</tspan></text></g></g><g
       id="g334"><g
         id="g336"
         clip-path="url(#clipPath340)"><text
           transform="matrix(1,0,0,-1,501.86,40.896)"
           style="font-variant:normal;font-weight:bold;font-size:27.96px;font-family:'Times New Roman';-inkscape-font-specification:'Times New Roman, Bold';writing-mode:lr-tb;fill:#cc6600;fill-opacity:1;fill-rule:nonzero;stroke:none"
           id="text344"><tspan
             x="0"
             y="0"
             id="tspan342">(</tspan></text></g></g><g
       id="g346"><g
         id="g348"
         clip-path="url(#clipPath352)"><text
           transform="matrix(1,0,0,-1,511.22,40.896)"
           style="font-variant:normal;font-weight:normal;font-size:27.96px;font-family:'新宋体';-inkscape-font-specification:'新宋体';writing-mode:lr-tb;fill:#cc6600;fill-opacity:1;fill-rule:nonzero;stroke:#cc6600;stroke-width:0.79886;stroke-linecap:butt;stroke-linejoin:round;stroke-miterlimit:8;stroke-dasharray:none;stroke-opacity:1"
           id="text356"><tspan
             x="0 28.200001 56.400002 84.599998"
             y="0"
             sodipodi:role="line"
             id="tspan354">专设硬件</tspan></text></g></g><g
       id="g358"><g
         id="g360"
         clip-path="url(#clipPath364)"><text
           transform="matrix(1,0,0,-1,623.9,40.896)"
           style="font-variant:normal;font-weight:bold;font-size:24px;font-family:'Times New Roman';-inkscape-font-specification:'Times New Roman, Bold';writing-mode:lr-tb;fill:#cc6600;fill-opacity:1;fill-rule:nonzero;stroke:none"
           id="text368"><tspan
             x="0"
             y="0"
             id="tspan366">)</tspan></text></g></g><g
       id="g370"><g
         id="g372"
         clip-path="url(#clipPath376)"><text
           transform="matrix(1,0,0,-1,451.56,70.896)"
           style="font-variant:normal;font-weight:normal;font-size:27.96px;font-family:'新宋体';-inkscape-font-specification:'新宋体';writing-mode:lr-tb;fill:#ff0000;fill-opacity:1;fill-rule:nonzero;stroke:#ff0000;stroke-width:0.79886;stroke-linecap:butt;stroke-linejoin:round;stroke-miterlimit:8;stroke-dasharray:none;stroke-opacity:1"
           id="text380"><tspan
             x="0 28.200001"
             y="0"
             sodipodi:role="line"
             id="tspan378">比较</tspan></text></g></g><g
       id="g382"><g
         id="g384"
         clip-path="url(#clipPath388)"><text
           transform="matrix(1,0,0,-1,507.98,70.896)"
           style="font-variant:normal;font-weight:bold;font-size:27.96px;font-family:'Times New Roman';-inkscape-font-specification:'Times New Roman, Bold';writing-mode:lr-tb;fill:#ff0000;fill-opacity:1;fill-rule:nonzero;stroke:none"
           id="text392"><tspan
             x="0"
             y="0"
             id="tspan390">(</tspan></text></g></g><g
       id="g394"><g
         id="g396"
         clip-path="url(#clipPath400)"><text
           transform="matrix(1,0,0,-1,517.34,70.896)"
           style="font-variant:normal;font-weight:normal;font-size:27.96px;font-family:'新宋体';-inkscape-font-specification:'新宋体';writing-mode:lr-tb;fill:#ff0000;fill-opacity:1;fill-rule:nonzero;stroke:#ff0000;stroke-width:0.79886;stroke-linecap:butt;stroke-linejoin:round;stroke-miterlimit:8;stroke-dasharray:none;stroke-opacity:1"
           id="text404"><tspan
             x="0 28.200001 56.400002 84.599998"
             y="0"
             sodipodi:role="line"
             id="tspan402">按内容选</tspan></text></g></g><g
       id="g406"><g
         id="g408"
         clip-path="url(#clipPath412)"><text
           transform="matrix(1,0,0,-1,630.02,70.896)"
           style="font-variant:normal;font-weight:bold;font-size:27.96px;font-family:'Times New Roman';-inkscape-font-specification:'Times New Roman, Bold';writing-mode:lr-tb;fill:#ff0000;fill-opacity:1;fill-rule:nonzero;stroke:none"
           id="text416"><tspan
             x="0"
             y="0"
             id="tspan414">)</tspan></text></g></g><g
       id="g418"><g
         id="g420"
         clip-path="url(#clipPath424)"><text
           transform="matrix(1,0,0,-1,21.446,259.28)"
           style="font-variant:normal;font-weight:normal;font-size:27.984px;font-family:'新宋体';-inkscape-font-specification:'新宋体';writing-mode:lr-tb;fill:#000000;fill-opacity:1;fill-rule:nonzero;stroke:#000000;stroke-width:0.79954;stroke-linecap:butt;stroke-linejoin:round;stroke-miterlimit:8;stroke-dasharray:none;stroke-opacity:1"
           id="text434"><tspan
             x="0"
             y="0"
             id="tspan426">按</tspan><tspan
             x="0"
             y="27.624001"
             id="tspan428">地</tspan><tspan
             x="0"
             y="55.248001"
             id="tspan430">址</tspan><tspan
             x="0"
             y="82.872002"
             id="tspan432">读</tspan></text></g></g><path
       d="m 480.06,358.44 9,13.5 9,-13.5 h -4.5 v -40.5 h -9 v 40.5 z"
       style="fill:#ff0000;fill-opacity:1;fill-rule:evenodd;stroke:none"
       id="path436" /><path
       d="m 480.06,358.44 9,13.5 9,-13.5 h -4.5 v -40.5 h -9 v 40.5 z"
       style="fill:none;stroke:#000000;stroke-width:2.28;stroke-linecap:butt;stroke-linejoin:miter;stroke-miterlimit:8;stroke-dasharray:none;stroke-opacity:1"
       id="path438" /><path
       d="m 336.06,452.94 h 4.5 v 27 h 9 v -27 h 4.5 l -9,-9 z"
       style="fill:#ff0000;fill-opacity:1;fill-rule:evenodd;stroke:none"
       id="path440" /><path
       d="m 336.06,452.94 h 4.5 v 27 h 9 v -27 h 4.5 l -9,-9 z"
       style="fill:none;stroke:#000000;stroke-width:2.28;stroke-linecap:butt;stroke-linejoin:miter;stroke-miterlimit:8;stroke-dasharray:none;stroke-opacity:1"
       id="path442" /><path
       d="m 223.05,65.374 21.17,37.056 -1.98,1.13 -21.17,-37.054 z m 22.59,34.926 0.42,7.64 -6.36,-4.24 z"
       style="fill:#000000;fill-opacity:1;fill-rule:nonzero;stroke:none"
       id="path444" /><path
       d="m 299.19,65.198 -32.29,37.672 1.74,1.48 32.29,-37.668 z m -33.28,35.322 -1.85,7.42 7.05,-2.97 z"
       style="fill:#000000;fill-opacity:1;fill-rule:nonzero;stroke:none"
       id="path446" /><g
       id="g448"><g
         id="g450"
         clip-path="url(#clipPath454)"><text
           transform="matrix(1,0,0,-1,115.39,170.81)"
           style="font-variant:normal;font-weight:normal;font-size:24px;font-family:'宋体';-inkscape-font-specification:'宋体';writing-mode:lr-tb;fill:#000000;fill-opacity:1;fill-rule:nonzero;stroke:#000000;stroke-width:0.68571;stroke-linecap:butt;stroke-linejoin:miter;stroke-miterlimit:8;stroke-dasharray:none;stroke-opacity:1"
           id="text458"><tspan
             x="0 24.120001 48.240002"
             y="0"
             sodipodi:role="line"
             id="tspan456">实页号</tspan></text></g></g><path
       d="m 222.06,400.86 h 263.52 v 43.08 H 222.06 Z"
       style="fill:none;stroke:#000000;stroke-width:2.28;stroke-linecap:butt;stroke-linejoin:miter;stroke-miterlimit:8;stroke-dasharray:none;stroke-opacity:1"
       id="path460" /><g
       id="g462"><g
         id="g464"
         clip-path="url(#clipPath468)"><text
           transform="matrix(1,0,0,-1,230.98,411.84)"
           style="font-variant:normal;font-weight:normal;font-size:27.96px;font-family:'宋体';-inkscape-font-specification:'宋体';writing-mode:lr-tb;fill:#000000;fill-opacity:1;fill-rule:nonzero;stroke:#000000;stroke-width:0.79886;stroke-linecap:butt;stroke-linejoin:miter;stroke-miterlimit:8;stroke-dasharray:none;stroke-opacity:1"
           id="text472"><tspan
             x="0 28.08 56.16"
             y="0"
             sodipodi:role="line"
             id="tspan470">虚页号</tspan></text></g></g><g
       id="g474"><g
         id="g476"
         clip-path="url(#clipPath480)"><text
           transform="matrix(1,0,0,-1,364.32,411.84)"
           style="font-variant:normal;font-weight:normal;font-size:27.96px;font-family:'宋体';-inkscape-font-specification:'宋体';writing-mode:lr-tb;fill:#000000;fill-opacity:1;fill-rule:nonzero;stroke:#000000;stroke-width:0.79886;stroke-linecap:butt;stroke-linejoin:miter;stroke-miterlimit:8;stroke-dasharray:none;stroke-opacity:1"
           id="text484"><tspan
             x="0 28.08 56.16 84.239998"
             y="0"
             sodipodi:role="line"
             id="tspan482">页内地址</tspan></text></g></g><path
       d="m 384.06,274.86 h 263.52 v 43.08 H 384.06 Z"
       style="fill:none;stroke:#000000;stroke-width:2.28;stroke-linecap:butt;stroke-linejoin:miter;stroke-miterlimit:8;stroke-dasharray:none;stroke-opacity:1"
       id="path486" /><g
       id="g488"><g
         id="g490"
         clip-path="url(#clipPath494)"><text
           transform="matrix(1,0,0,-1,393,285.82)"
           style="font-variant:normal;font-weight:normal;font-size:27.96px;font-family:'宋体';-inkscape-font-specification:'宋体';writing-mode:lr-tb;fill:#000000;fill-opacity:1;fill-rule:nonzero;stroke:#000000;stroke-width:0.79886;stroke-linecap:butt;stroke-linejoin:miter;stroke-miterlimit:8;stroke-dasharray:none;stroke-opacity:1"
           id="text498"><tspan
             x="0 28.08 56.16"
             y="0"
             sodipodi:role="line"
             id="tspan496">实页号</tspan></text></g></g><g
       id="g500"><g
         id="g502"
         clip-path="url(#clipPath506)"><text
           transform="matrix(1,0,0,-1,526.34,285.82)"
           style="font-variant:normal;font-weight:normal;font-size:27.96px;font-family:'宋体';-inkscape-font-specification:'宋体';writing-mode:lr-tb;fill:#000000;fill-opacity:1;fill-rule:nonzero;stroke:#000000;stroke-width:0.79886;stroke-linecap:butt;stroke-linejoin:miter;stroke-miterlimit:8;stroke-dasharray:none;stroke-opacity:1"
           id="text510"><tspan
             x="0 28.08 56.16 84.239998"
             y="0"
             sodipodi:role="line"
             id="tspan508">页内地址</tspan></text></g></g><path
       d="m 240.06,355.44 h 30 c 0.83,0 1.5,-0.67 1.5,-1.5 v -22.5 h -3 v 22.5 l 1.5,-1.5 h -30 z m 34.5,-22.5 -4.5,-9 -4.5,9 z"
       style="fill:#000000;fill-opacity:1;fill-rule:nonzero;stroke:none"
       id="path512" /><path
       d="m 246.06,298.44 h -192 l 1.5,1.5 v -120 l -1.5,1.5 h 34.5 v -3 h -34.5 c -0.828,0 -1.5,0.67 -1.5,1.5 v 120 c 0,0.83 0.672,1.5 1.5,1.5 h 192 z m -159,-114 9,-4.5 -9,-4.5 z"
       style="fill:#000000;fill-opacity:1;fill-rule:nonzero;stroke:none"
       id="path514" /><path
       d="m 216.06,181.44 h 132 l -1.5,-1.5 v 66 c 0,0.83 0.67,1.5 1.5,1.5 h 84 l -1.5,-1.5 v 22.5 h 3 v -22.5 c 0,-0.83 -0.67,-1.5 -1.5,-1.5 h -84 l 1.5,1.5 v -66 c 0,-0.83 -0.67,-1.5 -1.5,-1.5 h -132 z m 211.5,85.5 4.5,9 4.5,-9 z"
       style="fill:#000000;fill-opacity:1;fill-rule:nonzero;stroke:none"
       id="path516" /><path
       d="m 289.56,401.94 v -76.5 h -3 v 76.5 z m 3,-75 -4.5,-9 -4.5,9 z"
       style="fill:#000000;fill-opacity:1;fill-rule:nonzero;stroke:none"
       id="path518" /><path
       d="m 325.56,401.94 v -330 l -1.5,1.5 h 114 l -1.5,-1.5 v 22.5 h 3 v -22.5 c 0,-0.828 -0.67,-1.5 -1.5,-1.5 h -114 c -0.83,0 -1.5,0.672 -1.5,1.5 v 330 z m 108,-309 4.5,9 4.5,-9 z"
       style="fill:#ff0000;fill-opacity:1;fill-rule:nonzero;stroke:none"
       id="path520" /><path
       d="m 574.56,137.94 v 108 l 1.5,-1.5 h -120 c -0.83,0 -1.5,0.67 -1.5,1.5 v 22.5 h 3 v -22.5 l -1.5,1.5 h 120 c 0.83,0 1.5,-0.67 1.5,-1.5 v -108 z m -123,129 4.5,9 4.5,-9 z"
       style="fill:#ff0000;fill-opacity:1;fill-rule:nonzero;stroke:none"
       id="path522" /><path
       d="M 84.06,334.86 H 242.1 v 43.08 H 84.06 Z"
       style="fill:none;stroke:#000000;stroke-width:2.28;stroke-linecap:butt;stroke-linejoin:miter;stroke-miterlimit:8;stroke-dasharray:none;stroke-opacity:1"
       id="path524" /><g
       id="g526"><g
         id="g528"
         clip-path="url(#clipPath532)"><text
           transform="matrix(1,0,0,-1,92.832,345.84)"
           style="font-variant:normal;font-weight:normal;font-size:27.96px;font-family:'宋体';-inkscape-font-specification:'宋体';writing-mode:lr-tb;fill:#000000;fill-opacity:1;fill-rule:nonzero;stroke:#000000;stroke-width:0.79886;stroke-linecap:butt;stroke-linejoin:miter;stroke-miterlimit:8;stroke-dasharray:none;stroke-opacity:1"
           id="text536"><tspan
             x="0 28.08 56.16 84.239998 112.32"
             y="0"
             sodipodi:role="line"
             id="tspan534">页表基地址</tspan></text></g></g></g></svg>
