<?xml version="1.0" encoding="UTF-8" standalone="no"?>
<svg
   xmlns:dc="http://purl.org/dc/elements/1.1/"
   xmlns:cc="http://creativecommons.org/ns#"
   xmlns:rdf="http://www.w3.org/1999/02/22-rdf-syntax-ns#"
   xmlns:svg="http://www.w3.org/2000/svg"
   xmlns="http://www.w3.org/2000/svg"
   xmlns:sodipodi="http://sodipodi.sourceforge.net/DTD/sodipodi-0.dtd"
   xmlns:inkscape="http://www.inkscape.org/namespaces/inkscape"
   version="1.1"
   id="svg2"
   xml:space="preserve"
   width="877.55511"
   height="461.47476"
   viewBox="0 0 877.55511 461.47476"
   sodipodi:docname="tras.svg"
   inkscape:version="1.0.2 (1.0.2+r75+1)"><metadata
     id="metadata8"><rdf:RDF><cc:Work
         rdf:about=""><dc:format>image/svg+xml</dc:format><dc:type
           rdf:resource="http://purl.org/dc/dcmitype/StillImage" /><dc:title></dc:title></cc:Work></rdf:RDF></metadata><defs
     id="defs6"><clipPath
       clipPathUnits="userSpaceOnUse"
       id="clipPath18"><path
         d="M 0,1.2207e-4 H 720 V 540.00012 H 0 Z"
         clip-rule="evenodd"
         id="path16" /></clipPath><linearGradient
       x1="100.8"
       y1="615.59998"
       x2="619.20001"
       y2="-75.599998"
       gradientUnits="userSpaceOnUse"
       spreadMethod="pad"
       id="linearGradient24"><stop
         style="stop-opacity:1;stop-color:#ffffff"
         offset="0"
         id="stop20" /><stop
         style="stop-opacity:1;stop-color:#ffffff"
         offset="1"
         id="stop22" /></linearGradient><clipPath
       clipPathUnits="userSpaceOnUse"
       id="clipPath34"><path
         d="M 0,1.2207e-4 H 720 V 540.00012 H 0 Z"
         clip-rule="evenodd"
         id="path32" /></clipPath><clipPath
       clipPathUnits="userSpaceOnUse"
       id="clipPath44"><path
         d="M 1.0729e-5,0 H 720.00001 V 540 H 1.0729e-5 Z"
         clip-rule="evenodd"
         id="path42" /></clipPath><clipPath
       clipPathUnits="userSpaceOnUse"
       id="clipPath56"><path
         d="M 1.0729e-5,0 H 720.00001 V 540 H 1.0729e-5 Z"
         clip-rule="evenodd"
         id="path54" /></clipPath><clipPath
       clipPathUnits="userSpaceOnUse"
       id="clipPath68"><path
         d="M 0,3.0518e-4 H 720 V 540.00031 H 0 Z"
         clip-rule="evenodd"
         id="path66" /></clipPath><clipPath
       clipPathUnits="userSpaceOnUse"
       id="clipPath80"><path
         d="M 1.0729e-5,0 H 720.00001 V 540 H 1.0729e-5 Z"
         clip-rule="evenodd"
         id="path78" /></clipPath><clipPath
       clipPathUnits="userSpaceOnUse"
       id="clipPath92"><path
         d="M 1.0729e-5,0 H 720.00001 V 540 H 1.0729e-5 Z"
         clip-rule="evenodd"
         id="path90" /></clipPath><clipPath
       clipPathUnits="userSpaceOnUse"
       id="clipPath104"><path
         d="M 1.0729e-5,0 H 720.00001 V 540 H 1.0729e-5 Z"
         clip-rule="evenodd"
         id="path102" /></clipPath><clipPath
       clipPathUnits="userSpaceOnUse"
       id="clipPath116"><path
         d="M 1.0729e-5,0 H 720.00001 V 540 H 1.0729e-5 Z"
         clip-rule="evenodd"
         id="path114" /></clipPath><clipPath
       clipPathUnits="userSpaceOnUse"
       id="clipPath132"><path
         d="M 1.0729e-5,0 H 720.00001 V 540 H 1.0729e-5 Z"
         clip-rule="evenodd"
         id="path130" /></clipPath><clipPath
       clipPathUnits="userSpaceOnUse"
       id="clipPath148"><path
         d="M 1.0729e-5,0 H 720.00001 V 540 H 1.0729e-5 Z"
         clip-rule="evenodd"
         id="path146" /></clipPath><clipPath
       clipPathUnits="userSpaceOnUse"
       id="clipPath164"><path
         d="M 1.0729e-5,0 H 720.00001 V 540 H 1.0729e-5 Z"
         clip-rule="evenodd"
         id="path162" /></clipPath><clipPath
       clipPathUnits="userSpaceOnUse"
       id="clipPath176"><path
         d="M -7.629e-6,540 H 720 V 1.2207e-4 L -7.629e-6,6.1035e-5"
         clip-rule="evenodd"
         id="path174" /></clipPath><clipPath
       clipPathUnits="userSpaceOnUse"
       id="clipPath186"><path
         d="M 0,540 H 720 V 1.2207e-4 L 0,6.1035e-5"
         clip-rule="evenodd"
         id="path184" /></clipPath><clipPath
       clipPathUnits="userSpaceOnUse"
       id="clipPath200"><path
         d="M 1.0729e-5,0 H 720.00001 V 540 H 1.0729e-5 Z"
         clip-rule="evenodd"
         id="path198" /></clipPath><clipPath
       clipPathUnits="userSpaceOnUse"
       id="clipPath224"><path
         d="M 1.0729e-5,0 H 720.00001 V 540 H 1.0729e-5 Z"
         clip-rule="evenodd"
         id="path222" /></clipPath><clipPath
       clipPathUnits="userSpaceOnUse"
       id="clipPath236"><path
         d="M 1.0729e-5,0 H 720.00001 V 540 H 1.0729e-5 Z"
         clip-rule="evenodd"
         id="path234" /></clipPath><clipPath
       clipPathUnits="userSpaceOnUse"
       id="clipPath268"><path
         d="M 3.0518e-5,540 H 720 V 1.2207e-4 L 3.0518e-5,6.1035e-5"
         clip-rule="evenodd"
         id="path266" /></clipPath><clipPath
       clipPathUnits="userSpaceOnUse"
       id="clipPath296"><path
         d="M 1.0729e-5,0 H 720.00001 V 540 H 1.0729e-5 Z"
         clip-rule="evenodd"
         id="path294" /></clipPath><clipPath
       clipPathUnits="userSpaceOnUse"
       id="clipPath314"><path
         d="M 1.0729e-5,0 H 720.00001 V 540 H 1.0729e-5 Z"
         clip-rule="evenodd"
         id="path312" /></clipPath><clipPath
       clipPathUnits="userSpaceOnUse"
       id="clipPath326"><path
         d="M 1.0729e-5,0 H 720.00001 V 540 H 1.0729e-5 Z"
         clip-rule="evenodd"
         id="path324" /></clipPath><clipPath
       clipPathUnits="userSpaceOnUse"
       id="clipPath338"><path
         d="M 1.0729e-5,0 H 720.00001 V 540 H 1.0729e-5 Z"
         clip-rule="evenodd"
         id="path336" /></clipPath><clipPath
       clipPathUnits="userSpaceOnUse"
       id="clipPath350"><path
         d="M 1.0729e-5,0 H 720.00001 V 540 H 1.0729e-5 Z"
         clip-rule="evenodd"
         id="path348" /></clipPath><clipPath
       clipPathUnits="userSpaceOnUse"
       id="clipPath362"><path
         d="M 1.0729e-5,0 H 720.00001 V 540 H 1.0729e-5 Z"
         clip-rule="evenodd"
         id="path360" /></clipPath><clipPath
       clipPathUnits="userSpaceOnUse"
       id="clipPath374"><path
         d="M 1.0729e-5,0 H 720.00001 V 540 H 1.0729e-5 Z"
         clip-rule="evenodd"
         id="path372" /></clipPath></defs><sodipodi:namedview
     pagecolor="#ffffff"
     bordercolor="#666666"
     borderopacity="1"
     objecttolerance="10"
     gridtolerance="10"
     guidetolerance="10"
     inkscape:pageopacity="0"
     inkscape:pageshadow="2"
     inkscape:window-width="1920"
     inkscape:window-height="1008"
     id="namedview4"
     showgrid="false"
     inkscape:zoom="1.1638889"
     inkscape:cx="445.55513"
     inkscape:cy="98.631987"
     inkscape:window-x="0"
     inkscape:window-y="0"
     inkscape:window-maximized="1"
     inkscape:current-layer="g10" /><g
     id="g10"
     inkscape:groupmode="layer"
     inkscape:label="!!!!!计算机组成ppt"
     transform="matrix(1.3333333,0,0,-1.3333333,-34.444874,527.36707)"><g
       id="g110"><g
         id="g112"
         clip-path="url(#clipPath116)"><text
           transform="matrix(1,0,0,-1,25.2,380.74)"
           style="font-variant:normal;font-weight:normal;font-size:18.024px;font-family:'宋体';-inkscape-font-specification:'宋体';writing-mode:lr-tb;fill:#000000;fill-opacity:1;fill-rule:nonzero;stroke:none"
           id="text120"><tspan
             x="0 18 36 54"
             y="0"
             sodipodi:role="line"
             id="tspan118">逻辑地址</tspan></text></g></g><path
       d="m 30,336 h 102 v 36 H 30 Z"
       style="fill:#ffffcc;fill-opacity:0.50196;fill-rule:evenodd;stroke:none"
       id="path122" /><path
       d="m 30,336 h 102 v 36 H 30 Z"
       style="fill:none;stroke:#000000;stroke-width:0.72;stroke-linecap:butt;stroke-linejoin:miter;stroke-miterlimit:10;stroke-dasharray:none;stroke-opacity:1"
       id="path124" /><g
       id="g126"><g
         id="g128"
         clip-path="url(#clipPath132)"><text
           transform="matrix(1,0,0,-1,49.488,347.35)"
           style="font-variant:normal;font-weight:normal;font-size:18px;font-family:'Times New Roman';-inkscape-font-specification:'Times New';writing-mode:lr-tb;fill:#000000;fill-opacity:1;fill-rule:nonzero;stroke:none"
           id="text136"><tspan
             x="0 10.008 18 27.054001 41.004002 49.049999 58.049999"
             y="0"
             sodipodi:role="line"
             id="tspan134">Segment</tspan></text></g></g><path
       d="m 132,336 h 66 v 36 h -66 z"
       style="fill:#ccffff;fill-opacity:0.50196;fill-rule:evenodd;stroke:none"
       id="path138" /><path
       d="m 132,336 h 66 v 36 h -66 z"
       style="fill:none;stroke:#000000;stroke-width:0.72;stroke-linecap:butt;stroke-linejoin:miter;stroke-miterlimit:10;stroke-dasharray:none;stroke-opacity:1"
       id="path140" /><g
       id="g142"><g
         id="g144"
         clip-path="url(#clipPath148)"><text
           transform="matrix(1,0,0,-1,142.63,347.35)"
           style="font-variant:normal;font-weight:normal;font-size:18px;font-family:'Times New Roman';-inkscape-font-specification:'Times New';writing-mode:lr-tb;fill:#000000;fill-opacity:1;fill-rule:nonzero;stroke:none"
           id="text152"><tspan
             x="0 12.996 18.594 24.587999 31.59 39.582001"
             y="0"
             sodipodi:role="line"
             id="tspan150">Offset</tspan></text></g></g><path
       d="m 216,168 h 54 v 120 h -54 z"
       style="fill:#00ff00;fill-opacity:0.50196;fill-rule:evenodd;stroke:none"
       id="path154" /><path
       d="m 216,168 h 54 v 120 h -54 z"
       style="fill:none;stroke:#000000;stroke-width:0.72;stroke-linecap:butt;stroke-linejoin:miter;stroke-miterlimit:10;stroke-dasharray:none;stroke-opacity:1"
       id="path156" /><g
       id="g158"><g
         id="g160"
         clip-path="url(#clipPath164)"><text
           transform="matrix(1,0,0,-1,205.22,136.85)"
           style="font-variant:normal;font-weight:normal;font-size:15.984px;font-family:'Times New Roman';-inkscape-font-specification:'Times New';writing-mode:lr-tb;fill:#000000;fill-opacity:1;fill-rule:nonzero;stroke:none"
           id="text168"><tspan
             x="0 8.887104 15.984 23.976 36.12384 43.220737 51.212734 55.656288 59.860081 68.507423 75.604317 83.596321 88.039871"
             y="0"
             sodipodi:role="line"
             id="tspan166">Segment Table</tspan></text></g></g><g
       id="g170"><g
         id="g172"
         clip-path="url(#clipPath176)"><path
           d="M 80.5,336 V 227.5 H 211 v 1 H 81 L 81.5,228 V 336 Z M 210,225 l 6,3 -6,3 z"
           style="fill:#000000;fill-opacity:1;fill-rule:nonzero;stroke:none"
           id="path178" /></g></g><g
       id="g180"><g
         id="g182"
         clip-path="url(#clipPath186)"><path
           d="M 164.5,336 V 323.5 H 301 v 1 H 165 l 0.5,-0.5 v 12 z m 135.5,-15 6,3 -6,3 z"
           style="fill:#000000;fill-opacity:1;fill-rule:nonzero;stroke:none"
           id="path188" /></g></g><path
       d="m 306,324 c 0,9.94 8.06,18 18,18 9.94,0 18,-8.06 18,-18 0,-9.94 -8.06,-18 -18,-18 -9.94,0 -18,8.06 -18,18 z"
       style="fill:#ffffff;fill-opacity:1;fill-rule:evenodd;stroke:none"
       id="path190" /><path
       d="m 306,324 c 0,9.94 8.06,18 18,18 9.94,0 18,-8.06 18,-18 0,-9.94 -8.06,-18 -18,-18 -9.94,0 -18,8.06 -18,18 z"
       style="fill:none;stroke:#000000;stroke-width:0.72;stroke-linecap:butt;stroke-linejoin:round;stroke-miterlimit:10;stroke-dasharray:none;stroke-opacity:1"
       id="path192" /><g
       id="g194"><g
         id="g196"
         clip-path="url(#clipPath200)"><text
           transform="matrix(1,0,0,-1,317.35,315.19)"
           style="font-variant:normal;font-weight:normal;font-size:24px;font-family:'Times New Roman';-inkscape-font-specification:'Times New';writing-mode:lr-tb;fill:#000000;fill-opacity:1;fill-rule:nonzero;stroke:none"
           id="text204"><tspan
             x="0"
             y="0"
             id="tspan202">+</tspan></text></g></g><path
       d="m 270,227.5 h 54.5 V 301 h -1 v -73 l 0.5,0.5 h -54 z m 57,72.5 -3,6 -3,-6 z"
       style="fill:#000000;fill-opacity:1;fill-rule:nonzero;stroke:none"
       id="path206" /><path
       d="m 342,324.5 h 31 v -1 h -31 z m 30,2.5 6,-3 -6,-3 z"
       style="fill:#000000;fill-opacity:1;fill-rule:nonzero;stroke:none"
       id="path208" /><path
       d="m 216,234 h 54"
       style="fill:none;stroke:#000000;stroke-width:0.72;stroke-linecap:butt;stroke-linejoin:round;stroke-miterlimit:10;stroke-dasharray:none;stroke-opacity:1"
       id="path210" /><path
       d="m 216,222 h 54"
       style="fill:none;stroke:#000000;stroke-width:0.72;stroke-linecap:butt;stroke-linejoin:round;stroke-miterlimit:10;stroke-dasharray:none;stroke-opacity:1"
       id="path212" /><path
       d="m 378,300 h 144 v 36 H 378 Z"
       style="fill:#99ccff;fill-opacity:0.50196;fill-rule:evenodd;stroke:none"
       id="path214" /><path
       d="m 378,300 h 144 v 36 H 378 Z"
       style="fill:none;stroke:#000000;stroke-width:0.72;stroke-linecap:butt;stroke-linejoin:miter;stroke-miterlimit:8;stroke-dasharray:none;stroke-opacity:1"
       id="path216" /><g
       id="g218"><g
         id="g220"
         clip-path="url(#clipPath224)"><text
           transform="matrix(1,0,0,-1,386.4,311.35)"
           style="font-variant:normal;font-weight:normal;font-size:18px;font-family:'Times New Roman';-inkscape-font-specification:'Times New';writing-mode:lr-tb;fill:#000000;fill-opacity:1;fill-rule:nonzero;stroke:none"
           id="text228"><tspan
             x="0 12.996 18.99 30.996 35.495998 43.793999 56.790001 69.713997 80.711998 85.302002 98.297997 108.216 118.224"
             y="0"
             sodipodi:role="line"
             id="tspan226">DIR PAGE OFF </tspan></text></g></g><g
       id="g230"><g
         id="g232"
         clip-path="url(#clipPath236)"><text
           transform="matrix(1,0,0,-1,391.27,350.71)"
           style="font-variant:normal;font-weight:normal;font-size:18px;font-family:'宋体';-inkscape-font-specification:'宋体';writing-mode:lr-tb;fill:#000000;fill-opacity:1;fill-rule:nonzero;stroke:none"
           id="text240"><tspan
             x="0 18 36 54"
             y="0"
             sodipodi:role="line"
             id="tspan238">线性地址</tspan></text></g></g><path
       d="M 420,336 V 300"
       style="fill:none;stroke:#000000;stroke-width:0.72;stroke-linecap:butt;stroke-linejoin:round;stroke-miterlimit:8;stroke-dasharray:none;stroke-opacity:1"
       id="path242" /><path
       d="M 468,336 V 300"
       style="fill:none;stroke:#000000;stroke-width:0.72;stroke-linecap:butt;stroke-linejoin:round;stroke-miterlimit:8;stroke-dasharray:none;stroke-opacity:1"
       id="path244" /><path
       d="m 420,108 h 54 v 120 h -54 z"
       style="fill:#00ff00;fill-opacity:0.50196;fill-rule:evenodd;stroke:none"
       id="path246" /><path
       d="m 420,108 h 54 v 120 h -54 z"
       style="fill:none;stroke:#000000;stroke-width:0.72;stroke-linecap:butt;stroke-linejoin:miter;stroke-miterlimit:8;stroke-dasharray:none;stroke-opacity:1"
       id="path248" /><path
       d="m 420,210 h 54"
       style="fill:none;stroke:#000000;stroke-width:0.72;stroke-linecap:butt;stroke-linejoin:round;stroke-miterlimit:8;stroke-dasharray:none;stroke-opacity:1"
       id="path250" /><path
       d="m 420,198 h 54"
       style="fill:none;stroke:#000000;stroke-width:0.72;stroke-linecap:butt;stroke-linejoin:round;stroke-miterlimit:8;stroke-dasharray:none;stroke-opacity:1"
       id="path252" /><path
       d="m 510,150 h 54 v 120 h -54 z"
       style="fill:#00ff00;fill-opacity:0.50196;fill-rule:evenodd;stroke:none"
       id="path254" /><path
       d="m 510,150 h 54 v 120 h -54 z"
       style="fill:none;stroke:#000000;stroke-width:0.72;stroke-linecap:butt;stroke-linejoin:miter;stroke-miterlimit:8;stroke-dasharray:none;stroke-opacity:1"
       id="path256" /><path
       d="m 510,240 h 54"
       style="fill:none;stroke:#000000;stroke-width:0.72;stroke-linecap:butt;stroke-linejoin:round;stroke-miterlimit:8;stroke-dasharray:none;stroke-opacity:1"
       id="path258" /><path
       d="m 510,228 h 54"
       style="fill:none;stroke:#000000;stroke-width:0.72;stroke-linecap:butt;stroke-linejoin:round;stroke-miterlimit:8;stroke-dasharray:none;stroke-opacity:1"
       id="path260" /><g
       id="g262"><g
         id="g264"
         clip-path="url(#clipPath268)"><path
           d="M 389.5,300 V 203.5 H 415 v 1 h -25 l 0.5,-0.5 v 96 z m 24.5,-99 6,3 -6,3 z"
           style="fill:#000000;fill-opacity:1;fill-rule:nonzero;stroke:none"
           id="path270" /></g></g><path
       d="m 474,204 h 12"
       style="fill:none;stroke:#000000;stroke-width:0.72;stroke-linecap:butt;stroke-linejoin:round;stroke-miterlimit:8;stroke-dasharray:none;stroke-opacity:1"
       id="path272" /><path
       d="M 486,204 V 150"
       style="fill:none;stroke:#000000;stroke-width:0.72;stroke-linecap:butt;stroke-linejoin:round;stroke-miterlimit:8;stroke-dasharray:none;stroke-opacity:1"
       id="path274" /><path
       d="m 486,150.5 h 19 v -1 h -19 z m 18,2.5 6,-3 -6,-3 z"
       style="fill:#000000;fill-opacity:1;fill-rule:nonzero;stroke:none"
       id="path276" /><path
       d="M 444,300 V 270"
       style="fill:none;stroke:#000000;stroke-width:0.72;stroke-linecap:butt;stroke-linejoin:round;stroke-miterlimit:8;stroke-dasharray:none;stroke-opacity:1"
       id="path278" /><path
       d="m 444,270 h 42"
       style="fill:none;stroke:#000000;stroke-width:0.72;stroke-linecap:butt;stroke-linejoin:round;stroke-miterlimit:8;stroke-dasharray:none;stroke-opacity:1"
       id="path280" /><path
       d="M 486,270 V 234"
       style="fill:none;stroke:#000000;stroke-width:0.72;stroke-linecap:butt;stroke-linejoin:round;stroke-miterlimit:8;stroke-dasharray:none;stroke-opacity:1"
       id="path282" /><path
       d="m 486,234.5 h 19 v -1 h -19 z m 18,2.5 6,-3 -6,-3 z"
       style="fill:#000000;fill-opacity:1;fill-rule:nonzero;stroke:none"
       id="path284" /><path
       d="m 600,300 c 0,9.94 8.06,18 18,18 9.94,0 18,-8.06 18,-18 0,-9.94 -8.06,-18 -18,-18 -9.94,0 -18,8.06 -18,18 z"
       style="fill:#ffffff;fill-opacity:1;fill-rule:evenodd;stroke:none"
       id="path286" /><path
       d="m 600,300 c 0,9.94 8.06,18 18,18 9.94,0 18,-8.06 18,-18 0,-9.94 -8.06,-18 -18,-18 -9.94,0 -18,8.06 -18,18 z"
       style="fill:none;stroke:#000000;stroke-width:0.72;stroke-linecap:butt;stroke-linejoin:round;stroke-miterlimit:8;stroke-dasharray:none;stroke-opacity:1"
       id="path288" /><g
       id="g290"><g
         id="g292"
         clip-path="url(#clipPath296)"><text
           transform="matrix(1,0,0,-1,611.4,291.19)"
           style="font-variant:normal;font-weight:normal;font-size:24px;font-family:'Times New Roman';-inkscape-font-specification:'Times New';writing-mode:lr-tb;fill:#000000;fill-opacity:1;fill-rule:nonzero;stroke:none"
           id="text300"><tspan
             x="0"
             y="0"
             id="tspan298">+</tspan></text></g></g><path
       d="m 564,233.5 h 54.5 V 277 h -1 v -43 l 0.5,0.5 h -54 z m 57,42.5 -3,6 -3,-6 z"
       style="fill:#000000;fill-opacity:1;fill-rule:nonzero;stroke:none"
       id="path302" /><path
       d="m 522,318.5 h 39.5 V 300 l -0.5,0.5 h 34 v -1 H 560.5 V 318 l 0.5,-0.5 h -39 z m 72,-15.5 6,-3 -6,-3 z"
       style="fill:#000000;fill-opacity:1;fill-rule:nonzero;stroke:none"
       id="path304" /><path
       d="m 636,306.5 h 43 v -1 h -43 z m 42,2.5 6,-3 -6,-3 z"
       style="fill:#000000;fill-opacity:1;fill-rule:nonzero;stroke:none"
       id="path306" /><g
       id="g308"><g
         id="g310"
         clip-path="url(#clipPath314)"><text
           transform="matrix(1,0,0,-1,649.3,345.79)"
           style="font-variant:normal;font-weight:normal;font-size:15.96px;font-family:'宋体';-inkscape-font-specification:'宋体';writing-mode:lr-tb;fill:#000000;fill-opacity:1;fill-rule:nonzero;stroke:none"
           id="text318"><tspan
             x="0 15.984"
             y="0"
             sodipodi:role="line"
             id="tspan316">物理</tspan></text></g></g><g
       id="g320"><g
         id="g322"
         clip-path="url(#clipPath326)"><text
           transform="matrix(1,0,0,-1,649.3,327.55)"
           style="font-variant:normal;font-weight:normal;font-size:15.96px;font-family:'宋体';-inkscape-font-specification:'宋体';writing-mode:lr-tb;fill:#000000;fill-opacity:1;fill-rule:nonzero;stroke:none"
           id="text330"><tspan
             x="0 15.984"
             y="0"
             sodipodi:role="line"
             id="tspan328">地址</tspan></text></g></g><g
       id="g332"><g
         id="g334"
         clip-path="url(#clipPath338)"><text
           transform="matrix(1,0,0,-1,421.27,74.904)"
           style="font-variant:normal;font-weight:normal;font-size:18px;font-family:'Times New Roman';-inkscape-font-specification:'Times New';writing-mode:lr-tb;fill:#000000;fill-opacity:1;fill-rule:nonzero;stroke:none"
           id="text342"><tspan
             x="0 10.008 18 27 34.992001"
             y="0"
             sodipodi:role="line"
             id="tspan340">Page </tspan></text></g></g><g
       id="g344"><g
         id="g346"
         clip-path="url(#clipPath350)"><text
           transform="matrix(1,0,0,-1,421.27,53.304)"
           style="font-variant:normal;font-weight:normal;font-size:18px;font-family:'Times New Roman';-inkscape-font-specification:'Times New';writing-mode:lr-tb;fill:#000000;fill-opacity:1;fill-rule:nonzero;stroke:none"
           id="text354"><tspan
             x="0 12.996 18 23.993999 32.021999 40.014 45.09 54.09 60.084"
             y="0"
             sodipodi:role="line"
             id="tspan352">Directory</tspan></text></g></g><g
       id="g356"><g
         id="g358"
         clip-path="url(#clipPath362)"><text
           transform="matrix(1,0,0,-1,517.3,116.9)"
           style="font-variant:normal;font-weight:normal;font-size:18px;font-family:'Times New Roman';-inkscape-font-specification:'Times New';writing-mode:lr-tb;fill:#000000;fill-opacity:1;fill-rule:nonzero;stroke:none"
           id="text366"><tspan
             x="0 10.008 18 27 34.992001"
             y="0"
             sodipodi:role="line"
             id="tspan364">Page </tspan></text></g></g><g
       id="g368"><g
         id="g370"
         clip-path="url(#clipPath374)"><text
           transform="matrix(1,0,0,-1,517.3,95.304)"
           style="font-variant:normal;font-weight:normal;font-size:18px;font-family:'Times New Roman';-inkscape-font-specification:'Times New';writing-mode:lr-tb;fill:#000000;fill-opacity:1;fill-rule:nonzero;stroke:none"
           id="text378"><tspan
             x="0 9.8459997 17.837999 26.837999 31.914"
             y="0"
             sodipodi:role="line"
             id="tspan376">Table</tspan></text></g></g></g></svg>
