<?xml version="1.0" encoding="UTF-8" standalone="no"?>
<svg
   xmlns:dc="http://purl.org/dc/elements/1.1/"
   xmlns:cc="http://creativecommons.org/ns#"
   xmlns:rdf="http://www.w3.org/1999/02/22-rdf-syntax-ns#"
   xmlns:svg="http://www.w3.org/2000/svg"
   xmlns="http://www.w3.org/2000/svg"
   xmlns:sodipodi="http://sodipodi.sourceforge.net/DTD/sodipodi-0.dtd"
   xmlns:inkscape="http://www.inkscape.org/namespaces/inkscape"
   version="1.1"
   id="svg2"
   xml:space="preserve"
   width="506.31998"
   height="288.71997"
   viewBox="0 0 506.31998 288.71997"
   sodipodi:docname="a.svg"
   inkscape:version="1.0.2 (1.0.2+r75+1)"><metadata
     id="metadata8"><rdf:RDF><cc:Work
         rdf:about=""><dc:format>image/svg+xml</dc:format><dc:type
           rdf:resource="http://purl.org/dc/dcmitype/StillImage" /><dc:title></dc:title></cc:Work></rdf:RDF></metadata><defs
     id="defs6"><clipPath
       clipPathUnits="userSpaceOnUse"
       id="clipPath122"><path
         d="m 112.44,706.98 h 378 V 503.94 h -378 z"
         clip-rule="evenodd"
         id="path120" /></clipPath><clipPath
       clipPathUnits="userSpaceOnUse"
       id="clipPath128"><path
         d="M 0,792.03 H 612 V 0.03 H 0 Z"
         id="path126" /></clipPath></defs><sodipodi:namedview
     pagecolor="#ffffff"
     bordercolor="#666666"
     borderopacity="1"
     objecttolerance="10"
     gridtolerance="10"
     guidetolerance="10"
     inkscape:pageopacity="0"
     inkscape:pageshadow="2"
     inkscape:window-width="1920"
     inkscape:window-height="1025"
     id="namedview4"
     showgrid="false"
     fit-margin-top="0"
     fit-margin-left="0"
     fit-margin-right="0"
     fit-margin-bottom="0"
     inkscape:zoom="1.1758329"
     inkscape:cx="297.46606"
     inkscape:cy="136.05497"
     inkscape:window-x="0"
     inkscape:window-y="27"
     inkscape:window-maximized="1"
     inkscape:current-layer="g10" /><g
     id="g10"
     inkscape:groupmode="layer"
     inkscape:label="a"
     transform="matrix(1.3333333,0,0,-1.3333333,-148.8,957.67995)"><path
       d="m 111.6,502.2 h 0.48 v 215.52 h -0.48 z"
       style="fill:#000000;fill-opacity:1;fill-rule:nonzero;stroke:none"
       id="path108" /><path
       d="m 490.8,502.2 h 0.47998 V 717.72 H 490.8 Z"
       style="fill:#000000;fill-opacity:1;fill-rule:nonzero;stroke:none"
       id="path110" /><path
       d="m 111.6,717.78 h 379.74 v 0.47998 H 111.6 Z"
       style="fill:#000000;fill-opacity:1;fill-rule:nonzero;stroke:none"
       id="path112" /><path
       d="m 111.6,501.72 h 379.74 v 0.48001 H 111.6 Z"
       style="fill:#000000;fill-opacity:1;fill-rule:nonzero;stroke:none"
       id="path114" /><g
       id="g116"><g
         id="g118"
         clip-path="url(#clipPath122)"><g
           id="g124"
           clip-path="url(#clipPath128)"><text
             transform="matrix(1,0,0,-1,155.04,696.36)"
             style="font-variant:normal;font-weight:normal;font-stretch:normal;font-size:6px;font-family:Arial;-inkscape-font-specification:Arial;writing-mode:lr-tb;fill:#000000;fill-opacity:1;fill-rule:nonzero;stroke:none"
             id="text154"><tspan
               x="0 3.2988"
               y="0"
               sodipodi:role="line"
               id="tspan130">31</tspan><tspan
               x="60.540001 63.8988"
               y="0.18000001"
               sodipodi:role="line"
               id="tspan132">24</tspan><tspan
               x="68.400002 71.699402"
               y="0.12"
               sodipodi:role="line"
               id="tspan134">23</tspan><tspan
               x="76.980003 80.338799"
               y="0.18000001"
               sodipodi:role="line"
               id="tspan136">22</tspan><tspan
               x="85.32 88.678802 93.537598 96.8964 101.8752 105.234 127.4328 130.7916"
               y="0.059999999"
               sodipodi:role="line"
               id="tspan138">21201916</tspan><tspan
               x="135.66 139.0188"
               y="0.18000001"
               sodipodi:role="line"
               id="tspan140">15</tspan><tspan
               x="152.64 155.99879"
               y="0.23999999"
               sodipodi:role="line"
               id="tspan142">13</tspan><tspan
               x="144.17999 147.47881 161.0376 164.397 170.09579 172.97459"
               y="0.18000001"
               sodipodi:role="line"
               id="tspan144">141211</tspan><tspan
               x="197.7"
               y="0.36000001"
               id="tspan146">8</tspan><tspan
               x="206.34"
               y="0.30000001"
               id="tspan148">7</tspan><tspan
               x="266.64001"
               y="0.23999999"
               id="tspan150">0</tspan><tspan
               x="137.03999"
               y="20.4"
               id="tspan152">P</tspan></text><text
             transform="matrix(1,0,0,-1,171.42,675.84)"
             style="font-variant:normal;font-weight:normal;font-stretch:normal;font-size:6.96px;font-family:Arial;-inkscape-font-specification:Arial;writing-mode:lr-tb;fill:#000000;fill-opacity:1;fill-rule:nonzero;stroke:none"
             id="text158"><tspan
               x="0 4.6694641 8.5663681 12.073512 15.970416 17.891376 21.78828 25.685184 27.606144 31.503048"
               y="0"
               sodipodi:role="line"
               id="tspan156">Base 31:24</tspan></text><text
             transform="matrix(1,0,0,-1,225.18,676.08)"
             style="font-variant:normal;font-weight:normal;font-stretch:normal;font-size:6px;font-family:Arial;-inkscape-font-specification:Arial;writing-mode:lr-tb;fill:#000000;fill-opacity:1;fill-rule:nonzero;stroke:none"
             id="text162"><tspan
               x="0"
               y="0"
               id="tspan160">G</tspan></text><path
             d="m 357.78,693.6 h 0.29999 v 0.12 H 357.78 Z"
             style="fill:#000000;fill-opacity:1;fill-rule:nonzero;stroke:none"
             id="path164" /><path
             d="m 357.78,662.94 h 0.29999 V 693.6 H 357.78 Z"
             style="fill:#000000;fill-opacity:1;fill-rule:nonzero;stroke:none"
             id="path166" /><text
             transform="matrix(1,0,0,-1,304.44,682.08)"
             style="font-variant:normal;font-weight:normal;font-stretch:normal;font-size:6px;font-family:Arial;-inkscape-font-specification:Arial;writing-mode:lr-tb;fill:#000000;fill-opacity:1;fill-rule:nonzero;stroke:none"
             id="text174"><tspan
               x="0"
               y="0"
               id="tspan168">D</tspan><tspan
               x="0.059999999"
               y="6.9000001"
               id="tspan170">P</tspan><tspan
               x="0.47999999"
               y="13.38"
               id="tspan172">L</tspan></text><text
             transform="matrix(1,0,0,-1,333.96,675.84)"
             style="font-variant:normal;font-weight:normal;font-stretch:normal;font-size:6.96px;font-family:Arial;-inkscape-font-specification:Arial;writing-mode:lr-tb;fill:#000000;fill-opacity:1;fill-rule:nonzero;stroke:none"
             id="text178"><tspan
               x="0 3.841224 7.3810802 11.220216"
               y="0"
               sodipodi:role="line"
               id="tspan176">Type</tspan></text><text
             transform="matrix(1,0,0,-1,317.7,675.84)"
             style="font-variant:normal;font-weight:normal;font-stretch:normal;font-size:6px;font-family:Arial;-inkscape-font-specification:Arial;writing-mode:lr-tb;fill:#000000;fill-opacity:1;fill-rule:nonzero;stroke:none"
             id="text184"><tspan
               x="0"
               y="0"
               id="tspan180">S</tspan><tspan
               x="-75.720001"
               y="-0.12"
               id="tspan182">L</tspan></text><text
             transform="matrix(1,0,0,-1,429.36,675.06)"
             style="font-variant:normal;font-weight:normal;font-stretch:normal;font-size:7.9828px;font-family:Arial;-inkscape-font-specification:Arial;writing-mode:lr-tb;fill:#000000;fill-opacity:1;fill-rule:nonzero;stroke:none"
             id="text188"><tspan
               x="0"
               y="0"
               id="tspan186">4</tspan></text><text
             transform="matrix(1,0,0,-1,154.44,651.66)"
             style="font-variant:normal;font-weight:normal;font-stretch:normal;font-size:6px;font-family:Arial;-inkscape-font-specification:Arial;writing-mode:lr-tb;fill:#000000;fill-opacity:1;fill-rule:nonzero;stroke:none"
             id="text198"><tspan
               x="0 3.3587999"
               y="0"
               sodipodi:role="line"
               id="tspan190">31</tspan><tspan
               x="127.2 130.55881"
               y="0.12"
               sodipodi:role="line"
               id="tspan192">16</tspan><tspan
               x="135.36 138.7188"
               y="0.18000001"
               sodipodi:role="line"
               id="tspan194">15</tspan><tspan
               x="266.10001"
               y="0.30000001"
               id="tspan196">0</tspan></text><text
             transform="matrix(1,0,0,-1,190.38,631.38)"
             style="font-variant:normal;font-weight:normal;font-stretch:normal;font-size:6.96px;font-family:Arial;-inkscape-font-specification:Arial;writing-mode:lr-tb;fill:#000000;fill-opacity:1;fill-rule:nonzero;stroke:none"
             id="text204"><tspan
               x="0 4.679904 8.5788956 12.062376 15.935616 17.856577 22.53648 26.435472 30.308712 32.629871 36.503113 39.986591 43.470074 45.451584 49.324825 53.198063 55.179577 59.078568"
               y="0"
               sodipodi:role="line"
               id="tspan200">Base Address 15:00</tspan><tspan
               x="136.01997 140.69571 144.59888 148.438 154.25797 158.16113 162.0643 163.98526 165.96606 169.80521 171.36424 177.19534 178.77386 180.74216 182.66312 186.56628 190.40541 192.3737 196.27687"
               y="0.29997599"
               sodipodi:role="line"
               id="tspan202">Segment Limit 15:00</tspan></text><text
             transform="matrix(1,0,0,-1,428.7,630.3)"
             style="font-variant:normal;font-weight:normal;font-stretch:normal;font-size:7.9828px;font-family:Arial;-inkscape-font-specification:Arial;writing-mode:lr-tb;fill:#000000;fill-opacity:1;fill-rule:nonzero;stroke:none"
             id="text208"><tspan
               x="0"
               y="0"
               id="tspan206">0</tspan></text><path
             d="m 222.48,693.6 h 0.3 v 0.12 h -0.3 z"
             style="fill:#000000;fill-opacity:1;fill-rule:nonzero;stroke:none"
             id="path210" /><path
             d="m 222.48,662.94 h 0.3 v 30.66 h -0.3 z"
             style="fill:#000000;fill-opacity:1;fill-rule:nonzero;stroke:none"
             id="path212" /><path
             d="m 231,693.6 h 0.3 v 0.12 H 231 Z"
             style="fill:#000000;fill-opacity:1;fill-rule:nonzero;stroke:none"
             id="path214" /><path
             d="m 231,662.94 h 0.3 V 693.6 H 231 Z"
             style="fill:#000000;fill-opacity:1;fill-rule:nonzero;stroke:none"
             id="path216" /><path
             d="m 239.46,693.6 h 0.29999 v 0.12 H 239.46 Z"
             style="fill:#000000;fill-opacity:1;fill-rule:nonzero;stroke:none"
             id="path218" /><path
             d="m 239.46,662.94 h 0.29999 V 693.6 H 239.46 Z"
             style="fill:#000000;fill-opacity:1;fill-rule:nonzero;stroke:none"
             id="path220" /><path
             d="m 247.74,693.6 h 0.3 v 0.12 h -0.3 z"
             style="fill:#000000;fill-opacity:1;fill-rule:nonzero;stroke:none"
             id="path222" /><path
             d="m 247.74,662.94 h 0.3 v 30.66 h -0.3 z"
             style="fill:#000000;fill-opacity:1;fill-rule:nonzero;stroke:none"
             id="path224" /><path
             d="m 289.8,693.6 h 0.30002 v 0.12 H 289.8 Z"
             style="fill:#000000;fill-opacity:1;fill-rule:nonzero;stroke:none"
             id="path226" /><path
             d="m 289.8,662.94 h 0.30002 V 693.6 H 289.8 Z"
             style="fill:#000000;fill-opacity:1;fill-rule:nonzero;stroke:none"
             id="path228" /><path
             d="m 298.02,693.6 h 0.30002 v 0.12 H 298.02 Z"
             style="fill:#000000;fill-opacity:1;fill-rule:nonzero;stroke:none"
             id="path230" /><path
             d="m 298.02,662.94 h 0.30002 V 693.6 H 298.02 Z"
             style="fill:#000000;fill-opacity:1;fill-rule:nonzero;stroke:none"
             id="path232" /><path
             d="m 255.84,693.6 h 0.29999 v 0.12 H 255.84 Z"
             style="fill:#000000;fill-opacity:1;fill-rule:nonzero;stroke:none"
             id="path234" /><path
             d="m 255.84,662.94 h 0.29999 V 693.6 H 255.84 Z"
             style="fill:#000000;fill-opacity:1;fill-rule:nonzero;stroke:none"
             id="path236" /><path
             d="m 315.3,693.6 h 0.30002 v 0.12 H 315.3 Z"
             style="fill:#000000;fill-opacity:1;fill-rule:nonzero;stroke:none"
             id="path238" /><path
             d="m 315.3,662.94 h 0.30002 V 693.6 H 315.3 Z"
             style="fill:#000000;fill-opacity:1;fill-rule:nonzero;stroke:none"
             id="path240" /><path
             d="m 323.7,693.6 h 0.29999 v 0.12 H 323.7 Z"
             style="fill:#000000;fill-opacity:1;fill-rule:nonzero;stroke:none"
             id="path242" /><path
             d="m 323.7,662.94 h 0.29999 V 693.6 H 323.7 Z"
             style="fill:#000000;fill-opacity:1;fill-rule:nonzero;stroke:none"
             id="path244" /><text
             transform="matrix(1,0,0,-1,373.98,675.84)"
             style="font-variant:normal;font-weight:normal;font-stretch:normal;font-size:6.96px;font-family:Arial;-inkscape-font-specification:Arial;writing-mode:lr-tb;fill:#000000;fill-opacity:1;fill-rule:nonzero;stroke:none"
             id="text248"><tspan
               x="0 4.6694641 8.5663681 12.073512 15.970416 17.891376 21.78828 25.685184 27.606144 31.503048"
               y="0"
               sodipodi:role="line"
               id="tspan246">Base 23:16</tspan></text><text
             transform="matrix(1,0,0,-1,233.1,682.08)"
             style="font-variant:normal;font-weight:normal;font-stretch:normal;font-size:6px;font-family:Arial;-inkscape-font-specification:Arial;writing-mode:lr-tb;fill:#000000;fill-opacity:1;fill-rule:nonzero;stroke:none"
             id="text262"><tspan
               x="0"
               y="0"
               id="tspan250">D</tspan><tspan
               x="1.3200001"
               y="6.6599998"
               id="tspan252">/</tspan><tspan
               x="0.23999999"
               y="13.38"
               id="tspan254">B</tspan><tspan
               x="16.860001"
               y="2.6645353e-15"
               id="tspan256">A</tspan><tspan
               x="16.92"
               y="6.6599998"
               id="tspan258">V</tspan><tspan
               x="17.34"
               y="13.38"
               id="tspan260">L</tspan></text><text
             transform="matrix(1,0,0,-1,266.1,682.56)"
             style="font-variant:normal;font-weight:normal;font-stretch:normal;font-size:6.96px;font-family:Arial;-inkscape-font-specification:Arial;writing-mode:lr-tb;fill:#000000;fill-opacity:1;fill-rule:nonzero;stroke:none"
             id="text270"><tspan
               x="0 4.620048 8.5190401 12.418032"
               y="0"
               sodipodi:role="line"
               id="tspan264">Seg.</tspan><tspan
               x="-0.41968799 3.4194479 4.978488 10.79844 12.35748"
               y="6.6001682"
               sodipodi:role="line"
               id="tspan266">Limit</tspan><tspan
               x="-1.74 2.0991361 5.9981279 7.9789438 11.81808"
               y="13.320048"
               sodipodi:role="line"
               id="tspan268">19:16</tspan></text><path
             d="m 289.14,648.84 h 0.29999 v 0.12 H 289.14 Z"
             style="fill:#000000;fill-opacity:1;fill-rule:nonzero;stroke:none"
             id="path272" /><path
             d="m 289.14,618.12 h 0.29999 v 30.72 H 289.14 Z"
             style="fill:#000000;fill-opacity:1;fill-rule:nonzero;stroke:none"
             id="path274" /><text
             transform="matrix(1,0,0,-1,168.42,550.62)"
             style="font-variant:normal;font-weight:normal;font-stretch:normal;font-size:7.9828px;font-family:Arial;-inkscape-font-specification:Arial;writing-mode:lr-tb;fill:#000000;fill-opacity:1;fill-rule:nonzero;stroke:none"
             id="text294"><tspan
               x="0 21.84094 32.040565 38.248787 40.94857 45.384613 49.820656 54.256699 56.026482 60.462524 63.118404 64.888191 67.105011"
               y="0"
               sodipodi:role="line"
               id="tspan276">G—Granularity</tspan><tspan
               x="0.47976628 4.9213963 7.1438079 13.796673 16.019085 23.160498 33.360123 38.687843 43.129471 47.571102 54.223969 58.665596 63.107227 65.329636 67.551254 71.992882 73.768257 80.42112 82.196495"
               y="9.299962"
               sodipodi:role="line"
               id="tspan278">LIMIT—Segment Limit</tspan><tspan
               x="0.239484 23.340111 33.540531 38.868252 43.309883 47.751514 54.404377 58.846008 63.345913 65.568321 67.790733 72.232368 74.893829 79.335464 83.330055 87.771683 92.213318"
               y="18.599924"
               sodipodi:role="line"
               id="tspan280">P—Segment present</tspan><tspan
               x="0.239484 23.339312 33.538937 39.30571 43.804817 47.799408 51.794003 54.455467 56.230843 60.672474 62.894886 67.336517 69.997978 72.219597 74.501076 78.461342 82.902977 87.344604 89.566216 92.265999 96.704437 98.926048 103.5912 105.81281 109.8074 113.802 117.79659 120.019 124.46063 131.11349 133.33591 135.55753 139.99916 142.22076 146.88591 149.10753 153.10213 157.54375 161.98538 166.42702 168.64862 173.09026 175.75172 177.97333 182.47244 186.91087 189.01195 193.45038"
               y="27.899885"
               sodipodi:role="line"
               id="tspan282">S—Descriptor type (0 = system; 1 = code or data)</tspan><tspan
               x="-0.48056456 4.4408317 9.7206554 15.052367 22.61208 32.872372 38.152195 42.651302 47.089741 53.746597 58.192219 62.63784 64.864243 67.085854 69.312256 73.310844 77.756462"
               y="37.5"
               sodipodi:role="line"
               id="tspan284">TYPE—Segment type</tspan><tspan
               x="-0.78071785 4.9828639 10.307391 23.625895 33.886189 39.649769 44.088207 48.079605 52.071007 54.77079 56.509441 60.94788 63.167099 67.605537 70.305321 72.526932 76.96537 79.623642 81.395821 85.387222 87.159401 88.931587 93.370026 97.808456 102.24689 104.46851 106.24069 110.67913 114.67052 119.16963"
               y="-9.4795752"
               sodipodi:role="line"
               id="tspan286">DPL—Descriptor privilege level</tspan><tspan
               x="-0.060669281 4.6795173 10.019213 23.337715 33.537338 38.757294 42.71756 47.216667 48.955318 50.732292 55.175518 59.618744 61.395714 65.838943 68.060555 70.284561 74.727791 77.390854 79.612465 84.055695 88.05188 92.49511 94.716721 99.15995 103.15614 105.37775 109.37394 113.37013 117.36632 119.59032 124.03355 130.68802 132.90962 136.90582 141.34904 143.45012 145.67174 151.44011 155.88333 158.58311"
               y="-38.219254"
               sodipodi:role="line"
               id="tspan288">AVL—Available for use by system software</tspan><tspan
               x="-0.060669281 5.2686481 10.597965 15.927282 23.426325 33.685818 39.024715 43.467941 47.911167 54.565632 59.008858 63.452084 65.676094 67.897705 72.340935 76.784157 80.78035 85.223572 87.44519 91.888412 96.331642 100.77486 103.43793 107.88116 111.87734"
               y="-28.919291"
               sodipodi:role="line"
               id="tspan290">BASE—Segment base address</tspan><tspan
               x="-0.54043555 5.223146 7.4423642 23.882143 34.081768 39.845348 44.344456 46.563671 51.00211 55.440544 57.212727 59.431946 61.653561 66.152664 70.591103 75.029541 77.687813 82.126251 84.345467 86.117645 90.556084 94.994522 97.216133 101.20753 102.97971 106.97112 111.40955 113.63116 116.28944 120.78854 123.01015 127.6306 129.85222 134.35132 138.78976 141.44803 145.88647 147.65865 149.87787 152.09949 156.09088 160.58998 165.02843 171.6781 176.11653 180.55498 182.77419 184.99341 187.21503 191.65346 193.87508 198.53703 200.75864 205.19708 209.63551 212.3353 216.77373 218.54591 220.76514 222.98674 226.97815 231.41658 235.85503 242.50468 246.94313 251.38156 253.60078"
               y="-19.619328"
               sodipodi:role="line"
               id="tspan292">D/B—Default operation size (0 = 16-bit segment; 1 = 32-bit segment)</tspan></text><path
             d="m 154.44,693.66 h 271.02 v 0.47998 H 154.44 Z"
             style="fill:#000000;fill-opacity:1;fill-rule:nonzero;stroke:none"
             id="path296" /><path
             d="m 424.98,662.7 h 0.47998 v 31.2 H 424.98 Z"
             style="fill:#000000;fill-opacity:1;fill-rule:nonzero;stroke:none"
             id="path298" /><path
             d="m 154.2,662.7 h 271.02 v 0.47998 H 154.2 Z"
             style="fill:#000000;fill-opacity:1;fill-rule:nonzero;stroke:none"
             id="path300" /><path
             d="m 154.2,662.94 h 0.48 v 31.2 h -0.48 z"
             style="fill:#000000;fill-opacity:1;fill-rule:nonzero;stroke:none"
             id="path302" /><path
             d="m 153.84,648.84 h 271.02 v 0.48004 H 153.84 Z"
             style="fill:#000000;fill-opacity:1;fill-rule:nonzero;stroke:none"
             id="path304" /><path
             d="m 424.38,617.88 h 0.48001 v 31.2 H 424.38 Z"
             style="fill:#000000;fill-opacity:1;fill-rule:nonzero;stroke:none"
             id="path306" /><path
             d="m 153.6,617.88 h 271.02 v 0.47998 H 153.6 Z"
             style="fill:#000000;fill-opacity:1;fill-rule:nonzero;stroke:none"
             id="path308" /><path
             d="m 153.6,618.12 h 0.48001 v 31.2 H 153.6 Z"
             style="fill:#000000;fill-opacity:1;fill-rule:nonzero;stroke:none"
             id="path310" /><text
             transform="matrix(1,0,0,-1,168.96,598.74)"
             style="font-variant:normal;font-weight:normal;font-stretch:normal;font-size:7.9828px;font-family:Arial;-inkscape-font-specification:Arial;writing-mode:lr-tb;fill:#000000;fill-opacity:1;fill-rule:nonzero;stroke:none"
             id="text314"><tspan
               x="0 22.19857 32.398193 36.838226 41.337334 43.997204 48.437237 50.211014 52.431828 54.653442 58.646439 63.086472 67.585579 72.024017 74.245628 78.238625 82.678658 87.11869 93.769958 98.269066 102.7075 104.92832 107.14993 109.8098 112.03062 117.35674 120.01661 124.51572 128.95575 133.39578 135.6174 142.26866 146.70869 151.14873 155.58876 157.81038 162.25041 166.69044 168.46422 172.45721"
               y="0"
               sodipodi:role="line"
               id="tspan312">L—64-bit code segment (IA-32e mode only)</tspan></text></g></g></g></g></svg>
