<?xml version="1.0" encoding="UTF-8" standalone="no"?>
<svg
   xmlns:dc="http://purl.org/dc/elements/1.1/"
   xmlns:cc="http://creativecommons.org/ns#"
   xmlns:rdf="http://www.w3.org/1999/02/22-rdf-syntax-ns#"
   xmlns:svg="http://www.w3.org/2000/svg"
   xmlns="http://www.w3.org/2000/svg"
   xmlns:sodipodi="http://sodipodi.sourceforge.net/DTD/sodipodi-0.dtd"
   xmlns:inkscape="http://www.inkscape.org/namespaces/inkscape"
   version="1.1"
   id="svg2"
   xml:space="preserve"
   width="506.31998"
   height="271.75998"
   viewBox="0 0 506.31998 271.75998"
   sodipodi:docname="svg5.svg"
   inkscape:version="1.0.2 (1.0.2+r75+1)"><metadata
     id="metadata8"><rdf:RDF><cc:Work
         rdf:about=""><dc:format>image/svg+xml</dc:format><dc:type
           rdf:resource="http://purl.org/dc/dcmitype/StillImage" /><dc:title></dc:title></cc:Work></rdf:RDF></metadata><defs
     id="defs6"><clipPath
       clipPathUnits="userSpaceOnUse"
       id="clipPath80"><path
         d="M 147.18,706.98 H 455.7 V 516.72 H 147.18 Z"
         clip-rule="evenodd"
         id="path78" /></clipPath><clipPath
       clipPathUnits="userSpaceOnUse"
       id="clipPath86"><path
         d="M 0,792.03 H 612 V 0.03 H 0 Z"
         id="path84" /></clipPath></defs><sodipodi:namedview
     pagecolor="#ffffff"
     bordercolor="#666666"
     borderopacity="1"
     objecttolerance="10"
     gridtolerance="10"
     guidetolerance="10"
     inkscape:pageopacity="0"
     inkscape:pageshadow="2"
     inkscape:window-width="1256"
     inkscape:window-height="925"
     id="namedview4"
     showgrid="false"
     fit-margin-top="0"
     fit-margin-left="0"
     fit-margin-right="0"
     fit-margin-bottom="0"
     inkscape:zoom="0.83143939"
     inkscape:cx="259.2"
     inkscape:cy="381.57061"
     inkscape:window-x="0"
     inkscape:window-y="27"
     inkscape:window-maximized="0"
     inkscape:current-layer="g10" /><g
     id="g10"
     inkscape:groupmode="layer"
     inkscape:label="a"
     transform="matrix(1.3333333,0,0,-1.3333333,-148.8,957.67995)"><path
       d="m 111.6,514.98 h 0.48 v 202.74 h -0.48 z"
       style="fill:#000000;fill-opacity:1;fill-rule:nonzero;stroke:none"
       id="path66" /><path
       d="m 490.8,514.98 h 0.47998 V 717.72 H 490.8 Z"
       style="fill:#000000;fill-opacity:1;fill-rule:nonzero;stroke:none"
       id="path68" /><path
       d="m 111.6,717.78 h 379.74 v 0.47998 H 111.6 Z"
       style="fill:#000000;fill-opacity:1;fill-rule:nonzero;stroke:none"
       id="path70" /><path
       d="m 111.6,514.44 h 379.74 v 0.47998 H 111.6 Z"
       style="fill:#000000;fill-opacity:1;fill-rule:nonzero;stroke:none"
       id="path72" /><g
       id="g74"><g
         id="g76"
         clip-path="url(#clipPath80)"><g
           id="g82"
           clip-path="url(#clipPath86)"><text
             transform="matrix(1,0,0,-1,166.56,688.38)"
             style="font-variant:normal;font-weight:normal;font-stretch:normal;font-size:6px;font-family:Arial;-inkscape-font-specification:Arial;writing-mode:lr-tb;fill:#000000;fill-opacity:1;fill-rule:nonzero;stroke:none"
             id="text114"><tspan
               x="0 3.3587999"
               y="0"
               sodipodi:role="line"
               id="tspan88">31</tspan><tspan
               x="60.48 63.838799"
               y="0.23999999"
               sodipodi:role="line"
               id="tspan90">24</tspan><tspan
               x="68.639999 71.998802"
               y="0.18000001"
               sodipodi:role="line"
               id="tspan92">23</tspan><tspan
               x="77.160004 80.458801"
               y="0.23999999"
               sodipodi:role="line"
               id="tspan94">22</tspan><tspan
               x="86.040001 89.398804 93.717598 97.016403 101.8158 105.1146 127.194 130.5528"
               y="0.12"
               sodipodi:role="line"
               id="tspan96">21201916</tspan><tspan
               x="135.60001 138.9588"
               y="0.18000001"
               sodipodi:role="line"
               id="tspan98">15</tspan><tspan
               x="152.58 155.9388"
               y="0.30000001"
               sodipodi:role="line"
               id="tspan100">13</tspan><tspan
               x="144.17999 147.5388 161.037 164.3958"
               y="0.18000001"
               sodipodi:role="line"
               id="tspan102">1412</tspan><tspan
               x="170.34 173.21941"
               y="0.23999999"
               sodipodi:role="line"
               id="tspan104">11</tspan><tspan
               x="197.39999"
               y="0.41999999"
               id="tspan106">8</tspan><tspan
               x="206.03999"
               y="0.36000001"
               id="tspan108">7</tspan><tspan
               x="266.10001"
               y="0.30000001"
               id="tspan110">0</tspan><tspan
               x="136.74001"
               y="20.459999"
               id="tspan112">P</tspan></text><text
             transform="matrix(1,0,0,-1,182.64,667.8)"
             style="font-variant:normal;font-weight:normal;font-stretch:normal;font-size:6.96px;font-family:Arial;-inkscape-font-specification:Arial;writing-mode:lr-tb;fill:#000000;fill-opacity:1;fill-rule:nonzero;stroke:none"
             id="text118"><tspan
               x="0 4.620048 8.5190401 12.024096 15.918912 17.839872 21.734688 25.629503 27.550465 31.44528"
               y="0"
               sodipodi:role="line"
               id="tspan116">Base 31:24</tspan></text><text
             transform="matrix(1,0,0,-1,235.92,668.1)"
             style="font-variant:normal;font-weight:normal;font-stretch:normal;font-size:6px;font-family:Arial;-inkscape-font-specification:Arial;writing-mode:lr-tb;fill:#000000;fill-opacity:1;fill-rule:nonzero;stroke:none"
             id="text122"><tspan
               x="0"
               y="0"
               id="tspan120">G</tspan></text><path
             d="m 369,685.62 h 0.30002 v 0.12 H 369 Z"
             style="fill:#000000;fill-opacity:1;fill-rule:nonzero;stroke:none"
             id="path124" /><path
             d="m 369,654.9 h 0.30002 v 30.72 H 369 Z"
             style="fill:#000000;fill-opacity:1;fill-rule:nonzero;stroke:none"
             id="path126" /><text
             transform="matrix(1,0,0,-1,315.66,673.8)"
             style="font-variant:normal;font-weight:normal;font-stretch:normal;font-size:6px;font-family:Arial;-inkscape-font-specification:Arial;writing-mode:lr-tb;fill:#000000;fill-opacity:1;fill-rule:nonzero;stroke:none"
             id="text134"><tspan
               x="0"
               y="0"
               id="tspan128">D</tspan><tspan
               x="0.059999999"
               y="6.3600001"
               id="tspan130">P</tspan><tspan
               x="0.47999999"
               y="13.08"
               id="tspan132">L</tspan></text><text
             transform="matrix(1,0,0,-1,344.58,673.08)"
             style="font-variant:normal;font-weight:normal;font-stretch:normal;font-size:6.96px;font-family:Arial;-inkscape-font-specification:Arial;writing-mode:lr-tb;fill:#000000;fill-opacity:1;fill-rule:nonzero;stroke:none"
             id="text138"><tspan
               x="0 3.9010799 7.3810802 11.280072"
               y="0"
               sodipodi:role="line"
               id="tspan136">Type</tspan></text><text
             transform="matrix(1,0,0,-1,329.64,660.0601)"
             style="font-variant:normal;font-weight:normal;font-stretch:normal;font-size:6px;font-family:Arial;-inkscape-font-specification:Arial;writing-mode:lr-tb;fill:#000000;fill-opacity:1;fill-rule:nonzero;stroke:none"
             id="text152"><tspan
               x="0"
               y="0"
               id="tspan140">0</tspan><tspan
               x="-76.440002"
               y="-7.8600001"
               id="tspan142">0</tspan><tspan
               x="-163.38 -160.08121"
               y="15.78"
               sodipodi:role="line"
               id="tspan144">31</tspan><tspan
               x="-35.880001 -32.521198"
               y="15.9"
               sodipodi:role="line"
               id="tspan146">16</tspan><tspan
               x="-27.48 -24.121201"
               y="15.96"
               sodipodi:role="line"
               id="tspan148">15</tspan><tspan
               x="103.02"
               y="16.08"
               id="tspan150">0</tspan></text><text
             transform="matrix(1,0,0,-1,202.26,624.0601)"
             style="font-variant:normal;font-weight:normal;font-stretch:normal;font-size:6.96px;font-family:Arial;-inkscape-font-specification:Arial;writing-mode:lr-tb;fill:#000000;fill-opacity:1;fill-rule:nonzero;stroke:none"
             id="text158"><tspan
               x="0 4.6715522 8.5106878 12.01992 15.859056 17.840569 22.460615 26.359608 30.2586 32.605511 36.504505 40.013737 43.522968 45.443928 49.342918 53.241913 55.162872 59.061863"
               y="0"
               sodipodi:role="line"
               id="tspan154">Base Address 15:00</tspan><tspan
               x="135.96011 140.58087 144.47986 148.37885 154.20576 158.10475 161.94458 163.90869 165.83035 169.72934 171.3037 177.13062 178.70496 180.62662 182.60812 186.44797 190.34764 192.2693 196.16899"
               y="0.35983199"
               sodipodi:role="line"
               id="tspan156">Segment Limit 15:00</tspan></text><path
             d="m 301.02,685.62 h 0.30002 v 0.12 H 301.02 Z"
             style="fill:#000000;fill-opacity:1;fill-rule:nonzero;stroke:none"
             id="path160" /><path
             d="m 301.02,654.9 h 0.30002 v 30.72 H 301.02 Z"
             style="fill:#000000;fill-opacity:1;fill-rule:nonzero;stroke:none"
             id="path162" /><path
             d="m 309.3,685.62 h 0.30002 v 0.12 H 309.3 Z"
             style="fill:#000000;fill-opacity:1;fill-rule:nonzero;stroke:none"
             id="path164" /><path
             d="m 309.3,654.9 h 0.30002 v 30.72 H 309.3 Z"
             style="fill:#000000;fill-opacity:1;fill-rule:nonzero;stroke:none"
             id="path166" /><path
             d="m 267.06,685.62 h 0.30002 v 0.12 H 267.06 Z"
             style="fill:#000000;fill-opacity:1;fill-rule:nonzero;stroke:none"
             id="path168" /><path
             d="m 267.06,654.9 h 0.30002 v 30.72 H 267.06 Z"
             style="fill:#000000;fill-opacity:1;fill-rule:nonzero;stroke:none"
             id="path170" /><path
             d="m 326.52,685.62 h 0.30002 v 0.12 H 326.52 Z"
             style="fill:#000000;fill-opacity:1;fill-rule:nonzero;stroke:none"
             id="path172" /><path
             d="m 326.52,654.9 h 0.30002 v 30.72 H 326.52 Z"
             style="fill:#000000;fill-opacity:1;fill-rule:nonzero;stroke:none"
             id="path174" /><path
             d="m 334.92,685.62 h 0.29999 v 0.12 H 334.92 Z"
             style="fill:#000000;fill-opacity:1;fill-rule:nonzero;stroke:none"
             id="path176" /><path
             d="m 334.92,654.9 h 0.29999 v 30.72 H 334.92 Z"
             style="fill:#000000;fill-opacity:1;fill-rule:nonzero;stroke:none"
             id="path178" /><text
             transform="matrix(1,0,0,-1,385.2,667.8)"
             style="font-variant:normal;font-weight:normal;font-stretch:normal;font-size:6.96px;font-family:Arial;-inkscape-font-specification:Arial;writing-mode:lr-tb;fill:#000000;fill-opacity:1;fill-rule:nonzero;stroke:none"
             id="text182"><tspan
               x="0 4.6694641 8.5663681 12.073512 15.970416 17.891376 21.78828 25.685184 27.606144 31.503048"
               y="0"
               sodipodi:role="line"
               id="tspan180">Base 23:16</tspan></text><text
             transform="matrix(1,0,0,-1,261.18,673.8)"
             style="font-variant:normal;font-weight:normal;font-stretch:normal;font-size:6px;font-family:Arial;-inkscape-font-specification:Arial;writing-mode:lr-tb;fill:#000000;fill-opacity:1;fill-rule:nonzero;stroke:none"
             id="text190"><tspan
               x="0"
               y="0"
               id="tspan184">A</tspan><tspan
               x="0.12"
               y="6.3600001"
               id="tspan186">V</tspan><tspan
               x="0.54000002"
               y="13.08"
               id="tspan188">L</tspan></text><text
             transform="matrix(1,0,0,-1,276.9,670.92)"
             style="font-variant:normal;font-weight:normal;font-stretch:normal;font-size:6.96px;font-family:Arial;-inkscape-font-specification:Arial;writing-mode:lr-tb;fill:#000000;fill-opacity:1;fill-rule:nonzero;stroke:none"
             id="text196"><tspan
               x="0 3.893424 5.391912 11.213256 12.78204"
               y="0"
               sodipodi:role="line"
               id="tspan192">Limit</tspan><tspan
               x="-1.320312 2.5870321 6.426168 8.398632 12.237768"
               y="6.7198801"
               sodipodi:role="line"
               id="tspan194">19:16</tspan></text><path
             d="m 301.02,641.46 h 0.30002 v 0.12 H 301.02 Z"
             style="fill:#000000;fill-opacity:1;fill-rule:nonzero;stroke:none"
             id="path198" /><path
             d="m 301.02,610.74 h 0.30002 v 30.72 H 301.02 Z"
             style="fill:#000000;fill-opacity:1;fill-rule:nonzero;stroke:none"
             id="path200" /><path
             d="m 165.42,685.38 h 271.2 v 0.47998 h -271.2 z"
             style="fill:#000000;fill-opacity:1;fill-rule:nonzero;stroke:none"
             id="path202" /><path
             d="m 436.14,654.6 h 0.48004 v 31.02 H 436.14 Z"
             style="fill:#000000;fill-opacity:1;fill-rule:nonzero;stroke:none"
             id="path204" /><path
             d="m 165.18,654.6 h 271.2 v 0.48004 h -271.2 z"
             style="fill:#000000;fill-opacity:1;fill-rule:nonzero;stroke:none"
             id="path206" /><path
             d="m 165.18,654.84 h 0.48 v 31.02 h -0.48 z"
             style="fill:#000000;fill-opacity:1;fill-rule:nonzero;stroke:none"
             id="path208" /><path
             d="m 258.66,685.62 h 0.29999 v 0.12 H 258.66 Z"
             style="fill:#000000;fill-opacity:1;fill-rule:nonzero;stroke:none"
             id="path210" /><path
             d="m 258.66,654.9 h 0.29999 v 30.72 H 258.66 Z"
             style="fill:#000000;fill-opacity:1;fill-rule:nonzero;stroke:none"
             id="path212" /><path
             d="m 250.56,685.62 h 0.3 v 0.12 h -0.3 z"
             style="fill:#000000;fill-opacity:1;fill-rule:nonzero;stroke:none"
             id="path214" /><path
             d="m 250.56,654.9 h 0.3 v 30.72 h -0.3 z"
             style="fill:#000000;fill-opacity:1;fill-rule:nonzero;stroke:none"
             id="path216" /><path
             d="m 242.16,685.62 h 0.3 v 0.12 h -0.3 z"
             style="fill:#000000;fill-opacity:1;fill-rule:nonzero;stroke:none"
             id="path218" /><path
             d="m 242.16,654.9 h 0.3 v 30.72 h -0.3 z"
             style="fill:#000000;fill-opacity:1;fill-rule:nonzero;stroke:none"
             id="path220" /><path
             d="m 233.7,685.62 h 0.3 v 0.12 h -0.3 z"
             style="fill:#000000;fill-opacity:1;fill-rule:nonzero;stroke:none"
             id="path222" /><path
             d="m 233.7,654.9 h 0.3 v 30.72 h -0.3 z"
             style="fill:#000000;fill-opacity:1;fill-rule:nonzero;stroke:none"
             id="path224" /><path
             d="m 165.42,641.28 h 271.2 v 0.47998 h -271.2 z"
             style="fill:#000000;fill-opacity:1;fill-rule:nonzero;stroke:none"
             id="path226" /><path
             d="m 436.14,610.56 h 0.48004 v 30.96 H 436.14 Z"
             style="fill:#000000;fill-opacity:1;fill-rule:nonzero;stroke:none"
             id="path228" /><path
             d="m 165.18,610.56 h 271.2 v 0.47998 h -271.2 z"
             style="fill:#000000;fill-opacity:1;fill-rule:nonzero;stroke:none"
             id="path230" /><path
             d="m 165.18,610.8 h 0.48 v 30.96 h -0.48 z"
             style="fill:#000000;fill-opacity:1;fill-rule:nonzero;stroke:none"
             id="path232" /><text
             transform="matrix(1,0,0,-1,244.62,668.1)"
             style="font-variant:normal;font-weight:normal;font-stretch:normal;font-size:6px;font-family:Arial;-inkscape-font-specification:Arial;writing-mode:lr-tb;fill:#000000;fill-opacity:1;fill-rule:nonzero;stroke:none"
             id="text236"><tspan
               x="0"
               y="0"
               id="tspan234">0</tspan></text><path
             d="m 343.2,666.66 h 0.29999 v 0.12 H 343.2 Z"
             style="fill:#000000;fill-opacity:1;fill-rule:nonzero;stroke:none"
             id="path238" /><path
             d="m 343.2,654.9 h 0.29999 v 11.76 H 343.2 Z"
             style="fill:#000000;fill-opacity:1;fill-rule:nonzero;stroke:none"
             id="path240" /><path
             d="m 351.42,666.66 h 0.29999 v 0.12 H 351.42 Z"
             style="fill:#000000;fill-opacity:1;fill-rule:nonzero;stroke:none"
             id="path242" /><path
             d="m 351.42,654.9 h 0.29999 v 11.76 H 351.42 Z"
             style="fill:#000000;fill-opacity:1;fill-rule:nonzero;stroke:none"
             id="path244" /><path
             d="m 359.76,666.66 h 0.29999 v 0.12 H 359.76 Z"
             style="fill:#000000;fill-opacity:1;fill-rule:nonzero;stroke:none"
             id="path246" /><path
             d="m 359.76,654.9 h 0.29999 v 11.76 H 359.76 Z"
             style="fill:#000000;fill-opacity:1;fill-rule:nonzero;stroke:none"
             id="path248" /><text
             transform="matrix(1,0,0,-1,362.82,660.0601)"
             style="font-variant:normal;font-weight:normal;font-stretch:normal;font-size:6px;font-family:Arial;-inkscape-font-specification:Arial;writing-mode:lr-tb;fill:#000000;fill-opacity:1;fill-rule:nonzero;stroke:none"
             id="text252"><tspan
               x="0 -9 -16.860001 -24.959999"
               y="0"
               sodipodi:role="line"
               id="tspan250">1B01</tspan></text><text
             transform="matrix(1,0,0,-1,272.16,697.98)"
             style="font-variant:normal;font-weight:bold;font-stretch:normal;font-size:7.98px;font-family:Arial;-inkscape-font-specification:'Arial Bold';writing-mode:lr-tb;fill:#000000;fill-opacity:1;fill-rule:nonzero;stroke:none"
             id="text256"><tspan
               x="0 4.8614159 10.217592 15.573768 17.795401 23.553768 27.992245 32.430721 36.929844 39.988579 42.210209 47.119507 49.759289 54.668587"
               y="0"
               sodipodi:role="line"
               id="tspan254">TSS Descriptor</tspan></text><text
             transform="matrix(1,0,0,-1,195.66,593.1)"
             style="font-variant:normal;font-weight:normal;font-stretch:normal;font-size:7.9828px;font-family:Arial;-inkscape-font-specification:Arial;writing-mode:lr-tb;fill:#000000;fill-opacity:1;fill-rule:nonzero;stroke:none"
             id="text294"><tspan
               x="0 4.7401867 10.079882"
               y="0"
               sodipodi:role="line"
               id="tspan258">AVL</tspan><tspan
               x="0"
               y="9.299962"
               id="tspan260">B</tspan><tspan
               x="0 5.339695 10.619519 15.959214"
               y="18.599924"
               sodipodi:role="line"
               id="tspan262">BASE</tspan><tspan
               x="0 5.7691693 11.099285"
               y="27.959757"
               sodipodi:role="line"
               id="tspan264">DPL</tspan><tspan
               x="0"
               y="37.25972"
               id="tspan266">G</tspan><tspan
               x="30.899822 36.119774 40.080044 44.579147 46.317802 48.093178 52.534805 56.976437 58.751812 63.250919 65.472534 67.694939 72.136574 74.798035 77.019653 81.461281 85.455872 89.897507 92.119118 96.560745 100.55534 102.77695 106.77155 110.76614 114.76073 116.98315 121.42477 128.07764 130.29926 134.29384 138.73547 140.83655 143.05817 148.82494 153.26657 155.96635"
               y="1.4180301e-14"
               sodipodi:role="line"
               id="tspan268">Available for use by system software</tspan><tspan
               x="30.899822 36.236324 40.686733 44.690109 48.693485 50.915096 53.14629 54.884945 59.335354"
               y="9.299962"
               sodipodi:role="line"
               id="tspan270">Busy flag</tspan><tspan
               x="30.899822 36.22834 40.670769 45.113197 51.766861 56.265968 60.704403 62.927612 65.149231 70.477745 74.920174 78.915565 83.357994 85.579605 90.908127 95.350555 99.849663 102.48957 106.932 110.92739"
               y="18.599924"
               sodipodi:role="line"
               id="tspan272">Segment Base Address</tspan><tspan
               x="30.899822 36.718487 41.156921 45.145927 49.134933 51.79081 53.560596 57.996639 60.213463 64.649506 67.305382 69.586868 74.866692 77.566475 79.336258 83.325264 85.095055 86.864838 91.30088 95.736923 100.17297 102.45444 106.89049 111.32653 115.31554 119.75158"
               y="27.959757"
               sodipodi:role="line"
               id="tspan274">Descriptor Privilege Level</tspan><tspan
               x="30.899822 37.104855 39.757538 44.190388 48.689491 53.122341 54.888935 59.321785 62.021564 63.788158 66.001793"
               y="37.25972"
               sodipodi:role="line"
               id="tspan276">Granularity</tspan><tspan
               x="0 4.4424281 6.665638 13.319302 15.542512"
               y="46.559681"
               sodipodi:role="line"
               id="tspan278">LIMIT</tspan><tspan
               x="0"
               y="55.859642"
               id="tspan280">P</tspan><tspan
               x="0 4.8846755 10.216388 15.5481"
               y="65.159607"
               sodipodi:role="line"
               id="tspan282">TYPE</tspan><tspan
               x="30.899822 36.227543 40.669174 45.110802 51.763668 56.262775 60.70121 62.923622 65.145233 69.586868 71.362244 78.015106 79.790482"
               y="46.559681"
               sodipodi:role="line"
               id="tspan284">Segment Limit</tspan><tspan
               x="30.899822 36.22834 40.670769 45.113197 51.766861 56.265968 60.704403 62.927612 65.149231 70.477745 73.140007 77.582436 81.577827 86.020256 90.462685"
               y="55.859642"
               sodipodi:role="line"
               id="tspan286">Segment Present</tspan><tspan
               x="30.899822 36.239517 40.677956 45.11639 51.77644 56.275547 60.713985 62.935596 65.157211 69.598839 73.559105 78.058212"
               y="65.159607"
               sodipodi:role="line"
               id="tspan288">Segment Type</tspan><tspan
               x="243.83942"
               y="-29.039829"
               id="tspan290">0</tspan><tspan
               x="243.65981"
               y="-75.360023"
               id="tspan292">4</tspan></text></g></g></g></g></svg>
