<?xml version="1.0" encoding="UTF-8" standalone="no"?>
<svg
   xmlns:dc="http://purl.org/dc/elements/1.1/"
   xmlns:cc="http://creativecommons.org/ns#"
   xmlns:rdf="http://www.w3.org/1999/02/22-rdf-syntax-ns#"
   xmlns:svg="http://www.w3.org/2000/svg"
   xmlns="http://www.w3.org/2000/svg"
   version="1.1"
   id="svg2"
   xml:space="preserve"
   width="824.33044"
   height="296.00403"
   viewBox="0 0 824.33044 296.00403"><metadata
     id="metadata8"><rdf:RDF><cc:Work
         rdf:about=""><dc:format>image/svg+xml</dc:format><dc:type
           rdf:resource="http://purl.org/dc/dcmitype/StillImage" /><dc:title></dc:title></cc:Work></rdf:RDF></metadata><defs
     id="defs6"><clipPath
       clipPathUnits="userSpaceOnUse"
       id="clipPath18"><path
         d="M 0,9.1553e-5 H 720 V 405.00009 H 0 Z"
         clip-rule="evenodd"
         id="path16" /></clipPath><clipPath
       clipPathUnits="userSpaceOnUse"
       id="clipPath28"><path
         d="M 0,1.2207e-4 H 720 V 405.00012 H 0 Z"
         clip-rule="evenodd"
         id="path26" /></clipPath><clipPath
       clipPathUnits="userSpaceOnUse"
       id="clipPath40"><path
         d="M 1.0729e-5,0 H 720.00001 V 405 H 1.0729e-5 Z"
         clip-rule="evenodd"
         id="path38" /></clipPath><clipPath
       clipPathUnits="userSpaceOnUse"
       id="clipPath52"><path
         d="M 1.0729e-5,0 H 720.00001 V 405 H 1.0729e-5 Z"
         clip-rule="evenodd"
         id="path50" /></clipPath><clipPath
       clipPathUnits="userSpaceOnUse"
       id="clipPath64"><path
         d="M 1.0729e-5,0 H 720.00001 V 405 H 1.0729e-5 Z"
         clip-rule="evenodd"
         id="path62" /></clipPath><clipPath
       clipPathUnits="userSpaceOnUse"
       id="clipPath76"><path
         d="M 1.0729e-5,0 H 720.00001 V 405 H 1.0729e-5 Z"
         clip-rule="evenodd"
         id="path74" /></clipPath><clipPath
       clipPathUnits="userSpaceOnUse"
       id="clipPath88"><path
         d="M 1.0729e-5,0 H 720.00001 V 405 H 1.0729e-5 Z"
         clip-rule="evenodd"
         id="path86" /></clipPath><clipPath
       clipPathUnits="userSpaceOnUse"
       id="clipPath100"><path
         d="M 1.0729e-5,0 H 720.00001 V 405 H 1.0729e-5 Z"
         clip-rule="evenodd"
         id="path98" /></clipPath><clipPath
       clipPathUnits="userSpaceOnUse"
       id="clipPath112"><path
         d="M 1.0729e-5,0 H 720.00001 V 405 H 1.0729e-5 Z"
         clip-rule="evenodd"
         id="path110" /></clipPath><clipPath
       clipPathUnits="userSpaceOnUse"
       id="clipPath124"><path
         d="M 1.0729e-5,0 H 720.00001 V 405 H 1.0729e-5 Z"
         clip-rule="evenodd"
         id="path122" /></clipPath><clipPath
       clipPathUnits="userSpaceOnUse"
       id="clipPath136"><path
         d="M 1.0729e-5,0 H 720.00001 V 405 H 1.0729e-5 Z"
         clip-rule="evenodd"
         id="path134" /></clipPath><clipPath
       clipPathUnits="userSpaceOnUse"
       id="clipPath148"><path
         d="M 1.0729e-5,0 H 720.00001 V 405 H 1.0729e-5 Z"
         clip-rule="evenodd"
         id="path146" /></clipPath><clipPath
       clipPathUnits="userSpaceOnUse"
       id="clipPath160"><path
         d="M 1.0729e-5,0 H 720.00001 V 405 H 1.0729e-5 Z"
         clip-rule="evenodd"
         id="path158" /></clipPath><clipPath
       clipPathUnits="userSpaceOnUse"
       id="clipPath172"><path
         d="M 1.0729e-5,0 H 720.00001 V 405 H 1.0729e-5 Z"
         clip-rule="evenodd"
         id="path170" /></clipPath><clipPath
       clipPathUnits="userSpaceOnUse"
       id="clipPath184"><path
         d="M 1.0729e-5,0 H 720.00001 V 405 H 1.0729e-5 Z"
         clip-rule="evenodd"
         id="path182" /></clipPath><clipPath
       clipPathUnits="userSpaceOnUse"
       id="clipPath196"><path
         d="M 1.0729e-5,0 H 720.00001 V 405 H 1.0729e-5 Z"
         clip-rule="evenodd"
         id="path194" /></clipPath><clipPath
       clipPathUnits="userSpaceOnUse"
       id="clipPath208"><path
         d="M 1.0729e-5,0 H 720.00001 V 405 H 1.0729e-5 Z"
         clip-rule="evenodd"
         id="path206" /></clipPath><clipPath
       clipPathUnits="userSpaceOnUse"
       id="clipPath220"><path
         d="M 1.0729e-5,0 H 720.00001 V 405 H 1.0729e-5 Z"
         clip-rule="evenodd"
         id="path218" /></clipPath><clipPath
       clipPathUnits="userSpaceOnUse"
       id="clipPath232"><path
         d="M 1.0729e-5,0 H 720.00001 V 405 H 1.0729e-5 Z"
         clip-rule="evenodd"
         id="path230" /></clipPath><clipPath
       clipPathUnits="userSpaceOnUse"
       id="clipPath244"><path
         d="M 1.0729e-5,0 H 720.00001 V 405 H 1.0729e-5 Z"
         clip-rule="evenodd"
         id="path242" /></clipPath><clipPath
       clipPathUnits="userSpaceOnUse"
       id="clipPath256"><path
         d="M 1.0729e-5,0 H 720.00001 V 405 H 1.0729e-5 Z"
         clip-rule="evenodd"
         id="path254" /></clipPath><clipPath
       clipPathUnits="userSpaceOnUse"
       id="clipPath268"><path
         d="M 1.0729e-5,0 H 720.00001 V 405 H 1.0729e-5 Z"
         clip-rule="evenodd"
         id="path266" /></clipPath><clipPath
       clipPathUnits="userSpaceOnUse"
       id="clipPath280"><path
         d="M 1.0729e-5,0 H 720.00001 V 405 H 1.0729e-5 Z"
         clip-rule="evenodd"
         id="path278" /></clipPath><clipPath
       clipPathUnits="userSpaceOnUse"
       id="clipPath292"><path
         d="M 1.0729e-5,0 H 720.00001 V 405 H 1.0729e-5 Z"
         clip-rule="evenodd"
         id="path290" /></clipPath><clipPath
       clipPathUnits="userSpaceOnUse"
       id="clipPath304"><path
         d="M 1.0729e-5,0 H 720.00001 V 405 H 1.0729e-5 Z"
         clip-rule="evenodd"
         id="path302" /></clipPath><clipPath
       clipPathUnits="userSpaceOnUse"
       id="clipPath316"><path
         d="M 1.0729e-5,0 H 720.00001 V 405 H 1.0729e-5 Z"
         clip-rule="evenodd"
         id="path314" /></clipPath><clipPath
       clipPathUnits="userSpaceOnUse"
       id="clipPath328"><path
         d="M 1.0729e-5,0 H 720.00001 V 405 H 1.0729e-5 Z"
         clip-rule="evenodd"
         id="path326" /></clipPath><clipPath
       clipPathUnits="userSpaceOnUse"
       id="clipPath340"><path
         d="M 1.0729e-5,0 H 720.00001 V 405 H 1.0729e-5 Z"
         clip-rule="evenodd"
         id="path338" /></clipPath><clipPath
       clipPathUnits="userSpaceOnUse"
       id="clipPath352"><path
         d="M 1.0729e-5,0 H 720.00001 V 405 H 1.0729e-5 Z"
         clip-rule="evenodd"
         id="path350" /></clipPath><clipPath
       clipPathUnits="userSpaceOnUse"
       id="clipPath364"><path
         d="M 1.0729e-5,0 H 720.00001 V 405 H 1.0729e-5 Z"
         clip-rule="evenodd"
         id="path362" /></clipPath><clipPath
       clipPathUnits="userSpaceOnUse"
       id="clipPath376"><path
         d="M 1.0729e-5,0 H 720.00001 V 405 H 1.0729e-5 Z"
         clip-rule="evenodd"
         id="path374" /></clipPath><clipPath
       clipPathUnits="userSpaceOnUse"
       id="clipPath408"><path
         d="M 1.0729e-5,0 H 720.00001 V 405 H 1.0729e-5 Z"
         clip-rule="evenodd"
         id="path406" /></clipPath><clipPath
       clipPathUnits="userSpaceOnUse"
       id="clipPath420"><path
         d="M 1.0729e-5,0 H 720.00001 V 405 H 1.0729e-5 Z"
         clip-rule="evenodd"
         id="path418" /></clipPath><clipPath
       clipPathUnits="userSpaceOnUse"
       id="clipPath432"><path
         d="M 1.0729e-5,0 H 720.00001 V 405 H 1.0729e-5 Z"
         clip-rule="evenodd"
         id="path430" /></clipPath><clipPath
       clipPathUnits="userSpaceOnUse"
       id="clipPath444"><path
         d="M 1.0729e-5,0 H 720.00001 V 405 H 1.0729e-5 Z"
         clip-rule="evenodd"
         id="path442" /></clipPath><clipPath
       clipPathUnits="userSpaceOnUse"
       id="clipPath456"><path
         d="M 1.0729e-5,0 H 720.00001 V 405 H 1.0729e-5 Z"
         clip-rule="evenodd"
         id="path454" /></clipPath><clipPath
       clipPathUnits="userSpaceOnUse"
       id="clipPath468"><path
         d="M 1.0729e-5,0 H 720.00001 V 405 H 1.0729e-5 Z"
         clip-rule="evenodd"
         id="path466" /></clipPath><clipPath
       clipPathUnits="userSpaceOnUse"
       id="clipPath482"><path
         d="M 1.0729e-5,0 H 720.00001 V 405 H 1.0729e-5 Z"
         clip-rule="evenodd"
         id="path480" /></clipPath><clipPath
       clipPathUnits="userSpaceOnUse"
       id="clipPath494"><path
         d="M 1.0729e-5,0 H 720.00001 V 405 H 1.0729e-5 Z"
         clip-rule="evenodd"
         id="path492" /></clipPath><clipPath
       clipPathUnits="userSpaceOnUse"
       id="clipPath508"><path
         d="M 1.0729e-5,0 H 720.00001 V 405 H 1.0729e-5 Z"
         clip-rule="evenodd"
         id="path506" /></clipPath><clipPath
       clipPathUnits="userSpaceOnUse"
       id="clipPath520"><path
         d="M 1.0729e-5,0 H 720.00001 V 405 H 1.0729e-5 Z"
         clip-rule="evenodd"
         id="path518" /></clipPath><clipPath
       clipPathUnits="userSpaceOnUse"
       id="clipPath532"><path
         d="M 1.0729e-5,0 H 720.00001 V 405 H 1.0729e-5 Z"
         clip-rule="evenodd"
         id="path530" /></clipPath><clipPath
       clipPathUnits="userSpaceOnUse"
       id="clipPath544"><path
         d="M 1.0729e-5,0 H 720.00001 V 405 H 1.0729e-5 Z"
         clip-rule="evenodd"
         id="path542" /></clipPath><clipPath
       clipPathUnits="userSpaceOnUse"
       id="clipPath576"><path
         d="M 1.0729e-5,0 H 720.00001 V 405 H 1.0729e-5 Z"
         clip-rule="evenodd"
         id="path574" /></clipPath><clipPath
       clipPathUnits="userSpaceOnUse"
       id="clipPath588"><path
         d="M 1.0729e-5,0 H 720.00001 V 405 H 1.0729e-5 Z"
         clip-rule="evenodd"
         id="path586" /></clipPath><clipPath
       clipPathUnits="userSpaceOnUse"
       id="clipPath600"><path
         d="M 1.0729e-5,0 H 720.00001 V 405 H 1.0729e-5 Z"
         clip-rule="evenodd"
         id="path598" /></clipPath><clipPath
       clipPathUnits="userSpaceOnUse"
       id="clipPath612"><path
         d="M 1.0729e-5,0 H 720.00001 V 405 H 1.0729e-5 Z"
         clip-rule="evenodd"
         id="path610" /></clipPath><clipPath
       clipPathUnits="userSpaceOnUse"
       id="clipPath624"><path
         d="M 1.0729e-5,0 H 720.00001 V 405 H 1.0729e-5 Z"
         clip-rule="evenodd"
         id="path622" /></clipPath><clipPath
       clipPathUnits="userSpaceOnUse"
       id="clipPath636"><path
         d="M 1.0729e-5,0 H 720.00001 V 405 H 1.0729e-5 Z"
         clip-rule="evenodd"
         id="path634" /></clipPath><clipPath
       clipPathUnits="userSpaceOnUse"
       id="clipPath648"><path
         d="M 1.0729e-5,0 H 720.00001 V 405 H 1.0729e-5 Z"
         clip-rule="evenodd"
         id="path646" /></clipPath><clipPath
       clipPathUnits="userSpaceOnUse"
       id="clipPath660"><path
         d="M 1.0729e-5,0 H 720.00001 V 405 H 1.0729e-5 Z"
         clip-rule="evenodd"
         id="path658" /></clipPath><clipPath
       clipPathUnits="userSpaceOnUse"
       id="clipPath674"><path
         d="M 1.0729e-5,0 H 720.00001 V 405 H 1.0729e-5 Z"
         clip-rule="evenodd"
         id="path672" /></clipPath><clipPath
       clipPathUnits="userSpaceOnUse"
       id="clipPath686"><path
         d="M 1.0729e-5,0 H 720.00001 V 405 H 1.0729e-5 Z"
         clip-rule="evenodd"
         id="path684" /></clipPath><clipPath
       clipPathUnits="userSpaceOnUse"
       id="clipPath698"><path
         d="M 1.0729e-5,0 H 720.00001 V 405 H 1.0729e-5 Z"
         clip-rule="evenodd"
         id="path696" /></clipPath><clipPath
       clipPathUnits="userSpaceOnUse"
       id="clipPath710"><path
         d="M 1.0729e-5,0 H 720.00001 V 405 H 1.0729e-5 Z"
         clip-rule="evenodd"
         id="path708" /></clipPath><clipPath
       clipPathUnits="userSpaceOnUse"
       id="clipPath722"><path
         d="M 1.0729e-5,0 H 720.00001 V 405 H 1.0729e-5 Z"
         clip-rule="evenodd"
         id="path720" /></clipPath><clipPath
       clipPathUnits="userSpaceOnUse"
       id="clipPath734"><path
         d="M 1.0729e-5,0 H 720.00001 V 405 H 1.0729e-5 Z"
         clip-rule="evenodd"
         id="path732" /></clipPath><clipPath
       clipPathUnits="userSpaceOnUse"
       id="clipPath766"><path
         d="M 1.0729e-5,0 H 720.00001 V 405 H 1.0729e-5 Z"
         clip-rule="evenodd"
         id="path764" /></clipPath><clipPath
       clipPathUnits="userSpaceOnUse"
       id="clipPath778"><path
         d="M 1.0729e-5,0 H 720.00001 V 405 H 1.0729e-5 Z"
         clip-rule="evenodd"
         id="path776" /></clipPath><clipPath
       clipPathUnits="userSpaceOnUse"
       id="clipPath790"><path
         d="M 1.0729e-5,0 H 720.00001 V 405 H 1.0729e-5 Z"
         clip-rule="evenodd"
         id="path788" /></clipPath><clipPath
       clipPathUnits="userSpaceOnUse"
       id="clipPath802"><path
         d="M 1.0729e-5,0 H 720.00001 V 405 H 1.0729e-5 Z"
         clip-rule="evenodd"
         id="path800" /></clipPath><clipPath
       clipPathUnits="userSpaceOnUse"
       id="clipPath814"><path
         d="M 1.0729e-5,0 H 720.00001 V 405 H 1.0729e-5 Z"
         clip-rule="evenodd"
         id="path812" /></clipPath><clipPath
       clipPathUnits="userSpaceOnUse"
       id="clipPath826"><path
         d="M 1.0729e-5,0 H 720.00001 V 405 H 1.0729e-5 Z"
         clip-rule="evenodd"
         id="path824" /></clipPath><clipPath
       clipPathUnits="userSpaceOnUse"
       id="clipPath840"><path
         d="M 1.0729e-5,0 H 720.00001 V 405 H 1.0729e-5 Z"
         clip-rule="evenodd"
         id="path838" /></clipPath><clipPath
       clipPathUnits="userSpaceOnUse"
       id="clipPath852"><path
         d="M 1.0729e-5,0 H 720.00001 V 405 H 1.0729e-5 Z"
         clip-rule="evenodd"
         id="path850" /></clipPath></defs><g
     id="g10"
     transform="matrix(1.3333333,0,0,-1.3333333,-59.082842,348.57707)"><path
       d="M 86.814,202.72 H 175.81"
       style="fill:none;stroke:#000000;stroke-width:1;stroke-linecap:butt;stroke-linejoin:round;stroke-miterlimit:10;stroke-dasharray:none;stroke-opacity:1"
       id="path382" /><path
       d="M 86.814,183.47 H 175.81"
       style="fill:none;stroke:#000000;stroke-width:1;stroke-linecap:butt;stroke-linejoin:round;stroke-miterlimit:10;stroke-dasharray:none;stroke-opacity:1"
       id="path384" /><path
       d="M 86.814,164.22 H 175.81"
       style="fill:none;stroke:#000000;stroke-width:1;stroke-linecap:butt;stroke-linejoin:round;stroke-miterlimit:10;stroke-dasharray:none;stroke-opacity:1"
       id="path386" /><path
       d="M 86.814,144.97 H 175.81"
       style="fill:none;stroke:#000000;stroke-width:1;stroke-linecap:butt;stroke-linejoin:round;stroke-miterlimit:10;stroke-dasharray:none;stroke-opacity:1"
       id="path388" /><path
       d="M 86.814,125.72 H 175.81"
       style="fill:none;stroke:#000000;stroke-width:1;stroke-linecap:butt;stroke-linejoin:round;stroke-miterlimit:10;stroke-dasharray:none;stroke-opacity:1"
       id="path390" /><path
       d="M 86.814,106.47 H 175.81"
       style="fill:none;stroke:#000000;stroke-width:1;stroke-linecap:butt;stroke-linejoin:round;stroke-miterlimit:10;stroke-dasharray:none;stroke-opacity:1"
       id="path392" /><path
       d="M 86.814,87.218 H 175.81"
       style="fill:none;stroke:#000000;stroke-width:1;stroke-linecap:butt;stroke-linejoin:round;stroke-miterlimit:10;stroke-dasharray:none;stroke-opacity:1"
       id="path394" /><path
       d="M 86.814,67.968 H 175.81"
       style="fill:none;stroke:#000000;stroke-width:1;stroke-linecap:butt;stroke-linejoin:round;stroke-miterlimit:10;stroke-dasharray:none;stroke-opacity:1"
       id="path396" /><path
       d="M 87.314,221.97 V 48.718"
       style="fill:none;stroke:#000000;stroke-width:1;stroke-linecap:butt;stroke-linejoin:round;stroke-miterlimit:10;stroke-dasharray:none;stroke-opacity:1"
       id="path398" /><path
       d="M 175.31,221.97 V 48.718"
       style="fill:none;stroke:#000000;stroke-width:1;stroke-linecap:butt;stroke-linejoin:round;stroke-miterlimit:10;stroke-dasharray:none;stroke-opacity:1"
       id="path400" /><g
       id="g402"><g
         id="g404"
         clip-path="url(#clipPath408)"><text
           transform="matrix(1,0,0,-1,111.98,170.3)"
           style="font-variant:normal;font-weight:normal;font-size:9.96px;font-family:'Comic Sans MS';-inkscape-font-specification:'Comic Sans MS';writing-mode:lr-tb;fill:#000000;fill-opacity:1;fill-rule:nonzero;stroke:none"
           id="text412"><tspan
             x="0 6.2249999 12.24084 17.74872 24.9498 31.6728"
             y="0"
             id="tspan410">EFLAGS</tspan></text></g></g><g
       id="g414"><g
         id="g416"
         clip-path="url(#clipPath420)"><text
           transform="matrix(1,0,0,-1,124.82,151.06)"
           style="font-variant:normal;font-weight:normal;font-size:9.96px;font-family:'Comic Sans MS';-inkscape-font-specification:'Comic Sans MS';writing-mode:lr-tb;fill:#000000;fill-opacity:1;fill-rule:nonzero;stroke:none"
           id="text424"><tspan
             x="0 6"
             y="0"
             id="tspan422">CS</tspan></text></g></g><g
       id="g426"><g
         id="g428"
         clip-path="url(#clipPath432)"><text
           transform="matrix(1,0,0,-1,122.9,131.81)"
           style="font-variant:normal;font-weight:normal;font-size:9.96px;font-family:'Comic Sans MS';-inkscape-font-specification:'Comic Sans MS';writing-mode:lr-tb;fill:#000000;fill-opacity:1;fill-rule:nonzero;stroke:none"
           id="text436"><tspan
             x="0 6.2249999 11.66316"
             y="0"
             id="tspan434">EIP</tspan></text></g></g><g
       id="g438"><g
         id="g440"
         clip-path="url(#clipPath444)"><text
           transform="matrix(1,0,0,-1,105.62,112.54)"
           style="font-variant:normal;font-weight:normal;font-size:9.96px;font-family:'Comic Sans MS';-inkscape-font-specification:'Comic Sans MS';writing-mode:lr-tb;fill:#000000;fill-opacity:1;fill-rule:nonzero;stroke:none"
           id="text448"><tspan
             x="0 6.2249999 11.14524 16.055519 21.32436 26.10516 28.764481 34.770359 40.0392 45.90564"
             y="0"
             id="tspan446">Error Code</tspan></text></g></g><g
       id="g450"><g
         id="g452"
         clip-path="url(#clipPath456)"><text
           transform="matrix(1,0,0,-1,215.3,188.66)"
           style="font-variant:normal;font-weight:bold;font-size:12px;font-family:'Times New Roman';-inkscape-font-specification:'Times Bold';writing-mode:lr-tb;fill:#11576a;fill-opacity:1;fill-rule:nonzero;stroke:none"
           id="text460"><tspan
             x="0 8.0279999 14.736 21.336 23.615999 32.279999 36.324001 40.32 45.563999"
             y="0"
             id="tspan458">ESP After</tspan></text></g></g><g
       id="g462"><g
         id="g464"
         clip-path="url(#clipPath468)"><text
           transform="matrix(1,0,0,-1,215.3,174.26)"
           style="font-variant:normal;font-weight:bold;font-size:12.024px;font-family:'Times New Roman';-inkscape-font-specification:'Times Bold';writing-mode:lr-tb;fill:#11576a;fill-opacity:1;fill-rule:nonzero;stroke:none"
           id="text472"><tspan
             x="0 7.2023759 12.480912 18.492912 25.178255 29.855593 33.943752 39.222286 44.260345 47.266342 51.22224 57.234241 60.240238 69.59491 75.606911 82.292259 89.013672 92.356346 97.658928"
             y="0"
             id="tspan470">Transfer to Handler</tspan></text></g></g><path
       d="M 211.38,194.28 H 183.5 v -1.56 h 27.88 z m -26.88,2.22 -6,-3 6,-3 z"
       style="fill:#000000;fill-opacity:1;fill-rule:nonzero;stroke:none"
       id="path474" /><g
       id="g476"><g
         id="g478"
         clip-path="url(#clipPath482)"><text
           transform="matrix(1,0,0,-1,215.3,130.27)"
           style="font-variant:normal;font-weight:bold;font-size:12.024px;font-family:'Times New Roman';-inkscape-font-specification:'Times Bold';writing-mode:lr-tb;fill:#11576a;fill-opacity:1;fill-rule:nonzero;stroke:none"
           id="text486"><tspan
             x="0 8.0200081 14.753448 21.354624 24.360624 32.38063 37.671192 41.735306 47.747303 52.773335"
             y="0"
             id="tspan484">ESP Before</tspan></text></g></g><g
       id="g488"><g
         id="g490"
         clip-path="url(#clipPath494)"><text
           transform="matrix(1,0,0,-1,215.3,115.85)"
           style="font-variant:normal;font-weight:bold;font-size:12px;font-family:'Times New Roman';-inkscape-font-specification:'Times Bold';writing-mode:lr-tb;fill:#11576a;fill-opacity:1;fill-rule:nonzero;stroke:none"
           id="text498"><tspan
             x="0 7.1999998 12.48 18.48 25.188 29.856001 33.936001 39.216 44.256001 47.256001 51.251999 57.251999 60.251999 69.587997 75.587997 82.283997 88.991997 92.328003 97.655998"
             y="0"
             id="tspan496">Transfer to Handler</tspan></text></g></g><path
       d="M 211.38,135.96 H 183.5 v -1.56 h 27.88 z m -26.88,2.22 -6,-3 6,-3 z"
       style="fill:#000000;fill-opacity:1;fill-rule:nonzero;stroke:none"
       id="path500" /><g
       id="g502"><g
         id="g504"
         clip-path="url(#clipPath508)"><text
           transform="matrix(1,0,0,-1,142.44,253.3)"
           style="font-variant:normal;font-weight:bold;font-size:12px;font-family:'Times New Roman';-inkscape-font-specification:'Times Bold';writing-mode:lr-tb;fill:#11576a;fill-opacity:1;fill-rule:nonzero;stroke:none"
           id="text512"><tspan
             x="0 6.7319999 10.728 16.728001 22.056 28.752001 31.752001 40.416 45.108002 51.108002 57.144001 62.472 65.472 74.220001 77.556 81.552002 88.272003 91.031998 99.695999"
             y="0"
             id="tspan510">Stack Usage with No</tspan></text></g></g><g
       id="g514"><g
         id="g516"
         clip-path="url(#clipPath520)"><text
           transform="matrix(1,0,0,-1,135.12,238.9)"
           style="font-variant:normal;font-weight:bold;font-size:12px;font-family:'Times New Roman';-inkscape-font-specification:'Times Bold';writing-mode:lr-tb;fill:#11576a;fill-opacity:1;fill-rule:nonzero;stroke:none"
           id="text524"><tspan
             x="0 7.1999998 12.48 15.816 21.816 25.188 28.524 33.852001 39.852001"
             y="0"
             id="tspan522">Privilege</tspan></text></g></g><g
       id="g526"><g
         id="g528"
         clip-path="url(#clipPath532)"><text
           transform="matrix(1,0,0,-1,180.26,238.9)"
           style="font-variant:normal;font-weight:bold;font-size:12px;font-family:'Times New Roman';-inkscape-font-specification:'Times Bold';writing-mode:lr-tb;fill:#11576a;fill-opacity:1;fill-rule:nonzero;stroke:none"
           id="text536"><tspan
             x="0"
             y="0"
             id="tspan534">-</tspan></text></g></g><g
       id="g538"><g
         id="g540"
         clip-path="url(#clipPath544)"><text
           transform="matrix(1,0,0,-1,184.22,238.9)"
           style="font-variant:normal;font-weight:bold;font-size:12px;font-family:'Times New Roman';-inkscape-font-specification:'Times Bold';writing-mode:lr-tb;fill:#11576a;fill-opacity:1;fill-rule:nonzero;stroke:none"
           id="text548"><tspan
             x="0 8.0279999 13.308 19.416 24.695999 28.032 31.643999 40.307999 46.98 52.98 59.712002 65.711998"
             y="0"
             id="tspan546">Level Change</tspan></text></g></g><path
       d="m 338.31,202.72 h 89"
       style="fill:none;stroke:#000000;stroke-width:1;stroke-linecap:butt;stroke-linejoin:round;stroke-miterlimit:10;stroke-dasharray:none;stroke-opacity:1"
       id="path550" /><path
       d="m 338.31,183.47 h 89"
       style="fill:none;stroke:#000000;stroke-width:1;stroke-linecap:butt;stroke-linejoin:round;stroke-miterlimit:10;stroke-dasharray:none;stroke-opacity:1"
       id="path552" /><path
       d="m 338.31,164.22 h 89"
       style="fill:none;stroke:#000000;stroke-width:1;stroke-linecap:butt;stroke-linejoin:round;stroke-miterlimit:10;stroke-dasharray:none;stroke-opacity:1"
       id="path554" /><path
       d="m 338.31,144.97 h 89"
       style="fill:none;stroke:#000000;stroke-width:1;stroke-linecap:butt;stroke-linejoin:round;stroke-miterlimit:10;stroke-dasharray:none;stroke-opacity:1"
       id="path556" /><path
       d="m 338.31,125.72 h 89"
       style="fill:none;stroke:#000000;stroke-width:1;stroke-linecap:butt;stroke-linejoin:round;stroke-miterlimit:10;stroke-dasharray:none;stroke-opacity:1"
       id="path558" /><path
       d="m 338.31,106.47 h 89"
       style="fill:none;stroke:#000000;stroke-width:1;stroke-linecap:butt;stroke-linejoin:round;stroke-miterlimit:10;stroke-dasharray:none;stroke-opacity:1"
       id="path560" /><path
       d="m 338.31,87.218 h 89"
       style="fill:none;stroke:#000000;stroke-width:1;stroke-linecap:butt;stroke-linejoin:round;stroke-miterlimit:10;stroke-dasharray:none;stroke-opacity:1"
       id="path562" /><path
       d="m 338.31,67.968 h 89"
       style="fill:none;stroke:#000000;stroke-width:1;stroke-linecap:butt;stroke-linejoin:round;stroke-miterlimit:10;stroke-dasharray:none;stroke-opacity:1"
       id="path564" /><path
       d="M 338.81,221.97 V 48.718"
       style="fill:none;stroke:#000000;stroke-width:1;stroke-linecap:butt;stroke-linejoin:round;stroke-miterlimit:10;stroke-dasharray:none;stroke-opacity:1"
       id="path566" /><path
       d="M 426.81,221.97 V 48.718"
       style="fill:none;stroke:#000000;stroke-width:1;stroke-linecap:butt;stroke-linejoin:round;stroke-miterlimit:10;stroke-dasharray:none;stroke-opacity:1"
       id="path568" /><g
       id="g570"
       transform="translate(-18)"><g
         id="g572"
         clip-path="url(#clipPath576)"><text
           transform="matrix(1,0,0,-1,393.89,170.3)"
           style="font-variant:normal;font-weight:normal;font-size:9.96px;font-family:'Comic Sans MS';-inkscape-font-specification:'Comic Sans MS';writing-mode:lr-tb;fill:#000000;fill-opacity:1;fill-rule:nonzero;stroke:none"
           id="text580"><tspan
             x="0 6.95998"
             y="0"
             id="tspan578">SS</tspan></text></g></g><g
       id="g582"
       transform="translate(-18)"><g
         id="g584"
         clip-path="url(#clipPath588)"><text
           transform="matrix(1,0,0,-1,391.73,151.06)"
           style="font-variant:normal;font-weight:normal;font-size:9.96px;font-family:'Comic Sans MS';-inkscape-font-specification:'Comic Sans MS';writing-mode:lr-tb;fill:#000000;fill-opacity:1;fill-rule:nonzero;stroke:none"
           id="text592"><tspan
             x="0 6.2249999 13.18704"
             y="0"
             id="tspan590">ESP</tspan></text></g></g><g
       id="g594"
       transform="translate(-18)"><g
         id="g596"
         clip-path="url(#clipPath600)"><text
           transform="matrix(1,0,0,-1,381.53,131.81)"
           style="font-variant:normal;font-weight:normal;font-size:9.96px;font-family:'Comic Sans MS';-inkscape-font-specification:'Comic Sans MS';writing-mode:lr-tb;fill:#000000;fill-opacity:1;fill-rule:nonzero;stroke:none"
           id="text604"><tspan
             x="0 6.2249999 12.24084 17.74872 24.9498 31.6728"
             y="0"
             id="tspan602">EFLAGS</tspan></text></g></g><g
       id="g606"
       transform="translate(-18)"><g
         id="g608"
         clip-path="url(#clipPath612)"><text
           transform="matrix(1,0,0,-1,394.37,112.54)"
           style="font-variant:normal;font-weight:normal;font-size:9.96px;font-family:'Comic Sans MS';-inkscape-font-specification:'Comic Sans MS';writing-mode:lr-tb;fill:#000000;fill-opacity:1;fill-rule:nonzero;stroke:none"
           id="text616"><tspan
             x="0 6"
             y="0"
             id="tspan614">CS</tspan></text></g></g><g
       id="g618"
       transform="translate(-18)"><g
         id="g620"
         clip-path="url(#clipPath624)"><text
           transform="matrix(1,0,0,-1,392.45,93.288)"
           style="font-variant:normal;font-weight:normal;font-size:9.96px;font-family:'Comic Sans MS';-inkscape-font-specification:'Comic Sans MS';writing-mode:lr-tb;fill:#000000;fill-opacity:1;fill-rule:nonzero;stroke:none"
           id="text628"><tspan
             x="0 6.2249999 11.66316"
             y="0"
             id="tspan626">EIP</tspan></text></g></g><g
       id="g630"
       transform="translate(-18)"><g
         id="g632"
         clip-path="url(#clipPath636)"><text
           transform="matrix(1,0,0,-1,375.17,74.04)"
           style="font-variant:normal;font-weight:normal;font-size:9.96px;font-family:'Comic Sans MS';-inkscape-font-specification:'Comic Sans MS';writing-mode:lr-tb;fill:#000000;fill-opacity:1;fill-rule:nonzero;stroke:none"
           id="text640"><tspan
             x="0 6.2249999 11.14524 16.055519 21.32436 26.10516 28.764481 34.770359 40.0392 45.90564"
             y="0"
             id="tspan638">Error Code</tspan></text></g></g><g
       id="g642"
       transform="translate(-18)"><g
         id="g644"
         clip-path="url(#clipPath648)"><text
           transform="matrix(1,0,0,-1,484.97,92.616)"
           style="font-variant:normal;font-weight:bold;font-size:12px;font-family:'Times New Roman';-inkscape-font-specification:'Times Bold';writing-mode:lr-tb;fill:#11576a;fill-opacity:1;fill-rule:nonzero;stroke:none"
           id="text652"><tspan
             x="0 8.0279999 14.736 21.336 24.336 32.363998 37.644001 41.712002 47.712002 52.751999"
             y="0"
             id="tspan650">ESP Before</tspan></text></g></g><g
       id="g654"
       transform="translate(-18)"><g
         id="g656"
         clip-path="url(#clipPath660)"><text
           transform="matrix(1,0,0,-1,484.97,78.216)"
           style="font-variant:normal;font-weight:bold;font-size:12px;font-family:'Times New Roman';-inkscape-font-specification:'Times Bold';writing-mode:lr-tb;fill:#11576a;fill-opacity:1;fill-rule:nonzero;stroke:none"
           id="text664"><tspan
             x="0 7.1999998 12.48 18.48 25.188 29.856001 33.936001 39.216 44.256001 47.256001 51.251999 57.251999 60.251999 69.587997 75.587997 82.283997 88.991997 92.328003 97.655998"
             y="0"
             id="tspan662">Transfer to Handler</tspan></text></g></g><path
       d="m 461.34,98.28 h -27.88 v -1.56 h 27.88 z m -26.88,2.22 -6,-3 6,-3 z"
       style="fill:#000000;fill-opacity:1;fill-rule:nonzero;stroke:none"
       id="path666" /><g
       id="g668"
       transform="translate(-18)"><g
         id="g670"
         clip-path="url(#clipPath674)"><text
           transform="matrix(1,0,0,-1,456.96,195.02)"
           style="font-variant:normal;font-weight:bold;font-size:12px;font-family:'Times New Roman';-inkscape-font-specification:'Times Bold';writing-mode:lr-tb;fill:#11576a;fill-opacity:1;fill-rule:nonzero;stroke:none"
           id="text678"><tspan
             x="0 8.0279999 14.736 21.336 23.615999 32.279999 36.324001 40.32 45.563999"
             y="0"
             id="tspan676">ESP After</tspan></text></g></g><g
       id="g680"
       transform="translate(-18)"><g
         id="g682"
         clip-path="url(#clipPath686)"><text
           transform="matrix(1,0,0,-1,456.96,180.62)"
           style="font-variant:normal;font-weight:bold;font-size:12px;font-family:'Times New Roman';-inkscape-font-specification:'Times Bold';writing-mode:lr-tb;fill:#11576a;fill-opacity:1;fill-rule:nonzero;stroke:none"
           id="text690"><tspan
             x="0 7.1999998 12.48 18.48 25.188 29.856001 33.936001 39.216 44.256001 47.256001 51.251999 57.251999 60.251999 69.587997 75.587997 82.283997 88.991997 92.328003 97.655998"
             y="0"
             id="tspan688">Transfer to Handler</tspan></text></g></g><g
       id="g692"
       transform="translate(-18)"><g
         id="g694"
         clip-path="url(#clipPath698)"><text
           transform="matrix(1,0,0,-1,474.46,253.3)"
           style="font-variant:normal;font-weight:bold;font-size:12px;font-family:'Times New Roman';-inkscape-font-specification:'Times Bold';writing-mode:lr-tb;fill:#11576a;fill-opacity:1;fill-rule:nonzero;stroke:none"
           id="text702"><tspan
             x="0 6.7080002 10.704 16.704 21.948 28.656 31.656 40.32 44.987999 50.987999 56.987999 62.256001 65.255997 74.003998 77.339996 81.335999"
             y="0"
             id="tspan700">Stack Usage with</tspan></text></g></g><g
       id="g704"
       transform="translate(-18)"><g
         id="g706"
         clip-path="url(#clipPath710)"><text
           transform="matrix(1,0,0,-1,458.38,238.9)"
           style="font-variant:normal;font-weight:bold;font-size:12px;font-family:'Times New Roman';-inkscape-font-specification:'Times Bold';writing-mode:lr-tb;fill:#11576a;fill-opacity:1;fill-rule:nonzero;stroke:none"
           id="text714"><tspan
             x="0 7.1999998 12.48 15.816 21.816 25.188 28.524 33.852001 39.852001"
             y="0"
             id="tspan712">Privilege</tspan></text></g></g><g
       id="g716"
       transform="translate(-18)"><g
         id="g718"
         clip-path="url(#clipPath722)"><text
           transform="matrix(1,0,0,-1,503.5,238.9)"
           style="font-variant:normal;font-weight:bold;font-size:12px;font-family:'Times New Roman';-inkscape-font-specification:'Times Bold';writing-mode:lr-tb;fill:#11576a;fill-opacity:1;fill-rule:nonzero;stroke:none"
           id="text726"><tspan
             x="0"
             y="0"
             id="tspan724">-</tspan></text></g></g><g
       id="g728"
       transform="translate(-18)"><g
         id="g730"
         clip-path="url(#clipPath734)"><text
           transform="matrix(1,0,0,-1,507.46,238.9)"
           style="font-variant:normal;font-weight:bold;font-size:12px;font-family:'Times New Roman';-inkscape-font-specification:'Times Bold';writing-mode:lr-tb;fill:#11576a;fill-opacity:1;fill-rule:nonzero;stroke:none"
           id="text738"><tspan
             x="0 8.0279999 13.308 19.416 24.695999 28.032 31.643999 40.307999 46.98 52.98 59.712002 65.711998"
             y="0"
             id="tspan736">Level Change</tspan></text></g></g><path
       d="m 573.56,202.34 h 89"
       style="fill:none;stroke:#000000;stroke-width:1;stroke-linecap:butt;stroke-linejoin:round;stroke-miterlimit:10;stroke-dasharray:none;stroke-opacity:1"
       id="path740" /><path
       d="m 573.56,183.09 h 89"
       style="fill:none;stroke:#000000;stroke-width:1;stroke-linecap:butt;stroke-linejoin:round;stroke-miterlimit:10;stroke-dasharray:none;stroke-opacity:1"
       id="path742" /><path
       d="m 573.56,163.84 h 89"
       style="fill:none;stroke:#000000;stroke-width:1;stroke-linecap:butt;stroke-linejoin:round;stroke-miterlimit:10;stroke-dasharray:none;stroke-opacity:1"
       id="path744" /><path
       d="m 573.56,144.59 h 89"
       style="fill:none;stroke:#000000;stroke-width:1;stroke-linecap:butt;stroke-linejoin:round;stroke-miterlimit:10;stroke-dasharray:none;stroke-opacity:1"
       id="path746" /><path
       d="m 573.56,125.34 h 89"
       style="fill:none;stroke:#000000;stroke-width:1;stroke-linecap:butt;stroke-linejoin:round;stroke-miterlimit:10;stroke-dasharray:none;stroke-opacity:1"
       id="path748" /><path
       d="m 573.56,106.09 h 89"
       style="fill:none;stroke:#000000;stroke-width:1;stroke-linecap:butt;stroke-linejoin:round;stroke-miterlimit:10;stroke-dasharray:none;stroke-opacity:1"
       id="path750" /><path
       d="m 573.56,86.843 h 89"
       style="fill:none;stroke:#000000;stroke-width:1;stroke-linecap:butt;stroke-linejoin:round;stroke-miterlimit:10;stroke-dasharray:none;stroke-opacity:1"
       id="path752" /><path
       d="m 573.56,67.593 h 89"
       style="fill:none;stroke:#000000;stroke-width:1;stroke-linecap:butt;stroke-linejoin:round;stroke-miterlimit:10;stroke-dasharray:none;stroke-opacity:1"
       id="path754" /><path
       d="M 574.06,221.59 V 48.343"
       style="fill:none;stroke:#000000;stroke-width:1;stroke-linecap:butt;stroke-linejoin:round;stroke-miterlimit:10;stroke-dasharray:none;stroke-opacity:1"
       id="path756" /><path
       d="M 662.06,221.59 V 48.343"
       style="fill:none;stroke:#000000;stroke-width:1;stroke-linecap:butt;stroke-linejoin:round;stroke-miterlimit:10;stroke-dasharray:none;stroke-opacity:1"
       id="path758" /><g
       id="g760"
       transform="translate(-18)"><g
         id="g762"
         clip-path="url(#clipPath766)"><text
           transform="matrix(1,0,0,-1,629.18,169.94)"
           style="font-variant:normal;font-weight:normal;font-size:9.96px;font-family:'Comic Sans MS';-inkscape-font-specification:'Comic Sans MS';writing-mode:lr-tb;fill:#000000;fill-opacity:1;fill-rule:nonzero;stroke:none"
           id="text770"><tspan
             x="0 6.95998"
             y="0"
             id="tspan768">SS</tspan></text></g></g><g
       id="g772"
       transform="translate(-18)"><g
         id="g774"
         clip-path="url(#clipPath778)"><text
           transform="matrix(1,0,0,-1,627.02,150.67)"
           style="font-variant:normal;font-weight:normal;font-size:9.96px;font-family:'Comic Sans MS';-inkscape-font-specification:'Comic Sans MS';writing-mode:lr-tb;fill:#000000;fill-opacity:1;fill-rule:nonzero;stroke:none"
           id="text782"><tspan
             x="0 6.2249999 13.18704"
             y="0"
             id="tspan780">ESP</tspan></text></g></g><g
       id="g784"
       transform="translate(-18)"><g
         id="g786"
         clip-path="url(#clipPath790)"><text
           transform="matrix(1,0,0,-1,616.82,131.42)"
           style="font-variant:normal;font-weight:normal;font-size:9.96px;font-family:'Comic Sans MS';-inkscape-font-specification:'Comic Sans MS';writing-mode:lr-tb;fill:#000000;fill-opacity:1;fill-rule:nonzero;stroke:none"
           id="text794"><tspan
             x="0 6.2249999 12.24084 17.74872 24.9498 31.6728"
             y="0"
             id="tspan792">EFLAGS</tspan></text></g></g><g
       id="g796"
       transform="translate(-18)"><g
         id="g798"
         clip-path="url(#clipPath802)"><text
           transform="matrix(1,0,0,-1,629.66,112.18)"
           style="font-variant:normal;font-weight:normal;font-size:9.96px;font-family:'Comic Sans MS';-inkscape-font-specification:'Comic Sans MS';writing-mode:lr-tb;fill:#000000;fill-opacity:1;fill-rule:nonzero;stroke:none"
           id="text806"><tspan
             x="0 6"
             y="0"
             id="tspan804">CS</tspan></text></g></g><g
       id="g808"
       transform="translate(-18)"><g
         id="g810"
         clip-path="url(#clipPath814)"><text
           transform="matrix(1,0,0,-1,627.74,92.904)"
           style="font-variant:normal;font-weight:normal;font-size:9.96px;font-family:'Comic Sans MS';-inkscape-font-specification:'Comic Sans MS';writing-mode:lr-tb;fill:#000000;fill-opacity:1;fill-rule:nonzero;stroke:none"
           id="text818"><tspan
             x="0 6.2249999 11.66316"
             y="0"
             id="tspan816">EIP</tspan></text></g></g><g
       id="g820"
       transform="translate(-18)"><g
         id="g822"
         clip-path="url(#clipPath826)"><text
           transform="matrix(1,0,0,-1,610.46,73.656)"
           style="font-variant:normal;font-weight:normal;font-size:9.96px;font-family:'Comic Sans MS';-inkscape-font-specification:'Comic Sans MS';writing-mode:lr-tb;fill:#000000;fill-opacity:1;fill-rule:nonzero;stroke:none"
           id="text830"><tspan
             x="0 6.2249999 11.14524 16.055519 21.32436 26.10516 28.764481 34.770359 40.0392 45.90564"
             y="0"
             id="tspan828">Error Code</tspan></text></g></g><path
       d="m 550.26,191.35 17.81,0.04 v 1.56 l -17.81,-0.04 z m 16.81,-2.18 6,3.01 -6.01,2.99 z"
       style="fill:#000000;fill-opacity:1;fill-rule:nonzero;stroke:none"
       id="path832" /><g
       id="g834"><g
         id="g836"
         clip-path="url(#clipPath840)"><text
           transform="matrix(1,0,0,-1,44.64,213.07)"
           style="font-variant:normal;font-weight:bold;font-size:15.96px;font-family:'Times New Roman';-inkscape-font-specification:'Times Bold';writing-mode:lr-tb;fill:#11576a;fill-opacity:1;fill-rule:nonzero;stroke:none"
           id="text844"><tspan
             x="0 12.35304 16.789921 24.817801"
             y="0"
             id="tspan842">High</tspan></text></g></g><g
       id="g846"><g
         id="g848"
         clip-path="url(#clipPath852)"><text
           transform="matrix(1,0,0,-1,44.016,39.648)"
           style="font-variant:normal;font-weight:bold;font-size:15.96px;font-family:'Times New Roman';-inkscape-font-specification:'Times Bold';writing-mode:lr-tb;fill:#11576a;fill-opacity:1;fill-rule:nonzero;stroke:none"
           id="text856"><tspan
             x="0 10.64532 18.70512"
             y="0"
             id="tspan854">Low</tspan></text></g></g></g></svg>
