<?xml version="1.0" encoding="UTF-8" standalone="no"?>
<svg
   xmlns:dc="http://purl.org/dc/elements/1.1/"
   xmlns:cc="http://creativecommons.org/ns#"
   xmlns:rdf="http://www.w3.org/1999/02/22-rdf-syntax-ns#"
   xmlns:svg="http://www.w3.org/2000/svg"
   xmlns="http://www.w3.org/2000/svg"
   xmlns:sodipodi="http://sodipodi.sourceforge.net/DTD/sodipodi-0.dtd"
   xmlns:inkscape="http://www.inkscape.org/namespaces/inkscape"
   version="1.1"
   id="svg2"
   xml:space="preserve"
   width="506.23999"
   height="121.75999"
   viewBox="0 0 506.23999 121.75999"
   sodipodi:docname="svg1.svg"
   inkscape:version="1.0.2 (1.0.2+r75+1)"><metadata
     id="metadata8"><rdf:RDF><cc:Work
         rdf:about=""><dc:format>image/svg+xml</dc:format><dc:type
           rdf:resource="http://purl.org/dc/dcmitype/StillImage" /><dc:title></dc:title></cc:Work></rdf:RDF></metadata><defs
     id="defs6"><clipPath
       clipPathUnits="userSpaceOnUse"
       id="clipPath110"><path
         d="m 181.98,706.98 h 240 v -137.7 h -240 z"
         clip-rule="evenodd"
         id="path108" /></clipPath><clipPath
       clipPathUnits="userSpaceOnUse"
       id="clipPath116"><path
         d="M 112.44,718.02 H 491.52 V 567.3 H 112.44 Z"
         clip-rule="evenodd"
         id="path114" /></clipPath><clipPath
       clipPathUnits="userSpaceOnUse"
       id="clipPath122"><path
         d="M 0,792.03 H 612 V 0.03 H 0 Z"
         id="path120" /></clipPath><clipPath
       clipPathUnits="userSpaceOnUse"
       id="clipPath314"><path
         d="M 219.06,206.28 H 384.9 V 128.4 H 219.06 Z"
         clip-rule="evenodd"
         id="path312" /></clipPath><clipPath
       clipPathUnits="userSpaceOnUse"
       id="clipPath320"><path
         d="M 0,792.03 H 612 V 0.03 H 0 Z"
         id="path318" /></clipPath></defs><sodipodi:namedview
     pagecolor="#ffffff"
     bordercolor="#666666"
     borderopacity="1"
     objecttolerance="10"
     gridtolerance="10"
     guidetolerance="10"
     inkscape:pageopacity="0"
     inkscape:pageshadow="2"
     inkscape:window-width="1920"
     inkscape:window-height="1025"
     id="namedview4"
     showgrid="false"
     fit-margin-top="0"
     fit-margin-left="0"
     fit-margin-right="0"
     fit-margin-bottom="0"
     inkscape:zoom="0.83143939"
     inkscape:cx="258.48"
     inkscape:cy="-189.89067"
     inkscape:window-x="0"
     inkscape:window-y="27"
     inkscape:window-maximized="1"
     inkscape:current-layer="g10" /><g
     id="g10"
     inkscape:groupmode="layer"
     inkscape:label="a"
     transform="matrix(1.3333333,0,0,-1.3333333,-149.52,289.99999)"><path
       d="m 112.14,126.66 h 0.48 v 90.36 h -0.48 z"
       style="fill:#000000;fill-opacity:1;fill-rule:nonzero;stroke:none"
       id="path96" /><path
       d="m 491.34,126.66 h 0.47998 v 90.36 H 491.34 Z"
       style="fill:#000000;fill-opacity:1;fill-rule:nonzero;stroke:none"
       id="path98" /><path
       d="m 112.14,217.02 h 379.68 v 0.48 H 112.14 Z"
       style="fill:#000000;fill-opacity:1;fill-rule:nonzero;stroke:none"
       id="path100" /><path
       d="m 112.14,126.18 h 379.68 v 0.47998 H 112.14 Z"
       style="fill:#000000;fill-opacity:1;fill-rule:nonzero;stroke:none"
       id="path102" /><g
       id="g308"><g
         id="g310"
         clip-path="url(#clipPath314)"><g
           id="g316"
           clip-path="url(#clipPath320)"><text
             transform="matrix(1,0,0,-1,243.72,197.8201)"
             style="font-variant:normal;font-weight:normal;font-stretch:normal;font-size:6px;font-family:Arial;-inkscape-font-specification:Arial;writing-mode:lr-tb;fill:#000000;fill-opacity:1;fill-rule:nonzero;stroke:none"
             id="text330"><tspan
               x="0 3.3587999"
               y="0"
               sodipodi:role="line"
               id="tspan322">15</tspan><tspan
               x="103.62"
               y="0.059999999"
               id="tspan324">3</tspan><tspan
               x="111.48"
               y="0.23999999"
               id="tspan326">2</tspan><tspan
               x="120.24 128.9388"
               y="0.059999999"
               sodipodi:role="line"
               id="tspan328">10</tspan></text><path
             d="m 352.44,195.54 h 0.29999 v 0.12 H 352.44 Z"
             style="fill:#000000;fill-opacity:1;fill-rule:nonzero;stroke:none"
             id="path332" /><path
             d="m 352.44,179.7 h 0.29999 v 15.84 H 352.44 Z"
             style="fill:#000000;fill-opacity:1;fill-rule:nonzero;stroke:none"
             id="path334" /><path
             d="m 360.9,195.48 h 0.30002 v 0.12 H 360.9 Z"
             style="fill:#000000;fill-opacity:1;fill-rule:nonzero;stroke:none"
             id="path336" /><path
             d="m 360.9,179.64 h 0.30002 v 15.84 H 360.9 Z"
             style="fill:#000000;fill-opacity:1;fill-rule:nonzero;stroke:none"
             id="path338" /><text
             transform="matrix(1,0,0,-1,354.6,187.9801)"
             style="font-variant:normal;font-weight:normal;font-stretch:normal;font-size:6.96px;font-family:Arial;-inkscape-font-specification:Arial;writing-mode:lr-tb;fill:#000000;fill-opacity:1;fill-rule:nonzero;stroke:none"
             id="text346"><tspan
               x="0"
               y="0"
               id="tspan340">T</tspan><tspan
               x="1.25976"
               y="6.7198801"
               id="tspan342">I</tspan><tspan
               x="-60.600025 -58.679066 -54.780071 -50.881081 -46.982086"
               y="3.120168"
               sodipodi:role="line"
               id="tspan344">Index</tspan></text><text
             transform="matrix(1,0,0,-1,223.68,162.6001)"
             style="font-variant:normal;font-weight:normal;font-stretch:normal;font-size:7.9828px;font-family:Arial;-inkscape-font-specification:Arial;writing-mode:lr-tb;fill:#000000;fill-opacity:1;fill-rule:nonzero;stroke:none"
             id="text356"><tspan
               x="0 3.9610653 8.3995018 12.88823 14.626884 19.065321 21.286934 23.508547 27.946985 32.435715 34.174366 38.216057 42.654495 44.87611 49.314545"
               y="0"
               sodipodi:role="line"
               id="tspan348">Table Indicator</tspan><tspan
               x="0 6.6648397 11.111259 13.332872 18.002811 20.224424 26.443026 32.214588"
               y="9.299962"
               sodipodi:role="line"
               id="tspan350"> 0 = GDT</tspan><tspan
               x="0 6.6648397 11.107268 13.328881 17.994827 20.21644 24.658869 30.426443"
               y="18.599924"
               sodipodi:role="line"
               id="tspan352"> 1 = LDT</tspan><tspan
               x="0 5.7667747 10.208405 14.650035 19.091665 23.533295 27.527887 29.750299 34.191929 38.63356 40.855171 46.182892 48.882675 50.658051 54.652645 56.428017 58.203392 62.645023 67.086655 71.528282 73.749893 78.191528 82.633156 86.627747 91.069382 92.844757 95.066368 97.727829 103.49461 108.82233 113.26395"
               y="26.519661"
               sodipodi:role="line"
               id="tspan354">Requested Privilege Level (RPL)</tspan></text><path
             d="m 342.48,138.6 h 27.42 v 0.30002 h -27.42 z"
             style="fill:#000000;fill-opacity:1;fill-rule:nonzero;stroke:none"
             id="path358" /><path
             d="m 369.6,138.78 h 0.29999 v 40.86 H 369.6 Z"
             style="fill:#000000;fill-opacity:1;fill-rule:nonzero;stroke:none"
             id="path360" /><path
             d="m 278.64,164.82 h 78.66 v 0.3 h -78.66 z"
             style="fill:#000000;fill-opacity:1;fill-rule:nonzero;stroke:none"
             id="path362" /><path
             d="m 357,165 h 0.30002 v 14.7 H 357 Z"
             style="fill:#000000;fill-opacity:1;fill-rule:nonzero;stroke:none"
             id="path364" /><text
             transform="matrix(1,0,0,-1,363.06,184.86)"
             style="font-variant:normal;font-weight:normal;font-stretch:normal;font-size:6.96px;font-family:Arial;-inkscape-font-specification:Arial;writing-mode:lr-tb;fill:#000000;fill-opacity:1;fill-rule:nonzero;stroke:none"
             id="text368"><tspan
               x="0 5.0508718 9.7189436"
               y="0"
               sodipodi:role="line"
               id="tspan366">RPL</tspan></text><path
             d="m 242.82,195.42 h 136.02 v 0.48001 H 242.82 Z"
             style="fill:#000000;fill-opacity:1;fill-rule:nonzero;stroke:none"
             id="path370" /><path
             d="m 378.36,179.16 h 0.47998 v 16.5 H 378.36 Z"
             style="fill:#000000;fill-opacity:1;fill-rule:nonzero;stroke:none"
             id="path372" /><path
             d="M 242.58,179.16 H 378.6 v 0.48 H 242.58 Z"
             style="fill:#000000;fill-opacity:1;fill-rule:nonzero;stroke:none"
             id="path374" /><path
             d="m 242.58,179.4 h 0.48 v 16.5 h -0.48 z"
             style="fill:#000000;fill-opacity:1;fill-rule:nonzero;stroke:none"
             id="path376" /></g></g></g></g></svg>
