<?xml version="1.0" encoding="UTF-8" standalone="no"?>
<svg
   xmlns:dc="http://purl.org/dc/elements/1.1/"
   xmlns:cc="http://creativecommons.org/ns#"
   xmlns:rdf="http://www.w3.org/1999/02/22-rdf-syntax-ns#"
   xmlns:svg="http://www.w3.org/2000/svg"
   xmlns="http://www.w3.org/2000/svg"
   xmlns:sodipodi="http://sodipodi.sourceforge.net/DTD/sodipodi-0.dtd"
   xmlns:inkscape="http://www.inkscape.org/namespaces/inkscape"
   version="1.1"
   id="svg2"
   xml:space="preserve"
   width="512.47998"
   height="518.79999"
   viewBox="0 0 512.47998 518.79999"
   sodipodi:docname="svg3.svg"
   inkscape:version="1.0.2 (1.0.2+r75+1)"><metadata
     id="metadata8"><rdf:RDF><cc:Work
         rdf:about=""><dc:format>image/svg+xml</dc:format><dc:type
           rdf:resource="http://purl.org/dc/dcmitype/StillImage" /><dc:title></dc:title></cc:Work></rdf:RDF></metadata><defs
     id="defs6"><clipPath
       clipPathUnits="userSpaceOnUse"
       id="clipPath74"><path
         d="M 156.6,712.02 H 447.36 V 331.38 H 156.6 Z"
         clip-rule="evenodd"
         id="path72" /></clipPath><clipPath
       clipPathUnits="userSpaceOnUse"
       id="clipPath80"><path
         d="M 0,792.03 H 612 V 0.03 H 0 Z"
         id="path78" /></clipPath></defs><sodipodi:namedview
     pagecolor="#ffffff"
     bordercolor="#666666"
     borderopacity="1"
     objecttolerance="10"
     gridtolerance="10"
     guidetolerance="10"
     inkscape:pageopacity="0"
     inkscape:pageshadow="2"
     inkscape:window-width="1920"
     inkscape:window-height="1025"
     id="namedview4"
     showgrid="false"
     fit-margin-top="0"
     fit-margin-left="0"
     fit-margin-right="0"
     fit-margin-bottom="0"
     inkscape:zoom="1.1758329"
     inkscape:cx="272.14279"
     inkscape:cy="228.732"
     inkscape:window-x="0"
     inkscape:window-y="27"
     inkscape:window-maximized="1"
     inkscape:current-layer="g10" /><g
     id="g10"
     inkscape:groupmode="layer"
     inkscape:label="a"
     transform="matrix(1.3333333,0,0,-1.3333333,-146.4,957.67995)"><path
       d="m 109.8,329.64 h 0.48001 V 717.72 H 109.8 Z"
       style="fill:#000000;fill-opacity:1;fill-rule:nonzero;stroke:none"
       id="path60" /><path
       d="m 493.68,329.64 h 0.48001 V 717.72 H 493.68 Z"
       style="fill:#000000;fill-opacity:1;fill-rule:nonzero;stroke:none"
       id="path62" /><path
       d="m 109.8,717.78 h 384.36 v 0.47998 H 109.8 Z"
       style="fill:#000000;fill-opacity:1;fill-rule:nonzero;stroke:none"
       id="path64" /><path
       d="m 109.8,329.16 h 384.36 v 0.47998 H 109.8 Z"
       style="fill:#000000;fill-opacity:1;fill-rule:nonzero;stroke:none"
       id="path66" /><g
       id="g68"><g
         id="g70"
         clip-path="url(#clipPath74)"><g
           id="g76"
           clip-path="url(#clipPath80)"><path
             d="m 399.3,555.96 h 36.54 v 30.72 H 399.3 Z"
             style="fill:#e6e6e6;fill-opacity:1;fill-rule:nonzero;stroke:none"
             id="path82" /><text
             transform="matrix(1,0,0,-1,165.9,589.44)"
             style="font-variant:normal;font-weight:normal;font-stretch:normal;font-size:6px;font-family:Arial;-inkscape-font-specification:Arial;writing-mode:lr-tb;fill:#000000;fill-opacity:1;fill-rule:nonzero;stroke:none"
             id="text102"><tspan
               x="0 3.2988"
               y="0"
               sodipodi:role="line"
               id="tspan84">31</tspan><tspan
               x="127.2 130.49879"
               y="0.059999999"
               sodipodi:role="line"
               id="tspan86">16</tspan><tspan
               x="135.66 138.9594"
               y="0.18000001"
               sodipodi:role="line"
               id="tspan88">15</tspan><tspan
               x="152.64 155.99879"
               y="0.23999999"
               sodipodi:role="line"
               id="tspan90">13</tspan><tspan
               x="144.17999 147.4794 161.09821 164.3976"
               y="0.18000001"
               sodipodi:role="line"
               id="tspan92">1412</tspan><tspan
               x="197.39999"
               y="0.36000001"
               id="tspan94">8</tspan><tspan
               x="206.10001"
               y="0.30000001"
               id="tspan96">7</tspan><tspan
               x="266.10001"
               y="0.23999999"
               id="tspan98">0</tspan><tspan
               x="136.8"
               y="20.459999"
               id="tspan100">P</tspan></text><text
             transform="matrix(1,0,0,-1,214.5,568.92)"
             style="font-variant:normal;font-weight:normal;font-stretch:normal;font-size:6.96px;font-family:Arial;-inkscape-font-specification:Arial;writing-mode:lr-tb;fill:#000000;fill-opacity:1;fill-rule:nonzero;stroke:none"
             id="text106"><tspan
               x="0 5.40096 7.262064 9.1830244 12.663024 16.567583 18.488544 20.46936 24.37392 28.213057 30.182735 32.103695 36.008255"
               y="0"
               sodipodi:role="line"
               id="tspan104">Offset 31..16</tspan></text><path
             d="m 368.4,586.68 h 0.30002 v 0.12 H 368.4 Z"
             style="fill:#000000;fill-opacity:1;fill-rule:nonzero;stroke:none"
             id="path108" /><path
             d="m 368.4,555.96 h 0.30002 v 30.72 H 368.4 Z"
             style="fill:#000000;fill-opacity:1;fill-rule:nonzero;stroke:none"
             id="path110" /><text
             transform="matrix(1,0,0,-1,315,575.64)"
             style="font-variant:normal;font-weight:normal;font-stretch:normal;font-size:6px;font-family:Arial;-inkscape-font-specification:Arial;writing-mode:lr-tb;fill:#000000;fill-opacity:1;fill-rule:nonzero;stroke:none"
             id="text120"><tspan
               x="0"
               y="0"
               id="tspan112">D</tspan><tspan
               x="0.12"
               y="7.1399999"
               id="tspan114">P</tspan><tspan
               x="0.54000002"
               y="13.86"
               id="tspan116">L</tspan><tspan
               x="14.58"
               y="6.48"
               id="tspan118">0</tspan></text><text
             transform="matrix(1,0,0,-1,439.2,568.08)"
             style="font-variant:normal;font-weight:normal;font-stretch:normal;font-size:7.9828px;font-family:Arial;-inkscape-font-specification:Arial;writing-mode:lr-tb;fill:#000000;fill-opacity:1;fill-rule:nonzero;stroke:none"
             id="text124"><tspan
               x="0"
               y="0"
               id="tspan122">4</tspan></text><text
             transform="matrix(1,0,0,-1,165.66,545.34)"
             style="font-variant:normal;font-weight:normal;font-stretch:normal;font-size:6px;font-family:Arial;-inkscape-font-specification:Arial;writing-mode:lr-tb;fill:#000000;fill-opacity:1;fill-rule:nonzero;stroke:none"
             id="text134"><tspan
               x="0 3.3587999"
               y="0"
               sodipodi:role="line"
               id="tspan126">31</tspan><tspan
               x="127.44 130.7388"
               y="0.059999999"
               sodipodi:role="line"
               id="tspan128">16</tspan><tspan
               x="135.89999 139.1994"
               y="0.18000001"
               sodipodi:role="line"
               id="tspan130">15</tspan><tspan
               x="266.34"
               y="0.30000001"
               id="tspan132">0</tspan></text><text
             transform="matrix(1,0,0,-1,203.58,525.0601)"
             style="font-variant:normal;font-weight:normal;font-stretch:normal;font-size:6.96px;font-family:Arial;-inkscape-font-specification:Arial;writing-mode:lr-tb;fill:#000000;fill-opacity:1;fill-rule:nonzero;stroke:none"
             id="text140"><tspan
               x="0 4.620048 8.5211277 12.422208 18.251207 22.152288 26.053368 27.974327 29.895288 34.568928 38.470009 40.046448 43.885586 47.396904 49.317863 53.218945"
               y="0"
               sodipodi:role="line"
               id="tspan136">Segment Selector</tspan><tspan
               x="149.04005 154.4939 156.29515 158.21611 161.75597 165.59511 167.57661 169.49757 173.40631 177.31505 179.23601 181.20987"
               y="0.24011999"
               sodipodi:role="line"
               id="tspan138">Offset 15..0</tspan></text><text
             transform="matrix(1,0,0,-1,439.2,523.98)"
             style="font-variant:normal;font-weight:normal;font-stretch:normal;font-size:7.9828px;font-family:Arial;-inkscape-font-specification:Arial;writing-mode:lr-tb;fill:#000000;fill-opacity:1;fill-rule:nonzero;stroke:none"
             id="text144"><tspan
               x="0"
               y="0"
               id="tspan142">0</tspan></text><path
             d="m 300.42,586.68 h 0.29999 v 0.12 H 300.42 Z"
             style="fill:#000000;fill-opacity:1;fill-rule:nonzero;stroke:none"
             id="path146" /><path
             d="m 300.42,555.96 h 0.29999 v 30.72 H 300.42 Z"
             style="fill:#000000;fill-opacity:1;fill-rule:nonzero;stroke:none"
             id="path148" /><path
             d="m 308.64,586.68 h 0.29999 v 0.12 H 308.64 Z"
             style="fill:#000000;fill-opacity:1;fill-rule:nonzero;stroke:none"
             id="path150" /><path
             d="m 308.64,555.96 h 0.29999 v 30.72 H 308.64 Z"
             style="fill:#000000;fill-opacity:1;fill-rule:nonzero;stroke:none"
             id="path152" /><path
             d="m 325.92,586.68 h 0.29999 v 0.12 H 325.92 Z"
             style="fill:#000000;fill-opacity:1;fill-rule:nonzero;stroke:none"
             id="path154" /><path
             d="m 325.92,555.96 h 0.29999 v 30.72 H 325.92 Z"
             style="fill:#000000;fill-opacity:1;fill-rule:nonzero;stroke:none"
             id="path156" /><path
             d="m 300.42,542.52 h 0.29999 v 0.12 H 300.42 Z"
             style="fill:#000000;fill-opacity:1;fill-rule:nonzero;stroke:none"
             id="path158" /><path
             d="m 300.42,511.86 h 0.29999 v 30.66 H 300.42 Z"
             style="fill:#000000;fill-opacity:1;fill-rule:nonzero;stroke:none"
             id="path160" /><path
             d="m 164.82,586.44 h 271.2 v 0.48004 h -271.2 z"
             style="fill:#000000;fill-opacity:1;fill-rule:nonzero;stroke:none"
             id="path162" /><path
             d="m 435.54,555.72 h 0.47998 v 30.96 H 435.54 Z"
             style="fill:#000000;fill-opacity:1;fill-rule:nonzero;stroke:none"
             id="path164" /><path
             d="m 164.58,555.72 h 271.2 v 0.47998 h -271.2 z"
             style="fill:#000000;fill-opacity:1;fill-rule:nonzero;stroke:none"
             id="path166" /><path
             d="m 164.58,555.96 h 0.48 v 30.96 h -0.48 z"
             style="fill:#000000;fill-opacity:1;fill-rule:nonzero;stroke:none"
             id="path168" /><path
             d="m 164.82,542.4 h 271.2 v 0.47998 h -271.2 z"
             style="fill:#000000;fill-opacity:1;fill-rule:nonzero;stroke:none"
             id="path170" /><path
             d="m 435.54,511.62 h 0.47998 v 31.02 H 435.54 Z"
             style="fill:#000000;fill-opacity:1;fill-rule:nonzero;stroke:none"
             id="path172" /><path
             d="m 164.58,511.62 h 271.2 v 0.48001 h -271.2 z"
             style="fill:#000000;fill-opacity:1;fill-rule:nonzero;stroke:none"
             id="path174" /><path
             d="m 164.58,511.86 h 0.48 v 31.02 h -0.48 z"
             style="fill:#000000;fill-opacity:1;fill-rule:nonzero;stroke:none"
             id="path176" /><text
             transform="matrix(1,0,0,-1,361.38,569.16)"
             style="font-variant:normal;font-weight:normal;font-stretch:normal;font-size:6px;font-family:Arial;-inkscape-font-specification:Arial;writing-mode:lr-tb;fill:#000000;fill-opacity:1;fill-rule:nonzero;stroke:none"
             id="text180"><tspan
               x="0 -8.3999996 -16.5 -24.24"
               y="0"
               sodipodi:role="line"
               id="tspan178">011D</tspan></text><text
             transform="matrix(1,0,0,-1,274.14,599.04)"
             style="font-variant:normal;font-weight:bold;font-stretch:normal;font-size:7.98px;font-family:Arial;-inkscape-font-specification:'Arial Bold';writing-mode:lr-tb;fill:#000000;fill-opacity:1;fill-rule:nonzero;stroke:none"
             id="text184"><tspan
               x="0 2.2328041 7.1229482 9.794652 14.245896 17.364479 20.483065 25.373207 30.263351 32.935055 35.156689 41.379494 45.830734 48.502441"
               y="0"
               sodipodi:role="line"
               id="tspan182">Interrupt Gate</tspan></text><text
             transform="matrix(1,0,0,-1,195.06,389.7)"
             style="font-variant:normal;font-weight:normal;font-stretch:normal;font-size:7.9828px;font-family:Arial;-inkscape-font-specification:Arial;writing-mode:lr-tb;fill:#000000;fill-opacity:1;fill-rule:nonzero;stroke:none"
             id="text202"><tspan
               x="0 5.7691693 11.099285"
               y="0"
               sodipodi:role="line"
               id="tspan186">DPL</tspan><tspan
               x="0 6.2217941 8.3228674 10.553262 14.513529 18.96314"
               y="9.299962"
               sodipodi:role="line"
               id="tspan188">Offset</tspan><tspan
               x="0"
               y="18.599924"
               id="tspan190">P</tspan><tspan
               x="0 5.3333087 9.7805262 11.561489 16.008707 20.008888 22.236887 26.684105"
               y="28.200039"
               sodipodi:role="line"
               id="tspan192">Selector</tspan><tspan
               x="45.540276 51.304657 55.743893 59.736092 63.728291 66.42807 68.166725 72.605957 74.825981 79.265213 81.964996 84.186607 89.511932 92.171005 93.943985 97.93618 99.70916 101.48214 105.98125 110.42049 114.85972 117.08133 121.52057 125.9598 129.952 134.39124"
               y="3.5450753e-15"
               sodipodi:role="line"
               id="tspan194">Descriptor Privilege Level</tspan><tspan
               x="45.540276 51.748501 53.849575 56.066399 60.055401 64.491447 66.708267 68.929878 71.146706 75.582748 77.804359 82.240402 84.896278 89.395386 93.355652 97.791695 102.22774 106.66378 109.36356 113.79961 116.02122 120.45726 124.8933 127.11012 129.80991 133.77017 135.99179 140.42783 144.92694 146.69672 151.13277"
               y="9.299962"
               sodipodi:role="line"
               id="tspan196">Offset to procedure entry point</tspan><tspan
               x="45.540276 50.869595 55.31282 59.756046 66.410507 70.853737 75.296959 77.520973 79.742584 85.071899 87.734962 92.178192 96.174377 100.61761 105.06083 107.28484 109.50645 111.73046 113.50743 117.95066"
               y="18.599924"
               sodipodi:role="line"
               id="tspan198">Segment Present flag</tspan><tspan
               x="45.540276 50.867199 55.308033 59.748863 66.400932 70.841759 75.282593 77.504204 79.725822 85.052742 89.493576 91.26815 95.708984 99.702774 101.92439 106.36522 109.065 111.28662 113.50823 117.94907 120.60973 122.83134 127.33045 131.76889 135.76268 137.9843 139.75887 144.19971 148.64053 150.86215 152.63672 157.07756 161.51839 163.74001 167.7338 172.17462 176.61546 181.05629 183.27791 187.2717 191.71252 196.15337 202.80544 207.24626 211.68709"
               y="28.200039"
               sodipodi:role="line"
               id="tspan200">Segment Selector for destination code segment</tspan></text><path
             d="m 300.48,615.96 h 135.18 v 30.78 H 300.48 Z"
             style="fill:#e6e6e6;fill-opacity:1;fill-rule:nonzero;stroke:none"
             id="path204" /><path
             d="m 368.76,660.24 h 67.08 v 30.72 h -67.08 z"
             style="fill:#e6e6e6;fill-opacity:1;fill-rule:nonzero;stroke:none"
             id="path206" /><path
             d="M 165.12,660.24 H 300.3 v 30.72 H 165.12 Z"
             style="fill:#e6e6e6;fill-opacity:1;fill-rule:nonzero;stroke:none"
             id="path208" /><text
             transform="matrix(1,0,0,-1,165.9,693.72)"
             style="font-variant:normal;font-weight:normal;font-stretch:normal;font-size:6px;font-family:Arial;-inkscape-font-specification:Arial;writing-mode:lr-tb;fill:#000000;fill-opacity:1;fill-rule:nonzero;stroke:none"
             id="text228"><tspan
               x="0 3.2988"
               y="0"
               sodipodi:role="line"
               id="tspan210">31</tspan><tspan
               x="127.2 130.49879"
               y="0.059999999"
               sodipodi:role="line"
               id="tspan212">16</tspan><tspan
               x="135.66 138.9594"
               y="0.18000001"
               sodipodi:role="line"
               id="tspan214">15</tspan><tspan
               x="152.64 155.99879"
               y="0.23999999"
               sodipodi:role="line"
               id="tspan216">13</tspan><tspan
               x="144.17999 147.4794 161.09821 164.3976"
               y="0.18000001"
               sodipodi:role="line"
               id="tspan218">1412</tspan><tspan
               x="197.39999"
               y="0.36000001"
               id="tspan220">8</tspan><tspan
               x="206.10001"
               y="0.30000001"
               id="tspan222">7</tspan><tspan
               x="266.10001"
               y="0.23999999"
               id="tspan224">0</tspan><tspan
               x="136.8"
               y="20.4"
               id="tspan226">P</tspan></text><path
             d="m 368.4,690.96 h 0.30002 v 0.12 H 368.4 Z"
             style="fill:#000000;fill-opacity:1;fill-rule:nonzero;stroke:none"
             id="path230" /><path
             d="m 368.4,660.3 h 0.30002 v 30.66 H 368.4 Z"
             style="fill:#000000;fill-opacity:1;fill-rule:nonzero;stroke:none"
             id="path232" /><text
             transform="matrix(1,0,0,-1,315,679.92)"
             style="font-variant:normal;font-weight:normal;font-stretch:normal;font-size:6px;font-family:Arial;-inkscape-font-specification:Arial;writing-mode:lr-tb;fill:#000000;fill-opacity:1;fill-rule:nonzero;stroke:none"
             id="text242"><tspan
               x="0"
               y="0"
               id="tspan234">D</tspan><tspan
               x="0.12"
               y="7.1399999"
               id="tspan236">P</tspan><tspan
               x="0.54000002"
               y="13.86"
               id="tspan238">L</tspan><tspan
               x="13.56"
               y="6.48"
               id="tspan240">0</tspan></text><text
             transform="matrix(1,0,0,-1,439.2,672.42)"
             style="font-variant:normal;font-weight:normal;font-stretch:normal;font-size:7.9828px;font-family:Arial;-inkscape-font-specification:Arial;writing-mode:lr-tb;fill:#000000;fill-opacity:1;fill-rule:nonzero;stroke:none"
             id="text246"><tspan
               x="0"
               y="0"
               id="tspan244">4</tspan></text><text
             transform="matrix(1,0,0,-1,165.66,649.6201)"
             style="font-variant:normal;font-weight:normal;font-stretch:normal;font-size:6px;font-family:Arial;-inkscape-font-specification:Arial;writing-mode:lr-tb;fill:#000000;fill-opacity:1;fill-rule:nonzero;stroke:none"
             id="text256"><tspan
               x="0 3.3587999"
               y="0"
               sodipodi:role="line"
               id="tspan248">31</tspan><tspan
               x="127.44 130.7388"
               y="0.059999999"
               sodipodi:role="line"
               id="tspan250">16</tspan><tspan
               x="135.89999 139.1994"
               y="0.18000001"
               sodipodi:role="line"
               id="tspan252">15</tspan><tspan
               x="266.34"
               y="0.23999999"
               id="tspan254">0</tspan></text><text
             transform="matrix(1,0,0,-1,199.08,629.1)"
             style="font-variant:normal;font-weight:normal;font-stretch:normal;font-size:6.96px;font-family:Arial;-inkscape-font-specification:Arial;writing-mode:lr-tb;fill:#000000;fill-opacity:1;fill-rule:nonzero;stroke:none"
             id="text260"><tspan
               x="0 4.2852721 8.9603043 13.580352 15.561168 20.181215 24.083689 27.98616 33.816551 37.719025 41.558159 43.525753 45.446712 50.121742 54.024216 55.602047 59.441185 62.953896 64.874855 68.777328"
               y="0"
               sodipodi:role="line"
               id="tspan258">TSS Segment Selector</tspan></text><text
             transform="matrix(1,0,0,-1,439.2,628.32)"
             style="font-variant:normal;font-weight:normal;font-stretch:normal;font-size:7.9828px;font-family:Arial;-inkscape-font-specification:Arial;writing-mode:lr-tb;fill:#000000;fill-opacity:1;fill-rule:nonzero;stroke:none"
             id="text264"><tspan
               x="0"
               y="0"
               id="tspan262">0</tspan></text><path
             d="m 300.42,690.96 h 0.29999 v 0.12 H 300.42 Z"
             style="fill:#000000;fill-opacity:1;fill-rule:nonzero;stroke:none"
             id="path266" /><path
             d="m 300.42,660.3 h 0.29999 v 30.66 H 300.42 Z"
             style="fill:#000000;fill-opacity:1;fill-rule:nonzero;stroke:none"
             id="path268" /><path
             d="m 308.64,690.96 h 0.29999 v 0.12 H 308.64 Z"
             style="fill:#000000;fill-opacity:1;fill-rule:nonzero;stroke:none"
             id="path270" /><path
             d="m 308.64,660.3 h 0.29999 v 30.66 H 308.64 Z"
             style="fill:#000000;fill-opacity:1;fill-rule:nonzero;stroke:none"
             id="path272" /><path
             d="m 325.92,690.96 h 0.29999 v 0.12 H 325.92 Z"
             style="fill:#000000;fill-opacity:1;fill-rule:nonzero;stroke:none"
             id="path274" /><path
             d="m 325.92,660.3 h 0.29999 v 30.66 H 325.92 Z"
             style="fill:#000000;fill-opacity:1;fill-rule:nonzero;stroke:none"
             id="path276" /><path
             d="m 300.42,646.86 h 0.29999 v 0.12 H 300.42 Z"
             style="fill:#000000;fill-opacity:1;fill-rule:nonzero;stroke:none"
             id="path278" /><path
             d="m 300.42,616.14 h 0.29999 v 30.72 H 300.42 Z"
             style="fill:#000000;fill-opacity:1;fill-rule:nonzero;stroke:none"
             id="path280" /><path
             d="m 164.82,690.72 h 271.2 v 0.48004 h -271.2 z"
             style="fill:#000000;fill-opacity:1;fill-rule:nonzero;stroke:none"
             id="path282" /><path
             d="m 435.54,660 h 0.47998 v 30.96 H 435.54 Z"
             style="fill:#000000;fill-opacity:1;fill-rule:nonzero;stroke:none"
             id="path284" /><path
             d="m 164.58,660 h 271.2 v 0.48004 h -271.2 z"
             style="fill:#000000;fill-opacity:1;fill-rule:nonzero;stroke:none"
             id="path286" /><path
             d="m 164.58,660.24 h 0.48 v 30.96 h -0.48 z"
             style="fill:#000000;fill-opacity:1;fill-rule:nonzero;stroke:none"
             id="path288" /><path
             d="m 164.82,646.68 h 271.2 v 0.47998 h -271.2 z"
             style="fill:#000000;fill-opacity:1;fill-rule:nonzero;stroke:none"
             id="path290" /><path
             d="m 435.54,615.96 h 0.47998 v 30.96 H 435.54 Z"
             style="fill:#000000;fill-opacity:1;fill-rule:nonzero;stroke:none"
             id="path292" /><path
             d="m 164.58,615.96 h 271.2 v 0.47998 h -271.2 z"
             style="fill:#000000;fill-opacity:1;fill-rule:nonzero;stroke:none"
             id="path294" /><path
             d="m 164.58,616.2 h 0.48 v 30.96 h -0.48 z"
             style="fill:#000000;fill-opacity:1;fill-rule:nonzero;stroke:none"
             id="path296" /><text
             transform="matrix(1,0,0,-1,361.92,673.44)"
             style="font-variant:normal;font-weight:normal;font-stretch:normal;font-size:6px;font-family:Arial;-inkscape-font-specification:Arial;writing-mode:lr-tb;fill:#000000;fill-opacity:1;fill-rule:nonzero;stroke:none"
             id="text300"><tspan
               x="0 -9.2399998 -17.280001 -25.02"
               y="0"
               sodipodi:role="line"
               id="tspan298">1010</tspan></text><text
             transform="matrix(1,0,0,-1,282,703.38)"
             style="font-variant:normal;font-weight:bold;font-stretch:normal;font-size:7.98px;font-family:Arial;-inkscape-font-specification:'Arial Bold';writing-mode:lr-tb;fill:#000000;fill-opacity:1;fill-rule:nonzero;stroke:none"
             id="text304"><tspan
               x="0 4.3211699 8.7588482 13.196526 17.634205 19.855837 26.065075 30.502752 33.160889"
               y="0"
               sodipodi:role="line"
               id="tspan302">Task Gate</tspan></text><path
             d="m 399.18,586.68 h 0.29999 v 0.12 H 399.18 Z"
             style="fill:#000000;fill-opacity:1;fill-rule:nonzero;stroke:none"
             id="path306" /><path
             d="m 399.18,555.96 h 0.29999 v 30.72 H 399.18 Z"
             style="fill:#000000;fill-opacity:1;fill-rule:nonzero;stroke:none"
             id="path308" /><text
             transform="matrix(1,0,0,-1,402.24,589.2)"
             style="font-variant:normal;font-weight:normal;font-stretch:normal;font-size:6px;font-family:Arial;-inkscape-font-specification:Arial;writing-mode:lr-tb;fill:#000000;fill-opacity:1;fill-rule:nonzero;stroke:none"
             id="text312"><tspan
               x="0 -9"
               y="0"
               sodipodi:role="line"
               id="tspan310">45</tspan></text><text
             transform="matrix(1,0,0,-1,372.42,568.92)"
             style="font-variant:normal;font-weight:normal;font-stretch:normal;font-size:6.96px;font-family:Arial;-inkscape-font-specification:Arial;writing-mode:lr-tb;fill:#000000;fill-opacity:1;fill-rule:nonzero;stroke:none"
             id="text316"><tspan
               x="0 3.9045601 9.7272959 13.631856 19.455288"
               y="0"
               sodipodi:role="line"
               id="tspan314">0 0 0</tspan></text><path
             d="m 399.3,450.72 h 36.54 V 481.5 H 399.3 Z"
             style="fill:#e6e6e6;fill-opacity:1;fill-rule:nonzero;stroke:none"
             id="path318" /><text
             transform="matrix(1,0,0,-1,165.9,484.26)"
             style="font-variant:normal;font-weight:normal;font-stretch:normal;font-size:6px;font-family:Arial;-inkscape-font-specification:Arial;writing-mode:lr-tb;fill:#000000;fill-opacity:1;fill-rule:nonzero;stroke:none"
             id="text338"><tspan
               x="0 3.2988"
               y="0"
               sodipodi:role="line"
               id="tspan320">31</tspan><tspan
               x="127.2 130.49879"
               y="0.12"
               sodipodi:role="line"
               id="tspan322">16</tspan><tspan
               x="135.66 138.9594"
               y="0.18000001"
               sodipodi:role="line"
               id="tspan324">15</tspan><tspan
               x="152.64 155.99879"
               y="0.30000001"
               sodipodi:role="line"
               id="tspan326">13</tspan><tspan
               x="144.17999 147.4794 161.09821 164.3976"
               y="0.18000001"
               sodipodi:role="line"
               id="tspan328">1412</tspan><tspan
               x="197.39999"
               y="0.41999999"
               id="tspan330">8</tspan><tspan
               x="206.10001"
               y="0.36000001"
               id="tspan332">7</tspan><tspan
               x="266.10001"
               y="0.30000001"
               id="tspan334">0</tspan><tspan
               x="136.8"
               y="20.459999"
               id="tspan336">P</tspan></text><text
             transform="matrix(1,0,0,-1,214.5,463.68)"
             style="font-variant:normal;font-weight:normal;font-stretch:normal;font-size:6.96px;font-family:Arial;-inkscape-font-specification:Arial;writing-mode:lr-tb;fill:#000000;fill-opacity:1;fill-rule:nonzero;stroke:none"
             id="text342"><tspan
               x="0 5.40096 7.262064 9.1830244 12.663024 16.567583 18.488544 20.46936 24.37392 28.213057 30.182735 32.103695 36.008255"
               y="0"
               sodipodi:role="line"
               id="tspan340">Offset 31..16</tspan></text><path
             d="m 368.4,481.5 h 0.30002 v 0.12 H 368.4 Z"
             style="fill:#000000;fill-opacity:1;fill-rule:nonzero;stroke:none"
             id="path344" /><path
             d="m 368.4,450.78 h 0.30002 V 481.5 H 368.4 Z"
             style="fill:#000000;fill-opacity:1;fill-rule:nonzero;stroke:none"
             id="path346" /><text
             transform="matrix(1,0,0,-1,315,470.4)"
             style="font-variant:normal;font-weight:normal;font-stretch:normal;font-size:6px;font-family:Arial;-inkscape-font-specification:Arial;writing-mode:lr-tb;fill:#000000;fill-opacity:1;fill-rule:nonzero;stroke:none"
             id="text356"><tspan
               x="0"
               y="0"
               id="tspan348">D</tspan><tspan
               x="0.12"
               y="7.0799999"
               id="tspan350">P</tspan><tspan
               x="0.54000002"
               y="13.8"
               id="tspan352">L</tspan><tspan
               x="14.34"
               y="6.48"
               id="tspan354">0</tspan></text><text
             transform="matrix(1,0,0,-1,439.2,462.9)"
             style="font-variant:normal;font-weight:normal;font-stretch:normal;font-size:7.9828px;font-family:Arial;-inkscape-font-specification:Arial;writing-mode:lr-tb;fill:#000000;fill-opacity:1;fill-rule:nonzero;stroke:none"
             id="text360"><tspan
               x="0"
               y="0"
               id="tspan358">4</tspan></text><text
             transform="matrix(1,0,0,-1,165.66,440.16)"
             style="font-variant:normal;font-weight:normal;font-stretch:normal;font-size:6px;font-family:Arial;-inkscape-font-specification:Arial;writing-mode:lr-tb;fill:#000000;fill-opacity:1;fill-rule:nonzero;stroke:none"
             id="text370"><tspan
               x="0 3.3587999"
               y="0"
               sodipodi:role="line"
               id="tspan362">31</tspan><tspan
               x="127.44 130.7388"
               y="0.12"
               sodipodi:role="line"
               id="tspan364">16</tspan><tspan
               x="135.89999 139.1994"
               y="0.18000001"
               sodipodi:role="line"
               id="tspan366">15</tspan><tspan
               x="266.34"
               y="0.30000001"
               id="tspan368">0</tspan></text><text
             transform="matrix(1,0,0,-1,203.58,419.82)"
             style="font-variant:normal;font-weight:normal;font-stretch:normal;font-size:6.96px;font-family:Arial;-inkscape-font-specification:Arial;writing-mode:lr-tb;fill:#000000;fill-opacity:1;fill-rule:nonzero;stroke:none"
             id="text376"><tspan
               x="0 4.620048 8.5211277 12.422208 18.251207 22.152288 26.053368 27.974327 29.895288 34.568928 38.470009 40.046448 43.885586 47.396904 49.317863 53.218945"
               y="0"
               sodipodi:role="line"
               id="tspan372">Segment Selector</tspan><tspan
               x="149.04005 154.4939 156.29515 158.21611 161.75597 165.59511 167.57661 169.49757 173.40631 177.31505 179.23601 181.20987"
               y="0.24011999"
               sodipodi:role="line"
               id="tspan374">Offset 15..0</tspan></text><text
             transform="matrix(1,0,0,-1,439.2,418.8)"
             style="font-variant:normal;font-weight:normal;font-stretch:normal;font-size:7.9828px;font-family:Arial;-inkscape-font-specification:Arial;writing-mode:lr-tb;fill:#000000;fill-opacity:1;fill-rule:nonzero;stroke:none"
             id="text380"><tspan
               x="0"
               y="0"
               id="tspan378">0</tspan></text><path
             d="m 300.42,481.5 h 0.29999 v 0.12 H 300.42 Z"
             style="fill:#000000;fill-opacity:1;fill-rule:nonzero;stroke:none"
             id="path382" /><path
             d="m 300.42,450.78 h 0.29999 V 481.5 H 300.42 Z"
             style="fill:#000000;fill-opacity:1;fill-rule:nonzero;stroke:none"
             id="path384" /><path
             d="m 308.64,481.5 h 0.29999 v 0.12 H 308.64 Z"
             style="fill:#000000;fill-opacity:1;fill-rule:nonzero;stroke:none"
             id="path386" /><path
             d="m 308.64,450.78 h 0.29999 V 481.5 H 308.64 Z"
             style="fill:#000000;fill-opacity:1;fill-rule:nonzero;stroke:none"
             id="path388" /><path
             d="m 325.92,481.5 h 0.29999 v 0.12 H 325.92 Z"
             style="fill:#000000;fill-opacity:1;fill-rule:nonzero;stroke:none"
             id="path390" /><path
             d="m 325.92,450.78 h 0.29999 V 481.5 H 325.92 Z"
             style="fill:#000000;fill-opacity:1;fill-rule:nonzero;stroke:none"
             id="path392" /><path
             d="m 300.42,437.34 h 0.29999 v 0.12 H 300.42 Z"
             style="fill:#000000;fill-opacity:1;fill-rule:nonzero;stroke:none"
             id="path394" /><path
             d="m 300.42,406.62 h 0.29999 v 30.72 H 300.42 Z"
             style="fill:#000000;fill-opacity:1;fill-rule:nonzero;stroke:none"
             id="path396" /><path
             d="m 164.82,481.26 h 271.2 v 0.48001 h -271.2 z"
             style="fill:#000000;fill-opacity:1;fill-rule:nonzero;stroke:none"
             id="path398" /><path
             d="m 435.54,450.48 h 0.47998 V 481.5 H 435.54 Z"
             style="fill:#000000;fill-opacity:1;fill-rule:nonzero;stroke:none"
             id="path400" /><path
             d="m 164.58,450.48 h 271.2 v 0.47998 h -271.2 z"
             style="fill:#000000;fill-opacity:1;fill-rule:nonzero;stroke:none"
             id="path402" /><path
             d="m 164.58,450.72 h 0.48 v 31.02 h -0.48 z"
             style="fill:#000000;fill-opacity:1;fill-rule:nonzero;stroke:none"
             id="path404" /><path
             d="m 164.82,437.16 h 271.2 v 0.47998 h -271.2 z"
             style="fill:#000000;fill-opacity:1;fill-rule:nonzero;stroke:none"
             id="path406" /><path
             d="m 435.54,406.44 h 0.47998 V 437.4 H 435.54 Z"
             style="fill:#000000;fill-opacity:1;fill-rule:nonzero;stroke:none"
             id="path408" /><path
             d="m 164.58,406.44 h 271.2 v 0.48001 h -271.2 z"
             style="fill:#000000;fill-opacity:1;fill-rule:nonzero;stroke:none"
             id="path410" /><path
             d="m 164.58,406.68 h 0.48 v 30.96 h -0.48 z"
             style="fill:#000000;fill-opacity:1;fill-rule:nonzero;stroke:none"
             id="path412" /><text
             transform="matrix(1,0,0,-1,361.92,463.92)"
             style="font-variant:normal;font-weight:normal;font-stretch:normal;font-size:6px;font-family:Arial;-inkscape-font-specification:Arial;writing-mode:lr-tb;fill:#000000;fill-opacity:1;fill-rule:nonzero;stroke:none"
             id="text416"><tspan
               x="0 -8.46 -16.5 -24.299999"
               y="0"
               sodipodi:role="line"
               id="tspan414">111D</tspan></text><text
             transform="matrix(1,0,0,-1,281.88,493.86)"
             style="font-variant:normal;font-weight:bold;font-stretch:normal;font-size:7.98px;font-family:Arial;-inkscape-font-specification:'Arial Bold';writing-mode:lr-tb;fill:#000000;fill-opacity:1;fill-rule:nonzero;stroke:none"
             id="text420"><tspan
               x="0 4.441668 7.5602522 11.998728 16.860144 19.081776 25.322933 29.76141 32.401196"
               y="0"
               sodipodi:role="line"
               id="tspan418">Trap Gate</tspan></text><path
             d="m 399.18,481.5 h 0.29999 v 0.12 H 399.18 Z"
             style="fill:#000000;fill-opacity:1;fill-rule:nonzero;stroke:none"
             id="path422" /><path
             d="m 399.18,450.78 h 0.29999 V 481.5 H 399.18 Z"
             style="fill:#000000;fill-opacity:1;fill-rule:nonzero;stroke:none"
             id="path424" /><text
             transform="matrix(1,0,0,-1,402.24,483.96)"
             style="font-variant:normal;font-weight:normal;font-stretch:normal;font-size:6px;font-family:Arial;-inkscape-font-specification:Arial;writing-mode:lr-tb;fill:#000000;fill-opacity:1;fill-rule:nonzero;stroke:none"
             id="text428"><tspan
               x="0 -9"
               y="0"
               sodipodi:role="line"
               id="tspan426">45</tspan></text><text
             transform="matrix(1,0,0,-1,372.42,463.68)"
             style="font-variant:normal;font-weight:normal;font-stretch:normal;font-size:6.96px;font-family:Arial;-inkscape-font-specification:Arial;writing-mode:lr-tb;fill:#000000;fill-opacity:1;fill-rule:nonzero;stroke:none"
             id="text432"><tspan
               x="0 3.9045601 9.7272959 13.631856 19.455288"
               y="0"
               sodipodi:role="line"
               id="tspan430">0 0 0</tspan></text><text
             transform="matrix(1,0,0,-1,214.8,337.14)"
             style="font-variant:normal;font-weight:normal;font-stretch:normal;font-size:7.9828px;font-family:Arial;-inkscape-font-specification:Arial;writing-mode:lr-tb;fill:#000000;fill-opacity:1;fill-rule:nonzero;stroke:none"
             id="text436"><tspan
               x="0 5.7675729 10.210001 14.205393 18.647821 21.310085 25.305475 29.747904"
               y="0"
               sodipodi:role="line"
               id="tspan434">Reserved</tspan></text><path
             d="m 194.46,334.86 h 16.5 v 10.5 h -16.5 z"
             style="fill:#e6e6e6;fill-opacity:1;fill-rule:nonzero;stroke:none"
             id="path438" /><path
             d="m 194.46,345.18 h 16.68 v 0.30002 h -16.68 z"
             style="fill:#000000;fill-opacity:1;fill-rule:nonzero;stroke:none"
             id="path440" /><path
             d="m 210.84,334.68 h 0.3 v 10.68 h -0.3 z"
             style="fill:#000000;fill-opacity:1;fill-rule:nonzero;stroke:none"
             id="path442" /><path
             d="m 194.34,334.68 h 16.62 v 0.30002 h -16.62 z"
             style="fill:#000000;fill-opacity:1;fill-rule:nonzero;stroke:none"
             id="path444" /><path
             d="m 194.34,334.86 h 0.3 v 10.62 h -0.3 z"
             style="fill:#000000;fill-opacity:1;fill-rule:nonzero;stroke:none"
             id="path446" /><text
             transform="matrix(1,0,0,-1,240.6,352.2)"
             style="font-variant:normal;font-weight:normal;font-stretch:normal;font-size:7.9828px;font-family:Arial;-inkscape-font-specification:Arial;writing-mode:lr-tb;fill:#000000;fill-opacity:1;fill-rule:nonzero;stroke:none"
             id="text450"><tspan
               x="0 5.3245277 7.0967093 11.088109 15.526546 17.748159 22.186596 24.405815 26.627428 31.065865 35.504303 37.723518 42.161957 44.381176 46.602787 51.101894 53.323509 57.943951 60.225437 64.663872 69.10231 71.323921 75.76236 77.534538 79.695488 83.655754 85.874969 88.096581 92.535019 94.756638 99.418587 101.64021 106.07864 110.57774 112.79936 117.23779 119.00998 121.11105 -45.540276"
               y="0"
               sodipodi:role="line"
               id="tspan448">Size of gate: 1 = 32 bits; 0 = 16 bitsD</tspan></text></g></g></g></g></svg>
