<?xml version="1.0" encoding="UTF-8" standalone="no"?>
<svg
   xmlns:dc="http://purl.org/dc/elements/1.1/"
   xmlns:cc="http://creativecommons.org/ns#"
   xmlns:rdf="http://www.w3.org/1999/02/22-rdf-syntax-ns#"
   xmlns:svg="http://www.w3.org/2000/svg"
   xmlns="http://www.w3.org/2000/svg"
   xmlns:sodipodi="http://sodipodi.sourceforge.net/DTD/sodipodi-0.dtd"
   xmlns:inkscape="http://www.inkscape.org/namespaces/inkscape"
   version="1.1"
   id="svg2"
   xml:space="preserve"
   width="506.31998"
   height="546.79999"
   viewBox="0 0 506.31998 546.79999"
   sodipodi:docname="svg4.svg"
   inkscape:version="1.0.2 (1.0.2+r75+1)"><metadata
     id="metadata8"><rdf:RDF><cc:Work
         rdf:about=""><dc:format>image/svg+xml</dc:format><dc:type
           rdf:resource="http://purl.org/dc/dcmitype/StillImage" /><dc:title></dc:title></cc:Work></rdf:RDF></metadata><defs
     id="defs6"><clipPath
       clipPathUnits="userSpaceOnUse"
       id="clipPath130"><path
         d="M 149.7,706.98 H 453.24 V 310.38 H 149.7 Z"
         clip-rule="evenodd"
         id="path128" /></clipPath><clipPath
       clipPathUnits="userSpaceOnUse"
       id="clipPath136"><path
         d="M 0,792.03 H 612 V 0.03 H 0 Z"
         id="path134" /></clipPath></defs><sodipodi:namedview
     pagecolor="#ffffff"
     bordercolor="#666666"
     borderopacity="1"
     objecttolerance="10"
     gridtolerance="10"
     guidetolerance="10"
     inkscape:pageopacity="0"
     inkscape:pageshadow="2"
     inkscape:window-width="1920"
     inkscape:window-height="1025"
     id="namedview4"
     showgrid="false"
     fit-margin-top="0"
     fit-margin-left="0"
     fit-margin-right="0"
     fit-margin-bottom="0"
     inkscape:zoom="0.83143939"
     inkscape:cx="514.1795"
     inkscape:cy="283.68295"
     inkscape:window-x="0"
     inkscape:window-y="27"
     inkscape:window-maximized="1"
     inkscape:current-layer="g10" /><g
     id="g10"
     inkscape:groupmode="layer"
     inkscape:label="a"
     transform="matrix(1.3333333,0,0,-1.3333333,-148.8,957.67995)"><path
       d="m 111.6,308.64 h 0.48 v 409.08 h -0.48 z"
       style="fill:#000000;fill-opacity:1;fill-rule:nonzero;stroke:none"
       id="path116" /><path
       d="m 490.8,308.64 h 0.47998 V 717.72 H 490.8 Z"
       style="fill:#000000;fill-opacity:1;fill-rule:nonzero;stroke:none"
       id="path118" /><path
       d="m 111.6,717.78 h 379.74 v 0.47998 H 111.6 Z"
       style="fill:#000000;fill-opacity:1;fill-rule:nonzero;stroke:none"
       id="path120" /><path
       d="m 111.6,308.16 h 379.74 v 0.47998 H 111.6 Z"
       style="fill:#000000;fill-opacity:1;fill-rule:nonzero;stroke:none"
       id="path122" /><g
       id="g124"><g
         id="g126"
         clip-path="url(#clipPath130)"><g
           id="g132"
           clip-path="url(#clipPath136)"><path
             d="m 297.12,678.72 h 129.84 v 14.64 H 297.12 Z"
             style="fill:#e6e6e6;fill-opacity:1;fill-rule:nonzero;stroke:none"
             id="path138" /><path
             d="m 156.12,582.06 h 140.76 v 97.08 H 156.12 Z"
             style="fill:#e6e6e6;fill-opacity:1;fill-rule:nonzero;stroke:none"
             id="path140" /><path
             d="m 156.12,415.5 h 140.76 v 14.1 H 156.12 Z"
             style="fill:#e6e6e6;fill-opacity:1;fill-rule:nonzero;stroke:none"
             id="path142" /><path
             d="m 156.12,387.36 h 140.76 v 14.1 H 156.12 Z"
             style="fill:#e6e6e6;fill-opacity:1;fill-rule:nonzero;stroke:none"
             id="path144" /><path
             d="m 156.12,331.86 h 140.76 v 14.28 H 156.12 Z"
             style="fill:#e6e6e6;fill-opacity:1;fill-rule:nonzero;stroke:none"
             id="path146" /><path
             d="m 156.6,678.96 h 0.12001 v 0.29999 H 156.6 Z"
             style="fill:#000000;fill-opacity:1;fill-rule:nonzero;stroke:none"
             id="path148" /><path
             d="m 156.72,678.96 h 279.54 v 0.29999 H 156.72 Z"
             style="fill:#000000;fill-opacity:1;fill-rule:nonzero;stroke:none"
             id="path150" /><path
             d="m 156.6,650.94 h 0.12001 v 0.29999 H 156.6 Z"
             style="fill:#000000;fill-opacity:1;fill-rule:nonzero;stroke:none"
             id="path152" /><path
             d="m 156.72,650.94 h 279.54 v 0.29999 H 156.72 Z"
             style="fill:#000000;fill-opacity:1;fill-rule:nonzero;stroke:none"
             id="path154" /><path
             d="m 156.6,664.92 h 0.12001 v 0.29999 H 156.6 Z"
             style="fill:#000000;fill-opacity:1;fill-rule:nonzero;stroke:none"
             id="path156" /><path
             d="m 156.72,664.92 h 279.54 v 0.29999 H 156.72 Z"
             style="fill:#000000;fill-opacity:1;fill-rule:nonzero;stroke:none"
             id="path158" /><path
             d="m 156.6,623.76 h 0.12001 v 0.30005 H 156.6 Z"
             style="fill:#000000;fill-opacity:1;fill-rule:nonzero;stroke:none"
             id="path160" /><path
             d="m 156.72,623.76 h 279.3 v 0.30005 h -279.3 z"
             style="fill:#000000;fill-opacity:1;fill-rule:nonzero;stroke:none"
             id="path162" /><path
             d="m 156.6,609.72 h 0.12001 v 0.29999 H 156.6 Z"
             style="fill:#000000;fill-opacity:1;fill-rule:nonzero;stroke:none"
             id="path164" /><path
             d="m 156.72,609.72 h 279.3 v 0.29999 h -279.3 z"
             style="fill:#000000;fill-opacity:1;fill-rule:nonzero;stroke:none"
             id="path166" /><text
             transform="matrix(1,0,0,-1,429.06,696.72)"
             style="font-variant:normal;font-weight:normal;font-stretch:normal;font-size:7.9828px;font-family:Arial;-inkscape-font-specification:Arial;writing-mode:lr-tb;fill:#000000;fill-opacity:1;fill-rule:nonzero;stroke:none"
             id="text186"><tspan
               x="0"
               y="0"
               id="tspan168">0</tspan><tspan
               x="-271.97958 -267.54114"
               y="0.059870999"
               sodipodi:role="line"
               id="tspan170">31</tspan><tspan
               x="10.619519 15.118625 19.557062"
               y="14.339504"
               sodipodi:role="line"
               id="tspan172">100</tspan><tspan
               x="12.059616 16.498053"
               y="27.839216"
               sodipodi:role="line"
               id="tspan174">96</tspan><tspan
               x="12.059616 16.498053"
               y="41.639084"
               sodipodi:role="line"
               id="tspan176">92</tspan><tspan
               x="11.879205 16.317642"
               y="55.199467"
               sodipodi:role="line"
               id="tspan178">88</tspan><tspan
               x="11.45931 15.897746"
               y="68.999329"
               sodipodi:role="line"
               id="tspan180">84</tspan><tspan
               x="11.579051 16.017488"
               y="82.619583"
               sodipodi:role="line"
               id="tspan182">80</tspan><tspan
               x="11.638923 16.138029"
               y="96.779472"
               sodipodi:role="line"
               id="tspan184">76</tspan></text><path
             d="m 296.64,582 h 0.29999 v 0.12 H 296.64 Z"
             style="fill:#000000;fill-opacity:1;fill-rule:nonzero;stroke:none"
             id="path188" /><path
             d="m 296.64,582.12 h 0.29999 v 111.3 H 296.64 Z"
             style="fill:#000000;fill-opacity:1;fill-rule:nonzero;stroke:none"
             id="path190" /><path
             d="m 435.36,637.8 h 0.12 v 0.29999 h -0.12 z"
             style="fill:#000000;fill-opacity:1;fill-rule:nonzero;stroke:none"
             id="path192" /><path
             d="m 156.24,637.8 h 279.12 v 0.29999 H 156.24 Z"
             style="fill:#000000;fill-opacity:1;fill-rule:nonzero;stroke:none"
             id="path194" /><path
             d="m 426.6,679.5 h 0.29999 v 0.12 H 426.6 Z"
             style="fill:#000000;fill-opacity:1;fill-rule:nonzero;stroke:none"
             id="path196" /><path
             d="m 426.6,679.62 h 0.29999 v 14.16 H 426.6 Z"
             style="fill:#000000;fill-opacity:1;fill-rule:nonzero;stroke:none"
             id="path198" /><text
             transform="matrix(1,0,0,-1,182.04,682.8)"
             style="font-variant:normal;font-weight:normal;font-stretch:normal;font-size:7.9828px;font-family:Arial;-inkscape-font-specification:Arial;writing-mode:lr-tb;fill:#000000;fill-opacity:1;fill-rule:nonzero;stroke:none"
             id="text216"><tspan
               x="0 2.2200167 4.4400334 10.65145 12.873063 19.523535 23.962769 28.402004 30.623617 35.948944 40.38818 44.380375 48.879482 51.101097 56.38092 60.880028 65.31926 67.978333 72.417564 76.409767"
               y="0"
               sodipodi:role="line"
               id="tspan200">I/O Map Base Address</tspan><tspan
               x="114.89964 119.33807"
               y="-13.739995"
               sodipodi:role="line"
               id="tspan202">15</tspan><tspan
               x="138.05933 142.49777 148.26135 153.13884 155.36046 160.68498 165.12341 169.56186 176.21153 180.71063 185.14908 187.36829 189.5899 194.91443 199.35287 201.12505 205.56349 209.55489 211.77411 216.21254"
               y="13.560382"
               sodipodi:role="line"
               id="tspan204">LDT Segment Selector</tspan><tspan
               x="178.73888 184.91997"
               y="27.720272"
               sodipodi:role="line"
               id="tspan206">GS</tspan><tspan
               x="178.73888 183.6004"
               y="41.460266"
               sodipodi:role="line"
               id="tspan208">FS</tspan><tspan
               x="178.73888 184.49768"
               y="55.080521"
               sodipodi:role="line"
               id="tspan210">DS</tspan><tspan
               x="178.73888 184.01871"
               y="69.120667"
               sodipodi:role="line"
               id="tspan212">SS</tspan><tspan
               x="178.73888 184.49768"
               y="82.980408"
               sodipodi:role="line"
               id="tspan214">CS</tspan></text><path
             d="m 156.6,581.94 h 0.12001 v 0.29999 H 156.6 Z"
             style="fill:#000000;fill-opacity:1;fill-rule:nonzero;stroke:none"
             id="path218" /><path
             d="m 156.72,581.94 h 279.54 v 0.29999 H 156.72 Z"
             style="fill:#000000;fill-opacity:1;fill-rule:nonzero;stroke:none"
             id="path220" /><path
             d="m 156.6,553.92 h 0.12001 v 0.29999 H 156.6 Z"
             style="fill:#000000;fill-opacity:1;fill-rule:nonzero;stroke:none"
             id="path222" /><path
             d="m 156.72,553.92 h 279.54 v 0.29999 H 156.72 Z"
             style="fill:#000000;fill-opacity:1;fill-rule:nonzero;stroke:none"
             id="path224" /><path
             d="m 156.6,567.96 h 0.12001 v 0.29999 H 156.6 Z"
             style="fill:#000000;fill-opacity:1;fill-rule:nonzero;stroke:none"
             id="path226" /><path
             d="m 156.72,567.96 h 279.54 v 0.29999 H 156.72 Z"
             style="fill:#000000;fill-opacity:1;fill-rule:nonzero;stroke:none"
             id="path228" /><path
             d="m 156.6,526.74 h 0.12001 v 0.29999 H 156.6 Z"
             style="fill:#000000;fill-opacity:1;fill-rule:nonzero;stroke:none"
             id="path230" /><path
             d="m 156.72,526.74 h 279.3 v 0.29999 h -279.3 z"
             style="fill:#000000;fill-opacity:1;fill-rule:nonzero;stroke:none"
             id="path232" /><path
             d="m 156.6,512.76 h 0.12001 v 0.30005 H 156.6 Z"
             style="fill:#000000;fill-opacity:1;fill-rule:nonzero;stroke:none"
             id="path234" /><path
             d="m 156.72,512.76 h 279.3 v 0.30005 h -279.3 z"
             style="fill:#000000;fill-opacity:1;fill-rule:nonzero;stroke:none"
             id="path236" /><text
             transform="matrix(1,0,0,-1,441.3,585.36)"
             style="font-variant:normal;font-weight:normal;font-stretch:normal;font-size:7.9828px;font-family:Arial;-inkscape-font-specification:Arial;writing-mode:lr-tb;fill:#000000;fill-opacity:1;fill-rule:nonzero;stroke:none"
             id="text252"><tspan
               x="0 4.438437"
               y="0"
               sodipodi:role="line"
               id="tspan238">72</tspan><tspan
               x="-0.17961299 4.2588239"
               y="13.499713"
               sodipodi:role="line"
               id="tspan240">68</tspan><tspan
               x="-0.17961299 4.2588239"
               y="27.29958"
               sodipodi:role="line"
               id="tspan242">64</tspan><tspan
               x="-0.36002427 4.0784125"
               y="40.859962"
               sodipodi:role="line"
               id="tspan244">60</tspan><tspan
               x="-0.77991956 3.6585171"
               y="54.599957"
               sodipodi:role="line"
               id="tspan246">56</tspan><tspan
               x="-0.66017759 3.7782593"
               y="68.280083"
               sodipodi:role="line"
               id="tspan248">52</tspan><tspan
               x="-0.60030657 3.8987994"
               y="82.439972"
               sodipodi:role="line"
               id="tspan250">48</tspan></text><path
             d="m 435.36,540.78 h 0.12 v 0.29999 h -0.12 z"
             style="fill:#000000;fill-opacity:1;fill-rule:nonzero;stroke:none"
             id="path254" /><path
             d="m 156.24,540.78 h 279.12 v 0.29999 H 156.24 Z"
             style="fill:#000000;fill-opacity:1;fill-rule:nonzero;stroke:none"
             id="path256" /><path
             d="m 156.6,484.44 h 0.12001 v 0.30002 H 156.6 Z"
             style="fill:#000000;fill-opacity:1;fill-rule:nonzero;stroke:none"
             id="path258" /><path
             d="m 156.72,484.44 h 279.54 v 0.30002 H 156.72 Z"
             style="fill:#000000;fill-opacity:1;fill-rule:nonzero;stroke:none"
             id="path260" /><path
             d="m 156.6,456.42 h 0.12001 v 0.29999 H 156.6 Z"
             style="fill:#000000;fill-opacity:1;fill-rule:nonzero;stroke:none"
             id="path262" /><path
             d="m 156.72,456.42 h 279.54 v 0.29999 H 156.72 Z"
             style="fill:#000000;fill-opacity:1;fill-rule:nonzero;stroke:none"
             id="path264" /><path
             d="m 156.6,470.46 h 0.12001 v 0.30002 H 156.6 Z"
             style="fill:#000000;fill-opacity:1;fill-rule:nonzero;stroke:none"
             id="path266" /><path
             d="m 156.72,470.46 h 279.54 v 0.30002 H 156.72 Z"
             style="fill:#000000;fill-opacity:1;fill-rule:nonzero;stroke:none"
             id="path268" /><path
             d="m 156.6,429.24 h 0.12001 v 0.30002 H 156.6 Z"
             style="fill:#000000;fill-opacity:1;fill-rule:nonzero;stroke:none"
             id="path270" /><path
             d="m 156.72,429.24 h 279.3 v 0.30002 h -279.3 z"
             style="fill:#000000;fill-opacity:1;fill-rule:nonzero;stroke:none"
             id="path272" /><path
             d="m 156.6,415.26 h 0.12001 v 0.29999 H 156.6 Z"
             style="fill:#000000;fill-opacity:1;fill-rule:nonzero;stroke:none"
             id="path274" /><path
             d="m 156.72,415.26 h 279.3 v 0.29999 h -279.3 z"
             style="fill:#000000;fill-opacity:1;fill-rule:nonzero;stroke:none"
             id="path276" /><text
             transform="matrix(1,0,0,-1,441.3,487.86)"
             style="font-variant:normal;font-weight:normal;font-stretch:normal;font-size:7.9828px;font-family:Arial;-inkscape-font-specification:Arial;writing-mode:lr-tb;fill:#000000;fill-opacity:1;fill-rule:nonzero;stroke:none"
             id="text292"><tspan
               x="0 4.438437"
               y="0"
               sodipodi:role="line"
               id="tspan278">44</tspan><tspan
               x="-0.17961299 4.2588239"
               y="13.499713"
               sodipodi:role="line"
               id="tspan280">40</tspan><tspan
               x="-0.17961299 4.2588239"
               y="27.29958"
               sodipodi:role="line"
               id="tspan282">36</tspan><tspan
               x="-0.36002427 4.0784125"
               y="40.859165"
               sodipodi:role="line"
               id="tspan284">32</tspan><tspan
               x="-0.77991956 3.6585171"
               y="54.599159"
               sodipodi:role="line"
               id="tspan286">28</tspan><tspan
               x="-0.66017759 3.7782593"
               y="68.279282"
               sodipodi:role="line"
               id="tspan288">24</tspan><tspan
               x="-0.60030657 3.8987994"
               y="82.439171"
               sodipodi:role="line"
               id="tspan290">20</tspan></text><path
             d="m 435.36,443.28 h 0.12 v 0.29999 h -0.12 z"
             style="fill:#000000;fill-opacity:1;fill-rule:nonzero;stroke:none"
             id="path294" /><path
             d="m 156.24,443.28 h 279.12 v 0.29999 H 156.24 Z"
             style="fill:#000000;fill-opacity:1;fill-rule:nonzero;stroke:none"
             id="path296" /><path
             d="m 296.64,415.2 h 0.29999 v 0.12 H 296.64 Z"
             style="fill:#000000;fill-opacity:1;fill-rule:nonzero;stroke:none"
             id="path298" /><path
             d="m 296.64,415.32 h 0.29999 v 14.64 H 296.64 Z"
             style="fill:#000000;fill-opacity:1;fill-rule:nonzero;stroke:none"
             id="path300" /><text
             transform="matrix(1,0,0,-1,357.72,419.16)"
             style="font-variant:normal;font-weight:normal;font-stretch:normal;font-size:7.9828px;font-family:Arial;-inkscape-font-specification:Arial;writing-mode:lr-tb;fill:#000000;fill-opacity:1;fill-rule:nonzero;stroke:none"
             id="text304"><tspan
               x="0 5.339695 10.67939"
               y="0"
               sodipodi:role="line"
               id="tspan302">SS2</tspan></text><path
             d="M 156.12,359.64 H 296.88 V 372.9 H 156.12 Z"
             style="fill:#e6e6e6;fill-opacity:1;fill-rule:nonzero;stroke:none"
             id="path306" /><path
             d="m 156.6,387.12 h 0.12001 v 0.30002 H 156.6 Z"
             style="fill:#000000;fill-opacity:1;fill-rule:nonzero;stroke:none"
             id="path308" /><path
             d="m 156.72,387.12 h 279.54 v 0.30002 H 156.72 Z"
             style="fill:#000000;fill-opacity:1;fill-rule:nonzero;stroke:none"
             id="path310" /><path
             d="m 156.6,359.1 h 0.12001 v 0.29999 H 156.6 Z"
             style="fill:#000000;fill-opacity:1;fill-rule:nonzero;stroke:none"
             id="path312" /><path
             d="m 156.72,359.1 h 279.54 v 0.29999 H 156.72 Z"
             style="fill:#000000;fill-opacity:1;fill-rule:nonzero;stroke:none"
             id="path314" /><path
             d="m 156.6,373.08 h 0.12001 v 0.30002 H 156.6 Z"
             style="fill:#000000;fill-opacity:1;fill-rule:nonzero;stroke:none"
             id="path316" /><path
             d="m 156.72,373.08 h 279.54 v 0.30002 H 156.72 Z"
             style="fill:#000000;fill-opacity:1;fill-rule:nonzero;stroke:none"
             id="path318" /><text
             transform="matrix(1,0,0,-1,441.3,390.54)"
             style="font-variant:normal;font-weight:normal;font-stretch:normal;font-size:7.9828px;font-family:Arial;-inkscape-font-specification:Arial;writing-mode:lr-tb;fill:#000000;fill-opacity:1;fill-rule:nonzero;stroke:none"
             id="text330"><tspan
               x="0 4.438437"
               y="0"
               sodipodi:role="line"
               id="tspan320">16</tspan><tspan
               x="-0.17961299 4.2588239"
               y="13.499713"
               sodipodi:role="line"
               id="tspan322">12</tspan><tspan
               x="-0.17961299"
               y="27.29958"
               id="tspan324">8</tspan><tspan
               x="-0.36002427"
               y="40.859165"
               id="tspan326">4</tspan><tspan
               x="-0.77991956"
               y="54.659031"
               id="tspan328">0</tspan></text><path
             d="m 296.64,331.98 h 0.29999 v 0.12 H 296.64 Z"
             style="fill:#000000;fill-opacity:1;fill-rule:nonzero;stroke:none"
             id="path332" /><path
             d="m 296.64,332.1 h 0.29999 v 14.46 H 296.64 Z"
             style="fill:#000000;fill-opacity:1;fill-rule:nonzero;stroke:none"
             id="path334" /><path
             d="m 435.36,345.96 h 0.12 v 0.30002 h -0.12 z"
             style="fill:#000000;fill-opacity:1;fill-rule:nonzero;stroke:none"
             id="path336" /><path
             d="m 156.24,345.96 h 279.12 v 0.30002 H 156.24 Z"
             style="fill:#000000;fill-opacity:1;fill-rule:nonzero;stroke:none"
             id="path338" /><text
             transform="matrix(1,0,0,-1,357.72,390.96)"
             style="font-variant:normal;font-weight:normal;font-stretch:normal;font-size:7.9828px;font-family:Arial;-inkscape-font-specification:Arial;writing-mode:lr-tb;fill:#000000;fill-opacity:1;fill-rule:nonzero;stroke:none"
             id="text348"><tspan
               x="0 5.339695 10.67939"
               y="0"
               sodipodi:role="line"
               id="tspan340">SS1</tspan><tspan
               x="0 5.339695 10.67939"
               y="27.720272"
               sodipodi:role="line"
               id="tspan342">SS0</tspan><tspan
               x="-72.239548 -66.899857 -61.560162 -56.220467"
               y="41.460266"
               sodipodi:role="line"
               id="tspan344">ESP0</tspan><tspan
               x="-39.179581 -33.85186 -31.190395 -26.748766 -22.754173 -20.978798 -16.537169 -12.095538 -8.1009455 -5.8793321 -1.8583958 2.5800409 6.5746341 10.569227 12.79084 17.23247 19.007845 23.449474"
               y="55.080521"
               sodipodi:role="line"
               id="tspan346">Previous Task Link</tspan></text><path
             d="m 156.6,401.28 h 0.12001 v 0.29999 H 156.6 Z"
             style="fill:#000000;fill-opacity:1;fill-rule:nonzero;stroke:none"
             id="path350" /><path
             d="m 156.72,401.28 h 279.3 v 0.29999 h -279.3 z"
             style="fill:#000000;fill-opacity:1;fill-rule:nonzero;stroke:none"
             id="path352" /><path
             d="m 156.6,595.8 h 0.12001 v 0.29999 H 156.6 Z"
             style="fill:#000000;fill-opacity:1;fill-rule:nonzero;stroke:none"
             id="path354" /><path
             d="m 156.72,595.8 h 279.3 v 0.29999 h -279.3 z"
             style="fill:#000000;fill-opacity:1;fill-rule:nonzero;stroke:none"
             id="path356" /><path
             d="m 156.6,498.42 h 0.12001 v 0.29999 H 156.6 Z"
             style="fill:#000000;fill-opacity:1;fill-rule:nonzero;stroke:none"
             id="path358" /><path
             d="m 156.72,498.42 h 279.3 v 0.29999 h -279.3 z"
             style="fill:#000000;fill-opacity:1;fill-rule:nonzero;stroke:none"
             id="path360" /><path
             d="m 156.18,692.64 h 280.5 v 1.02 h -280.5 z"
             style="fill:#000000;fill-opacity:1;fill-rule:nonzero;stroke:none"
             id="path362" /><path
             d="m 435.66,331.2 h 1.02 v 361.98 h -1.02 z"
             style="fill:#000000;fill-opacity:1;fill-rule:nonzero;stroke:none"
             id="path364" /><path
             d="m 155.7,331.2 h 280.44 v 1.02 H 155.7 Z"
             style="fill:#000000;fill-opacity:1;fill-rule:nonzero;stroke:none"
             id="path366" /><path
             d="m 155.7,331.74 h 1.02 v 361.92 h -1.02 z"
             style="fill:#000000;fill-opacity:1;fill-rule:nonzero;stroke:none"
             id="path368" /><path
             d="m 296.64,359.22 h 0.29999 v 0.12 H 296.64 Z"
             style="fill:#000000;fill-opacity:1;fill-rule:nonzero;stroke:none"
             id="path370" /><path
             d="m 296.64,359.34 h 0.29999 v 14.22 H 296.64 Z"
             style="fill:#000000;fill-opacity:1;fill-rule:nonzero;stroke:none"
             id="path372" /><path
             d="m 296.64,387.48 h 0.29999 v 0.12 H 296.64 Z"
             style="fill:#000000;fill-opacity:1;fill-rule:nonzero;stroke:none"
             id="path374" /><path
             d="m 296.64,387.6 h 0.29999 v 14.22 H 296.64 Z"
             style="fill:#000000;fill-opacity:1;fill-rule:nonzero;stroke:none"
             id="path376" /><text
             transform="matrix(1,0,0,-1,285.48,376.68)"
             style="font-variant:normal;font-weight:normal;font-stretch:normal;font-size:7.9828px;font-family:Arial;-inkscape-font-specification:Arial;writing-mode:lr-tb;fill:#000000;fill-opacity:1;fill-rule:nonzero;stroke:none"
             id="text410"><tspan
               x="0 5.339695 10.67939 16.019085"
               y="0"
               sodipodi:role="line"
               id="tspan378">ESP1</tspan><tspan
               x="0 5.339695 10.67939 16.019085"
               y="-28.379652"
               sodipodi:role="line"
               id="tspan380">ESP2</tspan><tspan
               x="-14.400173 -8.6373892 -2.8746064 1.5630323 3.7846456 6.4844284 11.824123 17.586906 22.910637 28.67342"
               y="-56.339409"
               sodipodi:role="line"
               id="tspan382">CR3 (PDBR)</tspan><tspan
               x="143.03979"
               y="-305.69894"
               id="tspan384">T</tspan><tspan
               x="75.300156 80.579979"
               y="-208.73904"
               sodipodi:role="line"
               id="tspan386">ES</tspan><tspan
               x="3.3599606 8.6900759 14.459246"
               y="-195.41895"
               sodipodi:role="line"
               id="tspan388">EDI</tspan><tspan
               x="3.6601138 8.9998083 14.339503"
               y="-181.13931"
               sodipodi:role="line"
               id="tspan390">ESI</tspan><tspan
               x="2.2200167 7.5597115 12.899406"
               y="-168.05949"
               sodipodi:role="line"
               id="tspan392">EBP</tspan><tspan
               x="2.2200167 7.5597115 12.899406"
               y="-154.19975"
               sodipodi:role="line"
               id="tspan394">ESP</tspan><tspan
               x="2.2200167 7.5597115 12.899406"
               y="-140.03987"
               sodipodi:role="line"
               id="tspan396">EBX</tspan><tspan
               x="1.9198633 7.1996875 13.018351"
               y="-126.12026"
               sodipodi:role="line"
               id="tspan398">EDX</tspan><tspan
               x="1.9198633 7.1996875 13.018351"
               y="-111.84062"
               sodipodi:role="line"
               id="tspan400">ECX</tspan><tspan
               x="2.2200167 7.5597115 12.899406"
               y="-98.100632"
               sodipodi:role="line"
               id="tspan402">EAX</tspan><tspan
               x="-6.6001792 -1.2604841 3.632174 8.1312799 13.411104 19.63689"
               y="-84.00061"
               sodipodi:role="line"
               id="tspan404">EFLAGS</tspan><tspan
               x="3.9594688 9.2927771 11.520777"
               y="-70.140869"
               sodipodi:role="line"
               id="tspan406">EIP</tspan><tspan
               x="-96.360382 -90.592804 -86.150375 -82.154984 -77.712555 -75.050293 -71.054901 -66.612473 -62.170048 -59.948433 -55.506004 -53.729832 -51.628757 -47.60862 -45.38541 -43.163799 -37.835278 -33.392849 -31.169641 -28.948029 -26.724817 -22.282389 -20.060776 -15.618348"
               y="60.418621"
               sodipodi:role="line"
               id="tspan408">Reserved bits. Set to 0.</tspan></text><path
             d="M 166.02,313.86 H 184.8 V 324.6 H 166.02 Z"
             style="fill:#e6e6e6;fill-opacity:1;fill-rule:nonzero;stroke:none"
             id="path412" /><path
             d="m 166.02,324.42 h 18.96 v 0.29999 h -18.96 z"
             style="fill:#000000;fill-opacity:1;fill-rule:nonzero;stroke:none"
             id="path414" /><path
             d="m 184.68,313.68 h 0.3 v 10.92 h -0.3 z"
             style="fill:#000000;fill-opacity:1;fill-rule:nonzero;stroke:none"
             id="path416" /><path
             d="m 165.9,313.68 h 18.9 v 0.30002 h -18.9 z"
             style="fill:#000000;fill-opacity:1;fill-rule:nonzero;stroke:none"
             id="path418" /><path
             d="m 165.9,313.86 h 0.3 v 10.86 h -0.3 z"
             style="fill:#000000;fill-opacity:1;fill-rule:nonzero;stroke:none"
             id="path420" /><text
             transform="matrix(1,0,0,-1,210.12,363.96)"
             style="font-variant:normal;font-weight:normal;font-stretch:normal;font-size:7.9828px;font-family:Arial;-inkscape-font-specification:Arial;writing-mode:lr-tb;fill:#000000;fill-opacity:1;fill-rule:nonzero;stroke:none"
             id="text446"><tspan
               x="0 5.7675729 10.210001 14.205393 18.647821 21.347603 25.307871 29.750299"
               y="0"
               sodipodi:role="line"
               id="tspan422">Reserved</tspan><tspan
               x="-0.53963727 5.2279358 9.6703644 13.665755 18.108183 20.770447 24.765839 29.208267"
               y="-28.440323"
               sodipodi:role="line"
               id="tspan424">Reserved</tspan><tspan
               x="-0.59950829 5.1680646 9.6104927 13.605885 18.048313 20.710577 24.705967 29.148396"
               y="-56.340206"
               sodipodi:role="line"
               id="tspan426">Reserved</tspan><tspan
               x="-1.0792745 4.6882982 9.1307268 13.126118 17.568546 20.23081 24.226202 28.668629"
               y="27.239708"
               sodipodi:role="line"
               id="tspan428">Reserved</tspan><tspan
               x="-2.6989846 3.0574124 7.4886646 11.47288 15.971986 18.623074 22.60729 27.038542"
               y="-237.89941"
               sodipodi:role="line"
               id="tspan430">Reserved</tspan><tspan
               x="-2.1593473 3.6082256 8.0506535 12.046045 16.488474 19.150738 23.146128 27.588556"
               y="-222.89973"
               sodipodi:role="line"
               id="tspan432">Reserved</tspan><tspan
               x="-3.2394202 2.5281527 6.9705811 10.965972 15.408401 18.070663 22.066055 26.508484"
               y="-304.85995"
               sodipodi:role="line"
               id="tspan434">Reserved</tspan><tspan
               x="-3.8397267 1.9693568 6.4077935 10.368061 14.806498 17.510271 21.547174 25.985611"
               y="-292.08026"
               sodipodi:role="line"
               id="tspan436">Reserved</tspan><tspan
               x="-3.3000896 2.4674835 6.9099116 10.905303 15.347732 18.009995 22.005386 26.447815"
               y="-278.70029"
               sodipodi:role="line"
               id="tspan438">Reserved</tspan><tspan
               x="-3.3599606 2.4076126 6.8500409 10.845432 15.28786 17.987642 21.94791 26.390339"
               y="-264.84058"
               sodipodi:role="line"
               id="tspan440">Reserved</tspan><tspan
               x="-3.3599606 2.4076126 6.8500409 10.845432 15.28786 17.950125 21.945515 26.387943"
               y="-251.46059"
               sodipodi:role="line"
               id="tspan442">Reserved</tspan><tspan
               x="136.37975 142.19841 146.63686 150.59712 155.09622 157.73613 161.75627 166.19472"
               y="-320.04004"
               sodipodi:role="line"
               id="tspan444">Reserved</tspan></text></g></g></g></g></svg>
