<?xml version="1.0" encoding="UTF-8" standalone="no"?>
<svg
   xmlns:dc="http://purl.org/dc/elements/1.1/"
   xmlns:cc="http://creativecommons.org/ns#"
   xmlns:rdf="http://www.w3.org/1999/02/22-rdf-syntax-ns#"
   xmlns:svg="http://www.w3.org/2000/svg"
   xmlns="http://www.w3.org/2000/svg"
   version="1.1"
   id="svg2"
   xml:space="preserve"
   width="368.7132"
   height="308.33066"
   viewBox="0 0 368.7132 308.33066"><metadata
     id="metadata8"><rdf:RDF><cc:Work
         rdf:about=""><dc:format>image/svg+xml</dc:format><dc:type
           rdf:resource="http://purl.org/dc/dcmitype/StillImage" /><dc:title></dc:title></cc:Work></rdf:RDF></metadata><defs
     id="defs6"><clipPath
       clipPathUnits="userSpaceOnUse"
       id="clipPath20"><path
         d="M 0,0 H 539 V 665 H 0 Z"
         id="path18" /></clipPath></defs><g
     id="g10"
     transform="matrix(1.3333333,0,0,-1.3333333,-110.204,830.05265)"><g
       id="g12" /><g
       id="g28"
       transform="translate(-28,-28)"><text
         transform="matrix(1,0,0,-1,198.3127,631.205)"
         style="font-variant:normal;font-weight:normal;font-size:8px;font-family:Helvetica;-inkscape-font-specification:Helvetica;writing-mode:lr-tb;fill:#00adef;fill-opacity:1;fill-rule:nonzero;stroke:none"
         id="text32"><tspan
           x="0 5.336 7.112 11.4 15.208 19.656 22.656"
           y="0"
           id="tspan30">Binvert</tspan></text></g><g
       id="g34"
       transform="translate(182.756,599.979)"><path
         d="M 0,0 V -92.848"
         style="fill:none;stroke:#00adef;stroke-width:0.5;stroke-linecap:butt;stroke-linejoin:miter;stroke-miterlimit:4;stroke-dasharray:none;stroke-opacity:1"
         id="path36" /></g><path
       d="m 183.397,505.653 c 0.312,1.034 0.599,1.705 0.932,2.534 h -3.153 c 0.142,-0.297 0.621,-1.5 0.933,-2.534 0.334,-1.105 0.562,-2.108 0.644,-2.759 0.081,0.651 0.31,1.654 0.644,2.759"
       style="fill:#00adef;fill-opacity:1;fill-rule:nonzero;stroke:none"
       id="path38" /><path
       d="m 227.229,583.584 v -27.001 h 20.25 c 0,0 13.502,0 13.502,13.501 0,13.5 -13.502,13.5 -13.502,13.5 h -20.25"
       style="fill:#ffffff;fill-opacity:1;fill-rule:nonzero;stroke:none"
       id="path40" /><g
       id="g42"
       transform="translate(227.229,583.584)"><path
         d="m 0,0 v -27.001 h 20.25 c 0,0 13.502,0 13.502,13.501 C 33.752,0 20.25,0 20.25,0 Z"
         style="fill:none;stroke:#231f20;stroke-width:1;stroke-linecap:butt;stroke-linejoin:miter;stroke-miterlimit:4;stroke-dasharray:none;stroke-opacity:1"
         id="path44" /></g><path
       d="m 220.48,541.176 c 0,0 5.785,-6.749 5.785,-13.5 0,-6.751 -5.785,-13.501 -5.785,-13.501 h 23.143 c 0,0 11.573,0.002 17.358,13.501 v 10e-4 c -5.785,13.499 -17.358,13.5 -17.358,13.5 l -23.143,-10e-4"
       style="fill:#ffffff;fill-opacity:1;fill-rule:nonzero;stroke:none"
       id="path46" /><g
       id="g48"
       transform="translate(220.48,541.176)"><path
         d="M 0,0 C 0,0 5.785,-6.749 5.785,-13.5 5.785,-20.251 0,-27.001 0,-27.001 h 23.143 c 0,0 11.573,0.002 17.358,13.501 v 10e-4 C 34.716,0 23.143,0.001 23.143,0.001 Z"
         style="fill:none;stroke:#231f20;stroke-width:1;stroke-linecap:butt;stroke-linejoin:miter;stroke-miterlimit:4;stroke-dasharray:none;stroke-opacity:1"
         id="path50" /></g><g
       id="g52"
       transform="translate(220.409,534.481)"><path
         d="M 0,0 H -18.162"
         style="fill:none;stroke:#231f20;stroke-width:0.5;stroke-linecap:butt;stroke-linejoin:miter;stroke-miterlimit:4;stroke-dasharray:none;stroke-opacity:1"
         id="path54" /></g><path
       d="m 221.885,535.121 c -1.033,0.312 -1.705,0.6 -2.534,0.932 V 532.9 c 0.297,0.141 1.501,0.621 2.534,0.933 1.106,0.334 2.109,0.562 2.759,0.644 -0.65,0.082 -1.653,0.31 -2.759,0.644"
       style="fill:#231f20;fill-opacity:1;fill-rule:nonzero;stroke:none"
       id="path56" /><g
       id="g58"
       transform="translate(222.926,563.637)"><path
         d="M 0,0 H -13.889 V -43.319"
         style="fill:none;stroke:#231f20;stroke-width:0.5;stroke-linecap:butt;stroke-linejoin:miter;stroke-miterlimit:4;stroke-dasharray:none;stroke-opacity:1"
         id="path60" /></g><path
       d="m 224.402,564.278 c -1.034,0.312 -1.705,0.6 -2.534,0.932 v -3.153 c 0.296,0.141 1.5,0.621 2.534,0.933 1.106,0.334 2.109,0.562 2.759,0.644 -0.65,0.082 -1.653,0.31 -2.759,0.644"
       style="fill:#231f20;fill-opacity:1;fill-rule:nonzero;stroke:none"
       id="path62" /><g
       id="g64"
       transform="translate(-28,-28)"><text
         transform="matrix(1,0,0,-1,122.5634,603.8607)"
         style="font-variant:normal;font-weight:normal;font-size:8px;font-family:Helvetica;-inkscape-font-specification:Helvetica;writing-mode:lr-tb;fill:#231f20;fill-opacity:1;fill-rule:nonzero;stroke:none"
         id="text68"><tspan
           x="0"
           y="0"
           id="tspan66">a</tspan></text></g><g
       id="g70"
       transform="translate(229.499,477.289)"><path
         d="M 0,0 H -34.83"
         style="fill:none;stroke:#231f20;stroke-width:0.5;stroke-linecap:butt;stroke-linejoin:miter;stroke-miterlimit:4;stroke-dasharray:none;stroke-opacity:1"
         id="path72" /></g><path
       d="m 230.975,477.93 c -1.033,0.312 -1.705,0.6 -2.533,0.932 v -3.153 c 0.296,0.141 1.5,0.621 2.533,0.933 1.106,0.334 2.109,0.562 2.76,0.644 -0.651,0.082 -1.654,0.31 -2.76,0.644"
       style="fill:#231f20;fill-opacity:1;fill-rule:nonzero;stroke:none"
       id="path74" /><g
       id="g76"
       transform="translate(-28,-28)"><text
         transform="matrix(1,0,0,-1,122.5898,518.0695)"
         style="font-variant:normal;font-weight:normal;font-size:8px;font-family:Helvetica;-inkscape-font-specification:Helvetica;writing-mode:lr-tb;fill:#231f20;fill-opacity:1;fill-rule:nonzero;stroke:none"
         id="text80"><tspan
           x="0"
           y="0"
           id="tspan78">b</tspan></text></g><path
       d="m 210.686,477.361 c 0,-0.968 -0.783,-1.75 -1.75,-1.75 -0.968,0 -1.75,0.782 -1.75,1.75 0,0.966 0.782,1.75 1.75,1.75 0.967,0 1.75,-0.784 1.75,-1.75"
       style="fill:#231f20;fill-opacity:1;fill-rule:nonzero;stroke:none"
       id="path82" /><g
       id="g84"
       transform="translate(-28,-28)"><text
         transform="matrix(1,0,0,-1,288.679,631.1254)"
         style="font-variant:normal;font-weight:normal;font-size:8px;font-family:Helvetica;-inkscape-font-specification:Helvetica;writing-mode:lr-tb;fill:#231f20;fill-opacity:1;fill-rule:nonzero;stroke:none"
         id="text88"><tspan
           x="0 5.776 10.224 12.888 15.8 19.799999 22.024"
           y="0"
           id="tspan86">CarryIn</tspan></text></g><path
       d="m 203.837,534.482 c 0,-0.966 -0.784,-1.75 -1.75,-1.75 -0.967,0 -1.75,0.784 -1.75,1.75 0,0.966 0.783,1.75 1.75,1.75 0.966,0 1.75,-0.784 1.75,-1.75"
       style="fill:#231f20;fill-opacity:1;fill-rule:nonzero;stroke:none"
       id="path90" /><g
       id="g92"
       transform="translate(146.39,577.388)"><path
         d="M 0,0 H -44.431"
         style="fill:none;stroke:#231f20;stroke-width:0.5;stroke-linecap:butt;stroke-linejoin:miter;stroke-miterlimit:4;stroke-dasharray:none;stroke-opacity:1"
         id="path94" /></g><g
       id="g96"
       transform="translate(222.982,577.388)"><path
         d="M 0,0 H -52.62"
         style="fill:none;stroke:#231f20;stroke-width:0.5;stroke-linecap:butt;stroke-linejoin:miter;stroke-miterlimit:4;stroke-dasharray:none;stroke-opacity:1"
         id="path98" /></g><path
       d="m 224.458,578.029 c -1.033,0.312 -1.705,0.6 -2.534,0.932 v -3.153 c 0.297,0.141 1.501,0.621 2.534,0.933 1.106,0.334 2.109,0.562 2.759,0.644 -0.65,0.082 -1.653,0.31 -2.759,0.644"
       style="fill:#231f20;fill-opacity:1;fill-rule:nonzero;stroke:none"
       id="path100" /><path
       d="m 204.02,577.405 c 0,-0.966 -0.783,-1.75 -1.75,-1.75 -0.966,0 -1.75,0.784 -1.75,1.75 0,0.966 0.784,1.75 1.75,1.75 0.967,0 1.75,-0.784 1.75,-1.75"
       style="fill:#231f20;fill-opacity:1;fill-rule:nonzero;stroke:none"
       id="path102" /><g
       id="g104"
       transform="translate(208.936,477.357)"><path
         d="M 0,0 V 42.672 H 11.075"
         style="fill:none;stroke:#231f20;stroke-width:0.5;stroke-linecap:butt;stroke-linejoin:miter;stroke-miterlimit:4;stroke-dasharray:none;stroke-opacity:1"
         id="path106" /></g><path
       d="m 221.487,520.669 c -1.033,0.312 -1.705,0.6 -2.534,0.932 v -3.152 c 0.297,0.141 1.501,0.62 2.534,0.932 1.106,0.334 2.109,0.563 2.759,0.644 -0.65,0.082 -1.653,0.31 -2.759,0.644"
       style="fill:#231f20;fill-opacity:1;fill-rule:nonzero;stroke:none"
       id="path108" /><g
       id="g110"
       transform="translate(-28,-28)"><text
         transform="matrix(1,0,0,-1,258.9529,421.0355)"
         style="font-variant:normal;font-weight:normal;font-size:8px;font-family:Helvetica;-inkscape-font-specification:Helvetica;writing-mode:lr-tb;fill:#231f20;fill-opacity:1;fill-rule:nonzero;stroke:none"
         id="text114"><tspan
           x="0 5.776 10.224 12.888 15.8 19.799999 26.024 30.472"
           y="0"
           id="tspan112">CarryOut</tspan></text></g><g
       id="g116"
       transform="translate(-28,-28)"><text
         transform="matrix(1,0,0,-1,310.1609,644.5635)"
         style="font-variant:normal;font-weight:normal;font-size:8px;font-family:Helvetica;-inkscape-font-specification:Helvetica;writing-mode:lr-tb;fill:#00adef;fill-opacity:1;fill-rule:nonzero;stroke:none"
         id="text120"><tspan
           x="0 6.224 10.672 15.12 17.704 22.152 24.375999 26.152 30.6"
           y="0"
           id="tspan118">Operation</tspan></text></g><g
       id="g122"
       transform="translate(299.764,613.334)"><path
         d="M 0,0 V -26.605"
         style="fill:none;stroke:#00adef;stroke-width:0.5;stroke-linecap:butt;stroke-linejoin:miter;stroke-miterlimit:4;stroke-dasharray:none;stroke-opacity:1"
         id="path124" /></g><path
       d="m 300.405,585.253 c 0.312,1.034 0.599,1.705 0.931,2.534 h -3.152 c 0.141,-0.297 0.621,-1.5 0.932,-2.534 0.334,-1.106 0.562,-2.108 0.644,-2.759 0.082,0.651 0.311,1.653 0.645,2.759"
       style="fill:#00adef;fill-opacity:1;fill-rule:nonzero;stroke:none"
       id="path126" /><g
       id="g128"
       transform="translate(-28,-28)"><text
         transform="matrix(1,0,0,-1,322.8759,553.8676)"
         style="font-variant:normal;font-weight:normal;font-size:8px;font-family:Helvetica;-inkscape-font-specification:Helvetica;writing-mode:lr-tb;fill:#231f20;fill-opacity:1;fill-rule:nonzero;stroke:none"
         id="text132"><tspan
           x="0"
           y="0"
           id="tspan130">1</tspan></text></g><g
       id="g134"
       transform="translate(-28,-28)"><text
         transform="matrix(1,0,0,-1,322.8759,595.9156)"
         style="font-variant:normal;font-weight:normal;font-size:8px;font-family:Helvetica;-inkscape-font-specification:Helvetica;writing-mode:lr-tb;fill:#231f20;fill-opacity:1;fill-rule:nonzero;stroke:none"
         id="text138"><tspan
           x="0"
           y="0"
           id="tspan136">0</tspan></text></g><g
       id="g140"
       transform="translate(311.225,440.672)"><path
         d="m 0,0 c 0,-6.628 -3.358,-12 -9.984,-12 h -3 c -6.627,0 -9.985,5.372 -9.985,12 v 129.915 c 0,6.627 3.358,12 9.985,12 h 3 c 6.626,0 9.984,-5.373 9.984,-12 z"
         style="fill:none;stroke:#231f20;stroke-width:1;stroke-linecap:butt;stroke-linejoin:miter;stroke-miterlimit:4;stroke-dasharray:none;stroke-opacity:1"
         id="path142" /></g><g
       id="g144"
       transform="translate(-28,-28)"><text
         transform="matrix(1,0,0,-1,322.851,509.9225)"
         style="font-variant:normal;font-weight:normal;font-size:8px;font-family:Helvetica;-inkscape-font-specification:Helvetica;writing-mode:lr-tb;fill:#231f20;fill-opacity:1;fill-rule:nonzero;stroke:none"
         id="text148"><tspan
           x="0"
           y="0"
           id="tspan146">2</tspan></text></g><g
       id="g150"
       transform="translate(202.133,577.658)"><path
         d="M 0,0 V -87.108 H 27.385"
         style="fill:none;stroke:#231f20;stroke-width:0.5;stroke-linecap:butt;stroke-linejoin:miter;stroke-miterlimit:4;stroke-dasharray:none;stroke-opacity:1"
         id="path152" /></g><path
       d="m 230.994,491.191 c -1.033,0.312 -1.705,0.599 -2.533,0.932 v -3.153 c 0.296,0.141 1.5,0.621 2.533,0.933 1.106,0.334 2.11,0.562 2.76,0.644 -0.65,0.081 -1.654,0.31 -2.76,0.644"
       style="fill:#231f20;fill-opacity:1;fill-rule:nonzero;stroke:none"
       id="path154" /><path
       d="m 210.751,519.842 c 0,-0.966 -0.784,-1.75 -1.75,-1.75 -0.967,0 -1.75,0.784 -1.75,1.75 0,0.966 0.783,1.75 1.75,1.75 0.966,0 1.75,-0.784 1.75,-1.75"
       style="fill:#231f20;fill-opacity:1;fill-rule:nonzero;stroke:none"
       id="path156" /><path
       d="m 233.711,469.621 h 27.27 v 27.27 h -27.27 z"
       style="fill:#ffffff;fill-opacity:1;fill-rule:nonzero;stroke:none"
       id="path158" /><g
       id="g160"
       transform="translate(-28,-28)"><path
         d="m 288.981,497.621 h -27.27 v 27.27 h 27.27 z"
         style="fill:none;stroke:#231f20;stroke-width:1;stroke-linecap:butt;stroke-linejoin:miter;stroke-miterlimit:4;stroke-dasharray:none;stroke-opacity:1"
         id="path162" /></g><g
       id="g164"
       transform="translate(-28,-28)"><text
         transform="matrix(1,0,0,-1,272.0139,508.6725)"
         style="font-variant:normal;font-size:8px;font-family:MathematicalPi;-inkscape-font-specification:MathematicalPi-One;writing-mode:lr-tb;fill:#231f20;fill-opacity:1;fill-rule:nonzero;stroke:none"
         id="text168"><tspan
           x="0"
           y="0"
           id="tspan166">&quot;</tspan></text></g><g
       id="g170"
       transform="translate(247.233,405.557)"><path
         d="M 0,0 V 63.664"
         style="fill:none;stroke:#231f20;stroke-width:0.5;stroke-linecap:butt;stroke-linejoin:miter;stroke-miterlimit:4;stroke-dasharray:none;stroke-opacity:1"
         id="path172" /></g><path
       d="m 247.873,404.081 c 0.313,1.033 0.6,1.705 0.934,2.534 h -3.154 c 0.142,-0.297 0.621,-1.501 0.933,-2.534 0.334,-1.106 0.563,-2.108 0.645,-2.759 0.08,0.651 0.308,1.653 0.642,2.759"
       style="fill:#231f20;fill-opacity:1;fill-rule:nonzero;stroke:none"
       id="path174" /><g
       id="g176"
       transform="translate(247.092,501.115)"><path
         d="M 0,0 V 6.804 H 26.666 V 98.755"
         style="fill:none;stroke:#231f20;stroke-width:0.5;stroke-linecap:butt;stroke-linejoin:miter;stroke-miterlimit:4;stroke-dasharray:none;stroke-opacity:1"
         id="path178" /></g><path
       d="m 247.733,499.639 c 0.312,1.033 0.599,1.705 0.933,2.534 h -3.154 c 0.143,-0.297 0.621,-1.501 0.934,-2.534 0.334,-1.106 0.562,-2.109 0.644,-2.759 0.08,0.65 0.309,1.653 0.643,2.759"
       style="fill:#231f20;fill-opacity:1;fill-rule:nonzero;stroke:none"
       id="path180" /><g
       id="g182"
       transform="translate(260.951,570.378)"><path
         d="M 0,0 H 26.768"
         style="fill:none;stroke:#231f20;stroke-width:0.5;stroke-linecap:butt;stroke-linejoin:miter;stroke-miterlimit:4;stroke-dasharray:none;stroke-opacity:1"
         id="path184" /></g><g
       id="g186"
       transform="translate(260.951,527.716)"><path
         d="M 0,0 H 26.768"
         style="fill:none;stroke:#231f20;stroke-width:0.5;stroke-linecap:butt;stroke-linejoin:miter;stroke-miterlimit:4;stroke-dasharray:none;stroke-opacity:1"
         id="path188" /></g><g
       id="g190"
       transform="translate(260.951,483.38)"><path
         d="M 0,0 H 26.768"
         style="fill:none;stroke:#231f20;stroke-width:0.5;stroke-linecap:butt;stroke-linejoin:miter;stroke-miterlimit:4;stroke-dasharray:none;stroke-opacity:1"
         id="path192" /></g><g
       id="g194"
       transform="translate(329.801,505.875)"><path
         d="M 0,0 H -18.162"
         style="fill:none;stroke:#231f20;stroke-width:0.5;stroke-linecap:butt;stroke-linejoin:miter;stroke-miterlimit:4;stroke-dasharray:none;stroke-opacity:1"
         id="path196" /></g><path
       d="m 331.278,506.516 c -1.034,0.313 -1.705,0.6 -2.534,0.933 v -3.153 c 0.297,0.141 1.5,0.62 2.534,0.932 1.105,0.334 2.109,0.563 2.759,0.644 -0.65,0.082 -1.654,0.311 -2.759,0.644"
       style="fill:#231f20;fill-opacity:1;fill-rule:nonzero;stroke:none"
       id="path198" /><g
       id="g200"
       transform="translate(-28,-28)"><text
         transform="matrix(1,0,0,-1,364.7079,530.9315)"
         style="font-variant:normal;font-weight:normal;font-size:8px;font-family:Helvetica;-inkscape-font-specification:Helvetica;writing-mode:lr-tb;fill:#231f20;fill-opacity:1;fill-rule:nonzero;stroke:none"
         id="text204"><tspan
           x="0 5.776 10.224 14.224 18.672001 20.448"
           y="0"
           id="tspan202">Result</tspan></text></g><g
       id="g206"
       transform="translate(-28,-28)"><path
         d="M 345.555,444.13 H 136.49 v 180.448 h 209.065 z"
         style="fill:none;stroke:#231f20;stroke-width:0.75;stroke-linecap:butt;stroke-linejoin:miter;stroke-miterlimit:4;stroke-dasharray:none;stroke-opacity:1"
         id="path208" /></g><g
       id="g210"
       transform="translate(-28,-28)"><text
         transform="matrix(1,0,0,-1,208.5287,491.9615)"
         style="font-variant:normal;font-weight:normal;font-size:8px;font-family:Helvetica;-inkscape-font-specification:Helvetica;writing-mode:lr-tb;fill:#231f20;fill-opacity:1;fill-rule:nonzero;stroke:none"
         id="text214"><tspan
           x="0"
           y="0"
           id="tspan212">1</tspan></text></g><g
       id="g216"
       transform="translate(-28,-28)"><text
         transform="matrix(1,0,0,-1,208.5287,516.3855)"
         style="font-variant:normal;font-weight:normal;font-size:8px;font-family:Helvetica;-inkscape-font-specification:Helvetica;writing-mode:lr-tb;fill:#231f20;fill-opacity:1;fill-rule:nonzero;stroke:none"
         id="text220"><tspan
           x="0"
           y="0"
           id="tspan218">0</tspan></text></g><g
       id="g222"
       transform="translate(194.707,464.031)"><path
         d="m 0,0 c 0,-6.627 -3.358,-12 -9.985,-12 h -2.999 c -6.627,0 -9.985,5.373 -9.985,12 v 27.026 c 0,6.627 3.358,12 9.985,12 h 2.999 c 6.627,0 9.985,-5.373 9.985,-12 z"
         style="fill:none;stroke:#231f20;stroke-width:1;stroke-linecap:butt;stroke-linejoin:miter;stroke-miterlimit:4;stroke-dasharray:none;stroke-opacity:1"
         id="path224" /></g><g
       id="g226"
       transform="translate(171.475,492.16)"><path
         d="M 0,0 H -69.442"
         style="fill:none;stroke:#231f20;stroke-width:0.5;stroke-linecap:butt;stroke-linejoin:miter;stroke-miterlimit:4;stroke-dasharray:none;stroke-opacity:1"
         id="path228" /></g><path
       d="m 141.116,492.193 c 0,-0.967 -0.784,-1.75 -1.75,-1.75 -0.966,0 -1.75,0.783 -1.75,1.75 0,0.966 0.784,1.75 1.75,1.75 0.966,0 1.75,-0.784 1.75,-1.75"
       style="fill:#231f20;fill-opacity:1;fill-rule:nonzero;stroke:none"
       id="path230" /><g
       id="g232"
       transform="translate(139.366,492.193)"><path
         d="M 0,0 V -25.258 H 32.194"
         style="fill:none;stroke:#231f20;stroke-width:0.5;stroke-linecap:butt;stroke-linejoin:miter;stroke-miterlimit:4;stroke-dasharray:none;stroke-opacity:1"
         id="path234" /></g><path
       d="m 145.039,476.133 v -18.555 l 13.918,9.277 -13.918,9.278"
       style="fill:#ffffff;fill-opacity:1;fill-rule:nonzero;stroke:none"
       id="path236" /><g
       id="g238"
       transform="translate(145.039,476.133)"><path
         d="m 0,0 v -18.555 l 13.918,9.277 z"
         style="fill:none;stroke:#231f20;stroke-width:1;stroke-linecap:butt;stroke-linejoin:miter;stroke-miterlimit:4;stroke-dasharray:none;stroke-opacity:1"
         id="path240" /></g><path
       d="m 163.595,466.839 c 0,-1.171 -0.949,-2.12 -2.119,-2.12 -1.172,0 -2.119,0.949 -2.119,2.12 0,1.171 0.947,2.119 2.119,2.119 1.17,0 2.119,-0.948 2.119,-2.119"
       style="fill:#ffffff;fill-opacity:1;fill-rule:nonzero;stroke:none"
       id="path242" /><g
       id="g244"
       transform="translate(163.595,466.839)"><path
         d="m 0,0 c 0,-1.171 -0.949,-2.12 -2.119,-2.12 -1.172,0 -2.119,0.949 -2.119,2.12 0,1.171 0.947,2.119 2.119,2.119 C -0.949,2.119 0,1.171 0,0 Z"
         style="fill:none;stroke:#231f20;stroke-width:1;stroke-linecap:butt;stroke-linejoin:miter;stroke-miterlimit:4;stroke-dasharray:none;stroke-opacity:1"
         id="path246" /></g><g
       id="g248"
       transform="translate(-28,-28)"><text
         transform="matrix(1,0,0,-1,172.7693,642.0492)"
         style="font-variant:normal;font-weight:normal;font-size:8px;font-family:Helvetica;-inkscape-font-specification:Helvetica;writing-mode:lr-tb;fill:#00adef;fill-opacity:1;fill-rule:nonzero;stroke:none"
         id="text252"><tspan
           x="0 5.336 7.112 11.4 15.208 19.656 22.656"
           y="0"
           id="tspan250">Ainvert</tspan></text></g><g
       id="g254"
       transform="translate(157.213,610.823)"><path
         d="M 0,0 V -18.647"
         style="fill:none;stroke:#00adef;stroke-width:0.5;stroke-linecap:butt;stroke-linejoin:miter;stroke-miterlimit:4;stroke-dasharray:none;stroke-opacity:1"
         id="path256" /></g><path
       d="m 157.853,590.699 c 0.312,1.034 0.6,1.705 0.933,2.534 h -3.154 c 0.142,-0.297 0.621,-1.5 0.933,-2.534 0.334,-1.106 0.562,-2.108 0.644,-2.759 0.082,0.651 0.31,1.653 0.644,2.759"
       style="fill:#00adef;fill-opacity:1;fill-rule:nonzero;stroke:none"
       id="path258" /><g
       id="g260"
       transform="translate(-28,-28)"><text
         transform="matrix(1,0,0,-1,182.9853,577.0067)"
         style="font-variant:normal;font-weight:normal;font-size:8px;font-family:Helvetica;-inkscape-font-specification:Helvetica;writing-mode:lr-tb;fill:#231f20;fill-opacity:1;fill-rule:nonzero;stroke:none"
         id="text264"><tspan
           x="0"
           y="0"
           id="tspan262">1</tspan></text></g><g
       id="g266"
       transform="translate(-28,-28)"><text
         transform="matrix(1,0,0,-1,182.9853,601.4307)"
         style="font-variant:normal;font-weight:normal;font-size:8px;font-family:Helvetica;-inkscape-font-specification:Helvetica;writing-mode:lr-tb;fill:#231f20;fill-opacity:1;fill-rule:nonzero;stroke:none"
         id="text270"><tspan
           x="0"
           y="0"
           id="tspan268">0</tspan></text></g><g
       id="g272"
       transform="translate(170.163,549.077)"><path
         d="m 0,0 c 0,-6.627 -3.357,-12 -9.984,-12 h -3 c -6.627,0 -9.985,5.373 -9.985,12 v 27.026 c 0,6.627 3.358,12 9.985,12 h 3 c 6.627,0 9.984,-5.373 9.984,-12 z"
         style="fill:none;stroke:#231f20;stroke-width:1;stroke-linecap:butt;stroke-linejoin:miter;stroke-miterlimit:4;stroke-dasharray:none;stroke-opacity:1"
         id="path274" /></g><path
       d="m 116.573,577.239 c 0,-0.966 -0.784,-1.75 -1.75,-1.75 -0.966,0 -1.75,0.784 -1.75,1.75 0,0.966 0.784,1.75 1.75,1.75 0.966,0 1.75,-0.784 1.75,-1.75"
       style="fill:#231f20;fill-opacity:1;fill-rule:nonzero;stroke:none"
       id="path276" /><g
       id="g278"
       transform="translate(114.823,577.239)"><path
         d="M 0,0 V -25.257 H 32.194"
         style="fill:none;stroke:#231f20;stroke-width:0.5;stroke-linecap:butt;stroke-linejoin:miter;stroke-miterlimit:4;stroke-dasharray:none;stroke-opacity:1"
         id="path280" /></g><path
       d="m 120.495,561.179 v -18.556 l 13.917,9.278 -13.917,9.278"
       style="fill:#ffffff;fill-opacity:1;fill-rule:nonzero;stroke:none"
       id="path282" /><g
       id="g284"
       transform="translate(120.495,561.179)"><path
         d="m 0,0 v -18.556 l 13.917,9.278 z"
         style="fill:none;stroke:#231f20;stroke-width:1;stroke-linecap:butt;stroke-linejoin:miter;stroke-miterlimit:4;stroke-dasharray:none;stroke-opacity:1"
         id="path286" /></g><path
       d="m 139.052,551.885 c 0,-1.171 -0.949,-2.12 -2.119,-2.12 -1.172,0 -2.119,0.949 -2.119,2.12 0,1.171 0.947,2.12 2.119,2.12 1.17,0 2.119,-0.949 2.119,-2.12"
       style="fill:#ffffff;fill-opacity:1;fill-rule:nonzero;stroke:none"
       id="path288" /><g
       id="g290"
       transform="translate(139.052,551.885)"><path
         d="m 0,0 c 0,-1.171 -0.949,-2.12 -2.119,-2.12 -1.172,0 -2.119,0.949 -2.119,2.12 0,1.171 0.947,2.12 2.119,2.12 C -0.949,2.12 0,1.171 0,0 Z"
         style="fill:none;stroke:#231f20;stroke-width:1;stroke-linecap:butt;stroke-linejoin:miter;stroke-miterlimit:4;stroke-dasharray:none;stroke-opacity:1"
         id="path292" /></g><g
       id="g294"
       transform="translate(-28,-28)"><text
         transform="matrix(1,0,0,-1,322.835,466.0915)"
         style="font-variant:normal;font-weight:normal;font-size:8px;font-family:Helvetica;-inkscape-font-specification:Helvetica;writing-mode:lr-tb;fill:#231f20;fill-opacity:1;fill-rule:nonzero;stroke:none"
         id="text298"><tspan
           x="0"
           y="0"
           id="tspan296">3</tspan></text></g><g
       id="g300"
       transform="translate(284.153,440.936)"><path
         d="M 0,0 H -181.692"
         style="fill:none;stroke:#231f20;stroke-width:0.5;stroke-linecap:butt;stroke-linejoin:miter;stroke-miterlimit:4;stroke-dasharray:none;stroke-opacity:1"
         id="path302" /></g><path
       d="m 285.629,441.577 c -1.033,0.312 -1.705,0.6 -2.535,0.932 v -3.153 c 0.297,0.141 1.502,0.621 2.535,0.933 1.106,0.334 2.108,0.562 2.758,0.644 -0.65,0.082 -1.652,0.31 -2.758,0.644"
       style="fill:#231f20;fill-opacity:1;fill-rule:nonzero;stroke:none"
       id="path304" /><g
       id="g306"
       transform="translate(-28,-28)"><text
         transform="matrix(1,0,0,-1,110.013,467.1005)"
         style="font-variant:normal;font-weight:normal;font-size:8px;font-family:Helvetica;-inkscape-font-specification:Helvetica;writing-mode:lr-tb;fill:#231f20;fill-opacity:1;fill-rule:nonzero;stroke:none"
         id="text310"><tspan
           x="0 4.448 8.8959999 12.896"
           y="0"
           id="tspan308">Less</tspan></text></g><g
       id="g670"
       transform="translate(-28,-28)" /></g></svg>
