<?xml version="1.0" encoding="UTF-8" standalone="no"?>
<svg
   xmlns:dc="http://purl.org/dc/elements/1.1/"
   xmlns:cc="http://creativecommons.org/ns#"
   xmlns:rdf="http://www.w3.org/1999/02/22-rdf-syntax-ns#"
   xmlns:svg="http://www.w3.org/2000/svg"
   xmlns="http://www.w3.org/2000/svg"
   version="1.1"
   id="svg2"
   xml:space="preserve"
   width="382.0304"
   height="336.03934"
   viewBox="0 0 382.0304 336.03934"><metadata
     id="metadata8"><rdf:RDF><cc:Work
         rdf:about=""><dc:format>image/svg+xml</dc:format><dc:type
           rdf:resource="http://purl.org/dc/dcmitype/StillImage" /><dc:title></dc:title></cc:Work></rdf:RDF></metadata><defs
     id="defs6"><clipPath
       clipPathUnits="userSpaceOnUse"
       id="clipPath20"><path
         d="M 0,0 H 539 V 665 H 0 Z"
         id="path18" /></clipPath></defs><g
     id="g10"
     transform="matrix(1.3333333,0,0,-1.3333333,-110.7268,474.36879)"><g
       id="g12" /><g
       id="g22"
       transform="translate(182.898,253.178)"><path
         d="M 0,0 H 14.402 V -111.703"
         style="fill:none;stroke:#00adef;stroke-width:0.5;stroke-linecap:butt;stroke-linejoin:miter;stroke-miterlimit:4;stroke-dasharray:none;stroke-opacity:1"
         id="path24" /></g><path
       d="m 197.941,139.998 c 0.312,1.035 0.599,1.705 0.932,2.535 h -3.153 c 0.141,-0.297 0.621,-1.5 0.933,-2.535 0.334,-1.105 0.562,-2.108 0.644,-2.758 0.081,0.65 0.31,1.653 0.644,2.758"
       style="fill:#00adef;fill-opacity:1;fill-rule:nonzero;stroke:none"
       id="path26" /><g
       id="g312"
       transform="translate(-28,-28)"><text
         transform="matrix(1,0,0,-1,198.445,364.4445)"
         style="font-variant:normal;font-weight:normal;font-size:8px;font-family:Helvetica;-inkscape-font-specification:Helvetica;writing-mode:lr-tb;fill:#00adef;fill-opacity:1;fill-rule:nonzero;stroke:none"
         id="text316"><tspan
           x="0 5.336 7.112 11.4 15.208 19.656 22.656"
           y="0"
           id="tspan314">Binvert</tspan></text></g><g
       id="g318"
       transform="translate(182.965,333.219)"><path
         d="M 0,0 V -92.848"
         style="fill:none;stroke:#00adef;stroke-width:0.5;stroke-linecap:butt;stroke-linejoin:miter;stroke-miterlimit:4;stroke-dasharray:none;stroke-opacity:1"
         id="path320" /></g><path
       d="m 183.606,238.895 c 0.312,1.033 0.599,1.705 0.932,2.533 h -3.153 c 0.142,-0.297 0.621,-1.5 0.933,-2.533 0.334,-1.106 0.562,-2.109 0.644,-2.76 0.081,0.651 0.31,1.654 0.644,2.76"
       style="fill:#00adef;fill-opacity:1;fill-rule:nonzero;stroke:none"
       id="path322" /><path
       d="m 227.229,316.824 v -27 h 20.25 c 0,0 13.502,0 13.502,13.5 0,13.5 -13.502,13.5 -13.502,13.5 h -20.25"
       style="fill:#ffffff;fill-opacity:1;fill-rule:nonzero;stroke:none"
       id="path324" /><g
       id="g326"
       transform="translate(227.229,316.824)"><path
         d="m 0,0 v -27 h 20.25 c 0,0 13.502,0 13.502,13.5 C 33.752,0 20.25,0 20.25,0 Z"
         style="fill:none;stroke:#231f20;stroke-width:1;stroke-linecap:butt;stroke-linejoin:miter;stroke-miterlimit:4;stroke-dasharray:none;stroke-opacity:1"
         id="path328" /></g><path
       d="m 220.48,274.415 c 0,0 5.785,-6.748 5.785,-13.5 0,-6.75 -5.785,-13.5 -5.785,-13.5 h 23.143 c 0,0 11.573,0.002 17.358,13.5 v 0.002 c -5.785,13.498 -17.358,13.5 -17.358,13.5 l -23.143,-0.002"
       style="fill:#ffffff;fill-opacity:1;fill-rule:nonzero;stroke:none"
       id="path330" /><g
       id="g332"
       transform="translate(220.48,274.415)"><path
         d="M 0,0 C 0,0 5.785,-6.748 5.785,-13.5 5.785,-20.25 0,-27 0,-27 h 23.143 c 0,0 11.573,0.002 17.358,13.5 v 0.002 C 34.716,0 23.143,0.002 23.143,0.002 Z"
         style="fill:none;stroke:#231f20;stroke-width:1;stroke-linecap:butt;stroke-linejoin:miter;stroke-miterlimit:4;stroke-dasharray:none;stroke-opacity:1"
         id="path334" /></g><g
       id="g336"
       transform="translate(220.409,267.72)"><path
         d="M 0,0 H -18.162"
         style="fill:none;stroke:#231f20;stroke-width:0.5;stroke-linecap:butt;stroke-linejoin:miter;stroke-miterlimit:4;stroke-dasharray:none;stroke-opacity:1"
         id="path338" /></g><path
       d="m 221.885,268.361 c -1.033,0.312 -1.705,0.599 -2.534,0.933 v -3.154 c 0.297,0.143 1.501,0.621 2.534,0.934 1.106,0.334 2.109,0.562 2.759,0.644 -0.65,0.08 -1.653,0.309 -2.759,0.643"
       style="fill:#231f20;fill-opacity:1;fill-rule:nonzero;stroke:none"
       id="path340" /><g
       id="g342"
       transform="translate(222.926,296.876)"><path
         d="M 0,0 H -13.889 V -43.318"
         style="fill:none;stroke:#231f20;stroke-width:0.5;stroke-linecap:butt;stroke-linejoin:miter;stroke-miterlimit:4;stroke-dasharray:none;stroke-opacity:1"
         id="path344" /></g><path
       d="m 224.402,297.517 c -1.034,0.312 -1.705,0.6 -2.534,0.934 v -3.155 c 0.296,0.143 1.5,0.621 2.534,0.934 1.106,0.334 2.109,0.562 2.759,0.644 -0.65,0.08 -1.653,0.309 -2.759,0.643"
       style="fill:#231f20;fill-opacity:1;fill-rule:nonzero;stroke:none"
       id="path346" /><g
       id="g348"
       transform="translate(-28,-28)"><text
         transform="matrix(1,0,0,-1,122.9555,337.1015)"
         style="font-variant:normal;font-weight:normal;font-size:8px;font-family:Helvetica;-inkscape-font-specification:Helvetica;writing-mode:lr-tb;fill:#231f20;fill-opacity:1;fill-rule:nonzero;stroke:none"
         id="text352"><tspan
           x="0"
           y="0"
           id="tspan350">a</tspan></text></g><g
       id="g354"
       transform="translate(229.499,210.5291)"><path
         d="M 0,0 H -34.83"
         style="fill:none;stroke:#231f20;stroke-width:0.5;stroke-linecap:butt;stroke-linejoin:miter;stroke-miterlimit:4;stroke-dasharray:none;stroke-opacity:1"
         id="path356" /></g><path
       d="m 230.975,211.1691 c -1.033,0.313 -1.705,0.6 -2.533,0.934 v -3.154 c 0.296,0.142 1.5,0.621 2.533,0.933 1.106,0.334 2.109,0.563 2.76,0.645 -0.651,0.08 -1.654,0.308 -2.76,0.642"
       style="fill:#231f20;fill-opacity:1;fill-rule:nonzero;stroke:none"
       id="path358" /><g
       id="g360"
       transform="translate(-28,-28)"><text
         transform="matrix(1,0,0,-1,122.9819,251.3105)"
         style="font-variant:normal;font-weight:normal;font-size:8px;font-family:Helvetica;-inkscape-font-specification:Helvetica;writing-mode:lr-tb;fill:#231f20;fill-opacity:1;fill-rule:nonzero;stroke:none"
         id="text364"><tspan
           x="0"
           y="0"
           id="tspan362">b</tspan></text></g><path
       d="m 210.686,210.6021 c 0,-0.968 -0.783,-1.75 -1.75,-1.75 -0.968,0 -1.75,0.782 -1.75,1.75 0,0.966 0.782,1.75 1.75,1.75 0.967,0 1.75,-0.784 1.75,-1.75"
       style="fill:#231f20;fill-opacity:1;fill-rule:nonzero;stroke:none"
       id="path366" /><g
       id="g368"
       transform="translate(-28,-28)"><text
         transform="matrix(1,0,0,-1,288.679,364.3655)"
         style="font-variant:normal;font-weight:normal;font-size:8px;font-family:Helvetica;-inkscape-font-specification:Helvetica;writing-mode:lr-tb;fill:#231f20;fill-opacity:1;fill-rule:nonzero;stroke:none"
         id="text372"><tspan
           x="0 5.776 10.224 12.888 15.8 19.799999 22.024"
           y="0"
           id="tspan370">CarryIn</tspan></text></g><path
       d="m 203.837,267.7231 c 0,-0.967 -0.784,-1.75 -1.75,-1.75 -0.967,0 -1.75,0.783 -1.75,1.75 0,0.966 0.783,1.75 1.75,1.75 0.966,0 1.75,-0.784 1.75,-1.75"
       style="fill:#231f20;fill-opacity:1;fill-rule:nonzero;stroke:none"
       id="path374" /><g
       id="g376"
       transform="translate(222.982,310.6291)"><path
         d="M 0,0 H -121.023"
         style="fill:none;stroke:#231f20;stroke-width:0.5;stroke-linecap:butt;stroke-linejoin:miter;stroke-miterlimit:4;stroke-dasharray:none;stroke-opacity:1"
         id="path378" /></g><path
       d="m 224.458,311.2701 c -1.033,0.312 -1.705,0.6 -2.534,0.932 v -3.153 c 0.297,0.141 1.501,0.621 2.534,0.932 1.106,0.334 2.109,0.562 2.759,0.644 -0.65,0.082 -1.653,0.311 -2.759,0.645"
       style="fill:#231f20;fill-opacity:1;fill-rule:nonzero;stroke:none"
       id="path380" /><path
       d="m 204.02,310.6451 c 0,-0.966 -0.783,-1.75 -1.75,-1.75 -0.966,0 -1.75,0.784 -1.75,1.75 0,0.967 0.784,1.75 1.75,1.75 0.967,0 1.75,-0.783 1.75,-1.75"
       style="fill:#231f20;fill-opacity:1;fill-rule:nonzero;stroke:none"
       id="path382" /><g
       id="g384"
       transform="translate(208.936,210.5971)"><path
         d="M 0,0 V 42.672 H 11.075"
         style="fill:none;stroke:#231f20;stroke-width:0.5;stroke-linecap:butt;stroke-linejoin:miter;stroke-miterlimit:4;stroke-dasharray:none;stroke-opacity:1"
         id="path386" /></g><path
       d="m 221.487,253.9101 c -1.033,0.312 -1.705,0.599 -2.534,0.931 v -3.152 c 0.297,0.14 1.501,0.621 2.534,0.933 1.106,0.334 2.109,0.563 2.759,0.643 -0.65,0.082 -1.653,0.311 -2.759,0.645"
       style="fill:#231f20;fill-opacity:1;fill-rule:nonzero;stroke:none"
       id="path388" /><g
       id="g390"
       transform="translate(-28,-28)"><text
         transform="matrix(1,0,0,-1,310.16,377.8006)"
         style="font-variant:normal;font-weight:normal;font-size:8px;font-family:Helvetica;-inkscape-font-specification:Helvetica;writing-mode:lr-tb;fill:#00adef;fill-opacity:1;fill-rule:nonzero;stroke:none"
         id="text394"><tspan
           x="0 6.224 10.672 15.12 17.704 22.152 24.375999 26.152 30.6"
           y="0"
           id="tspan392">Operation</tspan></text></g><g
       id="g396"
       transform="translate(299.764,346.5741)"><path
         d="M 0,0 V -26.604"
         style="fill:none;stroke:#00adef;stroke-width:0.5;stroke-linecap:butt;stroke-linejoin:miter;stroke-miterlimit:4;stroke-dasharray:none;stroke-opacity:1"
         id="path398" /></g><path
       d="m 300.405,318.4941 c 0.312,1.033 0.599,1.705 0.931,2.533 h -3.152 c 0.141,-0.297 0.621,-1.5 0.932,-2.533 0.334,-1.106 0.562,-2.11 0.644,-2.76 0.082,0.65 0.311,1.654 0.645,2.76"
       style="fill:#00adef;fill-opacity:1;fill-rule:nonzero;stroke:none"
       id="path400" /><g
       id="g402"
       transform="translate(-28,-28)"><text
         transform="matrix(1,0,0,-1,322.8759,287.1076)"
         style="font-variant:normal;font-weight:normal;font-size:8px;font-family:Helvetica;-inkscape-font-specification:Helvetica;writing-mode:lr-tb;fill:#231f20;fill-opacity:1;fill-rule:nonzero;stroke:none"
         id="text406"><tspan
           x="0"
           y="0"
           id="tspan404">1</tspan></text></g><g
       id="g408"
       transform="translate(-28,-28)"><text
         transform="matrix(1,0,0,-1,322.8759,329.1556)"
         style="font-variant:normal;font-weight:normal;font-size:8px;font-family:Helvetica;-inkscape-font-specification:Helvetica;writing-mode:lr-tb;fill:#231f20;fill-opacity:1;fill-rule:nonzero;stroke:none"
         id="text412"><tspan
           x="0"
           y="0"
           id="tspan410">0</tspan></text></g><g
       id="g414"
       transform="translate(311.225,173.9111)"><path
         d="m 0,0 c 0,-6.626 -3.358,-12 -9.984,-12 h -3 c -6.627,0 -9.985,5.374 -9.985,12 v 129.917 c 0,6.626 3.358,12 9.985,12 h 3 c 6.626,0 9.984,-5.374 9.984,-12 z"
         style="fill:none;stroke:#231f20;stroke-width:1;stroke-linecap:butt;stroke-linejoin:miter;stroke-miterlimit:4;stroke-dasharray:none;stroke-opacity:1"
         id="path416" /></g><g
       id="g418"
       transform="translate(-28,-28)"><text
         transform="matrix(1,0,0,-1,322.851,243.1616)"
         style="font-variant:normal;font-weight:normal;font-size:8px;font-family:Helvetica;-inkscape-font-specification:Helvetica;writing-mode:lr-tb;fill:#231f20;fill-opacity:1;fill-rule:nonzero;stroke:none"
         id="text422"><tspan
           x="0"
           y="0"
           id="tspan420">2</tspan></text></g><g
       id="g424"
       transform="translate(202.133,310.8981)"><path
         d="M 0,0 V -87.108 H 27.385"
         style="fill:none;stroke:#231f20;stroke-width:0.5;stroke-linecap:butt;stroke-linejoin:miter;stroke-miterlimit:4;stroke-dasharray:none;stroke-opacity:1"
         id="path426" /></g><path
       d="m 230.994,224.4311 c -1.033,0.313 -1.705,0.6 -2.533,0.932 v -3.153 c 0.296,0.141 1.5,0.621 2.533,0.934 1.106,0.334 2.11,0.562 2.76,0.642 -0.65,0.083 -1.654,0.311 -2.76,0.645"
       style="fill:#231f20;fill-opacity:1;fill-rule:nonzero;stroke:none"
       id="path428" /><path
       d="m 210.751,253.0831 c 0,-0.966 -0.784,-1.75 -1.75,-1.75 -0.967,0 -1.75,0.784 -1.75,1.75 0,0.966 0.783,1.75 1.75,1.75 0.966,0 1.75,-0.784 1.75,-1.75"
       style="fill:#231f20;fill-opacity:1;fill-rule:nonzero;stroke:none"
       id="path430" /><path
       d="m 233.711,202.8611 h 27.27 v 27.271 h -27.27 z"
       style="fill:#ffffff;fill-opacity:1;fill-rule:nonzero;stroke:none"
       id="path432" /><g
       id="g434"
       transform="translate(-28,-27.9999)"><path
         d="m 288.981,230.861 h -27.27 v 27.271 h 27.27 z"
         style="fill:none;stroke:#231f20;stroke-width:1;stroke-linecap:butt;stroke-linejoin:miter;stroke-miterlimit:4;stroke-dasharray:none;stroke-opacity:1"
         id="path436" /></g><g
       id="g438"
       transform="translate(-28,-28)"><text
         transform="matrix(1,0,0,-1,272.0139,241.9126)"
         style="font-variant:normal;font-size:8px;font-family:MathematicalPi;-inkscape-font-specification:MathematicalPi-One;writing-mode:lr-tb;fill:#231f20;fill-opacity:1;fill-rule:nonzero;stroke:none"
         id="text442"><tspan
           x="0"
           y="0"
           id="tspan440">&quot;</tspan></text></g><g
       id="g444"
       transform="translate(247.233,141.4951)"><path
         d="M 0,0 V 60.965"
         style="fill:none;stroke:#231f20;stroke-width:0.5;stroke-linecap:butt;stroke-linejoin:miter;stroke-miterlimit:4;stroke-dasharray:none;stroke-opacity:1"
         id="path446" /></g><path
       d="m 247.873,140.0201 c 0.313,1.033 0.6,1.705 0.934,2.533 h -3.154 c 0.142,-0.297 0.621,-1.5 0.933,-2.533 0.334,-1.106 0.563,-2.109 0.645,-2.76 0.08,0.651 0.308,1.654 0.642,2.76"
       style="fill:#231f20;fill-opacity:1;fill-rule:nonzero;stroke:none"
       id="path448" /><g
       id="g450"
       transform="translate(247.092,234.3551)"><path
         d="M 0,0 V 6.805 H 26.666 V 98.756"
         style="fill:none;stroke:#231f20;stroke-width:0.5;stroke-linecap:butt;stroke-linejoin:miter;stroke-miterlimit:4;stroke-dasharray:none;stroke-opacity:1"
         id="path452" /></g><path
       d="m 247.733,232.8781 c 0.312,1.033 0.599,1.705 0.933,2.535 h -3.154 c 0.143,-0.296 0.621,-1.502 0.934,-2.535 0.334,-1.105 0.562,-2.107 0.644,-2.758 0.08,0.651 0.309,1.653 0.643,2.758"
       style="fill:#231f20;fill-opacity:1;fill-rule:nonzero;stroke:none"
       id="path454" /><g
       id="g456"
       transform="translate(260.951,303.6201)"><path
         d="M 0,0 H 26.768"
         style="fill:none;stroke:#231f20;stroke-width:0.5;stroke-linecap:butt;stroke-linejoin:miter;stroke-miterlimit:4;stroke-dasharray:none;stroke-opacity:1"
         id="path458" /></g><g
       id="g460"
       transform="translate(260.951,260.9571)"><path
         d="M 0,0 H 26.768"
         style="fill:none;stroke:#231f20;stroke-width:0.5;stroke-linecap:butt;stroke-linejoin:miter;stroke-miterlimit:4;stroke-dasharray:none;stroke-opacity:1"
         id="path462" /></g><g
       id="g464"
       transform="translate(260.951,216.6211)"><path
         d="M 0,0 H 26.768"
         style="fill:none;stroke:#231f20;stroke-width:0.5;stroke-linecap:butt;stroke-linejoin:miter;stroke-miterlimit:4;stroke-dasharray:none;stroke-opacity:1"
         id="path466" /></g><g
       id="g468"
       transform="translate(331.563,239.1161)"><path
         d="M 0,0 H -19.924"
         style="fill:none;stroke:#231f20;stroke-width:0.5;stroke-linecap:butt;stroke-linejoin:miter;stroke-miterlimit:4;stroke-dasharray:none;stroke-opacity:1"
         id="path470" /></g><path
       d="m 333.039,239.7551 c -1.033,0.313 -1.705,0.6 -2.533,0.934 v -3.154 c 0.297,0.142 1.5,0.621 2.533,0.933 1.106,0.334 2.11,0.563 2.76,0.645 -0.65,0.08 -1.654,0.308 -2.76,0.642"
       style="fill:#231f20;fill-opacity:1;fill-rule:nonzero;stroke:none"
       id="path472" /><g
       id="g474"
       transform="translate(-28,-28)"><text
         transform="matrix(1,0,0,-1,366.4399,264.1716)"
         style="font-variant:normal;font-weight:normal;font-size:8px;font-family:Helvetica;-inkscape-font-specification:Helvetica;writing-mode:lr-tb;fill:#231f20;fill-opacity:1;fill-rule:nonzero;stroke:none"
         id="text478"><tspan
           x="0 5.776 10.224 14.224 18.672001 20.448"
           y="0"
           id="tspan476">Result</tspan></text></g><g
       id="g480"
       transform="translate(-28,-27.9999)"><path
         d="M 345.555,132.122 H 136.49 v 224.697 h 209.065 z"
         style="fill:none;stroke:#231f20;stroke-width:0.75;stroke-linecap:butt;stroke-linejoin:miter;stroke-miterlimit:4;stroke-dasharray:none;stroke-opacity:1"
         id="path482" /></g><g
       id="g484"
       transform="translate(-28,-28)"><text
         transform="matrix(1,0,0,-1,206.3578,225.2016)"
         style="font-variant:normal;font-weight:normal;font-size:8px;font-family:Helvetica;-inkscape-font-specification:Helvetica;writing-mode:lr-tb;fill:#231f20;fill-opacity:1;fill-rule:nonzero;stroke:none"
         id="text488"><tspan
           x="0"
           y="0"
           id="tspan486">1</tspan></text></g><g
       id="g490"
       transform="translate(-28,-28)"><text
         transform="matrix(1,0,0,-1,206.3578,249.6256)"
         style="font-variant:normal;font-weight:normal;font-size:8px;font-family:Helvetica;-inkscape-font-specification:Helvetica;writing-mode:lr-tb;fill:#231f20;fill-opacity:1;fill-rule:nonzero;stroke:none"
         id="text494"><tspan
           x="0"
           y="0"
           id="tspan492">0</tspan></text></g><g
       id="g496"
       transform="translate(194.707,197.2711)"><path
         d="m 0,0 c 0,-6.627 -3.358,-12 -9.985,-12 h -2.999 c -6.627,0 -9.985,5.373 -9.985,12 v 27.027 c 0,6.627 3.358,12 9.985,12 h 2.999 c 6.627,0 9.985,-5.373 9.985,-12 z"
         style="fill:none;stroke:#231f20;stroke-width:1;stroke-linecap:butt;stroke-linejoin:miter;stroke-miterlimit:4;stroke-dasharray:none;stroke-opacity:1"
         id="path498" /></g><g
       id="g500"
       transform="translate(171.475,225.4001)"><path
         d="M 0,0 H -69.442"
         style="fill:none;stroke:#231f20;stroke-width:0.5;stroke-linecap:butt;stroke-linejoin:miter;stroke-miterlimit:4;stroke-dasharray:none;stroke-opacity:1"
         id="path502" /></g><path
       d="m 141.116,225.4331 c 0,-0.966 -0.784,-1.75 -1.75,-1.75 -0.966,0 -1.75,0.784 -1.75,1.75 0,0.967 0.784,1.75 1.75,1.75 0.966,0 1.75,-0.783 1.75,-1.75"
       style="fill:#231f20;fill-opacity:1;fill-rule:nonzero;stroke:none"
       id="path504" /><g
       id="g506"
       transform="translate(139.366,225.4331)"><path
         d="M 0,0 V -25.258 H 32.194"
         style="fill:none;stroke:#231f20;stroke-width:0.5;stroke-linecap:butt;stroke-linejoin:miter;stroke-miterlimit:4;stroke-dasharray:none;stroke-opacity:1"
         id="path508" /></g><path
       d="m 145.039,209.3721 v -18.554 l 13.918,9.277 -13.918,9.277"
       style="fill:#ffffff;fill-opacity:1;fill-rule:nonzero;stroke:none"
       id="path510" /><g
       id="g512"
       transform="translate(145.039,209.3721)"><path
         d="m 0,0 v -18.554 l 13.918,9.277 z"
         style="fill:none;stroke:#231f20;stroke-width:1;stroke-linecap:butt;stroke-linejoin:miter;stroke-miterlimit:4;stroke-dasharray:none;stroke-opacity:1"
         id="path514" /></g><path
       d="m 163.595,200.0791 c 0,-1.171 -0.949,-2.121 -2.119,-2.121 -1.172,0 -2.119,0.95 -2.119,2.121 0,1.17 0.947,2.12 2.119,2.12 1.17,0 2.119,-0.95 2.119,-2.12"
       style="fill:#ffffff;fill-opacity:1;fill-rule:nonzero;stroke:none"
       id="path516" /><g
       id="g518"
       transform="translate(163.595,200.0791)"><path
         d="m 0,0 c 0,-1.171 -0.949,-2.121 -2.119,-2.121 -1.172,0 -2.119,0.95 -2.119,2.121 0,1.17 0.947,2.12 2.119,2.12 C -0.949,2.12 0,1.17 0,0 Z"
         style="fill:none;stroke:#231f20;stroke-width:1;stroke-linecap:butt;stroke-linejoin:miter;stroke-miterlimit:4;stroke-dasharray:none;stroke-opacity:1"
         id="path520" /></g><g
       id="g522"
       transform="translate(-28,-28)"><text
         transform="matrix(1,0,0,-1,322.835,199.3316)"
         style="font-variant:normal;font-weight:normal;font-size:8px;font-family:Helvetica;-inkscape-font-specification:Helvetica;writing-mode:lr-tb;fill:#231f20;fill-opacity:1;fill-rule:nonzero;stroke:none"
         id="text526"><tspan
           x="0"
           y="0"
           id="tspan524">3</tspan></text></g><g
       id="g528"
       transform="translate(284.153,174.1771)"><path
         d="M 0,0 H -181.692"
         style="fill:none;stroke:#231f20;stroke-width:0.5;stroke-linecap:butt;stroke-linejoin:miter;stroke-miterlimit:4;stroke-dasharray:none;stroke-opacity:1"
         id="path530" /></g><path
       d="m 285.629,174.8181 c -1.033,0.31 -1.705,0.599 -2.535,0.931 v -3.152 c 0.297,0.141 1.502,0.619 2.535,0.932 1.106,0.334 2.108,0.562 2.758,0.644 -0.65,0.082 -1.652,0.311 -2.758,0.645"
       style="fill:#231f20;fill-opacity:1;fill-rule:nonzero;stroke:none"
       id="path532" /><g
       id="g534"
       transform="translate(-28,-28)"><text
         transform="matrix(1,0,0,-1,110.4051,200.3416)"
         style="font-variant:normal;font-weight:normal;font-size:8px;font-family:Helvetica;-inkscape-font-specification:Helvetica;writing-mode:lr-tb;fill:#231f20;fill-opacity:1;fill-rule:nonzero;stroke:none"
         id="text538"><tspan
           x="0 4.448 8.8959999 12.896"
           y="0"
           id="tspan536">Less</tspan></text></g><path
       d="m 203.98,223.9021 c 0,-0.968 -0.783,-1.75 -1.75,-1.75 -0.967,0 -1.75,0.782 -1.75,1.75 0,0.966 0.783,1.75 1.75,1.75 0.967,0 1.75,-0.784 1.75,-1.75"
       style="fill:#231f20;fill-opacity:1;fill-rule:nonzero;stroke:none"
       id="path540" /><g
       id="g542"
       transform="translate(202.173,224.7321)"><path
         d="M 0,0 V -83.231"
         style="fill:none;stroke:#231f20;stroke-width:0.5;stroke-linecap:butt;stroke-linejoin:miter;stroke-miterlimit:4;stroke-dasharray:none;stroke-opacity:1"
         id="path544" /></g><path
       d="m 202.813,140.0251 c 0.312,1.034 0.6,1.705 0.932,2.534 h -3.152 c 0.141,-0.297 0.62,-1.5 0.932,-2.534 0.334,-1.106 0.563,-2.109 0.644,-2.759 0.082,0.65 0.31,1.653 0.644,2.759"
       style="fill:#231f20;fill-opacity:1;fill-rule:nonzero;stroke:none"
       id="path546" /><path
       d="m 217.583,210.5531 c 0,-0.968 -0.783,-1.75 -1.75,-1.75 -0.968,0 -1.75,0.782 -1.75,1.75 0,0.966 0.782,1.75 1.75,1.75 0.967,0 1.75,-0.784 1.75,-1.75"
       style="fill:#231f20;fill-opacity:1;fill-rule:nonzero;stroke:none"
       id="path548" /><g
       id="g550"
       transform="translate(215.68,210.6771)"><path
         d="M 0,0 V -69.215"
         style="fill:none;stroke:#231f20;stroke-width:0.5;stroke-linecap:butt;stroke-linejoin:miter;stroke-miterlimit:4;stroke-dasharray:none;stroke-opacity:1"
         id="path552" /></g><path
       d="m 216.321,139.9861 c 0.312,1.034 0.599,1.705 0.932,2.534 H 214.1 c 0.141,-0.297 0.621,-1.5 0.933,-2.534 0.334,-1.106 0.562,-2.109 0.644,-2.759 0.081,0.65 0.31,1.653 0.644,2.759"
       style="fill:#231f20;fill-opacity:1;fill-rule:nonzero;stroke:none"
       id="path554" /><path
       d="m 276.16,216.4831 c 0,-0.968 -0.784,-1.75 -1.75,-1.75 -0.967,0 -1.75,0.782 -1.75,1.75 0,0.966 0.783,1.75 1.75,1.75 0.966,0 1.75,-0.784 1.75,-1.75"
       style="fill:#231f20;fill-opacity:1;fill-rule:nonzero;stroke:none"
       id="path556" /><g
       id="g558"
       transform="translate(274.257,216.6071)"><path
         d="M 0,0 V -75.113"
         style="fill:none;stroke:#231f20;stroke-width:0.5;stroke-linecap:butt;stroke-linejoin:miter;stroke-miterlimit:4;stroke-dasharray:none;stroke-opacity:1"
         id="path560" /></g><path
       d="m 274.898,140.0181 c 0.311,1.034 0.599,1.705 0.932,2.534 h -3.153 c 0.142,-0.297 0.62,-1.5 0.933,-2.534 0.334,-1.106 0.562,-2.108 0.644,-2.759 0.081,0.651 0.31,1.653 0.644,2.759"
       style="fill:#231f20;fill-opacity:1;fill-rule:nonzero;stroke:none"
       id="path562" /><g
       id="g564"
       transform="translate(331.564,152.8991)"><path
         d="M 0,0 H -56.9"
         style="fill:none;stroke:#231f20;stroke-width:0.5;stroke-linecap:butt;stroke-linejoin:miter;stroke-miterlimit:4;stroke-dasharray:none;stroke-opacity:1"
         id="path566" /></g><path
       d="m 333.039,153.5391 c -1.033,0.313 -1.705,0.6 -2.533,0.934 v -3.154 c 0.297,0.142 1.5,0.621 2.533,0.933 1.107,0.334 2.11,0.563 2.76,0.645 -0.65,0.08 -1.653,0.308 -2.76,0.642"
       style="fill:#231f20;fill-opacity:1;fill-rule:nonzero;stroke:none"
       id="path568" /><path
       d="m 275.973,152.9231 c 0,-0.968 -0.782,-1.75 -1.75,-1.75 -0.968,0 -1.75,0.782 -1.75,1.75 0,0.966 0.782,1.75 1.75,1.75 0.968,0 1.75,-0.784 1.75,-1.75"
       style="fill:#231f20;fill-opacity:1;fill-rule:nonzero;stroke:none"
       id="path570" /><g
       id="g572"
       transform="translate(-28,-27.9999)"><path
         d="m 309.799,138.259 h -90 v 27 h 90 z"
         style="fill:none;stroke:#231f20;stroke-width:1;stroke-linecap:butt;stroke-linejoin:miter;stroke-miterlimit:4;stroke-dasharray:none;stroke-opacity:1"
         id="path574" /></g><g
       id="g576"
       transform="translate(-28,-28)"><text
         transform="matrix(1,0,0,-1,249.179,153.2366)"
         style="font-variant:normal;font-weight:normal;font-size:8px;font-family:Helvetica;-inkscape-font-specification:Helvetica;writing-mode:lr-tb;fill:#231f20;fill-opacity:1;fill-rule:nonzero;stroke:none"
         id="text580"><tspan
           x="0 6.224 10.032 14.48 17.143999 19.368 21.143999 25.464001"
           y="0"
           id="tspan578">Overflow</tspan></text></g><g
       id="g582"
       transform="translate(-28,-28)"><text
         transform="matrix(1,0,0,-1,248.563,143.6366)"
         style="font-variant:normal;font-weight:normal;font-size:8px;font-family:Helvetica;-inkscape-font-specification:Helvetica;writing-mode:lr-tb;fill:#231f20;fill-opacity:1;fill-rule:nonzero;stroke:none"
         id="text586"><tspan
           x="0 4.448 8.8959999 11.12 15.568 19.568001 21.792 23.568001 28.016001"
           y="0"
           id="tspan584">detection</tspan></text></g><g
       id="g588"
       transform="translate(-28,-28)"><text
         transform="matrix(1,0,0,-1,366.435,178.3646)"
         style="font-variant:normal;font-weight:normal;font-size:8px;font-family:Helvetica;-inkscape-font-specification:Helvetica;writing-mode:lr-tb;fill:#231f20;fill-opacity:1;fill-rule:nonzero;stroke:none"
         id="text592"><tspan
           x="0 5.336 9.7840004"
           y="0"
           id="tspan590">Set</tspan></text></g><g
       id="g594"
       transform="translate(281.799,128.2591)"><path
         d="M 0,0 H 49.765"
         style="fill:none;stroke:#231f20;stroke-width:0.5;stroke-linecap:butt;stroke-linejoin:miter;stroke-miterlimit:4;stroke-dasharray:none;stroke-opacity:1"
         id="path596" /></g><path
       d="m 333.04,128.9001 c -1.034,0.312 -1.705,0.599 -2.534,0.932 v -3.153 c 0.297,0.142 1.5,0.621 2.534,0.933 1.106,0.334 2.109,0.562 2.759,0.644 -0.65,0.081 -1.653,0.31 -2.759,0.644"
       style="fill:#231f20;fill-opacity:1;fill-rule:nonzero;stroke:none"
       id="path598" /><g
       id="g600"
       transform="translate(-28,-28)"><text
         transform="matrix(1,0,0,-1,366.4399,153.2366)"
         style="font-variant:normal;font-weight:normal;font-size:8px;font-family:Helvetica;-inkscape-font-specification:Helvetica;writing-mode:lr-tb;fill:#231f20;fill-opacity:1;fill-rule:nonzero;stroke:none"
         id="text604"><tspan
           x="0 6.224 10.032 14.48 17.143999 19.368 21.143999 25.464001"
           y="0"
           id="tspan602">Overflow</tspan></text></g><path
       d="m 184.709,253.1161 c 0,-0.968 -0.783,-1.75 -1.75,-1.75 -0.966,0 -1.75,0.782 -1.75,1.75 0,0.965 0.784,1.75 1.75,1.75 0.967,0 1.75,-0.785 1.75,-1.75"
       style="fill:#00adef;fill-opacity:1;fill-rule:nonzero;stroke:none"
       id="path606" /><g
       id="g608"
       transform="translate(-28,-28)"><text
         transform="matrix(1,0,0,-1,172.7693,375.0496)"
         style="font-variant:normal;font-weight:normal;font-size:8px;font-family:Helvetica;-inkscape-font-specification:Helvetica;writing-mode:lr-tb;fill:#00adef;fill-opacity:1;fill-rule:nonzero;stroke:none"
         id="text612"><tspan
           x="0 5.336 7.112 11.4 15.208 19.656 22.656"
           y="0"
           id="tspan610">Ainvert</tspan></text></g><g
       id="g614"
       transform="translate(157.213,343.8231)"><path
         d="M 0,0 V -18.648"
         style="fill:none;stroke:#00adef;stroke-width:0.5;stroke-linecap:butt;stroke-linejoin:miter;stroke-miterlimit:4;stroke-dasharray:none;stroke-opacity:1"
         id="path616" /></g><path
       d="m 157.854,323.6991 c 0.313,1.034 0.6,1.705 0.932,2.534 h -3.153 c 0.141,-0.297 0.621,-1.5 0.932,-2.534 0.334,-1.106 0.562,-2.109 0.644,-2.759 0.083,0.65 0.311,1.653 0.645,2.759"
       style="fill:#00adef;fill-opacity:1;fill-rule:nonzero;stroke:none"
       id="path618" /><path
       d="m 170.163,282.0771 c 0,-6.627 -3.357,-12 -9.984,-12 h -3 c -6.627,0 -9.985,5.373 -9.985,12 v 27.025 c 0,6.628 3.358,12 9.985,12 h 3 c 6.627,0 9.984,-5.372 9.984,-12 v -27.025"
       style="fill:#ffffff;fill-opacity:1;fill-rule:nonzero;stroke:none"
       id="path620" /><g
       id="g622"
       transform="translate(170.163,282.0771)"><path
         d="m 0,0 c 0,-6.627 -3.357,-12 -9.984,-12 h -3 c -6.627,0 -9.985,5.373 -9.985,12 v 27.025 c 0,6.628 3.358,12 9.985,12 h 3 c 6.627,0 9.984,-5.372 9.984,-12 z"
         style="fill:none;stroke:#231f20;stroke-width:1;stroke-linecap:butt;stroke-linejoin:miter;stroke-miterlimit:4;stroke-dasharray:none;stroke-opacity:1"
         id="path624" /></g><path
       d="m 116.573,310.2381 c 0,-0.966 -0.784,-1.75 -1.75,-1.75 -0.966,0 -1.75,0.784 -1.75,1.75 0,0.966 0.784,1.75 1.75,1.75 0.966,0 1.75,-0.784 1.75,-1.75"
       style="fill:#231f20;fill-opacity:1;fill-rule:nonzero;stroke:none"
       id="path626" /><g
       id="g628"
       transform="translate(114.823,310.2381)"><path
         d="M 0,0 V -25.257 H 32.193"
         style="fill:none;stroke:#231f20;stroke-width:0.5;stroke-linecap:butt;stroke-linejoin:miter;stroke-miterlimit:4;stroke-dasharray:none;stroke-opacity:1"
         id="path630" /></g><path
       d="m 120.495,294.1791 v -18.557 l 13.917,9.279 -13.917,9.278"
       style="fill:#ffffff;fill-opacity:1;fill-rule:nonzero;stroke:none"
       id="path632" /><g
       id="g634"
       transform="translate(120.495,294.1791)"><path
         d="m 0,0 v -18.557 l 13.917,9.279 z"
         style="fill:none;stroke:#231f20;stroke-width:1;stroke-linecap:butt;stroke-linejoin:miter;stroke-miterlimit:4;stroke-dasharray:none;stroke-opacity:1"
         id="path636" /></g><path
       d="m 139.052,284.8841 c 0,-1.171 -0.949,-2.119 -2.119,-2.119 -1.172,0 -2.119,0.948 -2.119,2.119 0,1.171 0.947,2.119 2.119,2.119 1.17,0 2.119,-0.948 2.119,-2.119"
       style="fill:#ffffff;fill-opacity:1;fill-rule:nonzero;stroke:none"
       id="path638" /><g
       id="g640"
       transform="translate(139.052,284.8841)"><path
         d="m 0,0 c 0,-1.171 -0.949,-2.119 -2.119,-2.119 -1.172,0 -2.119,0.948 -2.119,2.119 0,1.171 0.947,2.119 2.119,2.119 C -0.949,2.119 0,1.171 0,0 Z"
         style="fill:none;stroke:#231f20;stroke-width:1;stroke-linecap:butt;stroke-linejoin:miter;stroke-miterlimit:4;stroke-dasharray:none;stroke-opacity:1"
         id="path642" /></g><g
       id="g644"
       transform="translate(-28,-28)"><text
         transform="matrix(1,0,0,-1,182.9853,310.0066)"
         style="font-variant:normal;font-weight:normal;font-size:8px;font-family:Helvetica;-inkscape-font-specification:Helvetica;writing-mode:lr-tb;fill:#231f20;fill-opacity:1;fill-rule:nonzero;stroke:none"
         id="text648"><tspan
           x="0"
           y="0"
           id="tspan646">1</tspan></text></g><g
       id="g650"
       transform="translate(-28,-28)"><text
         transform="matrix(1,0,0,-1,182.9853,334.4306)"
         style="font-variant:normal;font-weight:normal;font-size:8px;font-family:Helvetica;-inkscape-font-specification:Helvetica;writing-mode:lr-tb;fill:#231f20;fill-opacity:1;fill-rule:nonzero;stroke:none"
         id="text654"><tspan
           x="0"
           y="0"
           id="tspan652">0</tspan></text></g><g
       id="g670"
       transform="translate(-28,-28)" /></g></svg>
