<?xml version="1.0" encoding="UTF-8" standalone="no"?>
<svg
   xmlns:dc="http://purl.org/dc/elements/1.1/"
   xmlns:cc="http://creativecommons.org/ns#"
   xmlns:rdf="http://www.w3.org/1999/02/22-rdf-syntax-ns#"
   xmlns:svg="http://www.w3.org/2000/svg"
   xmlns="http://www.w3.org/2000/svg"
   xmlns:sodipodi="http://sodipodi.sourceforge.net/DTD/sodipodi-0.dtd"
   xmlns:inkscape="http://www.inkscape.org/namespaces/inkscape"
   version="1.1"
   id="svg2"
   xml:space="preserve"
   width="373.612"
   height="190.83333"
   viewBox="0 0 373.612 190.83333"
   sodipodi:docname="div_hard.svg"
   inkscape:version="1.0.2 (1.0.2+r75+1)"><sodipodi:namedview
     pagecolor="#ffffff"
     bordercolor="#666666"
     borderopacity="1"
     objecttolerance="10"
     gridtolerance="10"
     guidetolerance="10"
     inkscape:pageopacity="0"
     inkscape:pageshadow="2"
     inkscape:window-width="1920"
     inkscape:window-height="1008"
     id="namedview105"
     showgrid="false"
     inkscape:zoom="1.5700499"
     inkscape:cx="188.23849"
     inkscape:cy="24.7089"
     inkscape:window-x="0"
     inkscape:window-y="0"
     inkscape:window-maximized="1"
     inkscape:current-layer="svg2" /><metadata
     id="metadata8"><rdf:RDF><cc:Work
         rdf:about=""><dc:format>image/svg+xml</dc:format><dc:type
           rdf:resource="http://purl.org/dc/dcmitype/StillImage" /><dc:title /></cc:Work></rdf:RDF></metadata><defs
     id="defs6"><clipPath
       clipPathUnits="userSpaceOnUse"
       id="clipPath20"><path
         d="M 0,0 H 539 V 665 H 0 Z"
         id="path18" /></clipPath><clipPath
       clipPathUnits="userSpaceOnUse"
       id="clipPath98"><path
         d="M 486.957,585.346 H 143.346 V 392.345 h 343.611 z"
         id="path96" /></clipPath><clipPath
       clipPathUnits="userSpaceOnUse"
       id="clipPath104"><path
         d="M 0,0 H 539 V 665 H 0 Z"
         id="path102" /></clipPath><clipPath
       clipPathUnits="userSpaceOnUse"
       id="clipPath176"><path
         d="M 0,0 H 539 V 665 H 0 Z"
         id="path174" /></clipPath><clipPath
       clipPathUnits="userSpaceOnUse"
       id="clipPath1202"><path
         d="M 444.555,340.346 H 164.346 V 197.221 h 280.209 z"
         id="path1200" /></clipPath><clipPath
       clipPathUnits="userSpaceOnUse"
       id="clipPath1208"><path
         d="M 0,0 H 539 V 665 H 0 Z"
         id="path1206" /></clipPath><clipPath
       clipPathUnits="userSpaceOnUse"
       id="clipPath1220"><path
         d="M 0,0 H 539 V 665 H 0 Z"
         id="path1218" /></clipPath><clipPath
       clipPathUnits="userSpaceOnUse"
       id="clipPath1284"><path
         d="M 444.555,340.346 H 164.346 V 197.221 h 280.209 z"
         id="path1282" /></clipPath><clipPath
       clipPathUnits="userSpaceOnUse"
       id="clipPath1290"><path
         d="M 0,0 H 539 V 665 H 0 Z"
         id="path1288" /></clipPath><clipPath
       clipPathUnits="userSpaceOnUse"
       id="clipPath1302"><path
         d="M 0,0 H 539 V 665 H 0 Z"
         id="path1300" /></clipPath></defs><g
     id="g12"
     transform="matrix(1.3333333,0,0,-1.3333333,-219.12799,453.79466)" /><g
     id="g1114"
     transform="matrix(1.3333333,0,0,-1.3333333,-256.46132,491.12799)" /><g
     id="g1152"
     transform="matrix(1.3333333,0,0,-1.3333333,316.95733,134.90667)"><path
       d="M 0,0 H -46.511"
       style="fill:none;stroke:#00adef;stroke-width:0.75;stroke-linecap:butt;stroke-linejoin:miter;stroke-miterlimit:4;stroke-dasharray:none;stroke-opacity:1"
       id="path1154" /></g><path
     d="m 251.98933,136.188 c 2.068,0.62267 3.412,1.19867 5.068,1.864 v -6.30533 c -0.592,0.28133 -3,1.24 -5.068,1.864 -2.21067,0.66933 -4.216,1.12666 -5.51733,1.28933 1.30133,0.16267 3.30666,0.62 5.51733,1.288"
     style="fill:#00adef;fill-opacity:1;fill-rule:nonzero;stroke:none;stroke-width:1.33333"
     id="path1156" /><path
     d="m 131.10267,164.22267 h 3.52133 v -36 h -3.52133 z"
     style="fill:#bdbcbc;fill-opacity:1;fill-rule:nonzero;stroke:none;stroke-width:1.33333"
     id="path1158" /><g
     id="g1160"
     transform="matrix(1.3333333,0,0,-1.3333333,93.945331,190)"><path
       d="M 0,0 H 186.167 V 11.897"
       style="fill:none;stroke:#231f20;stroke-width:0.75;stroke-linecap:butt;stroke-linejoin:miter;stroke-miterlimit:4;stroke-dasharray:none;stroke-opacity:1"
       id="path1162" /></g><path
     d="m 340.88533,171.18533 c -0.624,2.06534 -1.19867,3.40934 -1.864,5.06667 h 6.30533 c -0.28266,-0.59333 -1.24133,-3.00133 -1.864,-5.06667 -0.66933,-2.21333 -1.12666,-4.21733 -1.28933,-5.51866 -0.16267,1.30133 -0.62,3.30533 -1.288,5.51866"
     style="fill:#231f20;fill-opacity:1;fill-rule:nonzero;stroke:none;stroke-width:1.33333"
     id="path1164" /><g
     id="g1166"
     transform="matrix(1.3333333,0,0,-1.3333333,317.24266,157.352)"><path
       d="M 0,0 H -46.725"
       style="fill:none;stroke:#00adef;stroke-width:0.75;stroke-linecap:butt;stroke-linejoin:miter;stroke-miterlimit:4;stroke-dasharray:none;stroke-opacity:1"
       id="path1168" /></g><path
     d="m 251.98933,158.63333 c 2.068,0.62267 3.412,1.19867 5.068,1.864 V 154.192 c -0.592,0.28133 -3,1.24 -5.068,1.864 -2.21067,0.66933 -4.216,1.12667 -5.51733,1.28933 1.30133,0.16267 3.30666,0.62 5.51733,1.288"
     style="fill:#00adef;fill-opacity:1;fill-rule:nonzero;stroke:none;stroke-width:1.33333"
     id="path1170" /><g
     id="g1172"
     transform="matrix(1.3333333,0,0,-1.3333333,311.61066,146.06533)"><path
       d="M 0,0 H -42.501"
       style="fill:none;stroke:#00adef;stroke-width:0.75;stroke-linecap:butt;stroke-linejoin:miter;stroke-miterlimit:4;stroke-dasharray:none;stroke-opacity:1"
       id="path1174" /></g><path
     d="m 251.98933,147.41067 c 2.068,0.62266 3.412,1.19866 5.068,1.864 v -6.30534 c -0.592,0.28134 -3,1.24 -5.068,1.864 -2.21067,0.66934 -4.216,1.12667 -5.51733,1.28934 1.30133,0.16266 3.30666,0.62 5.51733,1.288"
     style="fill:#00adef;fill-opacity:1;fill-rule:nonzero;stroke:none;stroke-width:1.33333"
     id="path1176" /><g
     id="g1178"
     transform="matrix(1.3333333,0,0,-1.3333333,132.94933,23.999999)"><path
       d="M 0,0 V -21.772"
       style="fill:none;stroke:#231f20;stroke-width:1.25;stroke-linecap:butt;stroke-linejoin:miter;stroke-miterlimit:4;stroke-dasharray:none;stroke-opacity:1"
       id="path1180" /></g><path
     d="m 134.23067,55.981332 c 0.624,-2.066667 1.19866,-3.410667 1.864,-5.068 h -6.30534 c 0.28267,0.594666 1.24,3.001333 1.86534,5.068 0.668,2.212 1.124,4.217333 1.288,5.518666 0.16266,-1.301333 0.62,-3.306666 1.288,-5.518666"
     style="fill:#231f20;fill-opacity:1;fill-rule:nonzero;stroke:none;stroke-width:1.33333"
     id="path1182" /><g
     id="g1184"
     transform="matrix(1.3333333,0,0,-1.3333333,93.499997,102)"><path
       d="M 0,0 V -13.25"
       style="fill:none;stroke:#231f20;stroke-width:1.25;stroke-linecap:butt;stroke-linejoin:miter;stroke-miterlimit:4;stroke-dasharray:none;stroke-opacity:1"
       id="path1186" /></g><path
     d="m 94.78133,122.61733 c 0.624,-2.06666 1.2,-3.41066 1.864,-5.06799 h -6.305333 c 0.282667,0.59466 1.241334,3.00133 1.865334,5.06799 0.668,2.212 1.125333,4.21734 1.288,5.51867 0.162666,-1.30133 0.62,-3.30667 1.287999,-5.51867"
     style="fill:#231f20;fill-opacity:1;fill-rule:nonzero;stroke:none;stroke-width:1.33333"
     id="path1188" /><g
     id="g1190"
     transform="matrix(1.3333333,0,0,-1.3333333,324.83333,129.828)"><path
       d="M 0,0 V 36.871 H -128.25"
       style="fill:none;stroke:#00adef;stroke-width:0.75;stroke-linecap:butt;stroke-linejoin:miter;stroke-miterlimit:4;stroke-dasharray:none;stroke-opacity:1"
       id="path1192" /></g><path
     d="m 150.88133,81.946664 c 2.06667,0.624 3.40934,1.2 5.06667,1.864 v -6.305333 c -0.592,0.282667 -3,1.241333 -5.06667,1.864 -2.212,0.669333 -4.21733,1.126667 -5.51866,1.289333 1.30133,0.162667 3.30666,0.62 5.51866,1.288"
     style="fill:#00adef;fill-opacity:1;fill-rule:nonzero;stroke:none;stroke-width:1.33333"
     id="path1194" /><g
     id="g1196"
     transform="matrix(1.3333333,0,0,-1.3333333,-219.12799,453.79466)"><g
       id="g1198"
       clip-path="url(#clipPath1202)"><g
         id="g1204"
         clip-path="url(#clipPath1208)"><g
           id="g1210"
           transform="translate(234.971,216.846)"><path
             d="M 0,0 V -19 H -70 V 98 h 40.5 V 83.727"
             style="fill:none;stroke:#231f20;stroke-width:1.25;stroke-linecap:butt;stroke-linejoin:miter;stroke-miterlimit:4;stroke-dasharray:none;stroke-opacity:1"
             id="path1212" /></g></g></g></g><g
     id="g1214"
     transform="matrix(1.3333333,0,0,-1.3333333,-219.12799,453.79466)"><g
       id="g1216"
       clip-path="url(#clipPath1220)"><path
         d="m 206.432,298.36 c 0.468,1.55 0.9,2.558 1.398,3.801 h -4.729 c 0.212,-0.446 0.931,-2.251 1.399,-3.801 0.501,-1.659 0.844,-3.163 0.966,-4.139 0.122,0.976 0.465,2.48 0.966,4.139"
         style="fill:#231f20;fill-opacity:1;fill-rule:nonzero;stroke:none"
         id="path1222" /><path
         d="m 238.803,322.346 h 50.501 v 17.5 h -50.501 z"
         style="fill:#cceffc;fill-opacity:1;fill-rule:nonzero;stroke:none"
         id="path1224" /><g
         id="g1226"
         transform="translate(-28,-28)"><path
           d="m 317.303,350.346 h -50.501 v 17.5 h 50.501 z"
           style="fill:none;stroke:#00adef;stroke-width:1;stroke-linecap:butt;stroke-linejoin:miter;stroke-miterlimit:4;stroke-dasharray:none;stroke-opacity:1"
           id="path1228" /></g><g
         id="g1230"
         transform="translate(-28,-28)"><text
           transform="matrix(1,0,0,-1,279.8333,356.1795)"
           style="font-variant:normal;font-weight:normal;font-size:8px;font-family:Arial;-inkscape-font-specification:ArialMT;writing-mode:lr-tb;fill:#00adef;fill-opacity:1;fill-rule:nonzero;stroke:none"
           id="text1234"><tspan
             x="0 5.776 7.552 11.552 13.328 17.327999 21.775999"
             y="0"
             id="tspan1232">Divisor</tspan></text></g><g
         id="g1236"
         transform="translate(-28,-28)"><text
           transform="matrix(1,0,0,-1,295.9693,341.3475)"
           style="font-variant:normal;font-weight:normal;font-size:8px;font-family:Arial;-inkscape-font-specification:ArialMT;writing-mode:lr-tb;fill:#231f20;fill-opacity:1;fill-rule:nonzero;stroke:none"
           id="text1240"><tspan
             x="0 4.448 8.8959999 11.12 15.568 17.344 19.568001"
             y="0"
             id="tspan1238">32 bits</tspan></text></g><path
         d="m 244.492,294.221 -9.292,-9.167 -9.291,9.167 h -42.25 l 30.25,-30.375 h 42.583 l 30.25,30.375 h -42.25"
         style="fill:#cceffc;fill-opacity:1;fill-rule:nonzero;stroke:none"
         id="path1242" /><g
         id="g1244"
         transform="translate(244.492,294.221)"><path
           d="M 0,0 -9.292,-9.167 -18.583,0 h -42.25 l 30.25,-30.375 H 12 L 42.25,0 Z"
           style="fill:none;stroke:#00adef;stroke-width:1;stroke-linecap:butt;stroke-linejoin:miter;stroke-miterlimit:4;stroke-dasharray:none;stroke-opacity:1"
           id="path1246" /></g><g
         id="g1248"
         transform="translate(-28,-28)"><text
           transform="matrix(1,0,0,-1,244.8466,299.8465)"
           style="font-variant:normal;font-weight:normal;font-size:8px;font-family:Arial;-inkscape-font-specification:ArialMT;writing-mode:lr-tb;fill:#00adef;fill-opacity:1;fill-rule:nonzero;stroke:none"
           id="text1252"><tspan
             x="0 4.448 8.8959999 11.56 16.007999 17.784 20.007999 22.232 27.568001 32.015999"
             y="0"
             id="tspan1250">32-bit ALU</tspan></text></g><g
         id="g1254"
         transform="translate(-28,-28)"><path
           d="m 377.2,245.096 h -170 v 27 h 170 z"
           style="fill:none;stroke:#231f20;stroke-width:1;stroke-linecap:butt;stroke-linejoin:miter;stroke-miterlimit:4;stroke-dasharray:none;stroke-opacity:1"
           id="path1256" /></g><g
         id="g1258"
         transform="translate(-28,-28)"><text
           transform="matrix(1,0,0,-1,272.4336,256.9295)"
           style="font-variant:normal;font-weight:normal;font-size:8px;font-family:Arial;-inkscape-font-specification:ArialMT;writing-mode:lr-tb;fill:#231f20;fill-opacity:1;fill-rule:nonzero;stroke:none"
           id="text1262"><tspan
             x="0 5.776 10.224 16.888 21.336 23.112 27.559999 32.007999 36.456001"
             y="0"
             id="tspan1260">Remainder</tspan></text></g><g
         id="g1264"
         transform="translate(-28,-28)"><text
           transform="matrix(1,0,0,-1,353.4176,247.4415)"
           style="font-variant:normal;font-weight:normal;font-size:8px;font-family:Arial;-inkscape-font-specification:ArialMT;writing-mode:lr-tb;fill:#00adef;fill-opacity:1;fill-rule:nonzero;stroke:none"
           id="text1268"><tspan
             x="0 7.552 10.336 12.112 14.336"
             y="0"
             id="tspan1266">Write</tspan></text></g><g
         id="g1270"
         transform="translate(-28,-28)"><text
           transform="matrix(1,0,0,-1,280.2096,235.8415)"
           style="font-variant:normal;font-weight:normal;font-size:8px;font-family:Arial;-inkscape-font-specification:ArialMT;writing-mode:lr-tb;fill:#231f20;fill-opacity:1;fill-rule:nonzero;stroke:none"
           id="text1274"><tspan
             x="0 4.448 8.8959999 11.12 15.568 17.344 19.568001"
             y="0"
             id="tspan1272">64 bits</tspan></text></g><path
         d="m 444.055,230.846 c 0,-8.146 -10.297,-14.75 -23,-14.75 -12.703,0 -23.001,6.604 -23.001,14.75 0,8.146 10.298,14.75 23.001,14.75 12.703,0 23,-6.604 23,-14.75"
         style="fill:#ffffff;fill-opacity:1;fill-rule:nonzero;stroke:none"
         id="path1276" /></g></g><g
     id="g1278"
     transform="matrix(1.3333333,0,0,-1.3333333,-219.12799,453.79466)"><g
       id="g1280"
       clip-path="url(#clipPath1284)"><g
         id="g1286"
         clip-path="url(#clipPath1290)"><g
           id="g1292"
           transform="translate(444.055,230.846)"><path
             d="m 0,0 c 0,-8.146 -10.297,-14.75 -23,-14.75 -12.703,0 -23.001,6.604 -23.001,14.75 0,8.146 10.298,14.75 23.001,14.75 C -10.297,14.75 0,8.146 0,0 Z"
             style="fill:none;stroke:#231f20;stroke-width:1;stroke-linecap:butt;stroke-linejoin:miter;stroke-miterlimit:4;stroke-dasharray:none;stroke-opacity:1"
             id="path1294" /></g></g></g></g><text
     style="font-variant:normal;font-weight:normal;font-size:10.6667px;font-family:Arial;-inkscape-font-specification:ArialMT;writing-mode:lr-tb;fill:#00adef;fill-opacity:1;fill-rule:nonzero;stroke:none;stroke-width:1.33333"
     id="text1308"
     x="324.42188"
     y="143.666"><tspan
       x="324.42188 332.12317 338.05389 343.98456 346.94989 350.50189 356.43256"
       y="143.666"
       id="tspan1306"
       style="stroke-width:1.33333">Control</tspan></text><text
     style="font-variant:normal;font-weight:normal;font-size:10.6667px;font-family:Arial;-inkscape-font-specification:ArialMT;writing-mode:lr-tb;fill:#00adef;fill-opacity:1;fill-rule:nonzero;stroke:none;stroke-width:1.33333"
     id="text1314"
     x="333.00851"
     y="156.46599"><tspan
       x="333.00851 335.97385 341.90454 347.23788"
       y="156.46599"
       id="tspan1312"
       style="stroke-width:1.33333">test</tspan></text><text
     style="font-variant:normal;font-weight:normal;font-size:10.6667px;font-family:Arial;-inkscape-font-specification:ArialMT;writing-mode:lr-tb;fill:#00adef;fill-opacity:1;fill-rule:nonzero;stroke:none;stroke-width:1.33333"
     id="text1320"
     x="200.59254"
     y="149.98067"><tspan
       x="200.59254 207.7072 213.63786 216.00587 218.97121 221.93654 224.90187 227.26987 233.20053 236.16586"
       y="149.98067"
       id="tspan1318"
       style="stroke-width:1.33333">Shift left</tspan></text><text
     style="font-variant:normal;font-weight:normal;font-size:10.6667px;font-family:Arial;-inkscape-font-specification:ArialMT;writing-mode:lr-tb;fill:#00adef;fill-opacity:1;fill-rule:nonzero;stroke:none;stroke-width:1.33333"
     id="text1326"
     x="193.91521"
     y="138.75932"><tspan
       x="193.91521 201.02988 206.96054 209.32854 212.29387 215.2592 218.22453 221.93654 224.30453 230.2352 236.16586"
       y="138.75932"
       id="tspan1324"
       style="stroke-width:1.33333">Shift right</tspan></text><path
     d="M 144.792,119.33334 H 119.45867"
     style="fill:none;stroke:#00adef;stroke-width:1;stroke-linecap:butt;stroke-linejoin:miter;stroke-miterlimit:4;stroke-dasharray:none;stroke-opacity:1"
     id="path1330" /><path
     d="m 116.50667,118.052 c 2.06666,-0.624 3.41066,-1.2 5.068,-1.864 v 6.30533 c -0.59334,-0.28266 -3.00134,-1.24133 -5.068,-1.864 -2.212,-0.66933 -4.21733,-1.12666 -5.51867,-1.28933 1.30134,-0.16266 3.30667,-0.62 5.51867,-1.288"
     style="fill:#00adef;fill-opacity:1;fill-rule:nonzero;stroke:none;stroke-width:1.33333"
     id="path1332" /><path
     d="m 149.22,120.75867 c -2.068,0.624 -3.41067,1.2 -5.068,1.864 v -6.30533 c 0.59333,0.28266 3,1.24133 5.068,1.864 2.21067,0.66933 4.21733,1.12666 5.51733,1.28933 -1.3,0.16267 -3.30666,0.62 -5.51733,1.288"
     style="fill:#00adef;fill-opacity:1;fill-rule:nonzero;stroke:none;stroke-width:1.33333"
     id="path1334" /></svg>
