<?xml version="1.0" encoding="UTF-8" standalone="no"?>
<svg
   xmlns:dc="http://purl.org/dc/elements/1.1/"
   xmlns:cc="http://creativecommons.org/ns#"
   xmlns:rdf="http://www.w3.org/1999/02/22-rdf-syntax-ns#"
   xmlns:svg="http://www.w3.org/2000/svg"
   xmlns="http://www.w3.org/2000/svg"
   xmlns:sodipodi="http://sodipodi.sourceforge.net/DTD/sodipodi-0.dtd"
   xmlns:inkscape="http://www.inkscape.org/namespaces/inkscape"
   version="1.1"
   id="svg2"
   xml:space="preserve"
   width="576.36328"
   height="558.396"
   viewBox="0 0 576.36328 558.396"
   sodipodi:docname="float.svg"
   inkscape:version="1.0.2 (1.0.2+r75+1)"><metadata
     id="metadata8"><rdf:RDF><cc:Work
         rdf:about=""><dc:format>image/svg+xml</dc:format><dc:type
           rdf:resource="http://purl.org/dc/dcmitype/StillImage" /><dc:title></dc:title></cc:Work></rdf:RDF></metadata><defs
     id="defs6"><clipPath
       clipPathUnits="userSpaceOnUse"
       id="clipPath20"><path
         d="M 0,0 H 539 V 665 H 0 Z"
         id="path18" /></clipPath></defs><sodipodi:namedview
     pagecolor="#ffffff"
     bordercolor="#666666"
     borderopacity="1"
     objecttolerance="10"
     gridtolerance="10"
     guidetolerance="10"
     inkscape:pageopacity="0"
     inkscape:pageshadow="2"
     inkscape:window-width="1920"
     inkscape:window-height="1008"
     id="namedview4"
     showgrid="false"
     inkscape:zoom="0.94369441"
     inkscape:cx="274.17812"
     inkscape:cy="336.46165"
     inkscape:window-x="0"
     inkscape:window-y="0"
     inkscape:window-maximized="1"
     inkscape:current-layer="g10" /><g
     id="g10"
     inkscape:groupmode="layer"
     inkscape:label="Computer Organization and Design 5th"
     transform="matrix(1.3333333,0,0,-1.3333333,-84.255998,780.46131)"><g
       id="g12" /><path
       d="M 144.761,386.65 V 267.712 h 11.174"
       style="fill:none;stroke:#00adef;stroke-width:0.75;stroke-linecap:butt;stroke-linejoin:miter;stroke-miterlimit:4;stroke-dasharray:none;stroke-opacity:1"
       id="path42" /><path
       d="m 158.349,268.759 c -1.69,0.511 -2.788,0.979 -4.144,1.524 v -5.156 c 0.486,0.231 2.454,1.014 4.144,1.526 1.808,0.545 3.449,0.92 4.512,1.052 -1.063,0.134 -2.704,0.508 -4.512,1.054"
       style="fill:#00adef;fill-opacity:1;fill-rule:nonzero;stroke:none"
       id="path44" /><path
       d="M 123.23,389.332 V 219.2 h 79.854"
       style="fill:none;stroke:#00adef;stroke-width:0.75;stroke-linecap:butt;stroke-linejoin:miter;stroke-miterlimit:4;stroke-dasharray:none;stroke-opacity:1"
       id="path48" /><path
       d="m 205.498,220.248 c -1.691,0.511 -2.788,0.979 -4.144,1.524 v -5.156 c 0.485,0.23 2.453,1.015 4.144,1.525 1.808,0.545 3.448,0.92 4.511,1.053 -1.063,0.134 -2.703,0.507 -4.511,1.054"
       style="fill:#00adef;fill-opacity:1;fill-rule:nonzero;stroke:none"
       id="path50" /><path
       d="m 158.955,388.908 v -27.989 h 72.494 v -89.937 l 11.446,-0.273"
       style="fill:none;stroke:#00adef;stroke-width:0.75;stroke-linecap:butt;stroke-linejoin:miter;stroke-miterlimit:4;stroke-dasharray:none;stroke-opacity:1"
       id="path54" /><path
       d="m 245.309,271.757 c -1.69,0.509 -2.788,0.979 -4.143,1.524 v -5.156 c 0.484,0.231 2.453,1.014 4.143,1.524 1.807,0.548 3.446,0.921 4.511,1.054 -1.065,0.134 -2.704,0.508 -4.511,1.054"
       style="fill:#00adef;fill-opacity:1;fill-rule:nonzero;stroke:none"
       id="path56" /><path
       d="m 166.586,391.903 v -22.808 h 78.489 v -64.864 h 51.271"
       style="fill:none;stroke:#00adef;stroke-width:0.75;stroke-linecap:butt;stroke-linejoin:miter;stroke-miterlimit:4;stroke-dasharray:none;stroke-opacity:1"
       id="path60" /><path
       d="m 298.76,305.279 c -1.691,0.51 -2.789,0.98 -4.144,1.525 v -5.157 c 0.485,0.231 2.453,1.015 4.144,1.525 1.807,0.547 3.447,0.921 4.513,1.053 -1.066,0.134 -2.706,0.507 -4.513,1.054"
       style="fill:#00adef;fill-opacity:1;fill-rule:nonzero;stroke:none"
       id="path62" /><path
       d="m 160.84,420.376 v 9.499 h 155.047 l 0.034,12.763 h 13.289"
       style="fill:none;stroke:#00adef;stroke-width:0.75;stroke-linecap:butt;stroke-linejoin:miter;stroke-miterlimit:4;stroke-dasharray:none;stroke-opacity:1"
       id="path66" /><path
       d="m 331.624,441.591 c -1.689,-0.51 -2.787,-0.98 -4.142,-1.524 v 5.155 c 0.485,-0.231 2.453,-1.014 4.142,-1.524 1.809,-0.548 3.449,-0.921 4.513,-1.054 -1.064,-0.133 -2.704,-0.507 -4.513,-1.053"
       style="fill:#00adef;fill-opacity:1;fill-rule:nonzero;stroke:none"
       id="path68" /><path
       d="m 151.574,422.572 v 20.066 h 96.252"
       style="fill:none;stroke:#00adef;stroke-width:0.75;stroke-linecap:butt;stroke-linejoin:miter;stroke-miterlimit:4;stroke-dasharray:none;stroke-opacity:1"
       id="path72" /><path
       d="m 250.24,441.591 c -1.691,-0.51 -2.788,-0.98 -4.143,-1.524 v 5.155 c 0.484,-0.231 2.452,-1.014 4.143,-1.524 1.807,-0.548 3.447,-0.921 4.511,-1.054 -1.064,-0.133 -2.704,-0.507 -4.511,-1.053"
       style="fill:#00adef;fill-opacity:1;fill-rule:nonzero;stroke:none"
       id="path74" /><path
       d="m 151.574,387.304 v -84.708 h 18.875"
       style="fill:none;stroke:#00adef;stroke-width:0.75;stroke-linecap:butt;stroke-linejoin:miter;stroke-miterlimit:4;stroke-dasharray:none;stroke-opacity:1"
       id="path78" /><path
       d="m 172.863,303.643 c -1.69,0.511 -2.788,0.98 -4.143,1.525 v -5.156 c 0.485,0.231 2.453,1.014 4.143,1.526 1.808,0.545 3.449,0.919 4.512,1.052 -1.063,0.133 -2.704,0.507 -4.512,1.053"
       style="fill:#00adef;fill-opacity:1;fill-rule:nonzero;stroke:none"
       id="path80" /><path
       d="m 177.013,404.938 69.471,0.091"
       style="fill:none;stroke:#00adef;stroke-width:0.75;stroke-linecap:butt;stroke-linejoin:miter;stroke-miterlimit:4;stroke-dasharray:none;stroke-opacity:1"
       id="path84" /><path
       d="m 248.896,403.981 c -1.689,-0.51 -2.787,-0.979 -4.142,-1.524 v 5.157 c 0.484,-0.233 2.453,-1.017 4.142,-1.526 1.809,-0.546 3.448,-0.92 4.512,-1.053 -1.064,-0.134 -2.703,-0.507 -4.512,-1.054"
       style="fill:#00adef;fill-opacity:1;fill-rule:nonzero;stroke:none"
       id="path86" /><path
       d="M 166.586,550.926 V 538.389"
       style="fill:none;stroke:#231f20;stroke-width:0.75;stroke-linecap:butt;stroke-linejoin:miter;stroke-miterlimit:4;stroke-dasharray:none;stroke-opacity:1"
       id="path90" /><path
       d="m 169.158,540.119 h -5.155 c 0.23,-0.485 1.013,-2.453 1.524,-4.143 0.546,-1.809 0.92,-3.448 1.053,-4.512 0.133,1.064 0.507,2.703 1.053,4.512"
       style="fill:#231f20;fill-opacity:1;fill-rule:nonzero;stroke:none"
       id="path92" /><path
       d="m 141.513,505.685 v -12.81"
       style="fill:none;stroke:#231f20;stroke-width:0.75;stroke-linecap:butt;stroke-linejoin:miter;stroke-miterlimit:4;stroke-dasharray:none;stroke-opacity:1"
       id="path96" /><path
       d="m 142.56,490.462 c 0.511,1.69 0.981,2.789 1.525,4.143 h -5.155 c 0.23,-0.485 1.013,-2.453 1.524,-4.143 0.546,-1.809 0.92,-3.448 1.053,-4.512 0.133,1.064 0.507,2.703 1.053,4.512"
       style="fill:#231f20;fill-opacity:1;fill-rule:nonzero;stroke:none"
       id="path98" /><path
       d="m 131.337,422.473 v 20.165 h -17.533"
       style="fill:none;stroke:#00adef;stroke-width:0.75;stroke-linecap:butt;stroke-linejoin:miter;stroke-miterlimit:4;stroke-dasharray:none;stroke-opacity:1"
       id="path102" /><path
       d="m 111.39,441.591 c 1.69,-0.51 2.788,-0.98 4.143,-1.524 v 5.155 c -0.484,-0.231 -2.453,-1.014 -4.143,-1.524 -1.809,-0.548 -3.448,-0.921 -4.512,-1.054 1.064,-0.133 2.703,-0.507 4.512,-1.053"
       style="fill:#00adef;fill-opacity:1;fill-rule:nonzero;stroke:none"
       id="path104" /><text
       transform="scale(1,-1)"
       style="font-variant:normal;font-weight:normal;font-size:8px;font-family:Arial;-inkscape-font-specification:ArialMT;writing-mode:lr-tb;fill:#231f20;fill-opacity:1;fill-rule:nonzero;stroke:none"
       id="text110"
       x="450.58041"
       y="-520.6864"><tspan
         x="450.58041 456.35641 460.80441 467.46841 471.91641 476.36441 479.02841"
         y="-520.6864"
         sodipodi:role="line"
         id="tspan108">Compare</tspan></text><text
       transform="scale(1,-1)"
       style="font-variant:normal;font-weight:normal;font-size:8px;font-family:Arial;-inkscape-font-specification:ArialMT;writing-mode:lr-tb;fill:#231f20;fill-opacity:1;fill-rule:nonzero;stroke:none"
       id="text116"
       x="450.58041"
       y="-507.60641"><tspan
         x="450.58041 454.78839 458.78839 463.23639 467.68439 472.13239 476.58041 481.02841 483.25241"
         y="-507.60641"
         sodipodi:role="line"
         id="tspan114">exponents</tspan></text><path
       d="m 150.112,531.199 -7.805,-7.7 -7.804,7.7 h -34.398 l 25.409,-25.514 h 33.587 l 25.409,25.514 h -34.398"
       style="fill:#ffffff;fill-opacity:1;fill-rule:nonzero;stroke:none"
       id="path118" /><path
       d="m 150.112,531.199 -7.805,-7.7 -7.804,7.7 h -34.398 l 25.409,-25.514 h 33.587 l 25.409,25.514 z"
       style="fill:none;stroke:#231f20;stroke-width:1;stroke-linecap:butt;stroke-linejoin:miter;stroke-miterlimit:4;stroke-dasharray:none;stroke-opacity:1"
       id="path122" /><text
       transform="scale(1,-1)"
       style="font-variant:normal;font-weight:normal;font-size:8px;font-family:Arial;-inkscape-font-specification:ArialMT;writing-mode:lr-tb;fill:#231f20;fill-opacity:1;fill-rule:nonzero;stroke:none"
       id="text128"
       x="123.6465"
       y="-513.83148"><tspan
         x="123.6465 128.9825 135.6465 140.0945 141.8705 143.6465 145.8705 151.2065 155.6545"
         y="-513.83148"
         sodipodi:role="line"
         id="tspan126">Small ALU</tspan></text><path
       d="m 118.051,456.163 h 46.513 v 29.434 h -46.513 z"
       style="fill:#ffffff;fill-opacity:1;fill-rule:nonzero;stroke:none"
       id="path130" /><path
       d="m 164.564,456.163 h -46.513 v 29.434 h 46.513 z"
       style="fill:none;stroke:#231f20;stroke-width:1;stroke-linecap:butt;stroke-linejoin:miter;stroke-miterlimit:4;stroke-dasharray:none;stroke-opacity:1"
       id="path134" /><text
       transform="scale(1,-1)"
       style="font-variant:normal;font-weight:normal;font-size:8px;font-family:Arial;-inkscape-font-specification:ArialMT;writing-mode:lr-tb;fill:#231f20;fill-opacity:1;fill-rule:nonzero;stroke:none"
       id="text140"
       x="124.4014"
       y="-472.9021"><tspan
         x="124.4014 129.7374 133.7374 138.18539 142.63341 147.08141 151.5294 155.9774"
         y="-472.9021"
         sodipodi:role="line"
         id="tspan138">Exponent</tspan></text><text
       transform="scale(1,-1)"
       style="font-variant:normal;font-weight:normal;font-size:8px;font-family:Arial;-inkscape-font-specification:ArialMT;writing-mode:lr-tb;fill:#231f20;fill-opacity:1;fill-rule:nonzero;stroke:none"
       id="text146"
       x="123.8574"
       y="-463.30209"><tspan
         x="123.8574 128.3054 130.08141 132.3054 134.2894 138.7374 141.4014 145.8494 150.29739 154.29739"
         y="-463.30209"
         sodipodi:role="line"
         id="tspan144">difference</tspan></text><path
       d="m 177.013,404.938 c 0,-10.138 -15.772,-18.357 -35.228,-18.357 -19.457,0 -35.228,8.219 -35.228,18.357 0,10.138 15.771,18.357 35.228,18.357 19.456,0 35.228,-8.219 35.228,-18.357"
       style="fill:#ffffff;fill-opacity:1;fill-rule:nonzero;stroke:none"
       id="path148" /><path
       d="m 177.013,404.938 c 0,-10.138 -15.772,-18.357 -35.228,-18.357 -19.457,0 -35.228,8.219 -35.228,18.357 0,10.138 15.771,18.357 35.228,18.357 19.456,0 35.228,-8.219 35.228,-18.357 z"
       style="fill:none;stroke:#00adef;stroke-width:1;stroke-linecap:butt;stroke-linejoin:miter;stroke-miterlimit:4;stroke-dasharray:none;stroke-opacity:1"
       id="path152" /><text
       transform="scale(1,-1)"
       style="font-variant:normal;font-weight:normal;font-size:8px;font-family:Arial;-inkscape-font-specification:ArialMT;writing-mode:lr-tb;fill:#00adef;fill-opacity:1;fill-rule:nonzero;stroke:none"
       id="text158"
       x="128.88609"
       y="-402.21411"><tspan
         x="128.88609 134.66209 139.11011 143.55811 145.7821 148.44611 152.8941"
         y="-402.21411"
         sodipodi:role="line"
         id="tspan156">Control</tspan></text><path
       d="M 117.894,566.188 V 538.389"
       style="fill:none;stroke:#231f20;stroke-width:0.75;stroke-linecap:butt;stroke-linejoin:miter;stroke-miterlimit:4;stroke-dasharray:none;stroke-opacity:1"
       id="path162" /><path
       d="m 118.941,535.976 c 0.51,1.69 0.98,2.789 1.524,4.143 h -5.155 c 0.23,-0.485 1.014,-2.453 1.524,-4.143 0.546,-1.809 0.92,-3.448 1.054,-4.511 0.133,1.063 0.507,2.702 1.053,4.511"
       style="fill:#231f20;fill-opacity:1;fill-rule:nonzero;stroke:none"
       id="path164" /><path
       d="M 141.513,456.446 V 429.648"
       style="fill:none;stroke:#231f20;stroke-width:0.75;stroke-linecap:butt;stroke-linejoin:miter;stroke-miterlimit:4;stroke-dasharray:none;stroke-opacity:1"
       id="path168" /><path
       d="m 142.56,427.234 c 0.511,1.69 0.981,2.788 1.525,4.143 h -5.155 c 0.23,-0.485 1.013,-2.453 1.524,-4.143 0.546,-1.809 0.92,-3.449 1.053,-4.512 0.133,1.063 0.507,2.703 1.053,4.512"
       style="fill:#231f20;fill-opacity:1;fill-rule:nonzero;stroke:none"
       id="path170" /><path
       d="m 94.795,566.313 h 46.512 v 18.533 H 94.795 Z"
       style="fill:#ffffff;fill-opacity:1;fill-rule:nonzero;stroke:none"
       id="path172" /><path
       d="M 141.308,566.313 H 94.796 v 18.533 h 46.512 z"
       style="fill:none;stroke:#231f20;stroke-width:1;stroke-linecap:butt;stroke-linejoin:miter;stroke-miterlimit:4;stroke-dasharray:none;stroke-opacity:1"
       id="path176" /><text
       transform="scale(1,-1)"
       style="font-variant:normal;font-weight:normal;font-size:8px;font-family:Arial;-inkscape-font-specification:ArialMT;writing-mode:lr-tb;fill:#231f20;fill-opacity:1;fill-rule:nonzero;stroke:none"
       id="text182"
       x="101.1445"
       y="-572.42322"><tspan
         x="101.1445 106.4805 110.4805 114.9285 119.3765 123.8245 128.27251 132.7205"
         y="-572.42322"
         sodipodi:role="line"
         id="tspan180">Exponent</tspan></text><path
       d="m 69.04,566.313 h 26.345 v 18.533 H 69.04 Z"
       style="fill:#ffffff;fill-opacity:1;fill-rule:nonzero;stroke:none"
       id="path184" /><path
       d="M 95.385,566.313 H 69.04 v 18.533 h 26.345 z"
       style="fill:none;stroke:#231f20;stroke-width:1;stroke-linecap:butt;stroke-linejoin:miter;stroke-miterlimit:4;stroke-dasharray:none;stroke-opacity:1"
       id="path188" /><text
       transform="scale(1,-1)"
       style="font-variant:normal;font-weight:normal;font-size:8px;font-family:Arial;-inkscape-font-specification:ArialMT;writing-mode:lr-tb;fill:#231f20;fill-opacity:1;fill-rule:nonzero;stroke:none"
       id="text194"
       x="74.202103"
       y="-572.81628"><tspan
         x="74.202103 79.538101 81.314102 85.7621"
         y="-572.81628"
         sodipodi:role="line"
         id="tspan192">Sign</tspan></text><path
       d="m 140.99,566.313 h 120.638 v 18.533 H 140.99 Z"
       style="fill:#ffffff;fill-opacity:1;fill-rule:nonzero;stroke:none"
       id="path196" /><path
       d="M 261.628,566.313 H 140.99 v 18.533 h 120.638 z"
       style="fill:none;stroke:#231f20;stroke-width:1;stroke-linecap:butt;stroke-linejoin:miter;stroke-miterlimit:4;stroke-dasharray:none;stroke-opacity:1"
       id="path200" /><text
       transform="scale(1,-1)"
       style="font-variant:normal;font-weight:normal;font-size:8px;font-family:Arial;-inkscape-font-specification:ArialMT;writing-mode:lr-tb;fill:#231f20;fill-opacity:1;fill-rule:nonzero;stroke:none"
       id="text206"
       x="187.0764"
       y="-572.81628"><tspan
         x="187.0764 191.6044 194.1884 198.6364 202.6364 204.8604 206.6364 211.0844"
         y="-572.81628"
         sodipodi:role="line"
         id="tspan204">Fraction</tspan></text><path
       d="M 117.221,559.632 H 75.431 V 456.159"
       style="fill:none;stroke:#231f20;stroke-width:0.75;stroke-linecap:butt;stroke-linejoin:miter;stroke-miterlimit:4;stroke-dasharray:none;stroke-opacity:1"
       id="path210" /><path
       d="m 76.478,453.744 c 0.51,1.691 0.981,2.79 1.525,4.144 h -5.156 c 0.231,-0.484 1.015,-2.453 1.525,-4.144 0.547,-1.808 0.92,-3.447 1.053,-4.511 0.134,1.064 0.507,2.703 1.053,4.511"
       style="fill:#231f20;fill-opacity:1;fill-rule:nonzero;stroke:none"
       id="path212" /><path
       d="m 324.848,371.824 -10.132,-9.993 -10.127,9.993 h -49.318 l 32.965,-36.384 h 52.963 l 32.978,36.384 h -49.329"
       style="fill:#ffffff;fill-opacity:1;fill-rule:nonzero;stroke:none"
       id="path214" /><path
       d="m 324.848,371.824 -10.132,-9.993 -10.127,9.993 h -49.318 l 32.965,-36.384 h 52.963 l 32.978,36.384 z"
       style="fill:none;stroke:#231f20;stroke-width:1;stroke-linecap:butt;stroke-linejoin:miter;stroke-miterlimit:4;stroke-dasharray:none;stroke-opacity:1"
       id="path218" /><text
       transform="scale(1,-1)"
       style="font-variant:normal;font-weight:normal;font-size:8px;font-family:Arial;-inkscape-font-specification:ArialMT;writing-mode:lr-tb;fill:#231f20;fill-opacity:1;fill-rule:nonzero;stroke:none"
       id="text224"
       x="300.6463"
       y="-347.43311"><tspan
         x="300.6463 305.9823 307.7583 312.2063 314.4303 319.7663 324.21429"
         y="-347.43311"
         sodipodi:role="line"
         id="tspan222">Big ALU</tspan></text><path
       d="m 120.255,559.647 c 0,-1.205 -0.977,-2.18 -2.18,-2.18 -1.204,0 -2.18,0.975 -2.18,2.18 0,1.204 0.976,2.18 2.18,2.18 1.203,0 2.18,-0.976 2.18,-2.18"
       style="fill:#231f20;fill-opacity:1;fill-rule:nonzero;stroke:none"
       id="path226" /><path
       d="m 168.766,550.381 c 0,-1.205 -0.976,-2.18 -2.18,-2.18 -1.204,0 -2.181,0.975 -2.181,2.18 0,1.204 0.977,2.18 2.181,2.18 1.204,0 2.18,-0.976 2.18,-2.18"
       style="fill:#231f20;fill-opacity:1;fill-rule:nonzero;stroke:none"
       id="path228" /><path
       d="m 311.718,566.313 h 46.514 v 18.533 h -46.514 z"
       style="fill:#ffffff;fill-opacity:1;fill-rule:nonzero;stroke:none"
       id="path230" /><path
       d="m 358.232,566.313 h -46.514 v 18.533 h 46.514 z"
       style="fill:none;stroke:#231f20;stroke-width:1;stroke-linecap:butt;stroke-linejoin:miter;stroke-miterlimit:4;stroke-dasharray:none;stroke-opacity:1"
       id="path234" /><text
       transform="scale(1,-1)"
       style="font-variant:normal;font-weight:normal;font-size:8px;font-family:Arial;-inkscape-font-specification:ArialMT;writing-mode:lr-tb;fill:#231f20;fill-opacity:1;fill-rule:nonzero;stroke:none"
       id="text240"
       x="318.08231"
       y="-572.42322"><tspan
         x="318.08231 323.4183 327.4183 331.8663 336.3143 340.7623 345.2103 349.65829"
         y="-572.42322"
         sodipodi:role="line"
         id="tspan238">Exponent</tspan></text><path
       d="m 285.964,566.313 h 26.346 v 18.533 h -26.346 z"
       style="fill:#ffffff;fill-opacity:1;fill-rule:nonzero;stroke:none"
       id="path242" /><path
       d="m 312.31,566.313 h -26.346 v 18.533 h 26.346 z"
       style="fill:none;stroke:#231f20;stroke-width:1;stroke-linecap:butt;stroke-linejoin:miter;stroke-miterlimit:4;stroke-dasharray:none;stroke-opacity:1"
       id="path246" /><text
       transform="scale(1,-1)"
       style="font-variant:normal;font-weight:normal;font-size:8px;font-family:Arial;-inkscape-font-specification:ArialMT;writing-mode:lr-tb;fill:#231f20;fill-opacity:1;fill-rule:nonzero;stroke:none"
       id="text252"
       x="291.14041"
       y="-572.81628"><tspan
         x="291.14041 296.47641 298.25241 302.70041"
         y="-572.81628"
         sodipodi:role="line"
         id="tspan250">Sign</tspan></text><path
       d="m 357.913,566.313 h 120.644 v 18.533 H 357.913 Z"
       style="fill:#ffffff;fill-opacity:1;fill-rule:nonzero;stroke:none"
       id="path254" /><path
       d="M 478.557,566.313 H 357.913 v 18.533 h 120.644 z"
       style="fill:none;stroke:#231f20;stroke-width:1;stroke-linecap:butt;stroke-linejoin:miter;stroke-miterlimit:4;stroke-dasharray:none;stroke-opacity:1"
       id="path258" /><text
       transform="scale(1,-1)"
       style="font-variant:normal;font-weight:normal;font-size:8px;font-family:Arial;-inkscape-font-specification:ArialMT;writing-mode:lr-tb;fill:#231f20;fill-opacity:1;fill-rule:nonzero;stroke:none"
       id="text264"
       x="404.01431"
       y="-572.81628"><tspan
         x="404.01431 408.5415 411.12469 415.5719 419.57111 421.79431 423.56949 428.01669"
         y="-572.81628"
         sodipodi:role="line"
         id="tspan262">Fraction</tspan></text><path
       d="m 93.963,456.159 v 94.207 h 239.945 v 15.277"
       style="fill:none;stroke:#231f20;stroke-width:0.75;stroke-linecap:butt;stroke-linejoin:miter;stroke-miterlimit:4;stroke-dasharray:none;stroke-opacity:1"
       id="path268" /><path
       d="m 95.011,453.744 c 0.51,1.691 0.98,2.79 1.524,4.144 H 91.38 c 0.231,-0.484 1.014,-2.453 1.524,-4.144 0.547,-1.808 0.921,-3.447 1.054,-4.511 0.133,1.064 0.507,2.703 1.053,4.511"
       style="fill:#231f20;fill-opacity:1;fill-rule:nonzero;stroke:none"
       id="path270" /><path
       d="m 106.628,443.289 c 0,-3.011 -3.051,-5.451 -6.813,-5.451 H 70.381 c -3.763,0 -6.814,2.44 -6.814,5.451 0,3.011 3.051,5.451 6.814,5.451 h 29.434 c 3.762,0 6.813,-2.44 6.813,-5.451 z"
       style="fill:none;stroke:#231f20;stroke-width:0.75;stroke-linecap:butt;stroke-linejoin:miter;stroke-miterlimit:4;stroke-dasharray:none;stroke-opacity:1"
       id="path274" /><text
       transform="scale(1,-1)"
       style="font-variant:normal;font-weight:normal;font-size:8px;font-family:Arial;-inkscape-font-specification:ArialMT;writing-mode:lr-tb;fill:#231f20;fill-opacity:1;fill-rule:nonzero;stroke:none"
       id="text280"
       x="73.328003"
       y="-439.86111"><tspan
         x="73.328003 91.860001"
         y="-439.86111"
         sodipodi:role="line"
         id="tspan278">01</tspan></text><path
       d="m 297.751,443.289 c 0,-3.011 -3.049,-5.451 -6.813,-5.451 h -29.423 c -3.763,0 -6.812,2.44 -6.812,5.451 0,3.011 3.049,5.451 6.812,5.451 h 29.423 c 3.764,0 6.813,-2.44 6.813,-5.451 z"
       style="fill:none;stroke:#231f20;stroke-width:0.75;stroke-linecap:butt;stroke-linejoin:miter;stroke-miterlimit:4;stroke-dasharray:none;stroke-opacity:1"
       id="path284" /><text
       transform="scale(1,-1)"
       style="font-variant:normal;font-weight:normal;font-size:8px;font-family:Arial;-inkscape-font-specification:ArialMT;writing-mode:lr-tb;fill:#231f20;fill-opacity:1;fill-rule:nonzero;stroke:none"
       id="text290"
       x="264.46729"
       y="-439.86111"><tspan
         x="264.46729 282.9993"
         y="-439.86111"
         sodipodi:role="line"
         id="tspan288">01</tspan></text><path
       d="m 379.1499,443.289 c 0,-3.011 -3.052,-5.451 -6.814,-5.451 h -29.435 c -3.761,0 -6.813,2.44 -6.813,5.451 0,3.011 3.052,5.451 6.813,5.451 h 29.435 c 3.762,0 6.814,-2.44 6.814,-5.451 z"
       style="fill:none;stroke:#231f20;stroke-width:0.75;stroke-linecap:butt;stroke-linejoin:miter;stroke-miterlimit:4;stroke-dasharray:none;stroke-opacity:1"
       id="path294" /><text
       transform="scale(1,-1)"
       style="font-variant:normal;font-weight:normal;font-size:8px;font-family:Arial;-inkscape-font-specification:ArialMT;writing-mode:lr-tb;fill:#231f20;fill-opacity:1;fill-rule:nonzero;stroke:none"
       id="text300"
       x="345.86429"
       y="-439.86111"><tspan
         x="345.86429 364.39709"
         y="-439.86111"
         sodipodi:role="line"
         id="tspan298">01</tspan></text><path
       d="m 285.45,456.159 v 15.535 h 133.127 v 93.949"
       style="fill:none;stroke:#231f20;stroke-width:0.75;stroke-linecap:butt;stroke-linejoin:miter;stroke-miterlimit:4;stroke-dasharray:none;stroke-opacity:1"
       id="path304" /><path
       d="m 286.498,453.744 c 0.511,1.691 0.982,2.79 1.525,4.144 h -5.155 c 0.231,-0.484 1.013,-2.453 1.524,-4.144 0.548,-1.808 0.92,-3.447 1.053,-4.511 0.133,1.064 0.507,2.703 1.053,4.511"
       style="fill:#231f20;fill-opacity:1;fill-rule:nonzero;stroke:none"
       id="path306" /><path
       d="M 367.157,471.965 V 456.158"
       style="fill:none;stroke:#231f20;stroke-width:0.75;stroke-linecap:butt;stroke-linejoin:miter;stroke-miterlimit:4;stroke-dasharray:none;stroke-opacity:1"
       id="path310" /><path
       d="m 368.205,453.744 c 0.511,1.69 0.981,2.789 1.525,4.144 h -5.156 c 0.231,-0.485 1.014,-2.454 1.525,-4.144 0.545,-1.808 0.92,-3.448 1.053,-4.511 0.133,1.063 0.506,2.703 1.053,4.511"
       style="fill:#231f20;fill-opacity:1;fill-rule:nonzero;stroke:none"
       id="path312" /><path
       d="m 369.338,471.526 c 0,-1.203 -0.976,-2.18 -2.181,-2.18 -1.204,0 -2.179,0.977 -2.179,2.18 0,1.204 0.975,2.181 2.179,2.181 1.205,0 2.181,-0.977 2.181,-2.181"
       style="fill:#231f20;fill-opacity:1;fill-rule:nonzero;stroke:none"
       id="path314" /><path
       d="m 347.859,456.159 v 32.432 H 201.665 v 77.052"
       style="fill:none;stroke:#231f20;stroke-width:0.75;stroke-linecap:butt;stroke-linejoin:miter;stroke-miterlimit:4;stroke-dasharray:none;stroke-opacity:1"
       id="path318" /><path
       d="m 346.811,453.744 c -0.511,1.691 -0.982,2.79 -1.525,4.144 h 5.156 c -0.23,-0.484 -1.014,-2.453 -1.525,-4.144 -0.548,-1.808 -0.92,-3.447 -1.054,-4.511 -0.132,1.064 -0.506,2.703 -1.052,4.511"
       style="fill:#231f20;fill-opacity:1;fill-rule:nonzero;stroke:none"
       id="path320" /><path
       d="M 266.706,488.862 V 456.158"
       style="fill:none;stroke:#231f20;stroke-width:0.75;stroke-linecap:butt;stroke-linejoin:miter;stroke-miterlimit:4;stroke-dasharray:none;stroke-opacity:1"
       id="path324" /><path
       d="m 265.659,453.744 c -0.511,1.69 -0.98,2.789 -1.524,4.144 h 5.153 c -0.23,-0.485 -1.013,-2.454 -1.524,-4.144 -0.545,-1.808 -0.92,-3.448 -1.053,-4.511 -0.132,1.063 -0.506,2.703 -1.052,4.511"
       style="fill:#231f20;fill-opacity:1;fill-rule:nonzero;stroke:none"
       id="path326" /><path
       d="m 264.526,488.424 c 0,-1.204 0.976,-2.18 2.18,-2.18 1.204,0 2.18,0.976 2.18,2.18 0,1.204 -0.976,2.18 -2.18,2.18 -1.204,0 -2.18,-0.976 -2.18,-2.18"
       style="fill:#231f20;fill-opacity:1;fill-rule:nonzero;stroke:none"
       id="path328" /><path
       d="m 253.408,396.796 h 45.411 v 18.532 h -45.411 z"
       style="fill:#ffffff;fill-opacity:1;fill-rule:nonzero;stroke:none"
       id="path330" /><path
       d="m 298.819,396.796 h -45.411 v 18.532 h 45.411 z"
       style="fill:none;stroke:#231f20;stroke-width:1;stroke-linecap:butt;stroke-linejoin:miter;stroke-miterlimit:4;stroke-dasharray:none;stroke-opacity:1"
       id="path334" /><text
       transform="scale(1,-1)"
       style="font-variant:normal;font-weight:normal;font-size:8px;font-family:Arial;-inkscape-font-specification:ArialMT;writing-mode:lr-tb;fill:#231f20;fill-opacity:1;fill-rule:nonzero;stroke:none"
       id="text340"
       x="259.1593"
       y="-402.9061"><tspan
         x="259.1593 264.4953 268.9433 270.7193 272.9433 275.1673 277.3913 280.17529 281.95129 286.39929 290.84729"
         y="-402.9061"
         sodipodi:role="line"
         id="tspan338">Shift right</tspan></text><path
       d="M 276.139,437.551 V 423.107"
       style="fill:none;stroke:#231f20;stroke-width:0.75;stroke-linecap:butt;stroke-linejoin:miter;stroke-miterlimit:4;stroke-dasharray:none;stroke-opacity:1"
       id="path344" /><path
       d="m 277.186,420.693 c 0.511,1.69 0.981,2.788 1.525,4.143 h -5.155 c 0.229,-0.485 1.013,-2.453 1.524,-4.143 0.545,-1.809 0.92,-3.448 1.053,-4.512 0.134,1.064 0.506,2.703 1.053,4.512"
       style="fill:#231f20;fill-opacity:1;fill-rule:nonzero;stroke:none"
       id="path346" /><path
       d="m 276.139,396.671 v -18.26"
       style="fill:none;stroke:#231f20;stroke-width:0.75;stroke-linecap:butt;stroke-linejoin:miter;stroke-miterlimit:4;stroke-dasharray:none;stroke-opacity:1"
       id="path350" /><path
       d="m 277.186,375.997 c 0.511,1.69 0.981,2.788 1.525,4.143 h -5.155 c 0.229,-0.485 1.013,-2.453 1.524,-4.143 0.545,-1.81 0.92,-3.448 1.053,-4.512 0.134,1.064 0.506,2.702 1.053,4.512"
       style="fill:#231f20;fill-opacity:1;fill-rule:nonzero;stroke:none"
       id="path352" /><path
       d="M 357.346,437.551 V 378.956"
       style="fill:none;stroke:#231f20;stroke-width:0.75;stroke-linecap:butt;stroke-linejoin:miter;stroke-miterlimit:4;stroke-dasharray:none;stroke-opacity:1"
       id="path356" /><path
       d="m 358.394,376.542 c 0.51,1.69 0.98,2.789 1.524,4.143 h -5.155 c 0.23,-0.485 1.013,-2.453 1.525,-4.143 0.545,-1.809 0.919,-3.448 1.053,-4.511 0.133,1.063 0.507,2.702 1.053,4.511"
       style="fill:#231f20;fill-opacity:1;fill-rule:nonzero;stroke:none"
       id="path358" /><path
       d="m 220.366,302.66 c 0,-3.011 -3.051,-5.45 -6.814,-5.45 h -29.433 c -3.763,0 -6.814,2.439 -6.814,5.45 0,3.012 3.051,5.451 6.814,5.451 h 29.433 c 3.763,0 6.814,-2.439 6.814,-5.451 z"
       style="fill:none;stroke:#231f20;stroke-width:0.75;stroke-linecap:butt;stroke-linejoin:miter;stroke-miterlimit:4;stroke-dasharray:none;stroke-opacity:1"
       id="path362" /><text
       transform="scale(1,-1)"
       style="font-variant:normal;font-weight:normal;font-size:8px;font-family:Arial;-inkscape-font-specification:ArialMT;writing-mode:lr-tb;fill:#231f20;fill-opacity:1;fill-rule:nonzero;stroke:none"
       id="text368"
       x="187.0663"
       y="-299.233"><tspan
         x="187.0663 205.5983"
         y="-299.233"
         sodipodi:role="line"
         id="tspan366">01</tspan></text><path
       d="m 346.262,304.296 c 0,-3.012 -3.049,-5.451 -6.813,-5.451 h -29.434 c -3.763,0 -6.814,2.439 -6.814,5.451 0,3.01 3.051,5.45 6.814,5.45 h 29.434 c 3.764,0 6.813,-2.44 6.813,-5.45 z"
       style="fill:none;stroke:#231f20;stroke-width:0.75;stroke-linecap:butt;stroke-linejoin:miter;stroke-miterlimit:4;stroke-dasharray:none;stroke-opacity:1"
       id="path372" /><text
       transform="scale(1,-1)"
       style="font-variant:normal;font-weight:normal;font-size:8px;font-family:Arial;-inkscape-font-specification:ArialMT;writing-mode:lr-tb;fill:#231f20;fill-opacity:1;fill-rule:nonzero;stroke:none"
       id="text378"
       x="312.9783"
       y="-300.8681"><tspan
         x="312.9783 331.51028"
         y="-300.8681"
         sodipodi:role="line"
         id="tspan376">01</tspan></text><path
       d="M 315.376,335.623 V 316.272"
       style="fill:none;stroke:#231f20;stroke-width:0.75;stroke-linecap:butt;stroke-linejoin:miter;stroke-miterlimit:4;stroke-dasharray:none;stroke-opacity:1"
       id="path382" /><path
       d="m 316.423,313.859 c 0.512,1.69 0.98,2.788 1.524,4.144 h -5.154 c 0.23,-0.486 1.013,-2.454 1.524,-4.144 0.545,-1.809 0.92,-3.448 1.054,-4.512 0.132,1.064 0.506,2.703 1.052,4.512"
       style="fill:#231f20;fill-opacity:1;fill-rule:nonzero;stroke:none"
       id="path384" /><path
       d="m 163.156,253.941 h 57.959 v 29.434 h -57.959 z"
       style="fill:#ffffff;fill-opacity:1;fill-rule:nonzero;stroke:none"
       id="path386" /><path
       d="m 221.115,253.941 h -57.959 v 29.434 h 57.959 z"
       style="fill:none;stroke:#231f20;stroke-width:1;stroke-linecap:butt;stroke-linejoin:miter;stroke-miterlimit:4;stroke-dasharray:none;stroke-opacity:1"
       id="path390" /><text
       transform="scale(1,-1)"
       style="font-variant:normal;font-weight:normal;font-size:8px;font-family:Arial;-inkscape-font-specification:ArialMT;writing-mode:lr-tb;fill:#231f20;fill-opacity:1;fill-rule:nonzero;stroke:none"
       id="text396"
       x="169.3244"
       y="-270.68011"><tspan
         x="169.3244 171.5484 175.9964 179.9964 182.6604 187.1084 193.7724 198.2204 202.6684 204.8924 207.11639 211.56441"
         y="-270.68011"
         sodipodi:role="line"
         id="tspan394">Increment or</tspan></text><text
       transform="scale(1,-1)"
       style="font-variant:normal;font-weight:normal;font-size:8px;font-family:Arial;-inkscape-font-specification:ArialMT;writing-mode:lr-tb;fill:#231f20;fill-opacity:1;fill-rule:nonzero;stroke:none"
       id="text402"
       x="172.8844"
       y="-261.08011"><tspan
         x="172.8844 177.3324 181.7804 185.7804 188.4444 192.8924 199.5564 204.00439 208.45241"
         y="-261.08011"
         sodipodi:role="line"
         id="tspan400">decrement</tspan></text><path
       d="m 249.73,260.801 h 69.938 v 18.532 H 249.73 Z"
       style="fill:#ffffff;fill-opacity:1;fill-rule:nonzero;stroke:none"
       id="path404" /><path
       d="M 319.668,260.801 H 249.73 v 18.532 h 69.938 z"
       style="fill:none;stroke:#231f20;stroke-width:1;stroke-linecap:butt;stroke-linejoin:miter;stroke-miterlimit:4;stroke-dasharray:none;stroke-opacity:1"
       id="path408" /><text
       transform="scale(1,-1)"
       style="font-variant:normal;font-weight:normal;font-size:8px;font-family:Arial;-inkscape-font-specification:ArialMT;writing-mode:lr-tb;fill:#231f20;fill-opacity:1;fill-rule:nonzero;stroke:none"
       id="text414"
       x="256.6293"
       y="-266.9111"><tspan
         x="256.6293 261.9653 266.4133 268.1893 270.4133 272.6373 274.8613 276.6373 281.0853 283.3093 285.53329 287.75729 292.20529 294.86929 297.09329 299.87729 301.65329 306.10129 310.54929"
         y="-266.9111"
         sodipodi:role="line"
         id="tspan412">Shift left or right</tspan></text><path
       d="m 189.257,314.638 v 5.724 H 75.208 v 117.189"
       style="fill:none;stroke:#231f20;stroke-width:0.75;stroke-linecap:butt;stroke-linejoin:miter;stroke-miterlimit:4;stroke-dasharray:none;stroke-opacity:1"
       id="path418" /><path
       d="m 188.21,312.223 c -0.511,1.692 -0.982,2.79 -1.525,4.145 h 5.155 c -0.23,-0.486 -1.013,-2.453 -1.524,-4.145 -0.548,-1.807 -0.92,-3.446 -1.055,-4.511 -0.131,1.065 -0.506,2.704 -1.051,4.511"
       style="fill:#231f20;fill-opacity:1;fill-rule:nonzero;stroke:none"
       id="path420" /><path
       d="m 198.745,296.923 v -6.814"
       style="fill:none;stroke:#231f20;stroke-width:0.75;stroke-linecap:butt;stroke-linejoin:miter;stroke-miterlimit:4;stroke-dasharray:none;stroke-opacity:1"
       id="path424" /><path
       d="m 199.793,287.695 c 0.51,1.691 0.98,2.789 1.524,4.145 h -5.155 c 0.23,-0.486 1.013,-2.454 1.524,-4.145 0.546,-1.808 0.92,-3.448 1.053,-4.512 0.134,1.064 0.507,2.704 1.054,4.512"
       style="fill:#231f20;fill-opacity:1;fill-rule:nonzero;stroke:none"
       id="path426" /><path
       d="m 324.097,298.557 v -4.905 l -14.717,0.001 v -7.087"
       style="fill:none;stroke:#231f20;stroke-width:0.75;stroke-linecap:butt;stroke-linejoin:miter;stroke-miterlimit:4;stroke-dasharray:none;stroke-opacity:1"
       id="path430" /><path
       d="m 310.428,284.152 c 0.511,1.691 0.98,2.789 1.524,4.145 h -5.155 c 0.229,-0.486 1.014,-2.454 1.524,-4.145 0.545,-1.808 0.92,-3.448 1.054,-4.512 0.133,1.064 0.506,2.704 1.053,4.512"
       style="fill:#231f20;fill-opacity:1;fill-rule:nonzero;stroke:none"
       id="path432" /><path
       d="m 193.164,253.862 v -11.72 l 24.256,0.002 v -6.814"
       style="fill:none;stroke:#231f20;stroke-width:0.75;stroke-linecap:butt;stroke-linejoin:miter;stroke-miterlimit:4;stroke-dasharray:none;stroke-opacity:1"
       id="path436" /><path
       d="m 216.372,232.916 c -0.511,1.689 -0.98,2.788 -1.524,4.143 h 5.155 c -0.23,-0.485 -1.014,-2.454 -1.525,-4.143 -0.545,-1.81 -0.92,-3.448 -1.053,-4.512 -0.133,1.064 -0.506,2.702 -1.053,4.512"
       style="fill:#231f20;fill-opacity:1;fill-rule:nonzero;stroke:none"
       id="path438" /><path
       d="m 210.009,209.837 h 84.382 v 18.532 h -84.382 z"
       style="fill:#ffffff;fill-opacity:1;fill-rule:nonzero;stroke:none"
       id="path440" /><path
       d="m 294.391,209.837 h -84.382 v 18.532 h 84.382 z"
       style="fill:none;stroke:#231f20;stroke-width:1;stroke-linecap:butt;stroke-linejoin:miter;stroke-miterlimit:4;stroke-dasharray:none;stroke-opacity:1"
       id="path444" /><text
       transform="scale(1,-1)"
       style="font-variant:normal;font-weight:normal;font-size:8px;font-family:Arial;-inkscape-font-specification:ArialMT;writing-mode:lr-tb;fill:#231f20;fill-opacity:1;fill-rule:nonzero;stroke:none"
       id="text450"
       x="217.3573"
       y="-215.9471"><tspan
         x="217.3573 223.1333 227.5813 232.0293 236.47729 240.92531 242.70129 247.14931 251.59731 253.8213 258.26929 262.71732 265.38129 269.82932 275.48529 279.93329 282.59729"
         y="-215.9471"
         sodipodi:role="line"
         id="tspan448">Rounding hardware</tspan></text><path
       d="m 284.691,228.789 v 32.432"
       style="fill:none;stroke:#231f20;stroke-width:0.75;stroke-linecap:butt;stroke-linejoin:miter;stroke-miterlimit:4;stroke-dasharray:none;stroke-opacity:1"
       id="path454" /><path
       d="m 317.556,329.536 c 0,-1.205 -0.976,-2.181 -2.18,-2.181 -1.205,0 -2.181,0.976 -2.181,2.181 0,1.203 0.976,2.18 2.181,2.18 1.204,0 2.18,-0.977 2.18,-2.18"
       style="fill:#231f20;fill-opacity:1;fill-rule:nonzero;stroke:none"
       id="path456" /><path
       d="m 333.636,324.721 v -8.449"
       style="fill:none;stroke:#231f20;stroke-width:0.75;stroke-linecap:butt;stroke-linejoin:miter;stroke-miterlimit:4;stroke-dasharray:none;stroke-opacity:1"
       id="path460" /><path
       d="m 334.683,313.859 c 0.511,1.69 0.981,2.788 1.525,4.144 h -5.155 c 0.229,-0.486 1.014,-2.454 1.524,-4.144 0.545,-1.809 0.92,-3.448 1.054,-4.512 0.133,1.064 0.506,2.703 1.052,4.512"
       style="fill:#231f20;fill-opacity:1;fill-rule:nonzero;stroke:none"
       id="path462" /><path
       d="m 335.816,324.902 c 0,-1.204 -0.976,-2.18 -2.18,-2.18 -1.205,0 -2.181,0.976 -2.181,2.18 0,1.204 0.976,2.181 2.181,2.181 1.204,0 2.18,-0.977 2.18,-2.181"
       style="fill:#231f20;fill-opacity:1;fill-rule:nonzero;stroke:none"
       id="path464" /><path
       d="m 286.871,248.32 c 0,-1.205 -0.975,-2.181 -2.18,-2.181 -1.205,0 -2.178,0.976 -2.178,2.181 0,1.203 0.973,2.18 2.178,2.18 1.205,0 2.18,-0.977 2.18,-2.18"
       style="fill:#231f20;fill-opacity:1;fill-rule:nonzero;stroke:none"
       id="path466" /><path
       d="m 197.541,167.049 h 46.512 v 18.532 h -46.512 z"
       style="fill:#ffffff;fill-opacity:1;fill-rule:nonzero;stroke:none"
       id="path468" /><path
       d="m 244.053,167.049 h -46.512 v 18.532 h 46.512 z"
       style="fill:none;stroke:#231f20;stroke-width:1;stroke-linecap:butt;stroke-linejoin:miter;stroke-miterlimit:4;stroke-dasharray:none;stroke-opacity:1"
       id="path472" /><text
       transform="scale(1,-1)"
       style="font-variant:normal;font-weight:normal;font-size:8px;font-family:Arial;-inkscape-font-specification:ArialMT;writing-mode:lr-tb;fill:#231f20;fill-opacity:1;fill-rule:nonzero;stroke:none"
       id="text478"
       x="203.8904"
       y="-173.8831"><tspan
         x="203.8904 209.22639 213.22639 217.67441 222.12241 226.5704 231.0184 235.4664"
         y="-173.8831"
         sodipodi:role="line"
         id="tspan476">Exponent</tspan></text><path
       d="m 171.786,167.049 h 26.345 v 18.532 h -26.345 z"
       style="fill:#ffffff;fill-opacity:1;fill-rule:nonzero;stroke:none"
       id="path480" /><path
       d="m 198.131,167.049 h -26.345 v 18.532 h 26.345 z"
       style="fill:none;stroke:#231f20;stroke-width:1;stroke-linecap:butt;stroke-linejoin:miter;stroke-miterlimit:4;stroke-dasharray:none;stroke-opacity:1"
       id="path484" /><text
       transform="scale(1,-1)"
       style="font-variant:normal;font-weight:normal;font-size:8px;font-family:Arial;-inkscape-font-specification:ArialMT;writing-mode:lr-tb;fill:#231f20;fill-opacity:1;fill-rule:nonzero;stroke:none"
       id="text490"
       x="176.9483"
       y="-173.8831"><tspan
         x="176.9483 182.2843 184.0603 188.5083"
         y="-173.8831"
         sodipodi:role="line"
         id="tspan488">Sign</tspan></text><path
       d="m 243.735,167.049 h 120.629 v 18.532 H 243.735 Z"
       style="fill:#ffffff;fill-opacity:1;fill-rule:nonzero;stroke:none"
       id="path492" /><path
       d="M 364.364,167.049 H 243.735 v 18.532 h 120.629 z"
       style="fill:none;stroke:#231f20;stroke-width:1;stroke-linecap:butt;stroke-linejoin:miter;stroke-miterlimit:4;stroke-dasharray:none;stroke-opacity:1"
       id="path496" /><text
       transform="scale(1,-1)"
       style="font-variant:normal;font-weight:normal;font-size:8px;font-family:Arial;-inkscape-font-specification:ArialMT;writing-mode:lr-tb;fill:#231f20;fill-opacity:1;fill-rule:nonzero;stroke:none"
       id="text502"
       x="290.0954"
       y="-173.8831"><tspan
         x="290.0954 294.62259 297.20581 301.65302 305.65219 307.8754 309.6506 314.09781"
         y="-173.8831"
         sodipodi:role="line"
         id="tspan500">Fraction</tspan></text><path
       d="M 284.696,209.983 V 193.087"
       style="fill:none;stroke:#231f20;stroke-width:0.75;stroke-linecap:butt;stroke-linejoin:miter;stroke-miterlimit:4;stroke-dasharray:none;stroke-opacity:1"
       id="path506" /><path
       d="m 285.743,190.673 c 0.511,1.689 0.981,2.788 1.525,4.143 h -5.152 c 0.229,-0.485 1.012,-2.454 1.523,-4.143 0.544,-1.81 0.918,-3.449 1.052,-4.512 0.132,1.063 0.506,2.702 1.052,4.512"
       style="fill:#231f20;fill-opacity:1;fill-rule:nonzero;stroke:none"
       id="path508" /><path
       d="M 217.915,209.983 V 193.087"
       style="fill:none;stroke:#231f20;stroke-width:0.75;stroke-linecap:butt;stroke-linejoin:miter;stroke-miterlimit:4;stroke-dasharray:none;stroke-opacity:1"
       id="path512" /><path
       d="m 218.963,190.673 c 0.51,1.689 0.98,2.788 1.524,4.143 h -5.154 c 0.23,-0.485 1.013,-2.454 1.524,-4.143 0.545,-1.81 0.92,-3.449 1.053,-4.512 0.133,1.063 0.506,2.702 1.053,4.512"
       style="fill:#231f20;fill-opacity:1;fill-rule:nonzero;stroke:none"
       id="path514" /><path
       d="m 286.871,202.534 c 0,-1.205 -0.975,-2.181 -2.18,-2.181 -1.205,0 -2.178,0.976 -2.178,2.181 0,1.203 0.973,2.181 2.178,2.181 1.205,0 2.18,-0.978 2.18,-2.181"
       style="fill:#231f20;fill-opacity:1;fill-rule:nonzero;stroke:none"
       id="path516" /><path
       d="m 220.09,202.534 c 0,-1.205 -0.976,-2.181 -2.18,-2.181 -1.204,0 -2.18,0.976 -2.18,2.181 0,1.203 0.976,2.181 2.18,2.181 1.204,0 2.18,-0.978 2.18,-2.181"
       style="fill:#231f20;fill-opacity:1;fill-rule:nonzero;stroke:none"
       id="path518" /><path
       d="M 284.691,248.32 H 184.028 v -55.233"
       style="fill:none;stroke:#231f20;stroke-width:0.75;stroke-linecap:butt;stroke-linejoin:miter;stroke-miterlimit:4;stroke-dasharray:none;stroke-opacity:1"
       id="path522" /><path
       d="m 185.075,190.673 c 0.511,1.689 0.981,2.788 1.525,4.143 h -5.155 c 0.23,-0.485 1.014,-2.454 1.524,-4.143 0.546,-1.81 0.92,-3.449 1.054,-4.512 0.133,1.063 0.506,2.702 1.052,4.512"
       style="fill:#231f20;fill-opacity:1;fill-rule:nonzero;stroke:none"
       id="path524" /><path
       d="M 217.91,202.534 H 97.361 v 140.447 h 110.65 V 314.91"
       style="fill:none;stroke:#231f20;stroke-width:0.75;stroke-linecap:butt;stroke-linejoin:miter;stroke-miterlimit:4;stroke-dasharray:none;stroke-opacity:1"
       id="path528" /><path
       d="m 209.059,312.496 c 0.51,1.69 0.98,2.789 1.524,4.144 h -5.155 c 0.23,-0.485 1.014,-2.454 1.525,-4.144 0.545,-1.809 0.919,-3.448 1.052,-4.512 0.134,1.064 0.507,2.703 1.054,4.512"
       style="fill:#231f20;fill-opacity:1;fill-rule:nonzero;stroke:none"
       id="path530" /><path
       d="m 284.691,202.534 h 89.007 v 122.46 H 130.611 v 55.052"
       style="fill:none;stroke:#231f20;stroke-width:0.75;stroke-linecap:butt;stroke-linejoin:miter;stroke-miterlimit:4;stroke-dasharray:none;stroke-opacity:1"
       id="path534" /><path
       d="m 129.563,382.459 c -0.51,-1.689 -0.981,-2.788 -1.524,-4.143 h 5.155 c -0.23,0.486 -1.014,2.454 -1.525,4.143 -0.545,1.809 -0.92,3.449 -1.053,4.512 -0.133,-1.063 -0.507,-2.703 -1.053,-4.512"
       style="fill:#231f20;fill-opacity:1;fill-rule:nonzero;stroke:none"
       id="path536" /><path
       d="M 315.376,329.536 H 137.424 v 49.965"
       style="fill:none;stroke:#231f20;stroke-width:0.75;stroke-linecap:butt;stroke-linejoin:miter;stroke-miterlimit:4;stroke-dasharray:none;stroke-opacity:1"
       id="path540" /><path
       d="m 136.377,381.914 c -0.51,-1.689 -0.98,-2.788 -1.524,-4.143 h 5.155 c -0.23,0.485 -1.014,2.454 -1.525,4.143 -0.545,1.809 -0.919,3.448 -1.053,4.512 -0.133,-1.064 -0.507,-2.703 -1.053,-4.512"
       style="fill:#231f20;fill-opacity:1;fill-rule:nonzero;stroke:none"
       id="path542" /><text
       transform="scale(1,-1)"
       style="font-variant:normal;font-weight:normal;font-size:8px;font-family:Arial;-inkscape-font-specification:ArialMT;writing-mode:lr-tb;fill:#231f20;fill-opacity:1;fill-rule:nonzero;stroke:none"
       id="text548"
       x="450.58041"
       y="-411.79709"><tspan
         x="450.58041 455.91641 460.36441 462.14041 464.36441 466.58841 468.81241 472.81241 479.47641 483.92441 485.70041 487.47641 491.92441"
         y="-411.79709"
         sodipodi:role="line"
         id="tspan546">Shift smaller</tspan></text><text
       transform="scale(1,-1)"
       style="font-variant:normal;font-weight:normal;font-size:8px;font-family:Arial;-inkscape-font-specification:ArialMT;writing-mode:lr-tb;fill:#231f20;fill-opacity:1;fill-rule:nonzero;stroke:none"
       id="text554"
       x="450.58041"
       y="-398.7171"><tspan
         x="450.58041 454.94839 459.39639 466.06039 470.50839 474.95639 477.62039 479.84439 482.62839 484.40439 488.85239 493.30042"
         y="-398.7171"
         sodipodi:role="line"
         id="tspan552">number right</tspan></text><text
       transform="scale(1,-1)"
       style="font-variant:normal;font-weight:normal;font-size:8px;font-family:Arial;-inkscape-font-specification:ArialMT;writing-mode:lr-tb;fill:#231f20;fill-opacity:1;fill-rule:nonzero;stroke:none"
       id="text560"
       x="450.58041"
       y="-352.62109"><tspan
         x="450.58041 455.91641 460.36441"
         y="-352.62109"
         sodipodi:role="line"
         id="tspan558">Add</tspan></text><text
       transform="scale(1,-1)"
       style="font-variant:normal;font-weight:normal;font-size:8px;font-family:Arial;-inkscape-font-specification:ArialMT;writing-mode:lr-tb;fill:#231f20;fill-opacity:1;fill-rule:nonzero;stroke:none"
       id="text566"
       x="450.58041"
       y="-262.7171"><tspan
         x="450.58041 456.35559 460.8028 463.66599 470.32919 474.7764 476.55161 478.32681 482.20599"
         y="-262.7171"
         sodipodi:role="line"
         id="tspan564">Normalize</tspan></text><text
       transform="scale(1,-1)"
       style="font-variant:normal;font-weight:normal;font-size:8px;font-family:Arial;-inkscape-font-specification:ArialMT;writing-mode:lr-tb;fill:#231f20;fill-opacity:1;fill-rule:nonzero;stroke:none"
       id="text572"
       x="450.58041"
       y="-215.9411"><tspan
         x="450.58041 456.35641 460.80441 465.25241 469.70041"
         y="-215.9411"
         sodipodi:role="line"
         id="tspan570">Round</tspan></text></g></svg>
