<?xml version="1.0" encoding="UTF-8" standalone="no"?>
<svg
   xmlns:dc="http://purl.org/dc/elements/1.1/"
   xmlns:cc="http://creativecommons.org/ns#"
   xmlns:rdf="http://www.w3.org/1999/02/22-rdf-syntax-ns#"
   xmlns:svg="http://www.w3.org/2000/svg"
   xmlns="http://www.w3.org/2000/svg"
   version="1.1"
   id="svg2"
   xml:space="preserve"
   width="457.83331"
   height="137.832"
   viewBox="0 0 457.83331 137.832"><metadata
     id="metadata8"><rdf:RDF><cc:Work
         rdf:about=""><dc:format>image/svg+xml</dc:format><dc:type
           rdf:resource="http://purl.org/dc/dcmitype/StillImage" /><dc:title></dc:title></cc:Work></rdf:RDF></metadata><defs
     id="defs6"><clipPath
       clipPathUnits="userSpaceOnUse"
       id="clipPath20"><path
         d="M 0,0 H 539 V 665 H 0 Z"
         id="path18" /></clipPath><clipPath
       clipPathUnits="userSpaceOnUse"
       id="clipPath410"><path
         d="M 486.721,585.346 H 143.346 V 481.972 h 343.375 z"
         id="path408" /></clipPath><clipPath
       clipPathUnits="userSpaceOnUse"
       id="clipPath416"><path
         d="M 0,0 H 539 V 665 H 0 Z"
         id="path414" /></clipPath><clipPath
       clipPathUnits="userSpaceOnUse"
       id="clipPath472"><path
         d="M 0,0 H 539 V 665 H 0 Z"
         id="path470" /></clipPath></defs><g
     id="g10"
     transform="matrix(1.3333333,0,0,-1.3333333,-191.128,780.46131)"><g
       id="g12" /><path
       d="m 143.596,585.346 h 61.525 v -14 h -61.525 z m 61.525,0 h 51.241 v -14 h -51.241 z m 51.241,0 h 230.109 v -14 H 256.362 Z"
       style="fill:#00adef;fill-opacity:1;fill-rule:nonzero;stroke:none"
       id="path310" /><path
       d="m 143.596,571.346 h 61.525 v -2 h -61.525 z m 61.525,0 h 51.241 v -2 h -51.241 z m 51.241,0 h 230.109 v -2 H 256.362 Z"
       style="fill:#ffffff;fill-opacity:1;fill-rule:nonzero;stroke:none"
       id="path312" /><path
       d="m 143.596,569.346 h 61.525 v -11.625 h -61.525 z m 61.525,0 h 51.241 v -11.625 h -51.241 z m 51.241,0 H 486.471 V 557.721 H 256.362 Z M 143.596,557.721 h 61.525 v -11.5 h -61.525 z m 61.525,0 h 51.241 v -11.5 h -51.241 z m 51.241,0 h 230.109 v -11.5 H 256.362 Z m -112.766,-11.5 h 61.525 v -20.5 h -61.525 z m 61.525,0 h 51.241 v -20.5 h -51.241 z m 51.241,0 h 230.109 v -20.5 H 256.362 Z m -112.766,-20.5 h 61.525 v -11.5 h -61.525 z m 61.525,0 h 51.241 v -11.5 h -51.241 z m 51.241,0 h 230.109 v -11.5 H 256.362 Z m -112.766,-11.5 h 61.525 v -11.5 h -61.525 z m 61.525,0 h 51.241 v -11.5 h -51.241 z m 51.241,0 h 230.109 v -11.5 H 256.362 Z m -112.766,-11.5 h 61.525 v -20.5 h -61.525 z m 61.525,0 h 51.241 v -20.5 h -51.241 z m 51.241,0 h 230.109 v -20.5 H 256.362 Z"
       style="fill:#ffffff;fill-opacity:1;fill-rule:nonzero;stroke:none"
       id="path314" /><path
       d="m 143.471,557.721 h 61.65"
       style="fill:none;stroke:#231f20;stroke-width:0.5;stroke-linecap:butt;stroke-linejoin:miter;stroke-miterlimit:10;stroke-dasharray:none;stroke-opacity:1"
       id="path318" /><path
       d="m 205.12,557.721 h 51.242 230.234"
       style="fill:none;stroke:#231f20;stroke-width:0.5;stroke-linecap:butt;stroke-linejoin:miter;stroke-miterlimit:10;stroke-dasharray:none;stroke-opacity:1"
       id="path322" /><path
       d="m 143.471,546.221 h 61.65"
       style="fill:none;stroke:#231f20;stroke-width:0.5;stroke-linecap:butt;stroke-linejoin:miter;stroke-miterlimit:10;stroke-dasharray:none;stroke-opacity:1"
       id="path326" /><path
       d="m 205.12,546.221 h 51.242 230.234"
       style="fill:none;stroke:#231f20;stroke-width:0.5;stroke-linecap:butt;stroke-linejoin:miter;stroke-miterlimit:10;stroke-dasharray:none;stroke-opacity:1"
       id="path330" /><path
       d="m 143.471,525.722 h 61.65"
       style="fill:none;stroke:#231f20;stroke-width:0.5;stroke-linecap:butt;stroke-linejoin:miter;stroke-miterlimit:10;stroke-dasharray:none;stroke-opacity:1"
       id="path334" /><path
       d="m 205.12,525.722 h 51.242 230.234"
       style="fill:none;stroke:#231f20;stroke-width:0.5;stroke-linecap:butt;stroke-linejoin:miter;stroke-miterlimit:10;stroke-dasharray:none;stroke-opacity:1"
       id="path338" /><path
       d="m 143.471,514.222 h 61.65"
       style="fill:none;stroke:#231f20;stroke-width:0.5;stroke-linecap:butt;stroke-linejoin:miter;stroke-miterlimit:10;stroke-dasharray:none;stroke-opacity:1"
       id="path342" /><path
       d="m 205.12,514.222 h 51.242 230.234"
       style="fill:none;stroke:#231f20;stroke-width:0.5;stroke-linecap:butt;stroke-linejoin:miter;stroke-miterlimit:10;stroke-dasharray:none;stroke-opacity:1"
       id="path346" /><path
       d="m 143.471,502.722 h 61.65"
       style="fill:none;stroke:#231f20;stroke-width:0.5;stroke-linecap:butt;stroke-linejoin:miter;stroke-miterlimit:10;stroke-dasharray:none;stroke-opacity:1"
       id="path350" /><path
       d="m 205.12,502.722 h 51.242 230.234"
       style="fill:none;stroke:#231f20;stroke-width:0.5;stroke-linecap:butt;stroke-linejoin:miter;stroke-miterlimit:10;stroke-dasharray:none;stroke-opacity:1"
       id="path354" /><path
       d="m 205.12,557.846 v 11.375"
       style="fill:none;stroke:#231f20;stroke-width:0.5;stroke-linecap:butt;stroke-linejoin:miter;stroke-miterlimit:10;stroke-dasharray:none;stroke-opacity:1"
       id="path358" /><path
       d="m 205.12,546.346 v 11.25"
       style="fill:none;stroke:#231f20;stroke-width:0.5;stroke-linecap:butt;stroke-linejoin:miter;stroke-miterlimit:10;stroke-dasharray:none;stroke-opacity:1"
       id="path362" /><path
       d="m 205.12,525.847 v 20.25"
       style="fill:none;stroke:#231f20;stroke-width:0.5;stroke-linecap:butt;stroke-linejoin:miter;stroke-miterlimit:10;stroke-dasharray:none;stroke-opacity:1"
       id="path366" /><path
       d="m 205.12,514.347 v 11.25"
       style="fill:none;stroke:#231f20;stroke-width:0.5;stroke-linecap:butt;stroke-linejoin:miter;stroke-miterlimit:10;stroke-dasharray:none;stroke-opacity:1"
       id="path370" /><path
       d="m 205.12,502.847 v 11.25"
       style="fill:none;stroke:#231f20;stroke-width:0.5;stroke-linecap:butt;stroke-linejoin:miter;stroke-miterlimit:10;stroke-dasharray:none;stroke-opacity:1"
       id="path374" /><path
       d="m 205.12,482.347 v 20.25"
       style="fill:none;stroke:#231f20;stroke-width:0.5;stroke-linecap:butt;stroke-linejoin:miter;stroke-miterlimit:10;stroke-dasharray:none;stroke-opacity:1"
       id="path378" /><path
       d="m 256.362,557.846 v 11.375"
       style="fill:none;stroke:#231f20;stroke-width:0.5;stroke-linecap:butt;stroke-linejoin:miter;stroke-miterlimit:10;stroke-dasharray:none;stroke-opacity:1"
       id="path382" /><path
       d="m 256.362,546.346 v 11.25"
       style="fill:none;stroke:#231f20;stroke-width:0.5;stroke-linecap:butt;stroke-linejoin:miter;stroke-miterlimit:10;stroke-dasharray:none;stroke-opacity:1"
       id="path386" /><path
       d="m 256.362,525.847 v 20.25"
       style="fill:none;stroke:#231f20;stroke-width:0.5;stroke-linecap:butt;stroke-linejoin:miter;stroke-miterlimit:10;stroke-dasharray:none;stroke-opacity:1"
       id="path390" /><path
       d="m 256.362,514.347 v 11.25"
       style="fill:none;stroke:#231f20;stroke-width:0.5;stroke-linecap:butt;stroke-linejoin:miter;stroke-miterlimit:10;stroke-dasharray:none;stroke-opacity:1"
       id="path394" /><path
       d="m 256.362,502.847 v 11.25"
       style="fill:none;stroke:#231f20;stroke-width:0.5;stroke-linecap:butt;stroke-linejoin:miter;stroke-miterlimit:10;stroke-dasharray:none;stroke-opacity:1"
       id="path398" /><path
       d="m 256.362,482.347 v 20.25"
       style="fill:none;stroke:#231f20;stroke-width:0.5;stroke-linecap:butt;stroke-linejoin:miter;stroke-miterlimit:10;stroke-dasharray:none;stroke-opacity:1"
       id="path402" /><g
       id="g404"><g
         id="g406"
         clip-path="url(#clipPath410)"><g
           id="g412"
           clip-path="url(#clipPath416)"><g
             id="g418"
             transform="translate(143.596,557.846)"><path
               d="M 0,0 V 11.375"
               style="fill:none;stroke:#231f20;stroke-width:0.5;stroke-linecap:butt;stroke-linejoin:miter;stroke-miterlimit:10;stroke-dasharray:none;stroke-opacity:1"
               id="path420" /></g><g
             id="g422"
             transform="translate(143.596,546.346)"><path
               d="M 0,0 V 11.25"
               style="fill:none;stroke:#231f20;stroke-width:0.5;stroke-linecap:butt;stroke-linejoin:miter;stroke-miterlimit:10;stroke-dasharray:none;stroke-opacity:1"
               id="path424" /></g><g
             id="g426"
             transform="translate(143.596,525.847)"><path
               d="M 0,0 V 20.25"
               style="fill:none;stroke:#231f20;stroke-width:0.5;stroke-linecap:butt;stroke-linejoin:miter;stroke-miterlimit:10;stroke-dasharray:none;stroke-opacity:1"
               id="path428" /></g><g
             id="g430"
             transform="translate(143.596,514.347)"><path
               d="M 0,0 V 11.25"
               style="fill:none;stroke:#231f20;stroke-width:0.5;stroke-linecap:butt;stroke-linejoin:miter;stroke-miterlimit:10;stroke-dasharray:none;stroke-opacity:1"
               id="path432" /></g><g
             id="g434"
             transform="translate(143.596,502.847)"><path
               d="M 0,0 V 11.25"
               style="fill:none;stroke:#231f20;stroke-width:0.5;stroke-linecap:butt;stroke-linejoin:miter;stroke-miterlimit:10;stroke-dasharray:none;stroke-opacity:1"
               id="path436" /></g><g
             id="g438"
             transform="translate(143.596,482.347)"><path
               d="M 0,0 V 20.25"
               style="fill:none;stroke:#231f20;stroke-width:0.5;stroke-linecap:butt;stroke-linejoin:miter;stroke-miterlimit:10;stroke-dasharray:none;stroke-opacity:1"
               id="path440" /></g><g
             id="g442"
             transform="translate(486.471,557.846)"><path
               d="M 0,0 V 11.375"
               style="fill:none;stroke:#231f20;stroke-width:0.5;stroke-linecap:butt;stroke-linejoin:miter;stroke-miterlimit:10;stroke-dasharray:none;stroke-opacity:1"
               id="path444" /></g><g
             id="g446"
             transform="translate(486.471,546.346)"><path
               d="M 0,0 V 11.25"
               style="fill:none;stroke:#231f20;stroke-width:0.5;stroke-linecap:butt;stroke-linejoin:miter;stroke-miterlimit:10;stroke-dasharray:none;stroke-opacity:1"
               id="path448" /></g><g
             id="g450"
             transform="translate(486.471,525.847)"><path
               d="M 0,0 V 20.25"
               style="fill:none;stroke:#231f20;stroke-width:0.5;stroke-linecap:butt;stroke-linejoin:miter;stroke-miterlimit:10;stroke-dasharray:none;stroke-opacity:1"
               id="path452" /></g><g
             id="g454"
             transform="translate(486.471,514.347)"><path
               d="M 0,0 V 11.25"
               style="fill:none;stroke:#231f20;stroke-width:0.5;stroke-linecap:butt;stroke-linejoin:miter;stroke-miterlimit:10;stroke-dasharray:none;stroke-opacity:1"
               id="path456" /></g><g
             id="g458"
             transform="translate(486.471,502.847)"><path
               d="M 0,0 V 11.25"
               style="fill:none;stroke:#231f20;stroke-width:0.5;stroke-linecap:butt;stroke-linejoin:miter;stroke-miterlimit:10;stroke-dasharray:none;stroke-opacity:1"
               id="path460" /></g><g
             id="g462"
             transform="translate(486.471,482.347)"><path
               d="M 0,0 V 20.25"
               style="fill:none;stroke:#231f20;stroke-width:0.5;stroke-linecap:butt;stroke-linejoin:miter;stroke-miterlimit:10;stroke-dasharray:none;stroke-opacity:1"
               id="path464" /></g></g></g></g><path
       d="m 143.471,482.222 h 61.65"
       style="fill:none;stroke:#231f20;stroke-width:0.5;stroke-linecap:butt;stroke-linejoin:miter;stroke-miterlimit:10;stroke-dasharray:none;stroke-opacity:1"
       id="path476" /><path
       d="m 205.12,482.222 h 51.242 230.234"
       style="fill:none;stroke:#231f20;stroke-width:0.5;stroke-linecap:butt;stroke-linejoin:miter;stroke-miterlimit:10;stroke-dasharray:none;stroke-opacity:1"
       id="path480" /><path
       d="M 256.362,569.346 H 486.596"
       style="fill:none;stroke:#231f20;stroke-width:0.5;stroke-linecap:butt;stroke-linejoin:miter;stroke-miterlimit:10;stroke-dasharray:none;stroke-opacity:1"
       id="path484" /><path
       d="m 205.12,569.346 h 51.242"
       style="fill:none;stroke:#231f20;stroke-width:0.5;stroke-linecap:butt;stroke-linejoin:miter;stroke-miterlimit:10;stroke-dasharray:none;stroke-opacity:1"
       id="path488" /><path
       d="m 143.471,569.346 h 61.65"
       style="fill:none;stroke:#231f20;stroke-width:0.5;stroke-linecap:butt;stroke-linejoin:miter;stroke-miterlimit:10;stroke-dasharray:none;stroke-opacity:1"
       id="path492" /><path
       d="m 205.121,571.346 v 14"
       style="fill:none;stroke:#ffffff;stroke-width:1;stroke-linecap:butt;stroke-linejoin:miter;stroke-miterlimit:10;stroke-dasharray:none;stroke-opacity:1"
       id="path496" /><path
       d="m 256.363,571.346 v 14"
       style="fill:none;stroke:#ffffff;stroke-width:1;stroke-linecap:butt;stroke-linejoin:miter;stroke-miterlimit:10;stroke-dasharray:none;stroke-opacity:1"
       id="path500" /><text
       transform="scale(1,-1)"
       style="font-variant:normal;font-weight:900;font-size:8px;font-family:FranklinGothic;-inkscape-font-specification:FranklinGothic-Heavy;writing-mode:lr-tb;fill:#ffffff;fill-opacity:1;fill-rule:nonzero;stroke:none"
       id="text506"
       x="151.284"
       y="-574.98651"><tspan
         x="151.284 158.164 162.964 167.604 170.004 174.32401 179.12399 183.76399 186.964 190.23599 195.036 217.108 222.388 227.188 231.98801 235.252 239.57201"
         y="-574.98651"
         id="tspan504">Mux controlSource</tspan></text><text
       transform="scale(1,-1)"
       style="font-variant:normal;font-weight:900;font-size:8px;font-family:FranklinGothic;-inkscape-font-specification:FranklinGothic-Heavy;writing-mode:lr-tb;fill:#ffffff;fill-opacity:1;fill-rule:nonzero;stroke:none"
       id="text512"
       x="348.69199"
       y="-574.98651"><tspan
         x="348.69199 353.492 358.13199 362.772 365.172 369.81201 374.452 379.09201 382.29199 384.69199 389.492"
         y="-574.98651"
         id="tspan510">Explanation</tspan></text><text
       transform="scale(1,-1)"
       style="font-variant:normal;font-weight:normal;font-size:7.5px;font-family:FranklinGothic;-inkscape-font-specification:FranklinGothic-Book;writing-mode:lr-tb;fill:#231f20;fill-opacity:1;fill-rule:nonzero;stroke:none"
       id="text518"
       x="146.5965"
       y="-561.0769"><tspan
         x="146.5965 150.04649 154.0965 156.49651 161.304 165.354 167.754 171.804 176.004 178.254 182.754 185.004 189.504 208.1265 210.07649 215.0265 218.9265 223.1265 259.36649 263.11649 267.1665 271.21649 273.46649 277.21649 279.729 283.629 286.02899 288.27899 292.479 296.229 301.02899 303.27899 307.32901 311.379 315.42902 317.82901 321.879 325.92902 329.979 332.229 335.82901 339.879 346.02899 350.07901 353.979 356.229 358.479 360.879 364.92902 371.07901 373.32901 375.729 379.77899 383.82901 386.07901 388.479 392.52899 396.27899 398.07901 401.979 404.379 408.42899 410.82901 413.07901 416.82901 418.629 422.67899"
         y="-561.0769"
         id="tspan516">ForwardA = 00ID/EXThe frst ALU operand comes from the register fle.</tspan></text><text
       transform="scale(1,-1)"
       style="font-variant:normal;font-weight:normal;font-size:7.5px;font-family:FranklinGothic;-inkscape-font-specification:FranklinGothic-Book;writing-mode:lr-tb;fill:#231f20;fill-opacity:1;fill-rule:nonzero;stroke:none"
       id="text524"
       x="146.5965"
       y="-549.57941"><tspan
         x="146.5965 150.04649 154.0965 156.49651 161.304 165.354 167.754 171.804 176.004 178.254 182.754 185.004 189.504 208.1265 212.32651 216.3765 220.2765 226.4265 230.6265 259.36649 263.11649 267.1665 271.21649 273.46649 277.21649 279.729 283.629 286.02899 288.27899 292.479 296.229 301.02899 303.27899 307.32901 311.379 315.42902 317.82901 321.879 325.92902 329.979 332.229 334.02899 337.92902 340.17902 342.42902 346.479 348.879 353.68649 357.73651 360.13651 364.18649 368.23651 372.2865 374.5365 376.7865 379.18649 383.23651 389.38651 391.63651 394.0365 398.08652 402.13651 404.38651 408.43649 410.83649 412.63651 416.68649 419.08649 421.33649 425.5365 429.2865 434.08649 436.33649 438.73651 442.7865 446.68649 450.73651 452.5365 454.93649"
         y="-549.57941"
         id="tspan522">ForwardA = 10EX/MEMThe frst ALU operand is forwarded from the prior ALU result.</tspan></text><text
       transform="scale(1,-1)"
       style="font-variant:normal;font-weight:normal;font-size:7.5px;font-family:FranklinGothic;-inkscape-font-specification:FranklinGothic-Book;writing-mode:lr-tb;fill:#231f20;fill-opacity:1;fill-rule:nonzero;stroke:none"
       id="text530"
       x="146.5965"
       y="-538.08191"><tspan
         x="146.5965 150.04649 154.0965 156.49651 161.304 165.354 167.754 171.804 176.004 178.254 182.754 185.004 189.504 208.1265 214.2765 218.4765 224.6265 228.5265 234.6765 259.35901 263.10901 267.159 271.20901 273.45901 277.20901 279.7215 283.62149 286.02151 288.27151 292.4715 296.2215 301.02151 303.27151 307.3215 311.37149 315.42151 317.8215 321.87149 325.92151 329.9715 332.2215 334.02151 337.92151 340.17151 342.42151 346.4715 348.87149 353.67902 357.729 360.129 364.17902 368.229 372.27899 374.52899 376.77899 379.17902 383.229 389.379 391.629 395.67902 399.729 402.129 406.17899 408.42899 414.57901 418.629 424.77899 428.82901 431.604 434.754 437.004 441.05399 443.45401 445.70401 449.754 453.80399 456.05399 460.104 464.15399 466.70401 468.504 470.30399 474.354 476.754"
         y="-538.08191"
         id="tspan528">ForwardA = 01MEM/WBThe frst ALU operand is forwarded from data memory or an earlier </tspan></text><text
       transform="scale(1,-1)"
       style="font-variant:normal;font-weight:normal;font-size:7.5px;font-family:FranklinGothic;-inkscape-font-specification:FranklinGothic-Book;writing-mode:lr-tb;fill:#231f20;fill-opacity:1;fill-rule:nonzero;stroke:none"
       id="text536"
       x="259.35901"
       y="-529.08191"><tspan
         x="259.35901 263.55899 267.30899 272.10901 274.35901 276.759 280.80899 284.70901 288.759 290.55899 292.95898"
         y="-529.08191"
         id="tspan534">ALU result.</tspan></text><text
       transform="scale(1,-1)"
       style="font-variant:normal;font-weight:normal;font-size:7.5px;font-family:FranklinGothic;-inkscape-font-specification:FranklinGothic-Book;writing-mode:lr-tb;fill:#231f20;fill-opacity:1;fill-rule:nonzero;stroke:none"
       id="text542"
       x="146.5965"
       y="-517.58441"><tspan
         x="146.5965 150.054 154.104 156.504 161.31149 165.3615 167.76151 171.81149 176.4615 178.7115 183.2115 185.4615 189.9615 208.134 210.084 215.034 218.93401 223.134 259.37399 263.12399 267.17401 271.224 273.474 277.37399 281.42401 285.02402 289.07401 293.12399 297.17401 299.42401 303.62399 307.37399 312.17401 314.42401 318.474 322.52402 326.57401 328.974 333.02402 337.07401 341.12399 343.37399 346.974 351.02402 357.17401 361.224 365.12399 367.37399 369.62399 372.02402 376.07401 382.224 384.474 386.87399 390.92401 394.974 397.224 399.62399 403.67401 407.42401 409.224 413.12399 415.52399 419.57401 421.974 424.224 427.974 429.77399 433.82401"
         y="-517.58441"
         id="tspan540">ForwardB = 00ID/EXThe second ALU operand comes from the register fle.</tspan></text><text
       transform="scale(1,-1)"
       style="font-variant:normal;font-weight:normal;font-size:7.5px;font-family:FranklinGothic;-inkscape-font-specification:FranklinGothic-Book;writing-mode:lr-tb;fill:#231f20;fill-opacity:1;fill-rule:nonzero;stroke:none"
       id="text548"
       x="146.5965"
       y="-506.08691"><tspan
         x="146.5965 150.054 154.104 156.504 161.31149 165.3615 167.76151 171.81149 176.4615 178.7115 183.2115 185.4615 189.9615 208.134 212.334 216.384 220.284 226.43401 230.634 259.37399 263.12399 267.17401 271.224 273.474 277.37399 281.42401 285.02402 289.07401 293.12399 297.17401 299.42401 303.62399 307.37399 312.17401 314.42401 318.474 322.52402 326.57401 328.974 333.02402 337.07401 341.12399 343.37399 345.17401 349.07401 351.32401 353.57401 357.62399 360.02402 364.83151 368.8815 371.28149 375.33151 379.3815 383.43152 385.68152 387.93152 390.33151 394.3815 400.53149 402.78149 405.18149 409.23151 413.28149 415.53149 419.58148 421.98151 423.78149 427.83148 430.23151 432.48151 436.68149 440.43149 445.23151 447.48151 449.8815 453.93149 457.83148 461.8815 463.68149 466.08148"
         y="-506.08691"
         id="tspan546">ForwardB = 10EX/MEMThe second ALU operand is forwarded from the prior ALU result.</tspan></text><text
       transform="scale(1,-1)"
       style="font-variant:normal;font-weight:normal;font-size:7.5px;font-family:FranklinGothic;-inkscape-font-specification:FranklinGothic-Book;writing-mode:lr-tb;fill:#231f20;fill-opacity:1;fill-rule:nonzero;stroke:none"
       id="text554"
       x="146.5965"
       y="-494.58939"><tspan
         x="146.5965 150.054 154.104 156.504 161.31149 165.3615 167.76151 171.81149 176.4615 178.7115 183.2115 185.4615 189.9615 208.134 214.284 218.48399 224.634 228.534 234.68401 259.37399 263.12399 267.17401 271.224 273.474 277.37399 281.42401 285.02402 289.07401 293.12399 297.17401 299.42401 303.62399 307.37399 312.17401 314.42401 318.474 322.52402 326.57401 328.974 333.02402 337.07401 341.12399 343.37399 345.17401 349.07401 351.32401 353.57401 357.62399 360.02402 364.83151 368.8815 371.28149 375.33151 379.3815 383.43152 385.68152 387.93152 390.33151 394.3815 400.53149 402.78149 406.83148 410.8815 413.28149 417.33148 419.58148 425.73151 429.78149 435.93149 439.98151 442.7565 445.90649 448.15649 452.20648 454.60651 456.85651 460.90649 464.95648"
         y="-494.58939"
         id="tspan552">ForwardB = 01MEM/WBThe second ALU operand is forwarded from data memory or an </tspan></text><text
       transform="scale(1,-1)"
       style="font-variant:normal;font-weight:normal;font-size:7.5px;font-family:FranklinGothic;-inkscape-font-specification:FranklinGothic-Book;writing-mode:lr-tb;fill:#231f20;fill-opacity:1;fill-rule:nonzero;stroke:none"
       id="text560"
       x="259.35901"
       y="-485.58939"><tspan
         x="259.35901 263.409 267.45901 270.009 271.80899 273.60901 277.659 280.05899 282.30899 286.509 290.259 295.05899 297.30899 299.70898 303.759 307.659 311.70898 313.509 315.909"
         y="-485.58939"
         id="tspan558">earlier ALU result.</tspan></text></g></svg>
