<?xml version="1.0" encoding="UTF-8" standalone="no"?>
<svg
   xmlns:dc="http://purl.org/dc/elements/1.1/"
   xmlns:cc="http://creativecommons.org/ns#"
   xmlns:rdf="http://www.w3.org/1999/02/22-rdf-syntax-ns#"
   xmlns:svg="http://www.w3.org/2000/svg"
   xmlns="http://www.w3.org/2000/svg"
   version="1.1"
   id="svg2"
   xml:space="preserve"
   width="373.612"
   height="190.83333"
   viewBox="0 0 373.612 190.83333"><metadata
     id="metadata8"><rdf:RDF><cc:Work
         rdf:about=""><dc:format>image/svg+xml</dc:format><dc:type
           rdf:resource="http://purl.org/dc/dcmitype/StillImage" /><dc:title></dc:title></cc:Work></rdf:RDF></metadata><defs
     id="defs6"><clipPath
       clipPathUnits="userSpaceOnUse"
       id="clipPath20"><path
         d="M 0,0 H 539 V 665 H 0 Z"
         id="path18" /></clipPath><clipPath
       clipPathUnits="userSpaceOnUse"
       id="clipPath402"><path
         d="M 454.951,585.346 H 174.742 V 442.221 h 280.209 z"
         id="path400" /></clipPath><clipPath
       clipPathUnits="userSpaceOnUse"
       id="clipPath408"><path
         d="M 0,0 H 539 V 665 H 0 Z"
         id="path406" /></clipPath><clipPath
       clipPathUnits="userSpaceOnUse"
       id="clipPath420"><path
         d="M 0,0 H 539 V 665 H 0 Z"
         id="path418" /></clipPath></defs><g
     id="g10"
     transform="matrix(1.3333333,0,0,-1.3333333,-232.98933,780.46131)"><g
       id="g12" /><path
       d="m 273.213,462.179 h 2.641 v 27.001 h -2.641 z"
       style="fill:#bdbcbc;fill-opacity:1;fill-rule:nonzero;stroke:none"
       id="path358" /><path
       d="m 303.867,462.179 v -19.333 h 127.5 v 11.976"
       style="fill:none;stroke:#00adef;stroke-width:1;stroke-linecap:butt;stroke-linejoin:miter;stroke-miterlimit:4;stroke-dasharray:none;stroke-opacity:1"
       id="path362" /><path
       d="m 430.406,457.037 c -0.468,-1.551 -0.899,-2.559 -1.398,-3.801 h 4.729 c -0.212,0.445 -0.931,2.25 -1.398,3.801 -0.502,1.658 -0.845,3.162 -0.967,4.139 -0.122,-0.977 -0.465,-2.481 -0.966,-4.139"
       style="fill:#00adef;fill-opacity:1;fill-rule:nonzero;stroke:none"
       id="path364" /><path
       d="M 410.803,469.346 H 365.867"
       style="fill:none;stroke:#00adef;stroke-width:1;stroke-linecap:butt;stroke-linejoin:miter;stroke-miterlimit:4;stroke-dasharray:none;stroke-opacity:1"
       id="path368" /><path
       d="m 363.653,468.385 c 1.55,-0.467 2.557,-0.899 3.801,-1.399 v 4.731 c -0.445,-0.213 -2.251,-0.932 -3.801,-1.399 -1.659,-0.502 -3.164,-0.846 -4.139,-0.967 0.975,-0.123 2.48,-0.464 4.139,-0.966"
       style="fill:#00adef;fill-opacity:1;fill-rule:nonzero;stroke:none"
       id="path370" /><path
       d="M 410.803,482.346 H 365.867"
       style="fill:none;stroke:#00adef;stroke-width:1;stroke-linecap:butt;stroke-linejoin:miter;stroke-miterlimit:4;stroke-dasharray:none;stroke-opacity:1"
       id="path374" /><path
       d="m 363.653,481.385 c 1.55,-0.467 2.557,-0.899 3.801,-1.399 v 4.731 c -0.445,-0.213 -2.251,-0.932 -3.801,-1.399 -1.659,-0.502 -3.164,-0.846 -4.139,-0.967 0.975,-0.123 2.48,-0.464 4.139,-0.966"
       style="fill:#00adef;fill-opacity:1;fill-rule:nonzero;stroke:none"
       id="path376" /><path
       d="M 274.454,567.346 V 545.573"
       style="fill:none;stroke:#231f20;stroke-width:1.25;stroke-linecap:butt;stroke-linejoin:miter;stroke-miterlimit:4;stroke-dasharray:none;stroke-opacity:1"
       id="path380" /><path
       d="m 275.415,543.36 c 0.468,1.55 0.899,2.558 1.398,3.801 h -4.729 c 0.212,-0.446 0.93,-2.251 1.399,-3.801 0.501,-1.659 0.843,-3.163 0.966,-4.139 0.122,0.976 0.465,2.48 0.966,4.139"
       style="fill:#231f20;fill-opacity:1;fill-rule:nonzero;stroke:none"
       id="path382" /><path
       d="m 244.867,508.845 v -13.25"
       style="fill:none;stroke:#231f20;stroke-width:1.25;stroke-linecap:butt;stroke-linejoin:miter;stroke-miterlimit:4;stroke-dasharray:none;stroke-opacity:1"
       id="path386" /><path
       d="m 245.828,493.383 c 0.468,1.549 0.9,2.557 1.398,3.801 h -4.729 c 0.212,-0.445 0.931,-2.252 1.399,-3.801 0.501,-1.66 0.844,-3.164 0.966,-4.139 0.122,0.975 0.465,2.479 0.966,4.139"
       style="fill:#231f20;fill-opacity:1;fill-rule:nonzero;stroke:none"
       id="path388" /><path
       d="m 418.367,487.974 v 36.872 h -128.25"
       style="fill:none;stroke:#231f20;stroke-width:0.75;stroke-linecap:butt;stroke-linejoin:miter;stroke-miterlimit:4;stroke-dasharray:none;stroke-opacity:1"
       id="path392" /><path
       d="m 287.903,523.885 c 1.55,-0.468 2.557,-0.9 3.8,-1.399 v 4.73 c -0.444,-0.212 -2.25,-0.931 -3.8,-1.398 -1.659,-0.502 -3.163,-0.845 -4.139,-0.967 0.976,-0.122 2.48,-0.465 4.139,-0.966"
       style="fill:#231f20;fill-opacity:1;fill-rule:nonzero;stroke:none"
       id="path394" /><g
       id="g396"><g
         id="g398"
         clip-path="url(#clipPath402)"><g
           id="g404"
           clip-path="url(#clipPath408)"><g
             id="g410"
             transform="translate(245.367,461.846)"><path
               d="M 0,0 V -19 H -70 V 98 h 40.5 V 83.727"
               style="fill:none;stroke:#231f20;stroke-width:1.25;stroke-linecap:butt;stroke-linejoin:miter;stroke-miterlimit:4;stroke-dasharray:none;stroke-opacity:1"
               id="path412" /></g></g></g></g><path
       d="m 216.828,543.36 c 0.468,1.55 0.899,2.558 1.398,3.801 h -4.729 c 0.212,-0.446 0.931,-2.251 1.399,-3.801 0.501,-1.659 0.844,-3.163 0.966,-4.139 0.122,0.976 0.465,2.48 0.966,4.139"
       style="fill:#231f20;fill-opacity:1;fill-rule:nonzero;stroke:none"
       id="path422" /><path
       d="m 249.198,567.346 h 50.501 v 17.5 h -50.501 z"
       style="fill:#cceffc;fill-opacity:1;fill-rule:nonzero;stroke:none"
       id="path424" /><path
       d="m 299.699,567.346 h -50.501 v 17.5 h 50.501 z"
       style="fill:none;stroke:#00adef;stroke-width:1;stroke-linecap:butt;stroke-linejoin:miter;stroke-miterlimit:4;stroke-dasharray:none;stroke-opacity:1"
       id="path428" /><text
       transform="scale(1,-1)"
       style="font-variant:normal;font-weight:normal;font-size:8px;font-family:Arial;-inkscape-font-specification:ArialMT;writing-mode:lr-tb;fill:#00adef;fill-opacity:1;fill-rule:nonzero;stroke:none"
       id="text434"
       x="253.3327"
       y="-573.17902"><tspan
         x="253.3327 259.9967 264.4447 266.2207 268.4447 270.2207 274.6687 276.4447 278.2207 282.2207 286.6687 291.1167"
         y="-573.17902"
         id="tspan432">Multiplicand</tspan></text><text
       transform="scale(1,-1)"
       style="font-variant:normal;font-weight:normal;font-size:8px;font-family:Arial;-inkscape-font-specification:ArialMT;writing-mode:lr-tb;fill:#231f20;fill-opacity:1;fill-rule:nonzero;stroke:none"
       id="text440"
       x="278.36469"
       y="-558.34698"><tspan
         x="278.36469 282.81271 287.26071 289.48471 293.93271 295.70871 297.93271"
         y="-558.34698"
         id="tspan438">32 bits</tspan></text><path
       d="m 254.888,539.221 -9.292,-9.167 -9.291,9.167 h -42.25 l 30.25,-30.376 h 42.583 l 30.25,30.376 h -42.25"
       style="fill:#cceffc;fill-opacity:1;fill-rule:nonzero;stroke:none"
       id="path442" /><path
       d="m 254.888,539.221 -9.292,-9.167 -9.291,9.167 h -42.25 l 30.25,-30.376 h 42.583 l 30.25,30.376 z"
       style="fill:none;stroke:#00adef;stroke-width:1;stroke-linecap:butt;stroke-linejoin:miter;stroke-miterlimit:4;stroke-dasharray:none;stroke-opacity:1"
       id="path446" /><text
       transform="scale(1,-1)"
       style="font-variant:normal;font-weight:normal;font-size:8px;font-family:Arial;-inkscape-font-specification:ArialMT;writing-mode:lr-tb;fill:#00adef;fill-opacity:1;fill-rule:nonzero;stroke:none"
       id="text452"
       x="227.2421"
       y="-516.84601"><tspan
         x="227.2421 231.69009 236.13811 238.80209 243.25011 245.02611 247.25011 249.47411 254.8101 259.25809"
         y="-516.84601"
         id="tspan450">32-bit ALU</tspan></text><path
       d="m 359.596,462.096 h -170 v 26.999 h 170 z"
       style="fill:none;stroke:#231f20;stroke-width:1;stroke-linecap:butt;stroke-linejoin:miter;stroke-miterlimit:4;stroke-dasharray:none;stroke-opacity:1"
       id="path456" /><text
       transform="scale(1,-1)"
       style="font-variant:normal;font-weight:normal;font-size:8px;font-family:Arial;-inkscape-font-specification:ArialMT;writing-mode:lr-tb;fill:#231f20;fill-opacity:1;fill-rule:nonzero;stroke:none"
       id="text462"
       x="260.9472"
       y="-473.92899"><tspan
         x="260.9472 266.2832 268.9472 273.3952 277.8432 282.2912 286.2912"
         y="-473.92899"
         id="tspan460">Product</tspan></text><text
       transform="scale(1,-1)"
       style="font-variant:normal;font-weight:normal;font-size:8px;font-family:Arial;-inkscape-font-specification:ArialMT;writing-mode:lr-tb;fill:#231f20;fill-opacity:1;fill-rule:nonzero;stroke:none"
       id="text468"
       x="335.81119"
       y="-467.09698"><tspan
         x="335.81119 343.36319 346.14719 347.92319 350.14719"
         y="-467.09698"
         id="tspan466">Write</tspan></text><text
       transform="scale(1,-1)"
       style="font-variant:normal;font-weight:normal;font-size:8px;font-family:Arial;-inkscape-font-specification:ArialMT;writing-mode:lr-tb;fill:#231f20;fill-opacity:1;fill-rule:nonzero;stroke:none"
       id="text474"
       x="262.9472"
       y="-452.849"><tspan
         x="262.9472 267.3952 271.8432 274.0672 278.5152 280.2912 282.5152"
         y="-452.849"
         id="tspan472">64 bits</tspan></text><path
       d="m 454.451,475.846 c 0,-8.147 -10.297,-14.75 -23,-14.75 -12.703,0 -23.001,6.603 -23.001,14.75 0,8.146 10.298,14.749 23.001,14.749 12.703,0 23,-6.603 23,-14.749"
       style="fill:#ffffff;fill-opacity:1;fill-rule:nonzero;stroke:none"
       id="path476" /><path
       d="m 454.451,475.846 c 0,-8.147 -10.297,-14.75 -23,-14.75 -12.703,0 -23.001,6.603 -23.001,14.75 0,8.146 10.298,14.749 23.001,14.749 12.703,0 23,-6.603 23,-14.749 z"
       style="fill:none;stroke:#231f20;stroke-width:1;stroke-linecap:butt;stroke-linejoin:miter;stroke-miterlimit:4;stroke-dasharray:none;stroke-opacity:1"
       id="path480" /><text
       transform="scale(1,-1)"
       style="font-variant:normal;font-weight:normal;font-size:8px;font-family:Arial;-inkscape-font-specification:ArialMT;writing-mode:lr-tb;fill:#231f20;fill-opacity:1;fill-rule:nonzero;stroke:none"
       id="text486"
       x="418.05789"
       y="-477.59601"><tspan
         x="418.05789 423.83389 428.28189 432.72989 434.95389 437.61789 442.06589"
         y="-477.59601"
         id="tspan484">Control</tspan></text><text
       transform="scale(1,-1)"
       style="font-variant:normal;font-weight:normal;font-size:8px;font-family:Arial;-inkscape-font-specification:ArialMT;writing-mode:lr-tb;fill:#231f20;fill-opacity:1;fill-rule:nonzero;stroke:none"
       id="text492"
       x="424.49789"
       y="-467.996"><tspan
         x="424.49789 426.72189 431.16989 435.16989"
         y="-467.996"
         id="tspan490">test</tspan></text><text
       transform="scale(1,-1)"
       style="font-variant:normal;font-weight:normal;font-size:8px;font-family:Arial;-inkscape-font-specification:ArialMT;writing-mode:lr-tb;fill:#00adef;fill-opacity:1;fill-rule:nonzero;stroke:none"
       id="text498"
       x="320.17789"
       y="-479.09201"><tspan
         x="320.17789 325.51389 329.96191 331.73792 333.96191 336.18591 338.40991 341.19391 342.96991 347.41791 351.86591"
         y="-479.09201"
         id="tspan496">Shift right</tspan></text><path
       d="m 261.867,495.845 h 19"
       style="fill:none;stroke:#00adef;stroke-width:1;stroke-linecap:butt;stroke-linejoin:miter;stroke-miterlimit:4;stroke-dasharray:none;stroke-opacity:1"
       id="path502" /><path
       d="m 283.081,496.806 c -1.55,0.469 -2.557,0.9 -3.8,1.398 v -4.728 c 0.444,0.211 2.25,0.93 3.8,1.398 1.659,0.502 3.163,0.844 4.139,0.967 -0.976,0.121 -2.48,0.465 -4.139,0.965"
       style="fill:#00adef;fill-opacity:1;fill-rule:nonzero;stroke:none"
       id="path504" /></g></svg>
