<?xml version="1.0" encoding="UTF-8" standalone="no"?>
<svg
   xmlns:dc="http://purl.org/dc/elements/1.1/"
   xmlns:cc="http://creativecommons.org/ns#"
   xmlns:rdf="http://www.w3.org/1999/02/22-rdf-syntax-ns#"
   xmlns:svg="http://www.w3.org/2000/svg"
   xmlns="http://www.w3.org/2000/svg"
   xmlns:sodipodi="http://sodipodi.sourceforge.net/DTD/sodipodi-0.dtd"
   xmlns:inkscape="http://www.inkscape.org/namespaces/inkscape"
   version="1.1"
   id="svg2"
   xml:space="preserve"
   width="907.10657"
   height="591.23083"
   viewBox="0 0 907.10657 591.23083"
   sodipodi:docname="page.svg"
   inkscape:version="1.0.2 (1.0.2+r75+1)"><metadata
     id="metadata8"><rdf:RDF><cc:Work
         rdf:about=""><dc:format>image/svg+xml</dc:format><dc:type
           rdf:resource="http://purl.org/dc/dcmitype/StillImage" /><dc:title></dc:title></cc:Work></rdf:RDF></metadata><defs
     id="defs6"><clipPath
       clipPathUnits="userSpaceOnUse"
       id="clipPath18"><path
         d="M 0,1.2207e-4 H 720 V 540.00012 H 0 Z"
         clip-rule="evenodd"
         id="path16" /></clipPath><linearGradient
       x1="100.8"
       y1="615.59998"
       x2="619.20001"
       y2="-75.599998"
       gradientUnits="userSpaceOnUse"
       spreadMethod="pad"
       id="linearGradient24"><stop
         style="stop-opacity:1;stop-color:#ffffff"
         offset="0"
         id="stop20" /><stop
         style="stop-opacity:1;stop-color:#ffffff"
         offset="1"
         id="stop22" /></linearGradient><clipPath
       clipPathUnits="userSpaceOnUse"
       id="clipPath34"><path
         d="M 0,1.2207e-4 H 720 V 540.00012 H 0 Z"
         clip-rule="evenodd"
         id="path32" /></clipPath><clipPath
       clipPathUnits="userSpaceOnUse"
       id="clipPath44"><path
         d="M 1.0729e-5,0 H 720.00001 V 540 H 1.0729e-5 Z"
         clip-rule="evenodd"
         id="path42" /></clipPath><clipPath
       clipPathUnits="userSpaceOnUse"
       id="clipPath56"><path
         d="M 1.0729e-5,0 H 720.00001 V 540 H 1.0729e-5 Z"
         clip-rule="evenodd"
         id="path54" /></clipPath><clipPath
       clipPathUnits="userSpaceOnUse"
       id="clipPath68"><path
         d="M 0,3.0518e-4 H 720 V 540.00031 H 0 Z"
         clip-rule="evenodd"
         id="path66" /></clipPath><clipPath
       clipPathUnits="userSpaceOnUse"
       id="clipPath80"><path
         d="M 1.0729e-5,0 H 720.00001 V 540 H 1.0729e-5 Z"
         clip-rule="evenodd"
         id="path78" /></clipPath><clipPath
       clipPathUnits="userSpaceOnUse"
       id="clipPath100"><path
         d="M 1.0729e-5,0 H 720.00001 V 540 H 1.0729e-5 Z"
         clip-rule="evenodd"
         id="path98" /></clipPath><clipPath
       clipPathUnits="userSpaceOnUse"
       id="clipPath120"><path
         d="M 1.0729e-5,0 H 720.00001 V 540 H 1.0729e-5 Z"
         clip-rule="evenodd"
         id="path118" /></clipPath><clipPath
       clipPathUnits="userSpaceOnUse"
       id="clipPath132"><path
         d="M 1.0729e-5,0 H 720.00001 V 540 H 1.0729e-5 Z"
         clip-rule="evenodd"
         id="path130" /></clipPath><clipPath
       clipPathUnits="userSpaceOnUse"
       id="clipPath144"><path
         d="M 1.0729e-5,0 H 720.00001 V 540 H 1.0729e-5 Z"
         clip-rule="evenodd"
         id="path142" /></clipPath><clipPath
       clipPathUnits="userSpaceOnUse"
       id="clipPath170"><path
         d="M 1.0729e-5,0 H 720.00001 V 540 H 1.0729e-5 Z"
         clip-rule="evenodd"
         id="path168" /></clipPath><clipPath
       clipPathUnits="userSpaceOnUse"
       id="clipPath182"><path
         d="M 1.0729e-5,0 H 720.00001 V 540 H 1.0729e-5 Z"
         clip-rule="evenodd"
         id="path180" /></clipPath><clipPath
       clipPathUnits="userSpaceOnUse"
       id="clipPath194"><path
         d="M 1.0729e-5,0 H 720.00001 V 540 H 1.0729e-5 Z"
         clip-rule="evenodd"
         id="path192" /></clipPath><clipPath
       clipPathUnits="userSpaceOnUse"
       id="clipPath206"><path
         d="M 1.0729e-5,0 H 720.00001 V 540 H 1.0729e-5 Z"
         clip-rule="evenodd"
         id="path204" /></clipPath><clipPath
       clipPathUnits="userSpaceOnUse"
       id="clipPath218"><path
         d="M 1.0729e-5,0 H 720.00001 V 540 H 1.0729e-5 Z"
         clip-rule="evenodd"
         id="path216" /></clipPath><clipPath
       clipPathUnits="userSpaceOnUse"
       id="clipPath230"><path
         d="M 1.0729e-5,0 H 720.00001 V 540 H 1.0729e-5 Z"
         clip-rule="evenodd"
         id="path228" /></clipPath><clipPath
       clipPathUnits="userSpaceOnUse"
       id="clipPath242"><path
         d="M 1.0729e-5,0 H 720.00001 V 540 H 1.0729e-5 Z"
         clip-rule="evenodd"
         id="path240" /></clipPath><clipPath
       clipPathUnits="userSpaceOnUse"
       id="clipPath254"><path
         d="M 1.0729e-5,0 H 720.00001 V 540 H 1.0729e-5 Z"
         clip-rule="evenodd"
         id="path252" /></clipPath><clipPath
       clipPathUnits="userSpaceOnUse"
       id="clipPath266"><path
         d="M 1.0729e-5,0 H 720.00001 V 540 H 1.0729e-5 Z"
         clip-rule="evenodd"
         id="path264" /></clipPath><clipPath
       clipPathUnits="userSpaceOnUse"
       id="clipPath296"><path
         d="M 1.0729e-5,0 H 720.00001 V 540 H 1.0729e-5 Z"
         clip-rule="evenodd"
         id="path294" /></clipPath><clipPath
       clipPathUnits="userSpaceOnUse"
       id="clipPath310"><path
         d="M 1.0729e-5,0 H 720.00001 V 540 H 1.0729e-5 Z"
         clip-rule="evenodd"
         id="path308" /></clipPath><clipPath
       clipPathUnits="userSpaceOnUse"
       id="clipPath322"><path
         d="M 1.0729e-5,0 H 720.00001 V 540 H 1.0729e-5 Z"
         clip-rule="evenodd"
         id="path320" /></clipPath><clipPath
       clipPathUnits="userSpaceOnUse"
       id="clipPath336"><path
         d="M 1.0729e-5,0 H 720.00001 V 540 H 1.0729e-5 Z"
         clip-rule="evenodd"
         id="path334" /></clipPath><clipPath
       clipPathUnits="userSpaceOnUse"
       id="clipPath348"><path
         d="M 1.0729e-5,0 H 720.00001 V 540 H 1.0729e-5 Z"
         clip-rule="evenodd"
         id="path346" /></clipPath><clipPath
       clipPathUnits="userSpaceOnUse"
       id="clipPath370"><path
         d="M 1.0729e-5,0 H 720.00001 V 540 H 1.0729e-5 Z"
         clip-rule="evenodd"
         id="path368" /></clipPath><clipPath
       clipPathUnits="userSpaceOnUse"
       id="clipPath384"><path
         d="M 1.0729e-5,0 H 720.00001 V 540 H 1.0729e-5 Z"
         clip-rule="evenodd"
         id="path382" /></clipPath><clipPath
       clipPathUnits="userSpaceOnUse"
       id="clipPath398"><path
         d="M 1.0729e-5,0 H 720.00001 V 540 H 1.0729e-5 Z"
         clip-rule="evenodd"
         id="path396" /></clipPath><clipPath
       clipPathUnits="userSpaceOnUse"
       id="clipPath410"><path
         d="M 1.0729e-5,0 H 720.00001 V 540 H 1.0729e-5 Z"
         clip-rule="evenodd"
         id="path408" /></clipPath></defs><sodipodi:namedview
     pagecolor="#ffffff"
     bordercolor="#666666"
     borderopacity="1"
     objecttolerance="10"
     gridtolerance="10"
     guidetolerance="10"
     inkscape:pageopacity="0"
     inkscape:pageshadow="2"
     inkscape:window-width="1920"
     inkscape:window-height="1008"
     id="namedview4"
     showgrid="false"
     inkscape:zoom="1.1638889"
     inkscape:cx="450.62661"
     inkscape:cy="212.7049"
     inkscape:window-x="0"
     inkscape:window-y="0"
     inkscape:window-maximized="1"
     inkscape:current-layer="g10" /><g
     id="g10"
     inkscape:groupmode="layer"
     inkscape:label="!!!!!计算机组成ppt"
     transform="matrix(1.3333333,0,0,-1.3333333,-29.373389,641.43998)"><path
       d="m 96.06,95.94 h 180 v 168 h -180 z"
       style="fill:#ffffcc;fill-opacity:0.50196;fill-rule:evenodd;stroke:none"
       id="path86" /><path
       d="m 96.06,95.94 h 180 v 168 h -180 z"
       style="fill:none;stroke:#000000;stroke-width:2.28;stroke-linecap:butt;stroke-linejoin:miter;stroke-miterlimit:10;stroke-dasharray:none;stroke-opacity:1"
       id="path88" /><path
       d="m 246.06,299.94 c 0,13.25 12.09,24 27,24 14.91,0 27,-10.75 27,-24 0,-13.25 -12.09,-24 -27,-24 -14.91,0 -27,10.75 -27,24 z"
       style="fill:#ffffcc;fill-opacity:0.50196;fill-rule:evenodd;stroke:none"
       id="path90" /><path
       d="m 246.06,299.94 c 0,13.25 12.09,24 27,24 14.91,0 27,-10.75 27,-24 0,-13.25 -12.09,-24 -27,-24 -14.91,0 -27,10.75 -27,24 z"
       style="fill:none;stroke:#000000;stroke-width:2.28;stroke-linecap:butt;stroke-linejoin:round;stroke-miterlimit:10;stroke-dasharray:none;stroke-opacity:1"
       id="path92" /><g
       id="g94"><g
         id="g96"
         clip-path="url(#clipPath100)"><text
           transform="matrix(1,0,0,-1,263.93,288.19)"
           style="font-variant:normal;font-weight:bold;font-size:32.04px;font-family:'Times New Roman';-inkscape-font-specification:'Times New Roman, Bold';writing-mode:lr-tb;fill:#cc6600;fill-opacity:1;fill-rule:nonzero;stroke:none"
           id="text104"><tspan
             x="0"
             y="0"
             id="tspan102">+</tspan></text></g></g><path
       d="m 348.06,443.94 v -42"
       style="fill:none;stroke:#000000;stroke-width:2.28;stroke-linecap:butt;stroke-linejoin:round;stroke-miterlimit:10;stroke-dasharray:none;stroke-opacity:1"
       id="path106" /><path
       d="m 492.06,317.94 v -42"
       style="fill:none;stroke:#000000;stroke-width:2.28;stroke-linecap:butt;stroke-linejoin:round;stroke-miterlimit:10;stroke-dasharray:none;stroke-opacity:1"
       id="path108" /><path
       d="m 258.06,263.94 v -168"
       style="fill:none;stroke:#000000;stroke-width:2.28;stroke-linecap:butt;stroke-linejoin:round;stroke-miterlimit:10;stroke-dasharray:none;stroke-opacity:1"
       id="path110" /><path
       d="m 234.06,263.94 v -168"
       style="fill:none;stroke:#000000;stroke-width:2.28;stroke-linecap:butt;stroke-linejoin:round;stroke-miterlimit:10;stroke-dasharray:none;stroke-opacity:1"
       id="path112" /><g
       id="g114"><g
         id="g116"
         clip-path="url(#clipPath120)"><text
           transform="matrix(1,0,0,-1,11.328,40.896)"
           style="font-variant:normal;font-weight:normal;font-size:27.96px;font-family:'新宋体';-inkscape-font-specification:'新宋体';writing-mode:lr-tb;fill:#cc6600;fill-opacity:1;fill-rule:nonzero;stroke:#cc6600;stroke-width:0.79886;stroke-linecap:butt;stroke-linejoin:round;stroke-miterlimit:10;stroke-dasharray:none;stroke-opacity:1"
           id="text124"><tspan
             x="0 28.18368 56.367359 84.551041 112.73472 140.9184 168.96228 197.14597 225.18983"
             y="0"
             sodipodi:role="line"
             id="tspan122">（在内存中）控制位</tspan></text></g></g><g
       id="g126"><g
         id="g128"
         clip-path="url(#clipPath132)"><text
           transform="matrix(1,0,0,-1,271.78,40.896)"
           style="font-variant:normal;font-weight:normal;font-size:27.96px;font-family:'新宋体';-inkscape-font-specification:'新宋体';writing-mode:lr-tb;fill:#cc6600;fill-opacity:1;fill-rule:nonzero;stroke:#cc6600;stroke-width:0.79886;stroke-linecap:butt;stroke-linejoin:round;stroke-miterlimit:10;stroke-dasharray:none;stroke-opacity:1"
           id="text136"><tspan
             x="0 28.18368 56.227558"
             y="0"
             sodipodi:role="line"
             id="tspan134">有效位</tspan></text></g></g><g
       id="g138"><g
         id="g140"
         clip-path="url(#clipPath144)"><text
           transform="matrix(1,0,0,-1,57.81,136.01)"
           style="font-variant:normal;font-weight:normal;font-size:32.04px;font-family:'新宋体';-inkscape-font-specification:'新宋体';writing-mode:lr-tb;fill:#cc6600;fill-opacity:1;fill-rule:nonzero;stroke:#cc6600;stroke-width:0.91543;stroke-linecap:butt;stroke-linejoin:round;stroke-miterlimit:10;stroke-dasharray:none;stroke-opacity:1"
           id="text150"><tspan
             x="0"
             y="0"
             id="tspan146">页</tspan><tspan
             x="0"
             y="31.559999"
             id="tspan148">表</tspan></text></g></g><path
       d="m 96.06,239.94 h 180"
       style="fill:none;stroke:#000000;stroke-width:2.28;stroke-linecap:butt;stroke-linejoin:round;stroke-miterlimit:10;stroke-dasharray:none;stroke-opacity:1"
       id="path152" /><path
       d="m 96.06,215.94 h 180"
       style="fill:none;stroke:#000000;stroke-width:2.28;stroke-linecap:butt;stroke-linejoin:round;stroke-miterlimit:10;stroke-dasharray:none;stroke-opacity:1"
       id="path154" /><path
       d="m 96.06,191.94 h 180"
       style="fill:none;stroke:#000000;stroke-width:2.28;stroke-linecap:butt;stroke-linejoin:round;stroke-miterlimit:10;stroke-dasharray:none;stroke-opacity:1"
       id="path156" /><path
       d="m 96.06,167.94 h 180"
       style="fill:none;stroke:#000000;stroke-width:2.28;stroke-linecap:butt;stroke-linejoin:round;stroke-miterlimit:10;stroke-dasharray:none;stroke-opacity:1"
       id="path158" /><path
       d="m 96.06,143.94 h 180"
       style="fill:none;stroke:#000000;stroke-width:2.28;stroke-linecap:butt;stroke-linejoin:round;stroke-miterlimit:10;stroke-dasharray:none;stroke-opacity:1"
       id="path160" /><path
       d="m 96.06,119.94 h 180"
       style="fill:none;stroke:#000000;stroke-width:2.28;stroke-linecap:butt;stroke-linejoin:round;stroke-miterlimit:10;stroke-dasharray:none;stroke-opacity:1"
       id="path162" /><g
       id="g164"><g
         id="g166"
         clip-path="url(#clipPath170)"><text
           transform="matrix(1,0,0,-1,388.3,454.99)"
           style="font-variant:normal;font-weight:normal;font-size:27.984px;font-family:'新宋体';-inkscape-font-specification:'新宋体';writing-mode:lr-tb;fill:#cc6600;fill-opacity:1;fill-rule:nonzero;stroke:#cc6600;stroke-width:0.79954;stroke-linecap:butt;stroke-linejoin:round;stroke-miterlimit:10;stroke-dasharray:none;stroke-opacity:1"
           id="text174"><tspan
             x="0 28.224001 56.448002"
             y="0"
             sodipodi:role="line"
             id="tspan172">虚地址</tspan></text></g></g><g
       id="g176"><g
         id="g178"
         clip-path="url(#clipPath182)"><text
           transform="matrix(1,0,0,-1,486.72,454.99)"
           style="font-variant:normal;font-weight:bold;font-size:27.984px;font-family:'Times New Roman';-inkscape-font-specification:'Times New Roman, Bold';writing-mode:lr-tb;fill:#cc6600;fill-opacity:1;fill-rule:nonzero;stroke:none"
           id="text186"><tspan
             x="0"
             y="0"
             id="tspan184">(</tspan></text></g></g><g
       id="g188"><g
         id="g190"
         clip-path="url(#clipPath194)"><text
           transform="matrix(1,0,0,-1,496.08,454.99)"
           style="font-variant:normal;font-weight:normal;font-size:27.984px;font-family:'新宋体';-inkscape-font-specification:'新宋体';writing-mode:lr-tb;fill:#cc6600;fill-opacity:1;fill-rule:nonzero;stroke:#cc6600;stroke-width:0.79954;stroke-linecap:butt;stroke-linejoin:round;stroke-miterlimit:10;stroke-dasharray:none;stroke-opacity:1"
           id="text198"><tspan
             x="0 28.200001 56.400002 84.599998 112.8"
             y="0"
             sodipodi:role="line"
             id="tspan196">程序中给出</tspan></text></g></g><g
       id="g200"><g
         id="g202"
         clip-path="url(#clipPath206)"><text
           transform="matrix(1,0,0,-1,637.1,454.99)"
           style="font-variant:normal;font-weight:bold;font-size:27.984px;font-family:'Times New Roman';-inkscape-font-specification:'Times New Roman, Bold';writing-mode:lr-tb;fill:#cc6600;fill-opacity:1;fill-rule:nonzero;stroke:none"
           id="text210"><tspan
             x="0"
             y="0"
             id="tspan208">)</tspan></text></g></g><g
       id="g212"><g
         id="g214"
         clip-path="url(#clipPath218)"><text
           transform="matrix(1,0,0,-1,391.3,333.84)"
           style="font-variant:normal;font-weight:normal;font-size:27.96px;font-family:'新宋体';-inkscape-font-specification:'新宋体';writing-mode:lr-tb;fill:#cc6600;fill-opacity:1;fill-rule:nonzero;stroke:#cc6600;stroke-width:0.79886;stroke-linecap:butt;stroke-linejoin:round;stroke-miterlimit:10;stroke-dasharray:none;stroke-opacity:1"
           id="text222"><tspan
             x="0 28.224001 56.448002"
             y="0"
             sodipodi:role="line"
             id="tspan220">实地址</tspan></text></g></g><g
       id="g224"><g
         id="g226"
         clip-path="url(#clipPath230)"><text
           transform="matrix(1,0,0,-1,510.72,333.84)"
           style="font-variant:normal;font-weight:bold;font-size:27.96px;font-family:'Times New Roman';-inkscape-font-specification:'Times New Roman, Bold';writing-mode:lr-tb;fill:#cc6600;fill-opacity:1;fill-rule:nonzero;stroke:none"
           id="text234"><tspan
             x="0"
             y="0"
             id="tspan232">(</tspan></text></g></g><g
       id="g236"><g
         id="g238"
         clip-path="url(#clipPath242)"><text
           transform="matrix(1,0,0,-1,520.08,333.84)"
           style="font-variant:normal;font-weight:normal;font-size:27.96px;font-family:'新宋体';-inkscape-font-specification:'新宋体';writing-mode:lr-tb;fill:#cc6600;fill-opacity:1;fill-rule:nonzero;stroke:#cc6600;stroke-width:0.79886;stroke-linecap:butt;stroke-linejoin:round;stroke-miterlimit:10;stroke-dasharray:none;stroke-opacity:1"
           id="text246"><tspan
             x="0 28.200001 56.400002 84.599998 112.8"
             y="0"
             sodipodi:role="line"
             id="tspan244">读写内存用</tspan></text></g></g><g
       id="g248"><g
         id="g250"
         clip-path="url(#clipPath254)"><text
           transform="matrix(1,0,0,-1,661.1,333.84)"
           style="font-variant:normal;font-weight:bold;font-size:27.96px;font-family:'Times New Roman';-inkscape-font-specification:'Times New Roman, Bold';writing-mode:lr-tb;fill:#cc6600;fill-opacity:1;fill-rule:nonzero;stroke:none"
           id="text258"><tspan
             x="0"
             y="0"
             id="tspan256">)</tspan></text></g></g><g
       id="g260"><g
         id="g262"
         clip-path="url(#clipPath266)"><text
           transform="matrix(1,0,0,-1,21.446,259.28)"
           style="font-variant:normal;font-weight:normal;font-size:27.984px;font-family:'新宋体';-inkscape-font-specification:'新宋体';writing-mode:lr-tb;fill:#000000;fill-opacity:1;fill-rule:nonzero;stroke:#000000;stroke-width:0.79954;stroke-linecap:butt;stroke-linejoin:round;stroke-miterlimit:10;stroke-dasharray:none;stroke-opacity:1"
           id="text276"><tspan
             x="0"
             y="0"
             id="tspan268">按</tspan><tspan
             x="0"
             y="27.624001"
             id="tspan270">地</tspan><tspan
             x="0"
             y="55.248001"
             id="tspan272">址</tspan><tspan
             x="0"
             y="82.872002"
             id="tspan274">读</tspan></text></g></g><path
       d="m 480.06,358.44 9,13.5 9,-13.5 h -4.5 v -40.5 h -9 v 40.5 z"
       style="fill:#ff0000;fill-opacity:1;fill-rule:evenodd;stroke:none"
       id="path278" /><path
       d="m 480.06,358.44 9,13.5 9,-13.5 h -4.5 v -40.5 h -9 v 40.5 z"
       style="fill:none;stroke:#000000;stroke-width:2.28;stroke-linecap:butt;stroke-linejoin:miter;stroke-miterlimit:8;stroke-dasharray:none;stroke-opacity:1"
       id="path280" /><path
       d="m 336.06,452.94 h 4.5 v 27 h 9 v -27 h 4.5 l -9,-9 z"
       style="fill:#ff0000;fill-opacity:1;fill-rule:evenodd;stroke:none"
       id="path282" /><path
       d="m 336.06,452.94 h 4.5 v 27 h 9 v -27 h 4.5 l -9,-9 z"
       style="fill:none;stroke:#000000;stroke-width:2.28;stroke-linecap:butt;stroke-linejoin:miter;stroke-miterlimit:8;stroke-dasharray:none;stroke-opacity:1"
       id="path284" /><path
       d="m 223.05,65.374 21.17,37.056 -1.98,1.13 -21.17,-37.054 z m 22.59,34.926 0.42,7.64 -6.36,-4.24 z"
       style="fill:#000000;fill-opacity:1;fill-rule:nonzero;stroke:none"
       id="path286" /><path
       d="m 299.19,65.198 -32.29,37.672 1.74,1.48 32.29,-37.668 z m -33.28,35.322 -1.85,7.42 7.05,-2.97 z"
       style="fill:#000000;fill-opacity:1;fill-rule:nonzero;stroke:none"
       id="path288" /><g
       id="g290"><g
         id="g292"
         clip-path="url(#clipPath296)"><text
           transform="matrix(1,0,0,-1,115.39,170.81)"
           style="font-variant:normal;font-weight:normal;font-size:24px;font-family:'宋体';-inkscape-font-specification:'宋体';writing-mode:lr-tb;fill:#000000;fill-opacity:1;fill-rule:nonzero;stroke:#000000;stroke-width:0.68571;stroke-linecap:butt;stroke-linejoin:miter;stroke-miterlimit:8;stroke-dasharray:none;stroke-opacity:1"
           id="text300"><tspan
             x="0 24.120001 48.240002"
             y="0"
             sodipodi:role="line"
             id="tspan298">实页号</tspan></text></g></g><path
       d="m 222.06,400.86 h 263.52 v 43.08 H 222.06 Z"
       style="fill:none;stroke:#000000;stroke-width:2.28;stroke-linecap:butt;stroke-linejoin:miter;stroke-miterlimit:8;stroke-dasharray:none;stroke-opacity:1"
       id="path302" /><g
       id="g304"><g
         id="g306"
         clip-path="url(#clipPath310)"><text
           transform="matrix(1,0,0,-1,230.98,411.84)"
           style="font-variant:normal;font-weight:normal;font-size:27.96px;font-family:'宋体';-inkscape-font-specification:'宋体';writing-mode:lr-tb;fill:#000000;fill-opacity:1;fill-rule:nonzero;stroke:#000000;stroke-width:0.79886;stroke-linecap:butt;stroke-linejoin:miter;stroke-miterlimit:8;stroke-dasharray:none;stroke-opacity:1"
           id="text314"><tspan
             x="0 28.08 56.16"
             y="0"
             sodipodi:role="line"
             id="tspan312">虚页号</tspan></text></g></g><g
       id="g316"><g
         id="g318"
         clip-path="url(#clipPath322)"><text
           transform="matrix(1,0,0,-1,364.32,411.84)"
           style="font-variant:normal;font-weight:normal;font-size:27.96px;font-family:'宋体';-inkscape-font-specification:'宋体';writing-mode:lr-tb;fill:#000000;fill-opacity:1;fill-rule:nonzero;stroke:#000000;stroke-width:0.79886;stroke-linecap:butt;stroke-linejoin:miter;stroke-miterlimit:8;stroke-dasharray:none;stroke-opacity:1"
           id="text326"><tspan
             x="0 28.08 56.16 84.239998"
             y="0"
             sodipodi:role="line"
             id="tspan324">页内地址</tspan></text></g></g><path
       d="m 384.06,274.86 h 263.52 v 43.08 H 384.06 Z"
       style="fill:none;stroke:#000000;stroke-width:2.28;stroke-linecap:butt;stroke-linejoin:miter;stroke-miterlimit:8;stroke-dasharray:none;stroke-opacity:1"
       id="path328" /><g
       id="g330"><g
         id="g332"
         clip-path="url(#clipPath336)"><text
           transform="matrix(1,0,0,-1,393,285.82)"
           style="font-variant:normal;font-weight:normal;font-size:27.96px;font-family:'宋体';-inkscape-font-specification:'宋体';writing-mode:lr-tb;fill:#000000;fill-opacity:1;fill-rule:nonzero;stroke:#000000;stroke-width:0.79886;stroke-linecap:butt;stroke-linejoin:miter;stroke-miterlimit:8;stroke-dasharray:none;stroke-opacity:1"
           id="text340"><tspan
             x="0 28.08 56.16"
             y="0"
             sodipodi:role="line"
             id="tspan338">实页号</tspan></text></g></g><g
       id="g342"><g
         id="g344"
         clip-path="url(#clipPath348)"><text
           transform="matrix(1,0,0,-1,526.34,285.82)"
           style="font-variant:normal;font-weight:normal;font-size:27.96px;font-family:'宋体';-inkscape-font-specification:'宋体';writing-mode:lr-tb;fill:#000000;fill-opacity:1;fill-rule:nonzero;stroke:#000000;stroke-width:0.79886;stroke-linecap:butt;stroke-linejoin:miter;stroke-miterlimit:8;stroke-dasharray:none;stroke-opacity:1"
           id="text352"><tspan
             x="0 28.08 56.16 84.239998"
             y="0"
             sodipodi:role="line"
             id="tspan350">页内地址</tspan></text></g></g><path
       d="m 240.06,355.44 h 30 c 0.83,0 1.5,-0.67 1.5,-1.5 v -22.5 h -3 v 22.5 l 1.5,-1.5 h -30 z m 34.5,-22.5 -4.5,-9 -4.5,9 z"
       style="fill:#000000;fill-opacity:1;fill-rule:nonzero;stroke:none"
       id="path354" /><path
       d="m 246.06,298.44 h -192 l 1.5,1.5 v -120 l -1.5,1.5 h 34.5 v -3 h -34.5 c -0.828,0 -1.5,0.67 -1.5,1.5 v 120 c 0,0.83 0.672,1.5 1.5,1.5 h 192 z m -159,-114 9,-4.5 -9,-4.5 z"
       style="fill:#000000;fill-opacity:1;fill-rule:nonzero;stroke:none"
       id="path356" /><path
       d="m 216.06,181.44 h 132 l -1.5,-1.5 v 66 c 0,0.83 0.67,1.5 1.5,1.5 h 84 l -1.5,-1.5 v 22.5 h 3 v -22.5 c 0,-0.83 -0.67,-1.5 -1.5,-1.5 h -84 l 1.5,1.5 v -66 c 0,-0.83 -0.67,-1.5 -1.5,-1.5 h -132 z m 211.5,85.5 4.5,9 4.5,-9 z"
       style="fill:#000000;fill-opacity:1;fill-rule:nonzero;stroke:none"
       id="path358" /><path
       d="m 289.56,401.94 v -76.5 h -3 v 76.5 z m 3,-75 -4.5,-9 -4.5,9 z"
       style="fill:#000000;fill-opacity:1;fill-rule:nonzero;stroke:none"
       id="path360" /><path
       d="M 84.06,334.86 H 242.1 v 43.08 H 84.06 Z"
       style="fill:none;stroke:#000000;stroke-width:2.28;stroke-linecap:butt;stroke-linejoin:miter;stroke-miterlimit:8;stroke-dasharray:none;stroke-opacity:1"
       id="path362" /><g
       id="g364"><g
         id="g366"
         clip-path="url(#clipPath370)"><text
           transform="matrix(1,0,0,-1,92.832,345.84)"
           style="font-variant:normal;font-weight:normal;font-size:27.96px;font-family:'宋体';-inkscape-font-specification:'宋体';writing-mode:lr-tb;fill:#000000;fill-opacity:1;fill-rule:nonzero;stroke:#000000;stroke-width:0.79886;stroke-linecap:butt;stroke-linejoin:miter;stroke-miterlimit:8;stroke-dasharray:none;stroke-opacity:1"
           id="text374"><tspan
             x="0 28.08 56.16 84.239998 112.32"
             y="0"
             sodipodi:role="line"
             id="tspan372">页表基地址</tspan></text></g></g><path
       d="m 360,168 h 342 v 48 H 360 Z"
       style="fill:none;stroke:#000000;stroke-width:0.72;stroke-linecap:butt;stroke-linejoin:miter;stroke-miterlimit:8;stroke-dasharray:none;stroke-opacity:1"
       id="path376" /><g
       id="g378"><g
         id="g380"
         clip-path="url(#clipPath384)"><text
           transform="matrix(1,0,0,-1,375,182.81)"
           style="font-variant:normal;font-weight:normal;font-size:24px;font-family:'宋体';-inkscape-font-specification:'宋体';writing-mode:lr-tb;fill:#000000;fill-opacity:1;fill-rule:nonzero;stroke:none"
           id="text388"><tspan
             x="0 24 48 72 96 120 144 168 192 216 240 264 288"
             y="0"
             sodipodi:role="line"
             id="tspan386">控制位：包括修改位、替换位</tspan></text></g></g><path
       d="m 342,90 h 360 v 48 H 342 Z"
       style="fill:none;stroke:#000000;stroke-width:0.72;stroke-linecap:butt;stroke-linejoin:miter;stroke-miterlimit:8;stroke-dasharray:none;stroke-opacity:1"
       id="path390" /><g
       id="g392"><g
         id="g394"
         clip-path="url(#clipPath398)"><text
           transform="matrix(1,0,0,-1,342.1,104.78)"
           style="font-variant:normal;font-weight:normal;font-size:24px;font-family:'宋体';-inkscape-font-specification:'宋体';writing-mode:lr-tb;fill:#000000;fill-opacity:1;fill-rule:nonzero;stroke:none"
           id="text402"><tspan
             x="0 24.024 48.048 72.071999 96.096001 120.12 144.144 168.168 192.192 216.216 240.24001 264.26401 288.28799 312.31201 336.336"
             y="0"
             sodipodi:role="line"
             id="tspan400">有效位：表示该页是否已装入主存</tspan></text></g></g></g></svg>
