<?xml version="1.0" encoding="UTF-8" standalone="no"?>
<svg
   xmlns:dc="http://purl.org/dc/elements/1.1/"
   xmlns:cc="http://creativecommons.org/ns#"
   xmlns:rdf="http://www.w3.org/1999/02/22-rdf-syntax-ns#"
   xmlns:svg="http://www.w3.org/2000/svg"
   xmlns="http://www.w3.org/2000/svg"
   xmlns:sodipodi="http://sodipodi.sourceforge.net/DTD/sodipodi-0.dtd"
   xmlns:inkscape="http://www.inkscape.org/namespaces/inkscape"
   version="1.1"
   id="svg2"
   xml:space="preserve"
   width="673.13708"
   height="382.07513"
   viewBox="0 0 673.13708 382.07513"
   sodipodi:docname="raid4.svg"
   inkscape:version="1.0.2 (1.0.2+r75+1)"><metadata
     id="metadata8"><rdf:RDF><cc:Work
         rdf:about=""><dc:format>image/svg+xml</dc:format><dc:type
           rdf:resource="http://purl.org/dc/dcmitype/StillImage" /><dc:title></dc:title></cc:Work></rdf:RDF></metadata><defs
     id="defs6"><clipPath
       clipPathUnits="userSpaceOnUse"
       id="clipPath18"><path
         d="M 0,1.2207e-4 H 720 V 540.00012 H 0 Z"
         clip-rule="evenodd"
         id="path16" /></clipPath><linearGradient
       x1="100.8"
       y1="615.59998"
       x2="619.20001"
       y2="-75.599998"
       gradientUnits="userSpaceOnUse"
       spreadMethod="pad"
       id="linearGradient24"><stop
         style="stop-opacity:1;stop-color:#ffffff"
         offset="0"
         id="stop20" /><stop
         style="stop-opacity:1;stop-color:#ffffff"
         offset="1"
         id="stop22" /></linearGradient><clipPath
       clipPathUnits="userSpaceOnUse"
       id="clipPath34"><path
         d="M 0,1.2207e-4 H 720 V 540.00012 H 0 Z"
         clip-rule="evenodd"
         id="path32" /></clipPath><clipPath
       clipPathUnits="userSpaceOnUse"
       id="clipPath44"><path
         d="M 1.0729e-5,0 H 720.00001 V 540 H 1.0729e-5 Z"
         clip-rule="evenodd"
         id="path42" /></clipPath><clipPath
       clipPathUnits="userSpaceOnUse"
       id="clipPath56"><path
         d="M 1.0729e-5,0 H 720.00001 V 540 H 1.0729e-5 Z"
         clip-rule="evenodd"
         id="path54" /></clipPath><clipPath
       clipPathUnits="userSpaceOnUse"
       id="clipPath68"><path
         d="M 0,3.0518e-4 H 720 V 540.00031 H 0 Z"
         clip-rule="evenodd"
         id="path66" /></clipPath><clipPath
       clipPathUnits="userSpaceOnUse"
       id="clipPath80"><path
         d="M 1.0729e-5,0 H 720.00001 V 540 H 1.0729e-5 Z"
         clip-rule="evenodd"
         id="path78" /></clipPath><clipPath
       clipPathUnits="userSpaceOnUse"
       id="clipPath98"><path
         d="M -3.0518e-5,540 H 720 V 0 L -3.0518e-5,6.1035e-5"
         clip-rule="evenodd"
         id="path96" /></clipPath><clipPath
       clipPathUnits="userSpaceOnUse"
       id="clipPath108"><path
         d="M -1.5259e-5,540 H 720 V 0 L -3.0518e-5,6.1035e-5"
         clip-rule="evenodd"
         id="path106" /></clipPath><clipPath
       clipPathUnits="userSpaceOnUse"
       id="clipPath124"><path
         d="M -3.0518e-5,540 H 720 V 0 L -6.1035e-5,6.1035e-5"
         clip-rule="evenodd"
         id="path122" /></clipPath><clipPath
       clipPathUnits="userSpaceOnUse"
       id="clipPath134"><path
         d="M 0,540 H 720 V 0 L 0,6.1035e-5"
         clip-rule="evenodd"
         id="path132" /></clipPath><clipPath
       clipPathUnits="userSpaceOnUse"
       id="clipPath150"><path
         d="M -3.0518e-5,540 H 720 V 0 L -6.1035e-5,6.1035e-5"
         clip-rule="evenodd"
         id="path148" /></clipPath><clipPath
       clipPathUnits="userSpaceOnUse"
       id="clipPath160"><path
         d="M -3.0518e-5,540 H 720 V 0 L 0,6.1035e-5"
         clip-rule="evenodd"
         id="path158" /></clipPath><clipPath
       clipPathUnits="userSpaceOnUse"
       id="clipPath176"><path
         d="M -3.0518e-5,540 H 720 V 0 L -3.0518e-5,6.1035e-5"
         clip-rule="evenodd"
         id="path174" /></clipPath><clipPath
       clipPathUnits="userSpaceOnUse"
       id="clipPath186"><path
         d="M 0,540 H 720 V 0 L 0,6.1035e-5"
         clip-rule="evenodd"
         id="path184" /></clipPath><clipPath
       clipPathUnits="userSpaceOnUse"
       id="clipPath202"><path
         d="M -6.1035e-5,540 H 720 V 0 L 0,6.1035e-5"
         clip-rule="evenodd"
         id="path200" /></clipPath><clipPath
       clipPathUnits="userSpaceOnUse"
       id="clipPath212"><path
         d="M -6.1035e-5,540 H 720 V 0 L -1.2207e-4,6.1035e-5"
         clip-rule="evenodd"
         id="path210" /></clipPath><clipPath
       clipPathUnits="userSpaceOnUse"
       id="clipPath222"><path
         d="M 1.0729e-5,0 H 720.00001 V 540 H 1.0729e-5 Z"
         clip-rule="evenodd"
         id="path220" /></clipPath><clipPath
       clipPathUnits="userSpaceOnUse"
       id="clipPath234"><path
         d="M 1.0729e-5,0 H 720.00001 V 540 H 1.0729e-5 Z"
         clip-rule="evenodd"
         id="path232" /></clipPath><clipPath
       clipPathUnits="userSpaceOnUse"
       id="clipPath246"><path
         d="M 1.0729e-5,0 H 720.00001 V 540 H 1.0729e-5 Z"
         clip-rule="evenodd"
         id="path244" /></clipPath><clipPath
       clipPathUnits="userSpaceOnUse"
       id="clipPath258"><path
         d="M 1.0729e-5,0 H 720.00001 V 540 H 1.0729e-5 Z"
         clip-rule="evenodd"
         id="path256" /></clipPath><clipPath
       clipPathUnits="userSpaceOnUse"
       id="clipPath270"><path
         d="M 1.0729e-5,0 H 720.00001 V 540 H 1.0729e-5 Z"
         clip-rule="evenodd"
         id="path268" /></clipPath><clipPath
       clipPathUnits="userSpaceOnUse"
       id="clipPath282"><path
         d="M 1.0729e-5,0 H 720.00001 V 540 H 1.0729e-5 Z"
         clip-rule="evenodd"
         id="path280" /></clipPath><clipPath
       clipPathUnits="userSpaceOnUse"
       id="clipPath294"><path
         d="M 1.0729e-5,0 H 720.00001 V 540 H 1.0729e-5 Z"
         clip-rule="evenodd"
         id="path292" /></clipPath><clipPath
       clipPathUnits="userSpaceOnUse"
       id="clipPath306"><path
         d="M 1.0729e-5,0 H 720.00001 V 540 H 1.0729e-5 Z"
         clip-rule="evenodd"
         id="path304" /></clipPath><clipPath
       clipPathUnits="userSpaceOnUse"
       id="clipPath318"><path
         d="M 1.0729e-5,0 H 720.00001 V 540 H 1.0729e-5 Z"
         clip-rule="evenodd"
         id="path316" /></clipPath><clipPath
       clipPathUnits="userSpaceOnUse"
       id="clipPath330"><path
         d="M 1.0729e-5,0 H 720.00001 V 540 H 1.0729e-5 Z"
         clip-rule="evenodd"
         id="path328" /></clipPath><clipPath
       clipPathUnits="userSpaceOnUse"
       id="clipPath342"><path
         d="M 1.0729e-5,0 H 720.00001 V 540 H 1.0729e-5 Z"
         clip-rule="evenodd"
         id="path340" /></clipPath><clipPath
       clipPathUnits="userSpaceOnUse"
       id="clipPath354"><path
         d="M 1.0729e-5,0 H 720.00001 V 540 H 1.0729e-5 Z"
         clip-rule="evenodd"
         id="path352" /></clipPath><clipPath
       clipPathUnits="userSpaceOnUse"
       id="clipPath366"><path
         d="M 1.0729e-5,0 H 720.00001 V 540 H 1.0729e-5 Z"
         clip-rule="evenodd"
         id="path364" /></clipPath><clipPath
       clipPathUnits="userSpaceOnUse"
       id="clipPath378"><path
         d="M 1.0729e-5,0 H 720.00001 V 540 H 1.0729e-5 Z"
         clip-rule="evenodd"
         id="path376" /></clipPath><clipPath
       clipPathUnits="userSpaceOnUse"
       id="clipPath390"><path
         d="M 1.0729e-5,0 H 720.00001 V 540 H 1.0729e-5 Z"
         clip-rule="evenodd"
         id="path388" /></clipPath><clipPath
       clipPathUnits="userSpaceOnUse"
       id="clipPath402"><path
         d="M 1.0729e-5,0 H 720.00001 V 540 H 1.0729e-5 Z"
         clip-rule="evenodd"
         id="path400" /></clipPath><clipPath
       clipPathUnits="userSpaceOnUse"
       id="clipPath414"><path
         d="M 1.0729e-5,0 H 720.00001 V 540 H 1.0729e-5 Z"
         clip-rule="evenodd"
         id="path412" /></clipPath><clipPath
       clipPathUnits="userSpaceOnUse"
       id="clipPath426"><path
         d="M 1.0729e-5,0 H 720.00001 V 540 H 1.0729e-5 Z"
         clip-rule="evenodd"
         id="path424" /></clipPath><clipPath
       clipPathUnits="userSpaceOnUse"
       id="clipPath438"><path
         d="M 1.0729e-5,0 H 720.00001 V 540 H 1.0729e-5 Z"
         clip-rule="evenodd"
         id="path436" /></clipPath><clipPath
       clipPathUnits="userSpaceOnUse"
       id="clipPath450"><path
         d="M 1.0729e-5,0 H 720.00001 V 540 H 1.0729e-5 Z"
         clip-rule="evenodd"
         id="path448" /></clipPath><clipPath
       clipPathUnits="userSpaceOnUse"
       id="clipPath462"><path
         d="M 1.0729e-5,0 H 720.00001 V 540 H 1.0729e-5 Z"
         clip-rule="evenodd"
         id="path460" /></clipPath><clipPath
       clipPathUnits="userSpaceOnUse"
       id="clipPath474"><path
         d="M 1.0729e-5,0 H 720.00001 V 540 H 1.0729e-5 Z"
         clip-rule="evenodd"
         id="path472" /></clipPath><clipPath
       clipPathUnits="userSpaceOnUse"
       id="clipPath486"><path
         d="M 1.0729e-5,0 H 720.00001 V 540 H 1.0729e-5 Z"
         clip-rule="evenodd"
         id="path484" /></clipPath><clipPath
       clipPathUnits="userSpaceOnUse"
       id="clipPath498"><path
         d="M 1.0729e-5,0 H 720.00001 V 540 H 1.0729e-5 Z"
         clip-rule="evenodd"
         id="path496" /></clipPath><clipPath
       clipPathUnits="userSpaceOnUse"
       id="clipPath510"><path
         d="M 1.0729e-5,0 H 720.00001 V 540 H 1.0729e-5 Z"
         clip-rule="evenodd"
         id="path508" /></clipPath><clipPath
       clipPathUnits="userSpaceOnUse"
       id="clipPath522"><path
         d="M 1.0729e-5,0 H 720.00001 V 540 H 1.0729e-5 Z"
         clip-rule="evenodd"
         id="path520" /></clipPath><clipPath
       clipPathUnits="userSpaceOnUse"
       id="clipPath534"><path
         d="M 1.0729e-5,0 H 720.00001 V 540 H 1.0729e-5 Z"
         clip-rule="evenodd"
         id="path532" /></clipPath><clipPath
       clipPathUnits="userSpaceOnUse"
       id="clipPath546"><path
         d="M 1.0729e-5,0 H 720.00001 V 540 H 1.0729e-5 Z"
         clip-rule="evenodd"
         id="path544" /></clipPath><clipPath
       clipPathUnits="userSpaceOnUse"
       id="clipPath558"><path
         d="M 1.0729e-5,0 H 720.00001 V 540 H 1.0729e-5 Z"
         clip-rule="evenodd"
         id="path556" /></clipPath></defs><sodipodi:namedview
     pagecolor="#ffffff"
     bordercolor="#666666"
     borderopacity="1"
     objecttolerance="10"
     gridtolerance="10"
     guidetolerance="10"
     inkscape:pageopacity="0"
     inkscape:pageshadow="2"
     inkscape:window-width="1920"
     inkscape:window-height="1008"
     id="namedview4"
     showgrid="false"
     inkscape:zoom="1.1638889"
     inkscape:cx="280.0557"
     inkscape:cy="247.58261"
     inkscape:window-x="0"
     inkscape:window-y="0"
     inkscape:window-maximized="1"
     inkscape:current-layer="g10" /><g
     id="g10"
     inkscape:groupmode="layer"
     inkscape:label="!!!!!计算机组成ppt"
     transform="matrix(1.3333333,0,0,-1.3333333,-98.147623,504.47999)"><path
       d="m 138,360.75 c 0,-9.53 16.12,-17.25 36,-17.25 19.88,0 36,7.72 36,17.25 V 257.25 C 210,247.72 193.88,240 174,240 c -19.88,0 -36,7.72 -36,17.25 z"
       style="fill:#ffffff;fill-opacity:0.50196;fill-rule:evenodd;stroke:none"
       id="path86" /><path
       d="m 138,360.75 c 0,9.53 16.12,17.25 36,17.25 19.88,0 36,-7.72 36,-17.25 0,-9.53 -16.12,-17.25 -36,-17.25 -19.88,0 -36,7.72 -36,17.25 z"
       style="fill:#ffffff;fill-opacity:0.50196;fill-rule:evenodd;stroke:none"
       id="path88" /><path
       d="m 210,360.75 c 0,-9.53 -16.12,-17.25 -36,-17.25 -19.88,0 -36,7.72 -36,17.25 0,9.53 16.12,17.25 36,17.25 19.88,0 36,-7.72 36,-17.25 z m 0,0 V 257.25 C 210,247.72 193.88,240 174,240 c -19.88,0 -36,7.72 -36,17.25 v 103.5"
       style="fill:none;stroke:#000000;stroke-width:0.72;stroke-linecap:butt;stroke-linejoin:round;stroke-miterlimit:10;stroke-dasharray:none;stroke-opacity:1"
       id="path90" /><g
       id="g92"><g
         id="g94"
         clip-path="url(#clipPath98)"><path
           d="m 208.31,284.92 c -29.82,-14.47 -61.1,-11.54 -69.86,6.54"
           style="fill:none;stroke:#000000;stroke-width:0.75;stroke-linecap:butt;stroke-linejoin:round;stroke-miterlimit:10;stroke-dasharray:none;stroke-opacity:1"
           id="path100" /></g></g><g
       id="g102"><g
         id="g104"
         clip-path="url(#clipPath108)"><path
           d="m 208.93,320.54 c -29.81,-14.46 -61.09,-11.53 -69.86,6.54"
           style="fill:none;stroke:#000000;stroke-width:0.75;stroke-linecap:butt;stroke-linejoin:round;stroke-miterlimit:10;stroke-dasharray:none;stroke-opacity:1"
           id="path110" /></g></g><path
       d="m 222,360.75 c 0,-9.53 16.12,-17.25 36,-17.25 19.88,0 36,7.72 36,17.25 V 257.25 C 294,247.72 277.88,240 258,240 c -19.88,0 -36,7.72 -36,17.25 z"
       style="fill:#ffffff;fill-opacity:0.50196;fill-rule:evenodd;stroke:none"
       id="path112" /><path
       d="m 222,360.75 c 0,9.53 16.12,17.25 36,17.25 19.88,0 36,-7.72 36,-17.25 0,-9.53 -16.12,-17.25 -36,-17.25 -19.88,0 -36,7.72 -36,17.25 z"
       style="fill:#ffffff;fill-opacity:0.50196;fill-rule:evenodd;stroke:none"
       id="path114" /><path
       d="m 294,360.75 c 0,-9.53 -16.12,-17.25 -36,-17.25 -19.88,0 -36,7.72 -36,17.25 0,9.53 16.12,17.25 36,17.25 19.88,0 36,-7.72 36,-17.25 z m 0,0 V 257.25 C 294,247.72 277.88,240 258,240 c -19.88,0 -36,7.72 -36,17.25 v 103.5"
       style="fill:none;stroke:#000000;stroke-width:0.72;stroke-linecap:butt;stroke-linejoin:round;stroke-miterlimit:10;stroke-dasharray:none;stroke-opacity:1"
       id="path116" /><g
       id="g118"><g
         id="g120"
         clip-path="url(#clipPath124)"><path
           d="m 292.31,284.92 c -29.82,-14.47 -61.1,-11.54 -69.86,6.54"
           style="fill:none;stroke:#000000;stroke-width:0.75;stroke-linecap:butt;stroke-linejoin:round;stroke-miterlimit:10;stroke-dasharray:none;stroke-opacity:1"
           id="path126" /></g></g><g
       id="g128"><g
         id="g130"
         clip-path="url(#clipPath134)"><path
           d="m 292.93,320.54 c -29.81,-14.46 -61.09,-11.53 -69.86,6.54"
           style="fill:none;stroke:#000000;stroke-width:0.75;stroke-linecap:butt;stroke-linejoin:round;stroke-miterlimit:10;stroke-dasharray:none;stroke-opacity:1"
           id="path136" /></g></g><path
       d="m 306,360.75 c 0,-9.53 16.12,-17.25 36,-17.25 19.88,0 36,7.72 36,17.25 V 257.25 C 378,247.72 361.88,240 342,240 c -19.88,0 -36,7.72 -36,17.25 z"
       style="fill:#ffffff;fill-opacity:0.50196;fill-rule:evenodd;stroke:none"
       id="path138" /><path
       d="m 306,360.75 c 0,9.53 16.12,17.25 36,17.25 19.88,0 36,-7.72 36,-17.25 0,-9.53 -16.12,-17.25 -36,-17.25 -19.88,0 -36,7.72 -36,17.25 z"
       style="fill:#ffffff;fill-opacity:0.50196;fill-rule:evenodd;stroke:none"
       id="path140" /><path
       d="m 378,360.75 c 0,-9.53 -16.12,-17.25 -36,-17.25 -19.88,0 -36,7.72 -36,17.25 0,9.53 16.12,17.25 36,17.25 19.88,0 36,-7.72 36,-17.25 z m 0,0 V 257.25 C 378,247.72 361.88,240 342,240 c -19.88,0 -36,7.72 -36,17.25 v 103.5"
       style="fill:none;stroke:#000000;stroke-width:0.72;stroke-linecap:butt;stroke-linejoin:round;stroke-miterlimit:10;stroke-dasharray:none;stroke-opacity:1"
       id="path142" /><g
       id="g144"><g
         id="g146"
         clip-path="url(#clipPath150)"><path
           d="m 376.31,284.92 c -29.82,-14.47 -61.1,-11.54 -69.86,6.54"
           style="fill:none;stroke:#000000;stroke-width:0.75;stroke-linecap:butt;stroke-linejoin:round;stroke-miterlimit:10;stroke-dasharray:none;stroke-opacity:1"
           id="path152" /></g></g><g
       id="g154"><g
         id="g156"
         clip-path="url(#clipPath160)"><path
           d="m 376.93,320.54 c -29.81,-14.46 -61.09,-11.53 -69.86,6.54"
           style="fill:none;stroke:#000000;stroke-width:0.75;stroke-linecap:butt;stroke-linejoin:round;stroke-miterlimit:10;stroke-dasharray:none;stroke-opacity:1"
           id="path162" /></g></g><path
       d="m 390,360.75 c 0,-9.53 16.12,-17.25 36,-17.25 19.88,0 36,7.72 36,17.25 V 257.25 C 462,247.72 445.88,240 426,240 c -19.88,0 -36,7.72 -36,17.25 z"
       style="fill:#ffffff;fill-opacity:0.50196;fill-rule:evenodd;stroke:none"
       id="path164" /><path
       d="m 390,360.75 c 0,9.53 16.12,17.25 36,17.25 19.88,0 36,-7.72 36,-17.25 0,-9.53 -16.12,-17.25 -36,-17.25 -19.88,0 -36,7.72 -36,17.25 z"
       style="fill:#ffffff;fill-opacity:0.50196;fill-rule:evenodd;stroke:none"
       id="path166" /><path
       d="m 462,360.75 c 0,-9.53 -16.12,-17.25 -36,-17.25 -19.88,0 -36,7.72 -36,17.25 0,9.53 16.12,17.25 36,17.25 19.88,0 36,-7.72 36,-17.25 z m 0,0 V 257.25 C 462,247.72 445.88,240 426,240 c -19.88,0 -36,7.72 -36,17.25 v 103.5"
       style="fill:none;stroke:#000000;stroke-width:0.72;stroke-linecap:butt;stroke-linejoin:round;stroke-miterlimit:10;stroke-dasharray:none;stroke-opacity:1"
       id="path168" /><g
       id="g170"><g
         id="g172"
         clip-path="url(#clipPath176)"><path
           d="m 460.31,284.92 c -29.82,-14.47 -61.1,-11.54 -69.86,6.54"
           style="fill:none;stroke:#000000;stroke-width:0.75;stroke-linecap:butt;stroke-linejoin:round;stroke-miterlimit:10;stroke-dasharray:none;stroke-opacity:1"
           id="path178" /></g></g><g
       id="g180"><g
         id="g182"
         clip-path="url(#clipPath186)"><path
           d="m 460.93,320.54 c -29.81,-14.46 -61.09,-11.53 -69.86,6.54"
           style="fill:none;stroke:#000000;stroke-width:0.75;stroke-linecap:butt;stroke-linejoin:round;stroke-miterlimit:10;stroke-dasharray:none;stroke-opacity:1"
           id="path188" /></g></g><path
       d="m 474,360.75 c 0,-9.53 16.12,-17.25 36,-17.25 19.88,0 36,7.72 36,17.25 V 257.25 C 546,247.72 529.88,240 510,240 c -19.88,0 -36,7.72 -36,17.25 z"
       style="fill:#c0c0c0;fill-opacity:0.50196;fill-rule:evenodd;stroke:none"
       id="path190" /><path
       d="m 474,360.75 c 0,9.53 16.12,17.25 36,17.25 19.88,0 36,-7.72 36,-17.25 0,-9.53 -16.12,-17.25 -36,-17.25 -19.88,0 -36,7.72 -36,17.25 z"
       style="fill:#d9d9d9;fill-opacity:0.50196;fill-rule:evenodd;stroke:none"
       id="path192" /><path
       d="m 546,360.75 c 0,-9.53 -16.12,-17.25 -36,-17.25 -19.88,0 -36,7.72 -36,17.25 0,9.53 16.12,17.25 36,17.25 19.88,0 36,-7.72 36,-17.25 z m 0,0 V 257.25 C 546,247.72 529.88,240 510,240 c -19.88,0 -36,7.72 -36,17.25 v 103.5"
       style="fill:none;stroke:#000000;stroke-width:0.72;stroke-linecap:butt;stroke-linejoin:round;stroke-miterlimit:10;stroke-dasharray:none;stroke-opacity:1"
       id="path194" /><g
       id="g196"><g
         id="g198"
         clip-path="url(#clipPath202)"><path
           d="m 544.31,284.92 c -29.82,-14.47 -61.1,-11.54 -69.86,6.54"
           style="fill:none;stroke:#000000;stroke-width:0.75;stroke-linecap:butt;stroke-linejoin:round;stroke-miterlimit:10;stroke-dasharray:none;stroke-opacity:1"
           id="path204" /></g></g><g
       id="g206"><g
         id="g208"
         clip-path="url(#clipPath212)"><path
           d="m 544.93,320.54 c -29.81,-14.46 -61.09,-11.53 -69.86,6.54"
           style="fill:none;stroke:#000000;stroke-width:0.75;stroke-linecap:butt;stroke-linejoin:round;stroke-miterlimit:10;stroke-dasharray:none;stroke-opacity:1"
           id="path214" /></g></g><g
       id="g216"><g
         id="g218"
         clip-path="url(#clipPath222)"><text
           transform="matrix(1,0,0,-1,151.22,320.28)"
           style="font-variant:normal;font-weight:normal;font-size:20.04px;font-family:'Times New Roman';-inkscape-font-specification:'Times New';writing-mode:lr-tb;fill:#000000;fill-opacity:1;fill-rule:nonzero;stroke:none"
           id="text226"><tspan
             x="0 11.14224 16.71336 23.386681 28.9578 38.977798"
             y="0"
             sodipodi:role="line"
             id="tspan224">Strip0</tspan></text></g></g><g
       id="g228"><g
         id="g230"
         clip-path="url(#clipPath234)"><text
           transform="matrix(1,0,0,-1,151.22,290.28)"
           style="font-variant:normal;font-weight:normal;font-size:20.04px;font-family:'Times New Roman';-inkscape-font-specification:'Times New';writing-mode:lr-tb;fill:#000000;fill-opacity:1;fill-rule:nonzero;stroke:none"
           id="text238"><tspan
             x="0 11.14224 16.71336 23.386681 28.9578 38.977798"
             y="0"
             sodipodi:role="line"
             id="tspan236">Strip4</tspan></text></g></g><g
       id="g240"><g
         id="g242"
         clip-path="url(#clipPath246)"><text
           transform="matrix(1,0,0,-1,151.22,259.03)"
           style="font-variant:normal;font-weight:normal;font-size:20.064px;font-family:'Times New Roman';-inkscape-font-specification:'Times New';writing-mode:lr-tb;fill:#000000;fill-opacity:1;fill-rule:nonzero;stroke:none"
           id="text250"><tspan
             x="0 11.155584 16.733376 23.414688 28.912224 38.944225"
             y="0"
             sodipodi:role="line"
             id="tspan248">Strip8</tspan></text></g></g><g
       id="g252"><g
         id="g254"
         clip-path="url(#clipPath258)"><text
           transform="matrix(1,0,0,-1,235.25,320.28)"
           style="font-variant:normal;font-weight:normal;font-size:20.04px;font-family:'Times New Roman';-inkscape-font-specification:'Times New';writing-mode:lr-tb;fill:#000000;fill-opacity:1;fill-rule:nonzero;stroke:none"
           id="text262"><tspan
             x="0 11.14224 16.71336 23.386681 28.9578 38.977798"
             y="0"
             sodipodi:role="line"
             id="tspan260">Strip1</tspan></text></g></g><g
       id="g264"><g
         id="g266"
         clip-path="url(#clipPath270)"><text
           transform="matrix(1,0,0,-1,235.25,290.28)"
           style="font-variant:normal;font-weight:normal;font-size:20.04px;font-family:'Times New Roman';-inkscape-font-specification:'Times New';writing-mode:lr-tb;fill:#000000;fill-opacity:1;fill-rule:nonzero;stroke:none"
           id="text274"><tspan
             x="0 11.14224 16.71336 23.386681 28.9578 38.977798"
             y="0"
             sodipodi:role="line"
             id="tspan272">Strip5</tspan></text></g></g><g
       id="g276"><g
         id="g278"
         clip-path="url(#clipPath282)"><text
           transform="matrix(1,0,0,-1,235.25,254.28)"
           style="font-variant:normal;font-weight:normal;font-size:20.064px;font-family:'Times New Roman';-inkscape-font-specification:'Times New';writing-mode:lr-tb;fill:#000000;fill-opacity:1;fill-rule:nonzero;stroke:none"
           id="text286"><tspan
             x="0 11.155584 16.733376 23.414688 28.912224 38.944225"
             y="0"
             sodipodi:role="line"
             id="tspan284">Strip9</tspan></text></g></g><g
       id="g288"><g
         id="g290"
         clip-path="url(#clipPath294)"><text
           transform="matrix(1,0,0,-1,319.25,325.03)"
           style="font-variant:normal;font-weight:normal;font-size:20.04px;font-family:'Times New Roman';-inkscape-font-specification:'Times New';writing-mode:lr-tb;fill:#000000;fill-opacity:1;fill-rule:nonzero;stroke:none"
           id="text298"><tspan
             x="0 11.14224 16.71336 23.386681 28.9578 38.977798"
             y="0"
             sodipodi:role="line"
             id="tspan296">Strip2</tspan></text></g></g><g
       id="g300"><g
         id="g302"
         clip-path="url(#clipPath306)"><text
           transform="matrix(1,0,0,-1,319.25,290.28)"
           style="font-variant:normal;font-weight:normal;font-size:20.04px;font-family:'Times New Roman';-inkscape-font-specification:'Times New';writing-mode:lr-tb;fill:#000000;fill-opacity:1;fill-rule:nonzero;stroke:none"
           id="text310"><tspan
             x="0 11.14224 16.71336 23.386681 28.9578 38.977798"
             y="0"
             sodipodi:role="line"
             id="tspan308">Strip6</tspan></text></g></g><g
       id="g312"><g
         id="g314"
         clip-path="url(#clipPath318)"><text
           transform="matrix(1,0,0,-1,313.25,253.03)"
           style="font-variant:normal;font-weight:normal;font-size:20.064px;font-family:'Times New Roman';-inkscape-font-specification:'Times New';writing-mode:lr-tb;fill:#000000;fill-opacity:1;fill-rule:nonzero;stroke:none"
           id="text322"><tspan
             x="0 11.155584 16.733376 23.414688 28.912224 38.944225 49.05648"
             y="0"
             sodipodi:role="line"
             id="tspan320">Strip10</tspan></text></g></g><g
       id="g324"><g
         id="g326"
         clip-path="url(#clipPath330)"><text
           transform="matrix(1,0,0,-1,403.27,325.03)"
           style="font-variant:normal;font-weight:normal;font-size:20.04px;font-family:'Times New Roman';-inkscape-font-specification:'Times New';writing-mode:lr-tb;fill:#000000;fill-opacity:1;fill-rule:nonzero;stroke:none"
           id="text334"><tspan
             x="0 11.14224 16.71336 23.386681 28.9578 38.977798"
             y="0"
             sodipodi:role="line"
             id="tspan332">Strip3</tspan></text></g></g><g
       id="g336"><g
         id="g338"
         clip-path="url(#clipPath342)"><text
           transform="matrix(1,0,0,-1,403.27,290.28)"
           style="font-variant:normal;font-weight:normal;font-size:20.04px;font-family:'Times New Roman';-inkscape-font-specification:'Times New';writing-mode:lr-tb;fill:#000000;fill-opacity:1;fill-rule:nonzero;stroke:none"
           id="text346"><tspan
             x="0 11.14224 16.71336 23.386681 28.9578 38.977798"
             y="0"
             sodipodi:role="line"
             id="tspan344">Strip7</tspan></text></g></g><g
       id="g348"><g
         id="g350"
         clip-path="url(#clipPath354)"><text
           transform="matrix(1,0,0,-1,403.27,254.28)"
           style="font-variant:normal;font-weight:normal;font-size:20.064px;font-family:'Times New Roman';-inkscape-font-specification:'Times New';writing-mode:lr-tb;fill:#000000;fill-opacity:1;fill-rule:nonzero;stroke:none"
           id="text358"><tspan
             x="0 11.155584 16.733376 23.414688 28.912224 38.944225 48.35424"
             y="0"
             sodipodi:role="line"
             id="tspan356">Strip11</tspan></text></g></g><g
       id="g360"><g
         id="g362"
         clip-path="url(#clipPath366)"><text
           transform="matrix(1,0,0,-1,487.27,325.03)"
           style="font-variant:normal;font-weight:normal;font-size:20.04px;font-family:'Times New Roman';-inkscape-font-specification:'Times New';writing-mode:lr-tb;fill:#000000;fill-opacity:1;fill-rule:nonzero;stroke:none"
           id="text370"><tspan
             x="0 11.16004"
             y="0"
             sodipodi:role="line"
             id="tspan368">P0</tspan></text></g></g><g
       id="g372"><g
         id="g374"
         clip-path="url(#clipPath378)"><text
           transform="matrix(1,0,0,-1,508.54,325.03)"
           style="font-variant:normal;font-weight:normal;font-size:20.04px;font-family:'Times New Roman';-inkscape-font-specification:'Times New';writing-mode:lr-tb;fill:#000000;fill-opacity:1;fill-rule:nonzero;stroke:none"
           id="text382"><tspan
             x="0"
             y="0"
             id="tspan380">-</tspan></text></g></g><g
       id="g384"><g
         id="g386"
         clip-path="url(#clipPath390)"><text
           transform="matrix(1,0,0,-1,515.26,325.03)"
           style="font-variant:normal;font-weight:normal;font-size:20.04px;font-family:'Times New Roman';-inkscape-font-specification:'Times New';writing-mode:lr-tb;fill:#000000;fill-opacity:1;fill-rule:nonzero;stroke:none"
           id="text394"><tspan
             x="0"
             y="0"
             id="tspan392">3</tspan></text></g></g><g
       id="g396"><g
         id="g398"
         clip-path="url(#clipPath402)"><text
           transform="matrix(1,0,0,-1,487.27,289.03)"
           style="font-variant:normal;font-weight:normal;font-size:20.04px;font-family:'Times New Roman';-inkscape-font-specification:'Times New';writing-mode:lr-tb;fill:#000000;fill-opacity:1;fill-rule:nonzero;stroke:none"
           id="text406"><tspan
             x="0 11.16004"
             y="0"
             sodipodi:role="line"
             id="tspan404">P4</tspan></text></g></g><g
       id="g408"><g
         id="g410"
         clip-path="url(#clipPath414)"><text
           transform="matrix(1,0,0,-1,508.54,289.03)"
           style="font-variant:normal;font-weight:normal;font-size:20.04px;font-family:'Times New Roman';-inkscape-font-specification:'Times New';writing-mode:lr-tb;fill:#000000;fill-opacity:1;fill-rule:nonzero;stroke:none"
           id="text418"><tspan
             x="0"
             y="0"
             id="tspan416">-</tspan></text></g></g><g
       id="g420"><g
         id="g422"
         clip-path="url(#clipPath426)"><text
           transform="matrix(1,0,0,-1,515.26,289.03)"
           style="font-variant:normal;font-weight:normal;font-size:20.04px;font-family:'Times New Roman';-inkscape-font-specification:'Times New';writing-mode:lr-tb;fill:#000000;fill-opacity:1;fill-rule:nonzero;stroke:none"
           id="text430"><tspan
             x="0"
             y="0"
             id="tspan428">7</tspan></text></g></g><g
       id="g432"><g
         id="g434"
         clip-path="url(#clipPath438)"><text
           transform="matrix(1,0,0,-1,487.27,253.03)"
           style="font-variant:normal;font-weight:normal;font-size:20.064px;font-family:'Times New Roman';-inkscape-font-specification:'Times New';writing-mode:lr-tb;fill:#000000;fill-opacity:1;fill-rule:nonzero;stroke:none"
           id="text442"><tspan
             x="0 11.159994"
             y="0"
             sodipodi:role="line"
             id="tspan440">P8</tspan></text></g></g><g
       id="g444"><g
         id="g446"
         clip-path="url(#clipPath450)"><text
           transform="matrix(1,0,0,-1,508.54,253.03)"
           style="font-variant:normal;font-weight:normal;font-size:20.064px;font-family:'Times New Roman';-inkscape-font-specification:'Times New';writing-mode:lr-tb;fill:#000000;fill-opacity:1;fill-rule:nonzero;stroke:none"
           id="text454"><tspan
             x="0"
             y="0"
             id="tspan452">-</tspan></text></g></g><g
       id="g456"><g
         id="g458"
         clip-path="url(#clipPath462)"><text
           transform="matrix(1,0,0,-1,515.26,253.03)"
           style="font-variant:normal;font-weight:normal;font-size:20.064px;font-family:'Times New Roman';-inkscape-font-specification:'Times New';writing-mode:lr-tb;fill:#000000;fill-opacity:1;fill-rule:nonzero;stroke:none"
           id="text466"><tspan
             x="0 9.3599997"
             y="0"
             sodipodi:role="line"
             id="tspan464">11</tspan></text></g></g><g
       id="g468"
       transform="translate(0,27)"><g
         id="g470"
         clip-path="url(#clipPath474)"><text
           transform="matrix(1,0,0,-1,73.224,182.81)"
           style="font-variant:normal;font-weight:bold;font-size:24px;font-family:'Times New Roman';-inkscape-font-specification:'Times New Roman, Bold';writing-mode:lr-tb;fill:#000000;fill-opacity:1;fill-rule:nonzero;stroke:none"
           id="text478"><tspan
             x="0 12 18"
             y="0"
             sodipodi:role="line"
             id="tspan476">1. </tspan></text></g></g><g
       id="g480"
       transform="translate(0,27)"><g
         id="g482"
         clip-path="url(#clipPath486)"><text
           transform="matrix(1,0,0,-1,97.224,182.81)"
           style="font-variant:normal;font-weight:normal;font-size:24px;font-family:'宋体';-inkscape-font-specification:'宋体';writing-mode:lr-tb;fill:#000000;fill-opacity:1;fill-rule:nonzero;stroke:#000000;stroke-width:0.68571;stroke-linecap:butt;stroke-linejoin:round;stroke-miterlimit:10;stroke-dasharray:none;stroke-opacity:1"
           id="text490"><tspan
             x="0 24.120001 48.240002 72.360001 96.480003 120.6 144.72 168.84 192.96001 217.08 241.2 265.32001 289.44 313.56 337.67999 361.79999 385.92001"
             y="0"
             sodipodi:role="line"
             id="tspan488">不对字进行校验，也不需要驱动器同步</tspan></text></g></g><g
       id="g492"
       transform="translate(0,27)"><g
         id="g494"
         clip-path="url(#clipPath498)"><text
           transform="matrix(1,0,0,-1,73.224,139.61)"
           style="font-variant:normal;font-weight:bold;font-size:24.024px;font-family:'Times New Roman';-inkscape-font-specification:'Times New Roman, Bold';writing-mode:lr-tb;fill:#000000;fill-opacity:1;fill-rule:nonzero;stroke:none"
           id="text502"><tspan
             x="0 12 17.993999"
             y="0"
             sodipodi:role="line"
             id="tspan500">2. </tspan></text></g></g><g
       id="g504"
       transform="translate(0,27)"><g
         id="g506"
         clip-path="url(#clipPath510)"><text
           transform="matrix(1,0,0,-1,97.224,139.61)"
           style="font-variant:normal;font-weight:normal;font-size:24.024px;font-family:'宋体';-inkscape-font-specification:'宋体';writing-mode:lr-tb;fill:#000000;fill-opacity:1;fill-rule:nonzero;stroke:#000000;stroke-width:0.6864;stroke-linecap:butt;stroke-linejoin:round;stroke-miterlimit:10;stroke-dasharray:none;stroke-opacity:1"
           id="text514"><tspan
             x="0 24.120001 48.240002 72.360001 96.480003 120.6 144.72 168.84 192.96001 217.08 241.2 265.32001 289.44 313.56 337.67999 361.79999 385.92001 410.04001 434.16 458.28"
             y="0"
             sodipodi:role="line"
             id="tspan512">可以防止整块盘崩溃，但对盘上部分字节数据</tspan></text></g></g><g
       id="g516"
       transform="translate(0,27)"><g
         id="g518"
         clip-path="url(#clipPath522)"><text
           transform="matrix(1,0,0,-1,73.224,110.78)"
           style="font-variant:normal;font-weight:normal;font-size:24px;font-family:'宋体';-inkscape-font-specification:'宋体';writing-mode:lr-tb;fill:#000000;fill-opacity:1;fill-rule:nonzero;stroke:#000000;stroke-width:0.68571;stroke-linecap:butt;stroke-linejoin:round;stroke-miterlimit:10;stroke-dasharray:none;stroke-opacity:1"
           id="text526"><tspan
             x="0 24.120001 48.240002 72.360001 96.480003 120.6 144.72 168.84 192.96001 217.08"
             y="0"
             sodipodi:role="line"
             id="tspan524">出错的纠错性能相当差</tspan></text></g></g><g
       id="g528"
       transform="translate(0,27)"><g
         id="g530"
         clip-path="url(#clipPath534)"><text
           transform="matrix(1,0,0,-1,73.224,67.584)"
           style="font-variant:normal;font-weight:bold;font-size:24px;font-family:'Times New Roman';-inkscape-font-specification:'Times New Roman, Bold';writing-mode:lr-tb;fill:#000000;fill-opacity:1;fill-rule:nonzero;stroke:none"
           id="text538"><tspan
             x="0 12 18"
             y="0"
             sodipodi:role="line"
             id="tspan536">3. </tspan></text></g></g><g
       id="g540"
       transform="translate(0,27)"><g
         id="g542"
         clip-path="url(#clipPath546)"><text
           transform="matrix(1,0,0,-1,97.224,67.584)"
           style="font-variant:normal;font-weight:normal;font-size:24px;font-family:'宋体';-inkscape-font-specification:'宋体';writing-mode:lr-tb;fill:#000000;fill-opacity:1;fill-rule:nonzero;stroke:#000000;stroke-width:0.68571;stroke-linecap:butt;stroke-linejoin:round;stroke-miterlimit:10;stroke-dasharray:none;stroke-opacity:1"
           id="text550"><tspan
             x="0 24.120001 48.240002 72.360001 96.480003 120.6 144.72"
             y="0"
             sodipodi:role="line"
             id="tspan548">校验盘负载沉重</tspan></text></g></g></g></svg>
